G04 #@! TF.GenerationSoftware,KiCad,Pcbnew,9.0.7-1.fc43*
G04 #@! TF.CreationDate,2026-03-03T23:18:49+01:00*
G04 #@! TF.ProjectId,pcb_2_ninja,7063625f-325f-46e6-996e-6a612e6b6963,rev?*
G04 #@! TF.SameCoordinates,Original*
G04 #@! TF.FileFunction,Soldermask,Bot*
G04 #@! TF.FilePolarity,Negative*
%FSLAX46Y46*%
G04 Gerber Fmt 4.6, Leading zero omitted, Abs format (unit mm)*
G04 Created by KiCad (PCBNEW 9.0.7-1.fc43) date 2026-03-03 23:18:49*
%MOMM*%
%LPD*%
G01*
G04 APERTURE LIST*
G04 Aperture macros list*
%AMRoundRect*
0 Rectangle with rounded corners*
0 $1 Rounding radius*
0 $2 $3 $4 $5 $6 $7 $8 $9 X,Y pos of 4 corners*
0 Add a 4 corners polygon primitive as box body*
4,1,4,$2,$3,$4,$5,$6,$7,$8,$9,$2,$3,0*
0 Add four circle primitives for the rounded corners*
1,1,$1+$1,$2,$3*
1,1,$1+$1,$4,$5*
1,1,$1+$1,$6,$7*
1,1,$1+$1,$8,$9*
0 Add four rect primitives between the rounded corners*
20,1,$1+$1,$2,$3,$4,$5,0*
20,1,$1+$1,$4,$5,$6,$7,0*
20,1,$1+$1,$6,$7,$8,$9,0*
20,1,$1+$1,$8,$9,$2,$3,0*%
G04 Aperture macros list end*
%ADD10C,0.010000*%
%ADD11RoundRect,0.250000X-0.600000X-0.725000X0.600000X-0.725000X0.600000X0.725000X-0.600000X0.725000X0*%
%ADD12O,1.700000X1.950000*%
%ADD13C,5.400000*%
%ADD14RoundRect,0.250000X0.600000X0.725000X-0.600000X0.725000X-0.600000X-0.725000X0.600000X-0.725000X0*%
%ADD15RoundRect,0.250000X0.725000X-0.600000X0.725000X0.600000X-0.725000X0.600000X-0.725000X-0.600000X0*%
%ADD16O,1.950000X1.700000*%
%ADD17C,0.750000*%
%ADD18RoundRect,0.760000X-1.140000X-1.140000X1.140000X-1.140000X1.140000X1.140000X-1.140000X1.140000X0*%
%ADD19C,4.000000*%
%ADD20RoundRect,0.250000X0.750000X-0.600000X0.750000X0.600000X-0.750000X0.600000X-0.750000X-0.600000X0*%
%ADD21O,2.000000X1.700000*%
%ADD22C,1.712000*%
%ADD23RoundRect,0.250000X0.650000X-0.325000X0.650000X0.325000X-0.650000X0.325000X-0.650000X-0.325000X0*%
%ADD24RoundRect,0.140000X-0.140000X-0.170000X0.140000X-0.170000X0.140000X0.170000X-0.140000X0.170000X0*%
%ADD25RoundRect,0.140000X0.140000X0.170000X-0.140000X0.170000X-0.140000X-0.170000X0.140000X-0.170000X0*%
%ADD26RoundRect,0.140000X-0.170000X0.140000X-0.170000X-0.140000X0.170000X-0.140000X0.170000X0.140000X0*%
%ADD27RoundRect,0.225000X-0.225000X-0.250000X0.225000X-0.250000X0.225000X0.250000X-0.225000X0.250000X0*%
%ADD28RoundRect,0.250000X-0.325000X-0.650000X0.325000X-0.650000X0.325000X0.650000X-0.325000X0.650000X0*%
%ADD29RoundRect,0.135000X-0.135000X-0.185000X0.135000X-0.185000X0.135000X0.185000X-0.135000X0.185000X0*%
%ADD30RoundRect,0.200000X0.275000X-0.200000X0.275000X0.200000X-0.275000X0.200000X-0.275000X-0.200000X0*%
%ADD31RoundRect,0.135000X0.135000X0.185000X-0.135000X0.185000X-0.135000X-0.185000X0.135000X-0.185000X0*%
%ADD32RoundRect,0.200000X-0.200000X-0.275000X0.200000X-0.275000X0.200000X0.275000X-0.200000X0.275000X0*%
%ADD33RoundRect,0.225000X0.250000X-0.225000X0.250000X0.225000X-0.250000X0.225000X-0.250000X-0.225000X0*%
%ADD34RoundRect,0.200000X0.200000X0.275000X-0.200000X0.275000X-0.200000X-0.275000X0.200000X-0.275000X0*%
%ADD35RoundRect,0.225000X0.225000X0.250000X-0.225000X0.250000X-0.225000X-0.250000X0.225000X-0.250000X0*%
%ADD36RoundRect,0.140000X0.170000X-0.140000X0.170000X0.140000X-0.170000X0.140000X-0.170000X-0.140000X0*%
%ADD37RoundRect,0.218750X-0.218750X-0.256250X0.218750X-0.256250X0.218750X0.256250X-0.218750X0.256250X0*%
%ADD38RoundRect,0.250000X0.325000X0.650000X-0.325000X0.650000X-0.325000X-0.650000X0.325000X-0.650000X0*%
G04 APERTURE END LIST*
D10*
X141313000Y-122756000D02*
X141319000Y-122756000D01*
X141325000Y-122758000D01*
X141331000Y-122759000D01*
X141337000Y-122761000D01*
X141343000Y-122763000D01*
X141349000Y-122765000D01*
X141354000Y-122768000D01*
X141360000Y-122771000D01*
X141365000Y-122774000D01*
X141371000Y-122778000D01*
X141376000Y-122782000D01*
X141380000Y-122786000D01*
X141385000Y-122790000D01*
X141389000Y-122795000D01*
X141393000Y-122799000D01*
X141397000Y-122804000D01*
X141401000Y-122810000D01*
X141404000Y-122815000D01*
X141407000Y-122821000D01*
X141410000Y-122826000D01*
X141412000Y-122832000D01*
X141414000Y-122838000D01*
X141416000Y-122844000D01*
X141417000Y-122850000D01*
X141419000Y-122856000D01*
X141419000Y-122862000D01*
X141420000Y-122869000D01*
X141420000Y-122875000D01*
X141420000Y-123025000D01*
X141420000Y-123031000D01*
X141419000Y-123038000D01*
X141419000Y-123044000D01*
X141417000Y-123050000D01*
X141416000Y-123056000D01*
X141414000Y-123062000D01*
X141412000Y-123068000D01*
X141410000Y-123074000D01*
X141407000Y-123079000D01*
X141404000Y-123085000D01*
X141401000Y-123090000D01*
X141397000Y-123096000D01*
X141393000Y-123101000D01*
X141389000Y-123105000D01*
X141385000Y-123110000D01*
X141380000Y-123114000D01*
X141376000Y-123118000D01*
X141371000Y-123122000D01*
X141365000Y-123126000D01*
X141360000Y-123129000D01*
X141354000Y-123132000D01*
X141349000Y-123135000D01*
X141343000Y-123137000D01*
X141337000Y-123139000D01*
X141331000Y-123141000D01*
X141325000Y-123142000D01*
X141319000Y-123144000D01*
X141313000Y-123144000D01*
X141306000Y-123145000D01*
X141300000Y-123145000D01*
X140800000Y-123145000D01*
X140794000Y-123145000D01*
X140787000Y-123144000D01*
X140781000Y-123144000D01*
X140775000Y-123142000D01*
X140769000Y-123141000D01*
X140763000Y-123139000D01*
X140757000Y-123137000D01*
X140751000Y-123135000D01*
X140746000Y-123132000D01*
X140740000Y-123129000D01*
X140735000Y-123126000D01*
X140729000Y-123122000D01*
X140724000Y-123118000D01*
X140720000Y-123114000D01*
X140715000Y-123110000D01*
X140711000Y-123105000D01*
X140707000Y-123101000D01*
X140703000Y-123096000D01*
X140699000Y-123090000D01*
X140696000Y-123085000D01*
X140693000Y-123079000D01*
X140690000Y-123074000D01*
X140688000Y-123068000D01*
X140686000Y-123062000D01*
X140684000Y-123056000D01*
X140683000Y-123050000D01*
X140681000Y-123044000D01*
X140681000Y-123038000D01*
X140680000Y-123031000D01*
X140680000Y-123025000D01*
X140680000Y-122875000D01*
X140680000Y-122869000D01*
X140681000Y-122862000D01*
X140681000Y-122856000D01*
X140683000Y-122850000D01*
X140684000Y-122844000D01*
X140686000Y-122838000D01*
X140688000Y-122832000D01*
X140690000Y-122826000D01*
X140693000Y-122821000D01*
X140696000Y-122815000D01*
X140699000Y-122810000D01*
X140703000Y-122804000D01*
X140707000Y-122799000D01*
X140711000Y-122795000D01*
X140715000Y-122790000D01*
X140720000Y-122786000D01*
X140724000Y-122782000D01*
X140729000Y-122778000D01*
X140735000Y-122774000D01*
X140740000Y-122771000D01*
X140746000Y-122768000D01*
X140751000Y-122765000D01*
X140757000Y-122763000D01*
X140763000Y-122761000D01*
X140769000Y-122759000D01*
X140775000Y-122758000D01*
X140781000Y-122756000D01*
X140787000Y-122756000D01*
X140794000Y-122755000D01*
X140800000Y-122755000D01*
X141300000Y-122755000D01*
X141306000Y-122755000D01*
X141313000Y-122756000D01*
G36*
X141313000Y-122756000D02*
G01*
X141319000Y-122756000D01*
X141325000Y-122758000D01*
X141331000Y-122759000D01*
X141337000Y-122761000D01*
X141343000Y-122763000D01*
X141349000Y-122765000D01*
X141354000Y-122768000D01*
X141360000Y-122771000D01*
X141365000Y-122774000D01*
X141371000Y-122778000D01*
X141376000Y-122782000D01*
X141380000Y-122786000D01*
X141385000Y-122790000D01*
X141389000Y-122795000D01*
X141393000Y-122799000D01*
X141397000Y-122804000D01*
X141401000Y-122810000D01*
X141404000Y-122815000D01*
X141407000Y-122821000D01*
X141410000Y-122826000D01*
X141412000Y-122832000D01*
X141414000Y-122838000D01*
X141416000Y-122844000D01*
X141417000Y-122850000D01*
X141419000Y-122856000D01*
X141419000Y-122862000D01*
X141420000Y-122869000D01*
X141420000Y-122875000D01*
X141420000Y-123025000D01*
X141420000Y-123031000D01*
X141419000Y-123038000D01*
X141419000Y-123044000D01*
X141417000Y-123050000D01*
X141416000Y-123056000D01*
X141414000Y-123062000D01*
X141412000Y-123068000D01*
X141410000Y-123074000D01*
X141407000Y-123079000D01*
X141404000Y-123085000D01*
X141401000Y-123090000D01*
X141397000Y-123096000D01*
X141393000Y-123101000D01*
X141389000Y-123105000D01*
X141385000Y-123110000D01*
X141380000Y-123114000D01*
X141376000Y-123118000D01*
X141371000Y-123122000D01*
X141365000Y-123126000D01*
X141360000Y-123129000D01*
X141354000Y-123132000D01*
X141349000Y-123135000D01*
X141343000Y-123137000D01*
X141337000Y-123139000D01*
X141331000Y-123141000D01*
X141325000Y-123142000D01*
X141319000Y-123144000D01*
X141313000Y-123144000D01*
X141306000Y-123145000D01*
X141300000Y-123145000D01*
X140800000Y-123145000D01*
X140794000Y-123145000D01*
X140787000Y-123144000D01*
X140781000Y-123144000D01*
X140775000Y-123142000D01*
X140769000Y-123141000D01*
X140763000Y-123139000D01*
X140757000Y-123137000D01*
X140751000Y-123135000D01*
X140746000Y-123132000D01*
X140740000Y-123129000D01*
X140735000Y-123126000D01*
X140729000Y-123122000D01*
X140724000Y-123118000D01*
X140720000Y-123114000D01*
X140715000Y-123110000D01*
X140711000Y-123105000D01*
X140707000Y-123101000D01*
X140703000Y-123096000D01*
X140699000Y-123090000D01*
X140696000Y-123085000D01*
X140693000Y-123079000D01*
X140690000Y-123074000D01*
X140688000Y-123068000D01*
X140686000Y-123062000D01*
X140684000Y-123056000D01*
X140683000Y-123050000D01*
X140681000Y-123044000D01*
X140681000Y-123038000D01*
X140680000Y-123031000D01*
X140680000Y-123025000D01*
X140680000Y-122875000D01*
X140680000Y-122869000D01*
X140681000Y-122862000D01*
X140681000Y-122856000D01*
X140683000Y-122850000D01*
X140684000Y-122844000D01*
X140686000Y-122838000D01*
X140688000Y-122832000D01*
X140690000Y-122826000D01*
X140693000Y-122821000D01*
X140696000Y-122815000D01*
X140699000Y-122810000D01*
X140703000Y-122804000D01*
X140707000Y-122799000D01*
X140711000Y-122795000D01*
X140715000Y-122790000D01*
X140720000Y-122786000D01*
X140724000Y-122782000D01*
X140729000Y-122778000D01*
X140735000Y-122774000D01*
X140740000Y-122771000D01*
X140746000Y-122768000D01*
X140751000Y-122765000D01*
X140757000Y-122763000D01*
X140763000Y-122761000D01*
X140769000Y-122759000D01*
X140775000Y-122758000D01*
X140781000Y-122756000D01*
X140787000Y-122756000D01*
X140794000Y-122755000D01*
X140800000Y-122755000D01*
X141300000Y-122755000D01*
X141306000Y-122755000D01*
X141313000Y-122756000D01*
G37*
X141313000Y-124256000D02*
X141319000Y-124256000D01*
X141325000Y-124258000D01*
X141331000Y-124259000D01*
X141337000Y-124261000D01*
X141343000Y-124263000D01*
X141349000Y-124265000D01*
X141354000Y-124268000D01*
X141360000Y-124271000D01*
X141365000Y-124274000D01*
X141371000Y-124278000D01*
X141376000Y-124282000D01*
X141380000Y-124286000D01*
X141385000Y-124290000D01*
X141389000Y-124295000D01*
X141393000Y-124299000D01*
X141397000Y-124304000D01*
X141401000Y-124310000D01*
X141404000Y-124315000D01*
X141407000Y-124321000D01*
X141410000Y-124326000D01*
X141412000Y-124332000D01*
X141414000Y-124338000D01*
X141416000Y-124344000D01*
X141417000Y-124350000D01*
X141419000Y-124356000D01*
X141419000Y-124362000D01*
X141420000Y-124369000D01*
X141420000Y-124375000D01*
X141420000Y-124525000D01*
X141420000Y-124531000D01*
X141419000Y-124538000D01*
X141419000Y-124544000D01*
X141417000Y-124550000D01*
X141416000Y-124556000D01*
X141414000Y-124562000D01*
X141412000Y-124568000D01*
X141410000Y-124574000D01*
X141407000Y-124579000D01*
X141404000Y-124585000D01*
X141401000Y-124590000D01*
X141397000Y-124596000D01*
X141393000Y-124601000D01*
X141389000Y-124605000D01*
X141385000Y-124610000D01*
X141380000Y-124614000D01*
X141376000Y-124618000D01*
X141371000Y-124622000D01*
X141365000Y-124626000D01*
X141360000Y-124629000D01*
X141354000Y-124632000D01*
X141349000Y-124635000D01*
X141343000Y-124637000D01*
X141337000Y-124639000D01*
X141331000Y-124641000D01*
X141325000Y-124642000D01*
X141319000Y-124644000D01*
X141313000Y-124644000D01*
X141306000Y-124645000D01*
X141300000Y-124645000D01*
X140800000Y-124645000D01*
X140794000Y-124645000D01*
X140787000Y-124644000D01*
X140781000Y-124644000D01*
X140775000Y-124642000D01*
X140769000Y-124641000D01*
X140763000Y-124639000D01*
X140757000Y-124637000D01*
X140751000Y-124635000D01*
X140746000Y-124632000D01*
X140740000Y-124629000D01*
X140735000Y-124626000D01*
X140729000Y-124622000D01*
X140724000Y-124618000D01*
X140720000Y-124614000D01*
X140715000Y-124610000D01*
X140711000Y-124605000D01*
X140707000Y-124601000D01*
X140703000Y-124596000D01*
X140699000Y-124590000D01*
X140696000Y-124585000D01*
X140693000Y-124579000D01*
X140690000Y-124574000D01*
X140688000Y-124568000D01*
X140686000Y-124562000D01*
X140684000Y-124556000D01*
X140683000Y-124550000D01*
X140681000Y-124544000D01*
X140681000Y-124538000D01*
X140680000Y-124531000D01*
X140680000Y-124525000D01*
X140680000Y-124375000D01*
X140680000Y-124369000D01*
X140681000Y-124362000D01*
X140681000Y-124356000D01*
X140683000Y-124350000D01*
X140684000Y-124344000D01*
X140686000Y-124338000D01*
X140688000Y-124332000D01*
X140690000Y-124326000D01*
X140693000Y-124321000D01*
X140696000Y-124315000D01*
X140699000Y-124310000D01*
X140703000Y-124304000D01*
X140707000Y-124299000D01*
X140711000Y-124295000D01*
X140715000Y-124290000D01*
X140720000Y-124286000D01*
X140724000Y-124282000D01*
X140729000Y-124278000D01*
X140735000Y-124274000D01*
X140740000Y-124271000D01*
X140746000Y-124268000D01*
X140751000Y-124265000D01*
X140757000Y-124263000D01*
X140763000Y-124261000D01*
X140769000Y-124259000D01*
X140775000Y-124258000D01*
X140781000Y-124256000D01*
X140787000Y-124256000D01*
X140794000Y-124255000D01*
X140800000Y-124255000D01*
X141300000Y-124255000D01*
X141306000Y-124255000D01*
X141313000Y-124256000D01*
G36*
X141313000Y-124256000D02*
G01*
X141319000Y-124256000D01*
X141325000Y-124258000D01*
X141331000Y-124259000D01*
X141337000Y-124261000D01*
X141343000Y-124263000D01*
X141349000Y-124265000D01*
X141354000Y-124268000D01*
X141360000Y-124271000D01*
X141365000Y-124274000D01*
X141371000Y-124278000D01*
X141376000Y-124282000D01*
X141380000Y-124286000D01*
X141385000Y-124290000D01*
X141389000Y-124295000D01*
X141393000Y-124299000D01*
X141397000Y-124304000D01*
X141401000Y-124310000D01*
X141404000Y-124315000D01*
X141407000Y-124321000D01*
X141410000Y-124326000D01*
X141412000Y-124332000D01*
X141414000Y-124338000D01*
X141416000Y-124344000D01*
X141417000Y-124350000D01*
X141419000Y-124356000D01*
X141419000Y-124362000D01*
X141420000Y-124369000D01*
X141420000Y-124375000D01*
X141420000Y-124525000D01*
X141420000Y-124531000D01*
X141419000Y-124538000D01*
X141419000Y-124544000D01*
X141417000Y-124550000D01*
X141416000Y-124556000D01*
X141414000Y-124562000D01*
X141412000Y-124568000D01*
X141410000Y-124574000D01*
X141407000Y-124579000D01*
X141404000Y-124585000D01*
X141401000Y-124590000D01*
X141397000Y-124596000D01*
X141393000Y-124601000D01*
X141389000Y-124605000D01*
X141385000Y-124610000D01*
X141380000Y-124614000D01*
X141376000Y-124618000D01*
X141371000Y-124622000D01*
X141365000Y-124626000D01*
X141360000Y-124629000D01*
X141354000Y-124632000D01*
X141349000Y-124635000D01*
X141343000Y-124637000D01*
X141337000Y-124639000D01*
X141331000Y-124641000D01*
X141325000Y-124642000D01*
X141319000Y-124644000D01*
X141313000Y-124644000D01*
X141306000Y-124645000D01*
X141300000Y-124645000D01*
X140800000Y-124645000D01*
X140794000Y-124645000D01*
X140787000Y-124644000D01*
X140781000Y-124644000D01*
X140775000Y-124642000D01*
X140769000Y-124641000D01*
X140763000Y-124639000D01*
X140757000Y-124637000D01*
X140751000Y-124635000D01*
X140746000Y-124632000D01*
X140740000Y-124629000D01*
X140735000Y-124626000D01*
X140729000Y-124622000D01*
X140724000Y-124618000D01*
X140720000Y-124614000D01*
X140715000Y-124610000D01*
X140711000Y-124605000D01*
X140707000Y-124601000D01*
X140703000Y-124596000D01*
X140699000Y-124590000D01*
X140696000Y-124585000D01*
X140693000Y-124579000D01*
X140690000Y-124574000D01*
X140688000Y-124568000D01*
X140686000Y-124562000D01*
X140684000Y-124556000D01*
X140683000Y-124550000D01*
X140681000Y-124544000D01*
X140681000Y-124538000D01*
X140680000Y-124531000D01*
X140680000Y-124525000D01*
X140680000Y-124375000D01*
X140680000Y-124369000D01*
X140681000Y-124362000D01*
X140681000Y-124356000D01*
X140683000Y-124350000D01*
X140684000Y-124344000D01*
X140686000Y-124338000D01*
X140688000Y-124332000D01*
X140690000Y-124326000D01*
X140693000Y-124321000D01*
X140696000Y-124315000D01*
X140699000Y-124310000D01*
X140703000Y-124304000D01*
X140707000Y-124299000D01*
X140711000Y-124295000D01*
X140715000Y-124290000D01*
X140720000Y-124286000D01*
X140724000Y-124282000D01*
X140729000Y-124278000D01*
X140735000Y-124274000D01*
X140740000Y-124271000D01*
X140746000Y-124268000D01*
X140751000Y-124265000D01*
X140757000Y-124263000D01*
X140763000Y-124261000D01*
X140769000Y-124259000D01*
X140775000Y-124258000D01*
X140781000Y-124256000D01*
X140787000Y-124256000D01*
X140794000Y-124255000D01*
X140800000Y-124255000D01*
X141300000Y-124255000D01*
X141306000Y-124255000D01*
X141313000Y-124256000D01*
G37*
X141538000Y-121681000D02*
X141544000Y-121681000D01*
X141550000Y-121683000D01*
X141556000Y-121684000D01*
X141562000Y-121686000D01*
X141568000Y-121688000D01*
X141574000Y-121690000D01*
X141579000Y-121693000D01*
X141585000Y-121696000D01*
X141590000Y-121699000D01*
X141596000Y-121703000D01*
X141601000Y-121707000D01*
X141605000Y-121711000D01*
X141610000Y-121715000D01*
X141614000Y-121720000D01*
X141618000Y-121724000D01*
X141622000Y-121729000D01*
X141626000Y-121735000D01*
X141629000Y-121740000D01*
X141632000Y-121746000D01*
X141635000Y-121751000D01*
X141637000Y-121757000D01*
X141639000Y-121763000D01*
X141641000Y-121769000D01*
X141642000Y-121775000D01*
X141644000Y-121781000D01*
X141644000Y-121787000D01*
X141645000Y-121794000D01*
X141645000Y-121800000D01*
X141645000Y-122300000D01*
X141645000Y-122306000D01*
X141644000Y-122313000D01*
X141644000Y-122319000D01*
X141642000Y-122325000D01*
X141641000Y-122331000D01*
X141639000Y-122337000D01*
X141637000Y-122343000D01*
X141635000Y-122349000D01*
X141632000Y-122354000D01*
X141629000Y-122360000D01*
X141626000Y-122365000D01*
X141622000Y-122371000D01*
X141618000Y-122376000D01*
X141614000Y-122380000D01*
X141610000Y-122385000D01*
X141605000Y-122389000D01*
X141601000Y-122393000D01*
X141596000Y-122397000D01*
X141590000Y-122401000D01*
X141585000Y-122404000D01*
X141579000Y-122407000D01*
X141574000Y-122410000D01*
X141568000Y-122412000D01*
X141562000Y-122414000D01*
X141556000Y-122416000D01*
X141550000Y-122417000D01*
X141544000Y-122419000D01*
X141538000Y-122419000D01*
X141531000Y-122420000D01*
X141525000Y-122420000D01*
X141375000Y-122420000D01*
X141369000Y-122420000D01*
X141362000Y-122419000D01*
X141356000Y-122419000D01*
X141350000Y-122417000D01*
X141344000Y-122416000D01*
X141338000Y-122414000D01*
X141332000Y-122412000D01*
X141326000Y-122410000D01*
X141321000Y-122407000D01*
X141315000Y-122404000D01*
X141310000Y-122401000D01*
X141304000Y-122397000D01*
X141299000Y-122393000D01*
X141295000Y-122389000D01*
X141290000Y-122385000D01*
X141286000Y-122380000D01*
X141282000Y-122376000D01*
X141278000Y-122371000D01*
X141274000Y-122365000D01*
X141271000Y-122360000D01*
X141268000Y-122354000D01*
X141265000Y-122349000D01*
X141263000Y-122343000D01*
X141261000Y-122337000D01*
X141259000Y-122331000D01*
X141258000Y-122325000D01*
X141256000Y-122319000D01*
X141256000Y-122313000D01*
X141255000Y-122306000D01*
X141255000Y-122300000D01*
X141255000Y-121800000D01*
X141255000Y-121794000D01*
X141256000Y-121787000D01*
X141256000Y-121781000D01*
X141258000Y-121775000D01*
X141259000Y-121769000D01*
X141261000Y-121763000D01*
X141263000Y-121757000D01*
X141265000Y-121751000D01*
X141268000Y-121746000D01*
X141271000Y-121740000D01*
X141274000Y-121735000D01*
X141278000Y-121729000D01*
X141282000Y-121724000D01*
X141286000Y-121720000D01*
X141290000Y-121715000D01*
X141295000Y-121711000D01*
X141299000Y-121707000D01*
X141304000Y-121703000D01*
X141310000Y-121699000D01*
X141315000Y-121696000D01*
X141321000Y-121693000D01*
X141326000Y-121690000D01*
X141332000Y-121688000D01*
X141338000Y-121686000D01*
X141344000Y-121684000D01*
X141350000Y-121683000D01*
X141356000Y-121681000D01*
X141362000Y-121681000D01*
X141369000Y-121680000D01*
X141375000Y-121680000D01*
X141525000Y-121680000D01*
X141531000Y-121680000D01*
X141538000Y-121681000D01*
G36*
X141538000Y-121681000D02*
G01*
X141544000Y-121681000D01*
X141550000Y-121683000D01*
X141556000Y-121684000D01*
X141562000Y-121686000D01*
X141568000Y-121688000D01*
X141574000Y-121690000D01*
X141579000Y-121693000D01*
X141585000Y-121696000D01*
X141590000Y-121699000D01*
X141596000Y-121703000D01*
X141601000Y-121707000D01*
X141605000Y-121711000D01*
X141610000Y-121715000D01*
X141614000Y-121720000D01*
X141618000Y-121724000D01*
X141622000Y-121729000D01*
X141626000Y-121735000D01*
X141629000Y-121740000D01*
X141632000Y-121746000D01*
X141635000Y-121751000D01*
X141637000Y-121757000D01*
X141639000Y-121763000D01*
X141641000Y-121769000D01*
X141642000Y-121775000D01*
X141644000Y-121781000D01*
X141644000Y-121787000D01*
X141645000Y-121794000D01*
X141645000Y-121800000D01*
X141645000Y-122300000D01*
X141645000Y-122306000D01*
X141644000Y-122313000D01*
X141644000Y-122319000D01*
X141642000Y-122325000D01*
X141641000Y-122331000D01*
X141639000Y-122337000D01*
X141637000Y-122343000D01*
X141635000Y-122349000D01*
X141632000Y-122354000D01*
X141629000Y-122360000D01*
X141626000Y-122365000D01*
X141622000Y-122371000D01*
X141618000Y-122376000D01*
X141614000Y-122380000D01*
X141610000Y-122385000D01*
X141605000Y-122389000D01*
X141601000Y-122393000D01*
X141596000Y-122397000D01*
X141590000Y-122401000D01*
X141585000Y-122404000D01*
X141579000Y-122407000D01*
X141574000Y-122410000D01*
X141568000Y-122412000D01*
X141562000Y-122414000D01*
X141556000Y-122416000D01*
X141550000Y-122417000D01*
X141544000Y-122419000D01*
X141538000Y-122419000D01*
X141531000Y-122420000D01*
X141525000Y-122420000D01*
X141375000Y-122420000D01*
X141369000Y-122420000D01*
X141362000Y-122419000D01*
X141356000Y-122419000D01*
X141350000Y-122417000D01*
X141344000Y-122416000D01*
X141338000Y-122414000D01*
X141332000Y-122412000D01*
X141326000Y-122410000D01*
X141321000Y-122407000D01*
X141315000Y-122404000D01*
X141310000Y-122401000D01*
X141304000Y-122397000D01*
X141299000Y-122393000D01*
X141295000Y-122389000D01*
X141290000Y-122385000D01*
X141286000Y-122380000D01*
X141282000Y-122376000D01*
X141278000Y-122371000D01*
X141274000Y-122365000D01*
X141271000Y-122360000D01*
X141268000Y-122354000D01*
X141265000Y-122349000D01*
X141263000Y-122343000D01*
X141261000Y-122337000D01*
X141259000Y-122331000D01*
X141258000Y-122325000D01*
X141256000Y-122319000D01*
X141256000Y-122313000D01*
X141255000Y-122306000D01*
X141255000Y-122300000D01*
X141255000Y-121800000D01*
X141255000Y-121794000D01*
X141256000Y-121787000D01*
X141256000Y-121781000D01*
X141258000Y-121775000D01*
X141259000Y-121769000D01*
X141261000Y-121763000D01*
X141263000Y-121757000D01*
X141265000Y-121751000D01*
X141268000Y-121746000D01*
X141271000Y-121740000D01*
X141274000Y-121735000D01*
X141278000Y-121729000D01*
X141282000Y-121724000D01*
X141286000Y-121720000D01*
X141290000Y-121715000D01*
X141295000Y-121711000D01*
X141299000Y-121707000D01*
X141304000Y-121703000D01*
X141310000Y-121699000D01*
X141315000Y-121696000D01*
X141321000Y-121693000D01*
X141326000Y-121690000D01*
X141332000Y-121688000D01*
X141338000Y-121686000D01*
X141344000Y-121684000D01*
X141350000Y-121683000D01*
X141356000Y-121681000D01*
X141362000Y-121681000D01*
X141369000Y-121680000D01*
X141375000Y-121680000D01*
X141525000Y-121680000D01*
X141531000Y-121680000D01*
X141538000Y-121681000D01*
G37*
X141538000Y-124981000D02*
X141544000Y-124981000D01*
X141550000Y-124983000D01*
X141556000Y-124984000D01*
X141562000Y-124986000D01*
X141568000Y-124988000D01*
X141574000Y-124990000D01*
X141579000Y-124993000D01*
X141585000Y-124996000D01*
X141590000Y-124999000D01*
X141596000Y-125003000D01*
X141601000Y-125007000D01*
X141605000Y-125011000D01*
X141610000Y-125015000D01*
X141614000Y-125020000D01*
X141618000Y-125024000D01*
X141622000Y-125029000D01*
X141626000Y-125035000D01*
X141629000Y-125040000D01*
X141632000Y-125046000D01*
X141635000Y-125051000D01*
X141637000Y-125057000D01*
X141639000Y-125063000D01*
X141641000Y-125069000D01*
X141642000Y-125075000D01*
X141644000Y-125081000D01*
X141644000Y-125087000D01*
X141645000Y-125094000D01*
X141645000Y-125100000D01*
X141645000Y-125600000D01*
X141645000Y-125606000D01*
X141644000Y-125613000D01*
X141644000Y-125619000D01*
X141642000Y-125625000D01*
X141641000Y-125631000D01*
X141639000Y-125637000D01*
X141637000Y-125643000D01*
X141635000Y-125649000D01*
X141632000Y-125654000D01*
X141629000Y-125660000D01*
X141626000Y-125665000D01*
X141622000Y-125671000D01*
X141618000Y-125676000D01*
X141614000Y-125680000D01*
X141610000Y-125685000D01*
X141605000Y-125689000D01*
X141601000Y-125693000D01*
X141596000Y-125697000D01*
X141590000Y-125701000D01*
X141585000Y-125704000D01*
X141579000Y-125707000D01*
X141574000Y-125710000D01*
X141568000Y-125712000D01*
X141562000Y-125714000D01*
X141556000Y-125716000D01*
X141550000Y-125717000D01*
X141544000Y-125719000D01*
X141538000Y-125719000D01*
X141531000Y-125720000D01*
X141525000Y-125720000D01*
X141375000Y-125720000D01*
X141369000Y-125720000D01*
X141362000Y-125719000D01*
X141356000Y-125719000D01*
X141350000Y-125717000D01*
X141344000Y-125716000D01*
X141338000Y-125714000D01*
X141332000Y-125712000D01*
X141326000Y-125710000D01*
X141321000Y-125707000D01*
X141315000Y-125704000D01*
X141310000Y-125701000D01*
X141304000Y-125697000D01*
X141299000Y-125693000D01*
X141295000Y-125689000D01*
X141290000Y-125685000D01*
X141286000Y-125680000D01*
X141282000Y-125676000D01*
X141278000Y-125671000D01*
X141274000Y-125665000D01*
X141271000Y-125660000D01*
X141268000Y-125654000D01*
X141265000Y-125649000D01*
X141263000Y-125643000D01*
X141261000Y-125637000D01*
X141259000Y-125631000D01*
X141258000Y-125625000D01*
X141256000Y-125619000D01*
X141256000Y-125613000D01*
X141255000Y-125606000D01*
X141255000Y-125600000D01*
X141255000Y-125100000D01*
X141255000Y-125094000D01*
X141256000Y-125087000D01*
X141256000Y-125081000D01*
X141258000Y-125075000D01*
X141259000Y-125069000D01*
X141261000Y-125063000D01*
X141263000Y-125057000D01*
X141265000Y-125051000D01*
X141268000Y-125046000D01*
X141271000Y-125040000D01*
X141274000Y-125035000D01*
X141278000Y-125029000D01*
X141282000Y-125024000D01*
X141286000Y-125020000D01*
X141290000Y-125015000D01*
X141295000Y-125011000D01*
X141299000Y-125007000D01*
X141304000Y-125003000D01*
X141310000Y-124999000D01*
X141315000Y-124996000D01*
X141321000Y-124993000D01*
X141326000Y-124990000D01*
X141332000Y-124988000D01*
X141338000Y-124986000D01*
X141344000Y-124984000D01*
X141350000Y-124983000D01*
X141356000Y-124981000D01*
X141362000Y-124981000D01*
X141369000Y-124980000D01*
X141375000Y-124980000D01*
X141525000Y-124980000D01*
X141531000Y-124980000D01*
X141538000Y-124981000D01*
G36*
X141538000Y-124981000D02*
G01*
X141544000Y-124981000D01*
X141550000Y-124983000D01*
X141556000Y-124984000D01*
X141562000Y-124986000D01*
X141568000Y-124988000D01*
X141574000Y-124990000D01*
X141579000Y-124993000D01*
X141585000Y-124996000D01*
X141590000Y-124999000D01*
X141596000Y-125003000D01*
X141601000Y-125007000D01*
X141605000Y-125011000D01*
X141610000Y-125015000D01*
X141614000Y-125020000D01*
X141618000Y-125024000D01*
X141622000Y-125029000D01*
X141626000Y-125035000D01*
X141629000Y-125040000D01*
X141632000Y-125046000D01*
X141635000Y-125051000D01*
X141637000Y-125057000D01*
X141639000Y-125063000D01*
X141641000Y-125069000D01*
X141642000Y-125075000D01*
X141644000Y-125081000D01*
X141644000Y-125087000D01*
X141645000Y-125094000D01*
X141645000Y-125100000D01*
X141645000Y-125600000D01*
X141645000Y-125606000D01*
X141644000Y-125613000D01*
X141644000Y-125619000D01*
X141642000Y-125625000D01*
X141641000Y-125631000D01*
X141639000Y-125637000D01*
X141637000Y-125643000D01*
X141635000Y-125649000D01*
X141632000Y-125654000D01*
X141629000Y-125660000D01*
X141626000Y-125665000D01*
X141622000Y-125671000D01*
X141618000Y-125676000D01*
X141614000Y-125680000D01*
X141610000Y-125685000D01*
X141605000Y-125689000D01*
X141601000Y-125693000D01*
X141596000Y-125697000D01*
X141590000Y-125701000D01*
X141585000Y-125704000D01*
X141579000Y-125707000D01*
X141574000Y-125710000D01*
X141568000Y-125712000D01*
X141562000Y-125714000D01*
X141556000Y-125716000D01*
X141550000Y-125717000D01*
X141544000Y-125719000D01*
X141538000Y-125719000D01*
X141531000Y-125720000D01*
X141525000Y-125720000D01*
X141375000Y-125720000D01*
X141369000Y-125720000D01*
X141362000Y-125719000D01*
X141356000Y-125719000D01*
X141350000Y-125717000D01*
X141344000Y-125716000D01*
X141338000Y-125714000D01*
X141332000Y-125712000D01*
X141326000Y-125710000D01*
X141321000Y-125707000D01*
X141315000Y-125704000D01*
X141310000Y-125701000D01*
X141304000Y-125697000D01*
X141299000Y-125693000D01*
X141295000Y-125689000D01*
X141290000Y-125685000D01*
X141286000Y-125680000D01*
X141282000Y-125676000D01*
X141278000Y-125671000D01*
X141274000Y-125665000D01*
X141271000Y-125660000D01*
X141268000Y-125654000D01*
X141265000Y-125649000D01*
X141263000Y-125643000D01*
X141261000Y-125637000D01*
X141259000Y-125631000D01*
X141258000Y-125625000D01*
X141256000Y-125619000D01*
X141256000Y-125613000D01*
X141255000Y-125606000D01*
X141255000Y-125600000D01*
X141255000Y-125100000D01*
X141255000Y-125094000D01*
X141256000Y-125087000D01*
X141256000Y-125081000D01*
X141258000Y-125075000D01*
X141259000Y-125069000D01*
X141261000Y-125063000D01*
X141263000Y-125057000D01*
X141265000Y-125051000D01*
X141268000Y-125046000D01*
X141271000Y-125040000D01*
X141274000Y-125035000D01*
X141278000Y-125029000D01*
X141282000Y-125024000D01*
X141286000Y-125020000D01*
X141290000Y-125015000D01*
X141295000Y-125011000D01*
X141299000Y-125007000D01*
X141304000Y-125003000D01*
X141310000Y-124999000D01*
X141315000Y-124996000D01*
X141321000Y-124993000D01*
X141326000Y-124990000D01*
X141332000Y-124988000D01*
X141338000Y-124986000D01*
X141344000Y-124984000D01*
X141350000Y-124983000D01*
X141356000Y-124981000D01*
X141362000Y-124981000D01*
X141369000Y-124980000D01*
X141375000Y-124980000D01*
X141525000Y-124980000D01*
X141531000Y-124980000D01*
X141538000Y-124981000D01*
G37*
X142038000Y-121681000D02*
X142044000Y-121681000D01*
X142050000Y-121683000D01*
X142056000Y-121684000D01*
X142062000Y-121686000D01*
X142068000Y-121688000D01*
X142074000Y-121690000D01*
X142079000Y-121693000D01*
X142085000Y-121696000D01*
X142090000Y-121699000D01*
X142096000Y-121703000D01*
X142101000Y-121707000D01*
X142105000Y-121711000D01*
X142110000Y-121715000D01*
X142114000Y-121720000D01*
X142118000Y-121724000D01*
X142122000Y-121729000D01*
X142126000Y-121735000D01*
X142129000Y-121740000D01*
X142132000Y-121746000D01*
X142135000Y-121751000D01*
X142137000Y-121757000D01*
X142139000Y-121763000D01*
X142141000Y-121769000D01*
X142142000Y-121775000D01*
X142144000Y-121781000D01*
X142144000Y-121787000D01*
X142145000Y-121794000D01*
X142145000Y-121800000D01*
X142145000Y-122300000D01*
X142145000Y-122306000D01*
X142144000Y-122313000D01*
X142144000Y-122319000D01*
X142142000Y-122325000D01*
X142141000Y-122331000D01*
X142139000Y-122337000D01*
X142137000Y-122343000D01*
X142135000Y-122349000D01*
X142132000Y-122354000D01*
X142129000Y-122360000D01*
X142126000Y-122365000D01*
X142122000Y-122371000D01*
X142118000Y-122376000D01*
X142114000Y-122380000D01*
X142110000Y-122385000D01*
X142105000Y-122389000D01*
X142101000Y-122393000D01*
X142096000Y-122397000D01*
X142090000Y-122401000D01*
X142085000Y-122404000D01*
X142079000Y-122407000D01*
X142074000Y-122410000D01*
X142068000Y-122412000D01*
X142062000Y-122414000D01*
X142056000Y-122416000D01*
X142050000Y-122417000D01*
X142044000Y-122419000D01*
X142038000Y-122419000D01*
X142031000Y-122420000D01*
X142025000Y-122420000D01*
X141875000Y-122420000D01*
X141869000Y-122420000D01*
X141862000Y-122419000D01*
X141856000Y-122419000D01*
X141850000Y-122417000D01*
X141844000Y-122416000D01*
X141838000Y-122414000D01*
X141832000Y-122412000D01*
X141826000Y-122410000D01*
X141821000Y-122407000D01*
X141815000Y-122404000D01*
X141810000Y-122401000D01*
X141804000Y-122397000D01*
X141799000Y-122393000D01*
X141795000Y-122389000D01*
X141790000Y-122385000D01*
X141786000Y-122380000D01*
X141782000Y-122376000D01*
X141778000Y-122371000D01*
X141774000Y-122365000D01*
X141771000Y-122360000D01*
X141768000Y-122354000D01*
X141765000Y-122349000D01*
X141763000Y-122343000D01*
X141761000Y-122337000D01*
X141759000Y-122331000D01*
X141758000Y-122325000D01*
X141756000Y-122319000D01*
X141756000Y-122313000D01*
X141755000Y-122306000D01*
X141755000Y-122300000D01*
X141755000Y-121800000D01*
X141755000Y-121794000D01*
X141756000Y-121787000D01*
X141756000Y-121781000D01*
X141758000Y-121775000D01*
X141759000Y-121769000D01*
X141761000Y-121763000D01*
X141763000Y-121757000D01*
X141765000Y-121751000D01*
X141768000Y-121746000D01*
X141771000Y-121740000D01*
X141774000Y-121735000D01*
X141778000Y-121729000D01*
X141782000Y-121724000D01*
X141786000Y-121720000D01*
X141790000Y-121715000D01*
X141795000Y-121711000D01*
X141799000Y-121707000D01*
X141804000Y-121703000D01*
X141810000Y-121699000D01*
X141815000Y-121696000D01*
X141821000Y-121693000D01*
X141826000Y-121690000D01*
X141832000Y-121688000D01*
X141838000Y-121686000D01*
X141844000Y-121684000D01*
X141850000Y-121683000D01*
X141856000Y-121681000D01*
X141862000Y-121681000D01*
X141869000Y-121680000D01*
X141875000Y-121680000D01*
X142025000Y-121680000D01*
X142031000Y-121680000D01*
X142038000Y-121681000D01*
G36*
X142038000Y-121681000D02*
G01*
X142044000Y-121681000D01*
X142050000Y-121683000D01*
X142056000Y-121684000D01*
X142062000Y-121686000D01*
X142068000Y-121688000D01*
X142074000Y-121690000D01*
X142079000Y-121693000D01*
X142085000Y-121696000D01*
X142090000Y-121699000D01*
X142096000Y-121703000D01*
X142101000Y-121707000D01*
X142105000Y-121711000D01*
X142110000Y-121715000D01*
X142114000Y-121720000D01*
X142118000Y-121724000D01*
X142122000Y-121729000D01*
X142126000Y-121735000D01*
X142129000Y-121740000D01*
X142132000Y-121746000D01*
X142135000Y-121751000D01*
X142137000Y-121757000D01*
X142139000Y-121763000D01*
X142141000Y-121769000D01*
X142142000Y-121775000D01*
X142144000Y-121781000D01*
X142144000Y-121787000D01*
X142145000Y-121794000D01*
X142145000Y-121800000D01*
X142145000Y-122300000D01*
X142145000Y-122306000D01*
X142144000Y-122313000D01*
X142144000Y-122319000D01*
X142142000Y-122325000D01*
X142141000Y-122331000D01*
X142139000Y-122337000D01*
X142137000Y-122343000D01*
X142135000Y-122349000D01*
X142132000Y-122354000D01*
X142129000Y-122360000D01*
X142126000Y-122365000D01*
X142122000Y-122371000D01*
X142118000Y-122376000D01*
X142114000Y-122380000D01*
X142110000Y-122385000D01*
X142105000Y-122389000D01*
X142101000Y-122393000D01*
X142096000Y-122397000D01*
X142090000Y-122401000D01*
X142085000Y-122404000D01*
X142079000Y-122407000D01*
X142074000Y-122410000D01*
X142068000Y-122412000D01*
X142062000Y-122414000D01*
X142056000Y-122416000D01*
X142050000Y-122417000D01*
X142044000Y-122419000D01*
X142038000Y-122419000D01*
X142031000Y-122420000D01*
X142025000Y-122420000D01*
X141875000Y-122420000D01*
X141869000Y-122420000D01*
X141862000Y-122419000D01*
X141856000Y-122419000D01*
X141850000Y-122417000D01*
X141844000Y-122416000D01*
X141838000Y-122414000D01*
X141832000Y-122412000D01*
X141826000Y-122410000D01*
X141821000Y-122407000D01*
X141815000Y-122404000D01*
X141810000Y-122401000D01*
X141804000Y-122397000D01*
X141799000Y-122393000D01*
X141795000Y-122389000D01*
X141790000Y-122385000D01*
X141786000Y-122380000D01*
X141782000Y-122376000D01*
X141778000Y-122371000D01*
X141774000Y-122365000D01*
X141771000Y-122360000D01*
X141768000Y-122354000D01*
X141765000Y-122349000D01*
X141763000Y-122343000D01*
X141761000Y-122337000D01*
X141759000Y-122331000D01*
X141758000Y-122325000D01*
X141756000Y-122319000D01*
X141756000Y-122313000D01*
X141755000Y-122306000D01*
X141755000Y-122300000D01*
X141755000Y-121800000D01*
X141755000Y-121794000D01*
X141756000Y-121787000D01*
X141756000Y-121781000D01*
X141758000Y-121775000D01*
X141759000Y-121769000D01*
X141761000Y-121763000D01*
X141763000Y-121757000D01*
X141765000Y-121751000D01*
X141768000Y-121746000D01*
X141771000Y-121740000D01*
X141774000Y-121735000D01*
X141778000Y-121729000D01*
X141782000Y-121724000D01*
X141786000Y-121720000D01*
X141790000Y-121715000D01*
X141795000Y-121711000D01*
X141799000Y-121707000D01*
X141804000Y-121703000D01*
X141810000Y-121699000D01*
X141815000Y-121696000D01*
X141821000Y-121693000D01*
X141826000Y-121690000D01*
X141832000Y-121688000D01*
X141838000Y-121686000D01*
X141844000Y-121684000D01*
X141850000Y-121683000D01*
X141856000Y-121681000D01*
X141862000Y-121681000D01*
X141869000Y-121680000D01*
X141875000Y-121680000D01*
X142025000Y-121680000D01*
X142031000Y-121680000D01*
X142038000Y-121681000D01*
G37*
X142038000Y-124981000D02*
X142044000Y-124981000D01*
X142050000Y-124983000D01*
X142056000Y-124984000D01*
X142062000Y-124986000D01*
X142068000Y-124988000D01*
X142074000Y-124990000D01*
X142079000Y-124993000D01*
X142085000Y-124996000D01*
X142090000Y-124999000D01*
X142096000Y-125003000D01*
X142101000Y-125007000D01*
X142105000Y-125011000D01*
X142110000Y-125015000D01*
X142114000Y-125020000D01*
X142118000Y-125024000D01*
X142122000Y-125029000D01*
X142126000Y-125035000D01*
X142129000Y-125040000D01*
X142132000Y-125046000D01*
X142135000Y-125051000D01*
X142137000Y-125057000D01*
X142139000Y-125063000D01*
X142141000Y-125069000D01*
X142142000Y-125075000D01*
X142144000Y-125081000D01*
X142144000Y-125087000D01*
X142145000Y-125094000D01*
X142145000Y-125100000D01*
X142145000Y-125600000D01*
X142145000Y-125606000D01*
X142144000Y-125613000D01*
X142144000Y-125619000D01*
X142142000Y-125625000D01*
X142141000Y-125631000D01*
X142139000Y-125637000D01*
X142137000Y-125643000D01*
X142135000Y-125649000D01*
X142132000Y-125654000D01*
X142129000Y-125660000D01*
X142126000Y-125665000D01*
X142122000Y-125671000D01*
X142118000Y-125676000D01*
X142114000Y-125680000D01*
X142110000Y-125685000D01*
X142105000Y-125689000D01*
X142101000Y-125693000D01*
X142096000Y-125697000D01*
X142090000Y-125701000D01*
X142085000Y-125704000D01*
X142079000Y-125707000D01*
X142074000Y-125710000D01*
X142068000Y-125712000D01*
X142062000Y-125714000D01*
X142056000Y-125716000D01*
X142050000Y-125717000D01*
X142044000Y-125719000D01*
X142038000Y-125719000D01*
X142031000Y-125720000D01*
X142025000Y-125720000D01*
X141875000Y-125720000D01*
X141869000Y-125720000D01*
X141862000Y-125719000D01*
X141856000Y-125719000D01*
X141850000Y-125717000D01*
X141844000Y-125716000D01*
X141838000Y-125714000D01*
X141832000Y-125712000D01*
X141826000Y-125710000D01*
X141821000Y-125707000D01*
X141815000Y-125704000D01*
X141810000Y-125701000D01*
X141804000Y-125697000D01*
X141799000Y-125693000D01*
X141795000Y-125689000D01*
X141790000Y-125685000D01*
X141786000Y-125680000D01*
X141782000Y-125676000D01*
X141778000Y-125671000D01*
X141774000Y-125665000D01*
X141771000Y-125660000D01*
X141768000Y-125654000D01*
X141765000Y-125649000D01*
X141763000Y-125643000D01*
X141761000Y-125637000D01*
X141759000Y-125631000D01*
X141758000Y-125625000D01*
X141756000Y-125619000D01*
X141756000Y-125613000D01*
X141755000Y-125606000D01*
X141755000Y-125600000D01*
X141755000Y-125100000D01*
X141755000Y-125094000D01*
X141756000Y-125087000D01*
X141756000Y-125081000D01*
X141758000Y-125075000D01*
X141759000Y-125069000D01*
X141761000Y-125063000D01*
X141763000Y-125057000D01*
X141765000Y-125051000D01*
X141768000Y-125046000D01*
X141771000Y-125040000D01*
X141774000Y-125035000D01*
X141778000Y-125029000D01*
X141782000Y-125024000D01*
X141786000Y-125020000D01*
X141790000Y-125015000D01*
X141795000Y-125011000D01*
X141799000Y-125007000D01*
X141804000Y-125003000D01*
X141810000Y-124999000D01*
X141815000Y-124996000D01*
X141821000Y-124993000D01*
X141826000Y-124990000D01*
X141832000Y-124988000D01*
X141838000Y-124986000D01*
X141844000Y-124984000D01*
X141850000Y-124983000D01*
X141856000Y-124981000D01*
X141862000Y-124981000D01*
X141869000Y-124980000D01*
X141875000Y-124980000D01*
X142025000Y-124980000D01*
X142031000Y-124980000D01*
X142038000Y-124981000D01*
G36*
X142038000Y-124981000D02*
G01*
X142044000Y-124981000D01*
X142050000Y-124983000D01*
X142056000Y-124984000D01*
X142062000Y-124986000D01*
X142068000Y-124988000D01*
X142074000Y-124990000D01*
X142079000Y-124993000D01*
X142085000Y-124996000D01*
X142090000Y-124999000D01*
X142096000Y-125003000D01*
X142101000Y-125007000D01*
X142105000Y-125011000D01*
X142110000Y-125015000D01*
X142114000Y-125020000D01*
X142118000Y-125024000D01*
X142122000Y-125029000D01*
X142126000Y-125035000D01*
X142129000Y-125040000D01*
X142132000Y-125046000D01*
X142135000Y-125051000D01*
X142137000Y-125057000D01*
X142139000Y-125063000D01*
X142141000Y-125069000D01*
X142142000Y-125075000D01*
X142144000Y-125081000D01*
X142144000Y-125087000D01*
X142145000Y-125094000D01*
X142145000Y-125100000D01*
X142145000Y-125600000D01*
X142145000Y-125606000D01*
X142144000Y-125613000D01*
X142144000Y-125619000D01*
X142142000Y-125625000D01*
X142141000Y-125631000D01*
X142139000Y-125637000D01*
X142137000Y-125643000D01*
X142135000Y-125649000D01*
X142132000Y-125654000D01*
X142129000Y-125660000D01*
X142126000Y-125665000D01*
X142122000Y-125671000D01*
X142118000Y-125676000D01*
X142114000Y-125680000D01*
X142110000Y-125685000D01*
X142105000Y-125689000D01*
X142101000Y-125693000D01*
X142096000Y-125697000D01*
X142090000Y-125701000D01*
X142085000Y-125704000D01*
X142079000Y-125707000D01*
X142074000Y-125710000D01*
X142068000Y-125712000D01*
X142062000Y-125714000D01*
X142056000Y-125716000D01*
X142050000Y-125717000D01*
X142044000Y-125719000D01*
X142038000Y-125719000D01*
X142031000Y-125720000D01*
X142025000Y-125720000D01*
X141875000Y-125720000D01*
X141869000Y-125720000D01*
X141862000Y-125719000D01*
X141856000Y-125719000D01*
X141850000Y-125717000D01*
X141844000Y-125716000D01*
X141838000Y-125714000D01*
X141832000Y-125712000D01*
X141826000Y-125710000D01*
X141821000Y-125707000D01*
X141815000Y-125704000D01*
X141810000Y-125701000D01*
X141804000Y-125697000D01*
X141799000Y-125693000D01*
X141795000Y-125689000D01*
X141790000Y-125685000D01*
X141786000Y-125680000D01*
X141782000Y-125676000D01*
X141778000Y-125671000D01*
X141774000Y-125665000D01*
X141771000Y-125660000D01*
X141768000Y-125654000D01*
X141765000Y-125649000D01*
X141763000Y-125643000D01*
X141761000Y-125637000D01*
X141759000Y-125631000D01*
X141758000Y-125625000D01*
X141756000Y-125619000D01*
X141756000Y-125613000D01*
X141755000Y-125606000D01*
X141755000Y-125600000D01*
X141755000Y-125100000D01*
X141755000Y-125094000D01*
X141756000Y-125087000D01*
X141756000Y-125081000D01*
X141758000Y-125075000D01*
X141759000Y-125069000D01*
X141761000Y-125063000D01*
X141763000Y-125057000D01*
X141765000Y-125051000D01*
X141768000Y-125046000D01*
X141771000Y-125040000D01*
X141774000Y-125035000D01*
X141778000Y-125029000D01*
X141782000Y-125024000D01*
X141786000Y-125020000D01*
X141790000Y-125015000D01*
X141795000Y-125011000D01*
X141799000Y-125007000D01*
X141804000Y-125003000D01*
X141810000Y-124999000D01*
X141815000Y-124996000D01*
X141821000Y-124993000D01*
X141826000Y-124990000D01*
X141832000Y-124988000D01*
X141838000Y-124986000D01*
X141844000Y-124984000D01*
X141850000Y-124983000D01*
X141856000Y-124981000D01*
X141862000Y-124981000D01*
X141869000Y-124980000D01*
X141875000Y-124980000D01*
X142025000Y-124980000D01*
X142031000Y-124980000D01*
X142038000Y-124981000D01*
G37*
X142538000Y-121681000D02*
X142544000Y-121681000D01*
X142550000Y-121683000D01*
X142556000Y-121684000D01*
X142562000Y-121686000D01*
X142568000Y-121688000D01*
X142574000Y-121690000D01*
X142579000Y-121693000D01*
X142585000Y-121696000D01*
X142590000Y-121699000D01*
X142596000Y-121703000D01*
X142601000Y-121707000D01*
X142605000Y-121711000D01*
X142610000Y-121715000D01*
X142614000Y-121720000D01*
X142618000Y-121724000D01*
X142622000Y-121729000D01*
X142626000Y-121735000D01*
X142629000Y-121740000D01*
X142632000Y-121746000D01*
X142635000Y-121751000D01*
X142637000Y-121757000D01*
X142639000Y-121763000D01*
X142641000Y-121769000D01*
X142642000Y-121775000D01*
X142644000Y-121781000D01*
X142644000Y-121787000D01*
X142645000Y-121794000D01*
X142645000Y-121800000D01*
X142645000Y-122300000D01*
X142645000Y-122306000D01*
X142644000Y-122313000D01*
X142644000Y-122319000D01*
X142642000Y-122325000D01*
X142641000Y-122331000D01*
X142639000Y-122337000D01*
X142637000Y-122343000D01*
X142635000Y-122349000D01*
X142632000Y-122354000D01*
X142629000Y-122360000D01*
X142626000Y-122365000D01*
X142622000Y-122371000D01*
X142618000Y-122376000D01*
X142614000Y-122380000D01*
X142610000Y-122385000D01*
X142605000Y-122389000D01*
X142601000Y-122393000D01*
X142596000Y-122397000D01*
X142590000Y-122401000D01*
X142585000Y-122404000D01*
X142579000Y-122407000D01*
X142574000Y-122410000D01*
X142568000Y-122412000D01*
X142562000Y-122414000D01*
X142556000Y-122416000D01*
X142550000Y-122417000D01*
X142544000Y-122419000D01*
X142538000Y-122419000D01*
X142531000Y-122420000D01*
X142525000Y-122420000D01*
X142375000Y-122420000D01*
X142369000Y-122420000D01*
X142362000Y-122419000D01*
X142356000Y-122419000D01*
X142350000Y-122417000D01*
X142344000Y-122416000D01*
X142338000Y-122414000D01*
X142332000Y-122412000D01*
X142326000Y-122410000D01*
X142321000Y-122407000D01*
X142315000Y-122404000D01*
X142310000Y-122401000D01*
X142304000Y-122397000D01*
X142299000Y-122393000D01*
X142295000Y-122389000D01*
X142290000Y-122385000D01*
X142286000Y-122380000D01*
X142282000Y-122376000D01*
X142278000Y-122371000D01*
X142274000Y-122365000D01*
X142271000Y-122360000D01*
X142268000Y-122354000D01*
X142265000Y-122349000D01*
X142263000Y-122343000D01*
X142261000Y-122337000D01*
X142259000Y-122331000D01*
X142258000Y-122325000D01*
X142256000Y-122319000D01*
X142256000Y-122313000D01*
X142255000Y-122306000D01*
X142255000Y-122300000D01*
X142255000Y-121800000D01*
X142255000Y-121794000D01*
X142256000Y-121787000D01*
X142256000Y-121781000D01*
X142258000Y-121775000D01*
X142259000Y-121769000D01*
X142261000Y-121763000D01*
X142263000Y-121757000D01*
X142265000Y-121751000D01*
X142268000Y-121746000D01*
X142271000Y-121740000D01*
X142274000Y-121735000D01*
X142278000Y-121729000D01*
X142282000Y-121724000D01*
X142286000Y-121720000D01*
X142290000Y-121715000D01*
X142295000Y-121711000D01*
X142299000Y-121707000D01*
X142304000Y-121703000D01*
X142310000Y-121699000D01*
X142315000Y-121696000D01*
X142321000Y-121693000D01*
X142326000Y-121690000D01*
X142332000Y-121688000D01*
X142338000Y-121686000D01*
X142344000Y-121684000D01*
X142350000Y-121683000D01*
X142356000Y-121681000D01*
X142362000Y-121681000D01*
X142369000Y-121680000D01*
X142375000Y-121680000D01*
X142525000Y-121680000D01*
X142531000Y-121680000D01*
X142538000Y-121681000D01*
G36*
X142538000Y-121681000D02*
G01*
X142544000Y-121681000D01*
X142550000Y-121683000D01*
X142556000Y-121684000D01*
X142562000Y-121686000D01*
X142568000Y-121688000D01*
X142574000Y-121690000D01*
X142579000Y-121693000D01*
X142585000Y-121696000D01*
X142590000Y-121699000D01*
X142596000Y-121703000D01*
X142601000Y-121707000D01*
X142605000Y-121711000D01*
X142610000Y-121715000D01*
X142614000Y-121720000D01*
X142618000Y-121724000D01*
X142622000Y-121729000D01*
X142626000Y-121735000D01*
X142629000Y-121740000D01*
X142632000Y-121746000D01*
X142635000Y-121751000D01*
X142637000Y-121757000D01*
X142639000Y-121763000D01*
X142641000Y-121769000D01*
X142642000Y-121775000D01*
X142644000Y-121781000D01*
X142644000Y-121787000D01*
X142645000Y-121794000D01*
X142645000Y-121800000D01*
X142645000Y-122300000D01*
X142645000Y-122306000D01*
X142644000Y-122313000D01*
X142644000Y-122319000D01*
X142642000Y-122325000D01*
X142641000Y-122331000D01*
X142639000Y-122337000D01*
X142637000Y-122343000D01*
X142635000Y-122349000D01*
X142632000Y-122354000D01*
X142629000Y-122360000D01*
X142626000Y-122365000D01*
X142622000Y-122371000D01*
X142618000Y-122376000D01*
X142614000Y-122380000D01*
X142610000Y-122385000D01*
X142605000Y-122389000D01*
X142601000Y-122393000D01*
X142596000Y-122397000D01*
X142590000Y-122401000D01*
X142585000Y-122404000D01*
X142579000Y-122407000D01*
X142574000Y-122410000D01*
X142568000Y-122412000D01*
X142562000Y-122414000D01*
X142556000Y-122416000D01*
X142550000Y-122417000D01*
X142544000Y-122419000D01*
X142538000Y-122419000D01*
X142531000Y-122420000D01*
X142525000Y-122420000D01*
X142375000Y-122420000D01*
X142369000Y-122420000D01*
X142362000Y-122419000D01*
X142356000Y-122419000D01*
X142350000Y-122417000D01*
X142344000Y-122416000D01*
X142338000Y-122414000D01*
X142332000Y-122412000D01*
X142326000Y-122410000D01*
X142321000Y-122407000D01*
X142315000Y-122404000D01*
X142310000Y-122401000D01*
X142304000Y-122397000D01*
X142299000Y-122393000D01*
X142295000Y-122389000D01*
X142290000Y-122385000D01*
X142286000Y-122380000D01*
X142282000Y-122376000D01*
X142278000Y-122371000D01*
X142274000Y-122365000D01*
X142271000Y-122360000D01*
X142268000Y-122354000D01*
X142265000Y-122349000D01*
X142263000Y-122343000D01*
X142261000Y-122337000D01*
X142259000Y-122331000D01*
X142258000Y-122325000D01*
X142256000Y-122319000D01*
X142256000Y-122313000D01*
X142255000Y-122306000D01*
X142255000Y-122300000D01*
X142255000Y-121800000D01*
X142255000Y-121794000D01*
X142256000Y-121787000D01*
X142256000Y-121781000D01*
X142258000Y-121775000D01*
X142259000Y-121769000D01*
X142261000Y-121763000D01*
X142263000Y-121757000D01*
X142265000Y-121751000D01*
X142268000Y-121746000D01*
X142271000Y-121740000D01*
X142274000Y-121735000D01*
X142278000Y-121729000D01*
X142282000Y-121724000D01*
X142286000Y-121720000D01*
X142290000Y-121715000D01*
X142295000Y-121711000D01*
X142299000Y-121707000D01*
X142304000Y-121703000D01*
X142310000Y-121699000D01*
X142315000Y-121696000D01*
X142321000Y-121693000D01*
X142326000Y-121690000D01*
X142332000Y-121688000D01*
X142338000Y-121686000D01*
X142344000Y-121684000D01*
X142350000Y-121683000D01*
X142356000Y-121681000D01*
X142362000Y-121681000D01*
X142369000Y-121680000D01*
X142375000Y-121680000D01*
X142525000Y-121680000D01*
X142531000Y-121680000D01*
X142538000Y-121681000D01*
G37*
X142538000Y-124981000D02*
X142544000Y-124981000D01*
X142550000Y-124983000D01*
X142556000Y-124984000D01*
X142562000Y-124986000D01*
X142568000Y-124988000D01*
X142574000Y-124990000D01*
X142579000Y-124993000D01*
X142585000Y-124996000D01*
X142590000Y-124999000D01*
X142596000Y-125003000D01*
X142601000Y-125007000D01*
X142605000Y-125011000D01*
X142610000Y-125015000D01*
X142614000Y-125020000D01*
X142618000Y-125024000D01*
X142622000Y-125029000D01*
X142626000Y-125035000D01*
X142629000Y-125040000D01*
X142632000Y-125046000D01*
X142635000Y-125051000D01*
X142637000Y-125057000D01*
X142639000Y-125063000D01*
X142641000Y-125069000D01*
X142642000Y-125075000D01*
X142644000Y-125081000D01*
X142644000Y-125087000D01*
X142645000Y-125094000D01*
X142645000Y-125100000D01*
X142645000Y-125600000D01*
X142645000Y-125606000D01*
X142644000Y-125613000D01*
X142644000Y-125619000D01*
X142642000Y-125625000D01*
X142641000Y-125631000D01*
X142639000Y-125637000D01*
X142637000Y-125643000D01*
X142635000Y-125649000D01*
X142632000Y-125654000D01*
X142629000Y-125660000D01*
X142626000Y-125665000D01*
X142622000Y-125671000D01*
X142618000Y-125676000D01*
X142614000Y-125680000D01*
X142610000Y-125685000D01*
X142605000Y-125689000D01*
X142601000Y-125693000D01*
X142596000Y-125697000D01*
X142590000Y-125701000D01*
X142585000Y-125704000D01*
X142579000Y-125707000D01*
X142574000Y-125710000D01*
X142568000Y-125712000D01*
X142562000Y-125714000D01*
X142556000Y-125716000D01*
X142550000Y-125717000D01*
X142544000Y-125719000D01*
X142538000Y-125719000D01*
X142531000Y-125720000D01*
X142525000Y-125720000D01*
X142375000Y-125720000D01*
X142369000Y-125720000D01*
X142362000Y-125719000D01*
X142356000Y-125719000D01*
X142350000Y-125717000D01*
X142344000Y-125716000D01*
X142338000Y-125714000D01*
X142332000Y-125712000D01*
X142326000Y-125710000D01*
X142321000Y-125707000D01*
X142315000Y-125704000D01*
X142310000Y-125701000D01*
X142304000Y-125697000D01*
X142299000Y-125693000D01*
X142295000Y-125689000D01*
X142290000Y-125685000D01*
X142286000Y-125680000D01*
X142282000Y-125676000D01*
X142278000Y-125671000D01*
X142274000Y-125665000D01*
X142271000Y-125660000D01*
X142268000Y-125654000D01*
X142265000Y-125649000D01*
X142263000Y-125643000D01*
X142261000Y-125637000D01*
X142259000Y-125631000D01*
X142258000Y-125625000D01*
X142256000Y-125619000D01*
X142256000Y-125613000D01*
X142255000Y-125606000D01*
X142255000Y-125600000D01*
X142255000Y-125100000D01*
X142255000Y-125094000D01*
X142256000Y-125087000D01*
X142256000Y-125081000D01*
X142258000Y-125075000D01*
X142259000Y-125069000D01*
X142261000Y-125063000D01*
X142263000Y-125057000D01*
X142265000Y-125051000D01*
X142268000Y-125046000D01*
X142271000Y-125040000D01*
X142274000Y-125035000D01*
X142278000Y-125029000D01*
X142282000Y-125024000D01*
X142286000Y-125020000D01*
X142290000Y-125015000D01*
X142295000Y-125011000D01*
X142299000Y-125007000D01*
X142304000Y-125003000D01*
X142310000Y-124999000D01*
X142315000Y-124996000D01*
X142321000Y-124993000D01*
X142326000Y-124990000D01*
X142332000Y-124988000D01*
X142338000Y-124986000D01*
X142344000Y-124984000D01*
X142350000Y-124983000D01*
X142356000Y-124981000D01*
X142362000Y-124981000D01*
X142369000Y-124980000D01*
X142375000Y-124980000D01*
X142525000Y-124980000D01*
X142531000Y-124980000D01*
X142538000Y-124981000D01*
G36*
X142538000Y-124981000D02*
G01*
X142544000Y-124981000D01*
X142550000Y-124983000D01*
X142556000Y-124984000D01*
X142562000Y-124986000D01*
X142568000Y-124988000D01*
X142574000Y-124990000D01*
X142579000Y-124993000D01*
X142585000Y-124996000D01*
X142590000Y-124999000D01*
X142596000Y-125003000D01*
X142601000Y-125007000D01*
X142605000Y-125011000D01*
X142610000Y-125015000D01*
X142614000Y-125020000D01*
X142618000Y-125024000D01*
X142622000Y-125029000D01*
X142626000Y-125035000D01*
X142629000Y-125040000D01*
X142632000Y-125046000D01*
X142635000Y-125051000D01*
X142637000Y-125057000D01*
X142639000Y-125063000D01*
X142641000Y-125069000D01*
X142642000Y-125075000D01*
X142644000Y-125081000D01*
X142644000Y-125087000D01*
X142645000Y-125094000D01*
X142645000Y-125100000D01*
X142645000Y-125600000D01*
X142645000Y-125606000D01*
X142644000Y-125613000D01*
X142644000Y-125619000D01*
X142642000Y-125625000D01*
X142641000Y-125631000D01*
X142639000Y-125637000D01*
X142637000Y-125643000D01*
X142635000Y-125649000D01*
X142632000Y-125654000D01*
X142629000Y-125660000D01*
X142626000Y-125665000D01*
X142622000Y-125671000D01*
X142618000Y-125676000D01*
X142614000Y-125680000D01*
X142610000Y-125685000D01*
X142605000Y-125689000D01*
X142601000Y-125693000D01*
X142596000Y-125697000D01*
X142590000Y-125701000D01*
X142585000Y-125704000D01*
X142579000Y-125707000D01*
X142574000Y-125710000D01*
X142568000Y-125712000D01*
X142562000Y-125714000D01*
X142556000Y-125716000D01*
X142550000Y-125717000D01*
X142544000Y-125719000D01*
X142538000Y-125719000D01*
X142531000Y-125720000D01*
X142525000Y-125720000D01*
X142375000Y-125720000D01*
X142369000Y-125720000D01*
X142362000Y-125719000D01*
X142356000Y-125719000D01*
X142350000Y-125717000D01*
X142344000Y-125716000D01*
X142338000Y-125714000D01*
X142332000Y-125712000D01*
X142326000Y-125710000D01*
X142321000Y-125707000D01*
X142315000Y-125704000D01*
X142310000Y-125701000D01*
X142304000Y-125697000D01*
X142299000Y-125693000D01*
X142295000Y-125689000D01*
X142290000Y-125685000D01*
X142286000Y-125680000D01*
X142282000Y-125676000D01*
X142278000Y-125671000D01*
X142274000Y-125665000D01*
X142271000Y-125660000D01*
X142268000Y-125654000D01*
X142265000Y-125649000D01*
X142263000Y-125643000D01*
X142261000Y-125637000D01*
X142259000Y-125631000D01*
X142258000Y-125625000D01*
X142256000Y-125619000D01*
X142256000Y-125613000D01*
X142255000Y-125606000D01*
X142255000Y-125600000D01*
X142255000Y-125100000D01*
X142255000Y-125094000D01*
X142256000Y-125087000D01*
X142256000Y-125081000D01*
X142258000Y-125075000D01*
X142259000Y-125069000D01*
X142261000Y-125063000D01*
X142263000Y-125057000D01*
X142265000Y-125051000D01*
X142268000Y-125046000D01*
X142271000Y-125040000D01*
X142274000Y-125035000D01*
X142278000Y-125029000D01*
X142282000Y-125024000D01*
X142286000Y-125020000D01*
X142290000Y-125015000D01*
X142295000Y-125011000D01*
X142299000Y-125007000D01*
X142304000Y-125003000D01*
X142310000Y-124999000D01*
X142315000Y-124996000D01*
X142321000Y-124993000D01*
X142326000Y-124990000D01*
X142332000Y-124988000D01*
X142338000Y-124986000D01*
X142344000Y-124984000D01*
X142350000Y-124983000D01*
X142356000Y-124981000D01*
X142362000Y-124981000D01*
X142369000Y-124980000D01*
X142375000Y-124980000D01*
X142525000Y-124980000D01*
X142531000Y-124980000D01*
X142538000Y-124981000D01*
G37*
X143038000Y-121681000D02*
X143044000Y-121681000D01*
X143050000Y-121683000D01*
X143056000Y-121684000D01*
X143062000Y-121686000D01*
X143068000Y-121688000D01*
X143074000Y-121690000D01*
X143079000Y-121693000D01*
X143085000Y-121696000D01*
X143090000Y-121699000D01*
X143096000Y-121703000D01*
X143101000Y-121707000D01*
X143105000Y-121711000D01*
X143110000Y-121715000D01*
X143114000Y-121720000D01*
X143118000Y-121724000D01*
X143122000Y-121729000D01*
X143126000Y-121735000D01*
X143129000Y-121740000D01*
X143132000Y-121746000D01*
X143135000Y-121751000D01*
X143137000Y-121757000D01*
X143139000Y-121763000D01*
X143141000Y-121769000D01*
X143142000Y-121775000D01*
X143144000Y-121781000D01*
X143144000Y-121787000D01*
X143145000Y-121794000D01*
X143145000Y-121800000D01*
X143145000Y-122300000D01*
X143145000Y-122306000D01*
X143144000Y-122313000D01*
X143144000Y-122319000D01*
X143142000Y-122325000D01*
X143141000Y-122331000D01*
X143139000Y-122337000D01*
X143137000Y-122343000D01*
X143135000Y-122349000D01*
X143132000Y-122354000D01*
X143129000Y-122360000D01*
X143126000Y-122365000D01*
X143122000Y-122371000D01*
X143118000Y-122376000D01*
X143114000Y-122380000D01*
X143110000Y-122385000D01*
X143105000Y-122389000D01*
X143101000Y-122393000D01*
X143096000Y-122397000D01*
X143090000Y-122401000D01*
X143085000Y-122404000D01*
X143079000Y-122407000D01*
X143074000Y-122410000D01*
X143068000Y-122412000D01*
X143062000Y-122414000D01*
X143056000Y-122416000D01*
X143050000Y-122417000D01*
X143044000Y-122419000D01*
X143038000Y-122419000D01*
X143031000Y-122420000D01*
X143025000Y-122420000D01*
X142875000Y-122420000D01*
X142869000Y-122420000D01*
X142862000Y-122419000D01*
X142856000Y-122419000D01*
X142850000Y-122417000D01*
X142844000Y-122416000D01*
X142838000Y-122414000D01*
X142832000Y-122412000D01*
X142826000Y-122410000D01*
X142821000Y-122407000D01*
X142815000Y-122404000D01*
X142810000Y-122401000D01*
X142804000Y-122397000D01*
X142799000Y-122393000D01*
X142795000Y-122389000D01*
X142790000Y-122385000D01*
X142786000Y-122380000D01*
X142782000Y-122376000D01*
X142778000Y-122371000D01*
X142774000Y-122365000D01*
X142771000Y-122360000D01*
X142768000Y-122354000D01*
X142765000Y-122349000D01*
X142763000Y-122343000D01*
X142761000Y-122337000D01*
X142759000Y-122331000D01*
X142758000Y-122325000D01*
X142756000Y-122319000D01*
X142756000Y-122313000D01*
X142755000Y-122306000D01*
X142755000Y-122300000D01*
X142755000Y-121800000D01*
X142755000Y-121794000D01*
X142756000Y-121787000D01*
X142756000Y-121781000D01*
X142758000Y-121775000D01*
X142759000Y-121769000D01*
X142761000Y-121763000D01*
X142763000Y-121757000D01*
X142765000Y-121751000D01*
X142768000Y-121746000D01*
X142771000Y-121740000D01*
X142774000Y-121735000D01*
X142778000Y-121729000D01*
X142782000Y-121724000D01*
X142786000Y-121720000D01*
X142790000Y-121715000D01*
X142795000Y-121711000D01*
X142799000Y-121707000D01*
X142804000Y-121703000D01*
X142810000Y-121699000D01*
X142815000Y-121696000D01*
X142821000Y-121693000D01*
X142826000Y-121690000D01*
X142832000Y-121688000D01*
X142838000Y-121686000D01*
X142844000Y-121684000D01*
X142850000Y-121683000D01*
X142856000Y-121681000D01*
X142862000Y-121681000D01*
X142869000Y-121680000D01*
X142875000Y-121680000D01*
X143025000Y-121680000D01*
X143031000Y-121680000D01*
X143038000Y-121681000D01*
G36*
X143038000Y-121681000D02*
G01*
X143044000Y-121681000D01*
X143050000Y-121683000D01*
X143056000Y-121684000D01*
X143062000Y-121686000D01*
X143068000Y-121688000D01*
X143074000Y-121690000D01*
X143079000Y-121693000D01*
X143085000Y-121696000D01*
X143090000Y-121699000D01*
X143096000Y-121703000D01*
X143101000Y-121707000D01*
X143105000Y-121711000D01*
X143110000Y-121715000D01*
X143114000Y-121720000D01*
X143118000Y-121724000D01*
X143122000Y-121729000D01*
X143126000Y-121735000D01*
X143129000Y-121740000D01*
X143132000Y-121746000D01*
X143135000Y-121751000D01*
X143137000Y-121757000D01*
X143139000Y-121763000D01*
X143141000Y-121769000D01*
X143142000Y-121775000D01*
X143144000Y-121781000D01*
X143144000Y-121787000D01*
X143145000Y-121794000D01*
X143145000Y-121800000D01*
X143145000Y-122300000D01*
X143145000Y-122306000D01*
X143144000Y-122313000D01*
X143144000Y-122319000D01*
X143142000Y-122325000D01*
X143141000Y-122331000D01*
X143139000Y-122337000D01*
X143137000Y-122343000D01*
X143135000Y-122349000D01*
X143132000Y-122354000D01*
X143129000Y-122360000D01*
X143126000Y-122365000D01*
X143122000Y-122371000D01*
X143118000Y-122376000D01*
X143114000Y-122380000D01*
X143110000Y-122385000D01*
X143105000Y-122389000D01*
X143101000Y-122393000D01*
X143096000Y-122397000D01*
X143090000Y-122401000D01*
X143085000Y-122404000D01*
X143079000Y-122407000D01*
X143074000Y-122410000D01*
X143068000Y-122412000D01*
X143062000Y-122414000D01*
X143056000Y-122416000D01*
X143050000Y-122417000D01*
X143044000Y-122419000D01*
X143038000Y-122419000D01*
X143031000Y-122420000D01*
X143025000Y-122420000D01*
X142875000Y-122420000D01*
X142869000Y-122420000D01*
X142862000Y-122419000D01*
X142856000Y-122419000D01*
X142850000Y-122417000D01*
X142844000Y-122416000D01*
X142838000Y-122414000D01*
X142832000Y-122412000D01*
X142826000Y-122410000D01*
X142821000Y-122407000D01*
X142815000Y-122404000D01*
X142810000Y-122401000D01*
X142804000Y-122397000D01*
X142799000Y-122393000D01*
X142795000Y-122389000D01*
X142790000Y-122385000D01*
X142786000Y-122380000D01*
X142782000Y-122376000D01*
X142778000Y-122371000D01*
X142774000Y-122365000D01*
X142771000Y-122360000D01*
X142768000Y-122354000D01*
X142765000Y-122349000D01*
X142763000Y-122343000D01*
X142761000Y-122337000D01*
X142759000Y-122331000D01*
X142758000Y-122325000D01*
X142756000Y-122319000D01*
X142756000Y-122313000D01*
X142755000Y-122306000D01*
X142755000Y-122300000D01*
X142755000Y-121800000D01*
X142755000Y-121794000D01*
X142756000Y-121787000D01*
X142756000Y-121781000D01*
X142758000Y-121775000D01*
X142759000Y-121769000D01*
X142761000Y-121763000D01*
X142763000Y-121757000D01*
X142765000Y-121751000D01*
X142768000Y-121746000D01*
X142771000Y-121740000D01*
X142774000Y-121735000D01*
X142778000Y-121729000D01*
X142782000Y-121724000D01*
X142786000Y-121720000D01*
X142790000Y-121715000D01*
X142795000Y-121711000D01*
X142799000Y-121707000D01*
X142804000Y-121703000D01*
X142810000Y-121699000D01*
X142815000Y-121696000D01*
X142821000Y-121693000D01*
X142826000Y-121690000D01*
X142832000Y-121688000D01*
X142838000Y-121686000D01*
X142844000Y-121684000D01*
X142850000Y-121683000D01*
X142856000Y-121681000D01*
X142862000Y-121681000D01*
X142869000Y-121680000D01*
X142875000Y-121680000D01*
X143025000Y-121680000D01*
X143031000Y-121680000D01*
X143038000Y-121681000D01*
G37*
X143038000Y-124981000D02*
X143044000Y-124981000D01*
X143050000Y-124983000D01*
X143056000Y-124984000D01*
X143062000Y-124986000D01*
X143068000Y-124988000D01*
X143074000Y-124990000D01*
X143079000Y-124993000D01*
X143085000Y-124996000D01*
X143090000Y-124999000D01*
X143096000Y-125003000D01*
X143101000Y-125007000D01*
X143105000Y-125011000D01*
X143110000Y-125015000D01*
X143114000Y-125020000D01*
X143118000Y-125024000D01*
X143122000Y-125029000D01*
X143126000Y-125035000D01*
X143129000Y-125040000D01*
X143132000Y-125046000D01*
X143135000Y-125051000D01*
X143137000Y-125057000D01*
X143139000Y-125063000D01*
X143141000Y-125069000D01*
X143142000Y-125075000D01*
X143144000Y-125081000D01*
X143144000Y-125087000D01*
X143145000Y-125094000D01*
X143145000Y-125100000D01*
X143145000Y-125600000D01*
X143145000Y-125606000D01*
X143144000Y-125613000D01*
X143144000Y-125619000D01*
X143142000Y-125625000D01*
X143141000Y-125631000D01*
X143139000Y-125637000D01*
X143137000Y-125643000D01*
X143135000Y-125649000D01*
X143132000Y-125654000D01*
X143129000Y-125660000D01*
X143126000Y-125665000D01*
X143122000Y-125671000D01*
X143118000Y-125676000D01*
X143114000Y-125680000D01*
X143110000Y-125685000D01*
X143105000Y-125689000D01*
X143101000Y-125693000D01*
X143096000Y-125697000D01*
X143090000Y-125701000D01*
X143085000Y-125704000D01*
X143079000Y-125707000D01*
X143074000Y-125710000D01*
X143068000Y-125712000D01*
X143062000Y-125714000D01*
X143056000Y-125716000D01*
X143050000Y-125717000D01*
X143044000Y-125719000D01*
X143038000Y-125719000D01*
X143031000Y-125720000D01*
X143025000Y-125720000D01*
X142875000Y-125720000D01*
X142869000Y-125720000D01*
X142862000Y-125719000D01*
X142856000Y-125719000D01*
X142850000Y-125717000D01*
X142844000Y-125716000D01*
X142838000Y-125714000D01*
X142832000Y-125712000D01*
X142826000Y-125710000D01*
X142821000Y-125707000D01*
X142815000Y-125704000D01*
X142810000Y-125701000D01*
X142804000Y-125697000D01*
X142799000Y-125693000D01*
X142795000Y-125689000D01*
X142790000Y-125685000D01*
X142786000Y-125680000D01*
X142782000Y-125676000D01*
X142778000Y-125671000D01*
X142774000Y-125665000D01*
X142771000Y-125660000D01*
X142768000Y-125654000D01*
X142765000Y-125649000D01*
X142763000Y-125643000D01*
X142761000Y-125637000D01*
X142759000Y-125631000D01*
X142758000Y-125625000D01*
X142756000Y-125619000D01*
X142756000Y-125613000D01*
X142755000Y-125606000D01*
X142755000Y-125600000D01*
X142755000Y-125100000D01*
X142755000Y-125094000D01*
X142756000Y-125087000D01*
X142756000Y-125081000D01*
X142758000Y-125075000D01*
X142759000Y-125069000D01*
X142761000Y-125063000D01*
X142763000Y-125057000D01*
X142765000Y-125051000D01*
X142768000Y-125046000D01*
X142771000Y-125040000D01*
X142774000Y-125035000D01*
X142778000Y-125029000D01*
X142782000Y-125024000D01*
X142786000Y-125020000D01*
X142790000Y-125015000D01*
X142795000Y-125011000D01*
X142799000Y-125007000D01*
X142804000Y-125003000D01*
X142810000Y-124999000D01*
X142815000Y-124996000D01*
X142821000Y-124993000D01*
X142826000Y-124990000D01*
X142832000Y-124988000D01*
X142838000Y-124986000D01*
X142844000Y-124984000D01*
X142850000Y-124983000D01*
X142856000Y-124981000D01*
X142862000Y-124981000D01*
X142869000Y-124980000D01*
X142875000Y-124980000D01*
X143025000Y-124980000D01*
X143031000Y-124980000D01*
X143038000Y-124981000D01*
G36*
X143038000Y-124981000D02*
G01*
X143044000Y-124981000D01*
X143050000Y-124983000D01*
X143056000Y-124984000D01*
X143062000Y-124986000D01*
X143068000Y-124988000D01*
X143074000Y-124990000D01*
X143079000Y-124993000D01*
X143085000Y-124996000D01*
X143090000Y-124999000D01*
X143096000Y-125003000D01*
X143101000Y-125007000D01*
X143105000Y-125011000D01*
X143110000Y-125015000D01*
X143114000Y-125020000D01*
X143118000Y-125024000D01*
X143122000Y-125029000D01*
X143126000Y-125035000D01*
X143129000Y-125040000D01*
X143132000Y-125046000D01*
X143135000Y-125051000D01*
X143137000Y-125057000D01*
X143139000Y-125063000D01*
X143141000Y-125069000D01*
X143142000Y-125075000D01*
X143144000Y-125081000D01*
X143144000Y-125087000D01*
X143145000Y-125094000D01*
X143145000Y-125100000D01*
X143145000Y-125600000D01*
X143145000Y-125606000D01*
X143144000Y-125613000D01*
X143144000Y-125619000D01*
X143142000Y-125625000D01*
X143141000Y-125631000D01*
X143139000Y-125637000D01*
X143137000Y-125643000D01*
X143135000Y-125649000D01*
X143132000Y-125654000D01*
X143129000Y-125660000D01*
X143126000Y-125665000D01*
X143122000Y-125671000D01*
X143118000Y-125676000D01*
X143114000Y-125680000D01*
X143110000Y-125685000D01*
X143105000Y-125689000D01*
X143101000Y-125693000D01*
X143096000Y-125697000D01*
X143090000Y-125701000D01*
X143085000Y-125704000D01*
X143079000Y-125707000D01*
X143074000Y-125710000D01*
X143068000Y-125712000D01*
X143062000Y-125714000D01*
X143056000Y-125716000D01*
X143050000Y-125717000D01*
X143044000Y-125719000D01*
X143038000Y-125719000D01*
X143031000Y-125720000D01*
X143025000Y-125720000D01*
X142875000Y-125720000D01*
X142869000Y-125720000D01*
X142862000Y-125719000D01*
X142856000Y-125719000D01*
X142850000Y-125717000D01*
X142844000Y-125716000D01*
X142838000Y-125714000D01*
X142832000Y-125712000D01*
X142826000Y-125710000D01*
X142821000Y-125707000D01*
X142815000Y-125704000D01*
X142810000Y-125701000D01*
X142804000Y-125697000D01*
X142799000Y-125693000D01*
X142795000Y-125689000D01*
X142790000Y-125685000D01*
X142786000Y-125680000D01*
X142782000Y-125676000D01*
X142778000Y-125671000D01*
X142774000Y-125665000D01*
X142771000Y-125660000D01*
X142768000Y-125654000D01*
X142765000Y-125649000D01*
X142763000Y-125643000D01*
X142761000Y-125637000D01*
X142759000Y-125631000D01*
X142758000Y-125625000D01*
X142756000Y-125619000D01*
X142756000Y-125613000D01*
X142755000Y-125606000D01*
X142755000Y-125600000D01*
X142755000Y-125100000D01*
X142755000Y-125094000D01*
X142756000Y-125087000D01*
X142756000Y-125081000D01*
X142758000Y-125075000D01*
X142759000Y-125069000D01*
X142761000Y-125063000D01*
X142763000Y-125057000D01*
X142765000Y-125051000D01*
X142768000Y-125046000D01*
X142771000Y-125040000D01*
X142774000Y-125035000D01*
X142778000Y-125029000D01*
X142782000Y-125024000D01*
X142786000Y-125020000D01*
X142790000Y-125015000D01*
X142795000Y-125011000D01*
X142799000Y-125007000D01*
X142804000Y-125003000D01*
X142810000Y-124999000D01*
X142815000Y-124996000D01*
X142821000Y-124993000D01*
X142826000Y-124990000D01*
X142832000Y-124988000D01*
X142838000Y-124986000D01*
X142844000Y-124984000D01*
X142850000Y-124983000D01*
X142856000Y-124981000D01*
X142862000Y-124981000D01*
X142869000Y-124980000D01*
X142875000Y-124980000D01*
X143025000Y-124980000D01*
X143031000Y-124980000D01*
X143038000Y-124981000D01*
G37*
X143538000Y-121681000D02*
X143544000Y-121681000D01*
X143550000Y-121683000D01*
X143556000Y-121684000D01*
X143562000Y-121686000D01*
X143568000Y-121688000D01*
X143574000Y-121690000D01*
X143579000Y-121693000D01*
X143585000Y-121696000D01*
X143590000Y-121699000D01*
X143596000Y-121703000D01*
X143601000Y-121707000D01*
X143605000Y-121711000D01*
X143610000Y-121715000D01*
X143614000Y-121720000D01*
X143618000Y-121724000D01*
X143622000Y-121729000D01*
X143626000Y-121735000D01*
X143629000Y-121740000D01*
X143632000Y-121746000D01*
X143635000Y-121751000D01*
X143637000Y-121757000D01*
X143639000Y-121763000D01*
X143641000Y-121769000D01*
X143642000Y-121775000D01*
X143644000Y-121781000D01*
X143644000Y-121787000D01*
X143645000Y-121794000D01*
X143645000Y-121800000D01*
X143645000Y-122300000D01*
X143645000Y-122306000D01*
X143644000Y-122313000D01*
X143644000Y-122319000D01*
X143642000Y-122325000D01*
X143641000Y-122331000D01*
X143639000Y-122337000D01*
X143637000Y-122343000D01*
X143635000Y-122349000D01*
X143632000Y-122354000D01*
X143629000Y-122360000D01*
X143626000Y-122365000D01*
X143622000Y-122371000D01*
X143618000Y-122376000D01*
X143614000Y-122380000D01*
X143610000Y-122385000D01*
X143605000Y-122389000D01*
X143601000Y-122393000D01*
X143596000Y-122397000D01*
X143590000Y-122401000D01*
X143585000Y-122404000D01*
X143579000Y-122407000D01*
X143574000Y-122410000D01*
X143568000Y-122412000D01*
X143562000Y-122414000D01*
X143556000Y-122416000D01*
X143550000Y-122417000D01*
X143544000Y-122419000D01*
X143538000Y-122419000D01*
X143531000Y-122420000D01*
X143525000Y-122420000D01*
X143375000Y-122420000D01*
X143369000Y-122420000D01*
X143362000Y-122419000D01*
X143356000Y-122419000D01*
X143350000Y-122417000D01*
X143344000Y-122416000D01*
X143338000Y-122414000D01*
X143332000Y-122412000D01*
X143326000Y-122410000D01*
X143321000Y-122407000D01*
X143315000Y-122404000D01*
X143310000Y-122401000D01*
X143304000Y-122397000D01*
X143299000Y-122393000D01*
X143295000Y-122389000D01*
X143290000Y-122385000D01*
X143286000Y-122380000D01*
X143282000Y-122376000D01*
X143278000Y-122371000D01*
X143274000Y-122365000D01*
X143271000Y-122360000D01*
X143268000Y-122354000D01*
X143265000Y-122349000D01*
X143263000Y-122343000D01*
X143261000Y-122337000D01*
X143259000Y-122331000D01*
X143258000Y-122325000D01*
X143256000Y-122319000D01*
X143256000Y-122313000D01*
X143255000Y-122306000D01*
X143255000Y-122300000D01*
X143255000Y-121800000D01*
X143255000Y-121794000D01*
X143256000Y-121787000D01*
X143256000Y-121781000D01*
X143258000Y-121775000D01*
X143259000Y-121769000D01*
X143261000Y-121763000D01*
X143263000Y-121757000D01*
X143265000Y-121751000D01*
X143268000Y-121746000D01*
X143271000Y-121740000D01*
X143274000Y-121735000D01*
X143278000Y-121729000D01*
X143282000Y-121724000D01*
X143286000Y-121720000D01*
X143290000Y-121715000D01*
X143295000Y-121711000D01*
X143299000Y-121707000D01*
X143304000Y-121703000D01*
X143310000Y-121699000D01*
X143315000Y-121696000D01*
X143321000Y-121693000D01*
X143326000Y-121690000D01*
X143332000Y-121688000D01*
X143338000Y-121686000D01*
X143344000Y-121684000D01*
X143350000Y-121683000D01*
X143356000Y-121681000D01*
X143362000Y-121681000D01*
X143369000Y-121680000D01*
X143375000Y-121680000D01*
X143525000Y-121680000D01*
X143531000Y-121680000D01*
X143538000Y-121681000D01*
G36*
X143538000Y-121681000D02*
G01*
X143544000Y-121681000D01*
X143550000Y-121683000D01*
X143556000Y-121684000D01*
X143562000Y-121686000D01*
X143568000Y-121688000D01*
X143574000Y-121690000D01*
X143579000Y-121693000D01*
X143585000Y-121696000D01*
X143590000Y-121699000D01*
X143596000Y-121703000D01*
X143601000Y-121707000D01*
X143605000Y-121711000D01*
X143610000Y-121715000D01*
X143614000Y-121720000D01*
X143618000Y-121724000D01*
X143622000Y-121729000D01*
X143626000Y-121735000D01*
X143629000Y-121740000D01*
X143632000Y-121746000D01*
X143635000Y-121751000D01*
X143637000Y-121757000D01*
X143639000Y-121763000D01*
X143641000Y-121769000D01*
X143642000Y-121775000D01*
X143644000Y-121781000D01*
X143644000Y-121787000D01*
X143645000Y-121794000D01*
X143645000Y-121800000D01*
X143645000Y-122300000D01*
X143645000Y-122306000D01*
X143644000Y-122313000D01*
X143644000Y-122319000D01*
X143642000Y-122325000D01*
X143641000Y-122331000D01*
X143639000Y-122337000D01*
X143637000Y-122343000D01*
X143635000Y-122349000D01*
X143632000Y-122354000D01*
X143629000Y-122360000D01*
X143626000Y-122365000D01*
X143622000Y-122371000D01*
X143618000Y-122376000D01*
X143614000Y-122380000D01*
X143610000Y-122385000D01*
X143605000Y-122389000D01*
X143601000Y-122393000D01*
X143596000Y-122397000D01*
X143590000Y-122401000D01*
X143585000Y-122404000D01*
X143579000Y-122407000D01*
X143574000Y-122410000D01*
X143568000Y-122412000D01*
X143562000Y-122414000D01*
X143556000Y-122416000D01*
X143550000Y-122417000D01*
X143544000Y-122419000D01*
X143538000Y-122419000D01*
X143531000Y-122420000D01*
X143525000Y-122420000D01*
X143375000Y-122420000D01*
X143369000Y-122420000D01*
X143362000Y-122419000D01*
X143356000Y-122419000D01*
X143350000Y-122417000D01*
X143344000Y-122416000D01*
X143338000Y-122414000D01*
X143332000Y-122412000D01*
X143326000Y-122410000D01*
X143321000Y-122407000D01*
X143315000Y-122404000D01*
X143310000Y-122401000D01*
X143304000Y-122397000D01*
X143299000Y-122393000D01*
X143295000Y-122389000D01*
X143290000Y-122385000D01*
X143286000Y-122380000D01*
X143282000Y-122376000D01*
X143278000Y-122371000D01*
X143274000Y-122365000D01*
X143271000Y-122360000D01*
X143268000Y-122354000D01*
X143265000Y-122349000D01*
X143263000Y-122343000D01*
X143261000Y-122337000D01*
X143259000Y-122331000D01*
X143258000Y-122325000D01*
X143256000Y-122319000D01*
X143256000Y-122313000D01*
X143255000Y-122306000D01*
X143255000Y-122300000D01*
X143255000Y-121800000D01*
X143255000Y-121794000D01*
X143256000Y-121787000D01*
X143256000Y-121781000D01*
X143258000Y-121775000D01*
X143259000Y-121769000D01*
X143261000Y-121763000D01*
X143263000Y-121757000D01*
X143265000Y-121751000D01*
X143268000Y-121746000D01*
X143271000Y-121740000D01*
X143274000Y-121735000D01*
X143278000Y-121729000D01*
X143282000Y-121724000D01*
X143286000Y-121720000D01*
X143290000Y-121715000D01*
X143295000Y-121711000D01*
X143299000Y-121707000D01*
X143304000Y-121703000D01*
X143310000Y-121699000D01*
X143315000Y-121696000D01*
X143321000Y-121693000D01*
X143326000Y-121690000D01*
X143332000Y-121688000D01*
X143338000Y-121686000D01*
X143344000Y-121684000D01*
X143350000Y-121683000D01*
X143356000Y-121681000D01*
X143362000Y-121681000D01*
X143369000Y-121680000D01*
X143375000Y-121680000D01*
X143525000Y-121680000D01*
X143531000Y-121680000D01*
X143538000Y-121681000D01*
G37*
X143538000Y-124981000D02*
X143544000Y-124981000D01*
X143550000Y-124983000D01*
X143556000Y-124984000D01*
X143562000Y-124986000D01*
X143568000Y-124988000D01*
X143574000Y-124990000D01*
X143579000Y-124993000D01*
X143585000Y-124996000D01*
X143590000Y-124999000D01*
X143596000Y-125003000D01*
X143601000Y-125007000D01*
X143605000Y-125011000D01*
X143610000Y-125015000D01*
X143614000Y-125020000D01*
X143618000Y-125024000D01*
X143622000Y-125029000D01*
X143626000Y-125035000D01*
X143629000Y-125040000D01*
X143632000Y-125046000D01*
X143635000Y-125051000D01*
X143637000Y-125057000D01*
X143639000Y-125063000D01*
X143641000Y-125069000D01*
X143642000Y-125075000D01*
X143644000Y-125081000D01*
X143644000Y-125087000D01*
X143645000Y-125094000D01*
X143645000Y-125100000D01*
X143645000Y-125600000D01*
X143645000Y-125606000D01*
X143644000Y-125613000D01*
X143644000Y-125619000D01*
X143642000Y-125625000D01*
X143641000Y-125631000D01*
X143639000Y-125637000D01*
X143637000Y-125643000D01*
X143635000Y-125649000D01*
X143632000Y-125654000D01*
X143629000Y-125660000D01*
X143626000Y-125665000D01*
X143622000Y-125671000D01*
X143618000Y-125676000D01*
X143614000Y-125680000D01*
X143610000Y-125685000D01*
X143605000Y-125689000D01*
X143601000Y-125693000D01*
X143596000Y-125697000D01*
X143590000Y-125701000D01*
X143585000Y-125704000D01*
X143579000Y-125707000D01*
X143574000Y-125710000D01*
X143568000Y-125712000D01*
X143562000Y-125714000D01*
X143556000Y-125716000D01*
X143550000Y-125717000D01*
X143544000Y-125719000D01*
X143538000Y-125719000D01*
X143531000Y-125720000D01*
X143525000Y-125720000D01*
X143375000Y-125720000D01*
X143369000Y-125720000D01*
X143362000Y-125719000D01*
X143356000Y-125719000D01*
X143350000Y-125717000D01*
X143344000Y-125716000D01*
X143338000Y-125714000D01*
X143332000Y-125712000D01*
X143326000Y-125710000D01*
X143321000Y-125707000D01*
X143315000Y-125704000D01*
X143310000Y-125701000D01*
X143304000Y-125697000D01*
X143299000Y-125693000D01*
X143295000Y-125689000D01*
X143290000Y-125685000D01*
X143286000Y-125680000D01*
X143282000Y-125676000D01*
X143278000Y-125671000D01*
X143274000Y-125665000D01*
X143271000Y-125660000D01*
X143268000Y-125654000D01*
X143265000Y-125649000D01*
X143263000Y-125643000D01*
X143261000Y-125637000D01*
X143259000Y-125631000D01*
X143258000Y-125625000D01*
X143256000Y-125619000D01*
X143256000Y-125613000D01*
X143255000Y-125606000D01*
X143255000Y-125600000D01*
X143255000Y-125100000D01*
X143255000Y-125094000D01*
X143256000Y-125087000D01*
X143256000Y-125081000D01*
X143258000Y-125075000D01*
X143259000Y-125069000D01*
X143261000Y-125063000D01*
X143263000Y-125057000D01*
X143265000Y-125051000D01*
X143268000Y-125046000D01*
X143271000Y-125040000D01*
X143274000Y-125035000D01*
X143278000Y-125029000D01*
X143282000Y-125024000D01*
X143286000Y-125020000D01*
X143290000Y-125015000D01*
X143295000Y-125011000D01*
X143299000Y-125007000D01*
X143304000Y-125003000D01*
X143310000Y-124999000D01*
X143315000Y-124996000D01*
X143321000Y-124993000D01*
X143326000Y-124990000D01*
X143332000Y-124988000D01*
X143338000Y-124986000D01*
X143344000Y-124984000D01*
X143350000Y-124983000D01*
X143356000Y-124981000D01*
X143362000Y-124981000D01*
X143369000Y-124980000D01*
X143375000Y-124980000D01*
X143525000Y-124980000D01*
X143531000Y-124980000D01*
X143538000Y-124981000D01*
G36*
X143538000Y-124981000D02*
G01*
X143544000Y-124981000D01*
X143550000Y-124983000D01*
X143556000Y-124984000D01*
X143562000Y-124986000D01*
X143568000Y-124988000D01*
X143574000Y-124990000D01*
X143579000Y-124993000D01*
X143585000Y-124996000D01*
X143590000Y-124999000D01*
X143596000Y-125003000D01*
X143601000Y-125007000D01*
X143605000Y-125011000D01*
X143610000Y-125015000D01*
X143614000Y-125020000D01*
X143618000Y-125024000D01*
X143622000Y-125029000D01*
X143626000Y-125035000D01*
X143629000Y-125040000D01*
X143632000Y-125046000D01*
X143635000Y-125051000D01*
X143637000Y-125057000D01*
X143639000Y-125063000D01*
X143641000Y-125069000D01*
X143642000Y-125075000D01*
X143644000Y-125081000D01*
X143644000Y-125087000D01*
X143645000Y-125094000D01*
X143645000Y-125100000D01*
X143645000Y-125600000D01*
X143645000Y-125606000D01*
X143644000Y-125613000D01*
X143644000Y-125619000D01*
X143642000Y-125625000D01*
X143641000Y-125631000D01*
X143639000Y-125637000D01*
X143637000Y-125643000D01*
X143635000Y-125649000D01*
X143632000Y-125654000D01*
X143629000Y-125660000D01*
X143626000Y-125665000D01*
X143622000Y-125671000D01*
X143618000Y-125676000D01*
X143614000Y-125680000D01*
X143610000Y-125685000D01*
X143605000Y-125689000D01*
X143601000Y-125693000D01*
X143596000Y-125697000D01*
X143590000Y-125701000D01*
X143585000Y-125704000D01*
X143579000Y-125707000D01*
X143574000Y-125710000D01*
X143568000Y-125712000D01*
X143562000Y-125714000D01*
X143556000Y-125716000D01*
X143550000Y-125717000D01*
X143544000Y-125719000D01*
X143538000Y-125719000D01*
X143531000Y-125720000D01*
X143525000Y-125720000D01*
X143375000Y-125720000D01*
X143369000Y-125720000D01*
X143362000Y-125719000D01*
X143356000Y-125719000D01*
X143350000Y-125717000D01*
X143344000Y-125716000D01*
X143338000Y-125714000D01*
X143332000Y-125712000D01*
X143326000Y-125710000D01*
X143321000Y-125707000D01*
X143315000Y-125704000D01*
X143310000Y-125701000D01*
X143304000Y-125697000D01*
X143299000Y-125693000D01*
X143295000Y-125689000D01*
X143290000Y-125685000D01*
X143286000Y-125680000D01*
X143282000Y-125676000D01*
X143278000Y-125671000D01*
X143274000Y-125665000D01*
X143271000Y-125660000D01*
X143268000Y-125654000D01*
X143265000Y-125649000D01*
X143263000Y-125643000D01*
X143261000Y-125637000D01*
X143259000Y-125631000D01*
X143258000Y-125625000D01*
X143256000Y-125619000D01*
X143256000Y-125613000D01*
X143255000Y-125606000D01*
X143255000Y-125600000D01*
X143255000Y-125100000D01*
X143255000Y-125094000D01*
X143256000Y-125087000D01*
X143256000Y-125081000D01*
X143258000Y-125075000D01*
X143259000Y-125069000D01*
X143261000Y-125063000D01*
X143263000Y-125057000D01*
X143265000Y-125051000D01*
X143268000Y-125046000D01*
X143271000Y-125040000D01*
X143274000Y-125035000D01*
X143278000Y-125029000D01*
X143282000Y-125024000D01*
X143286000Y-125020000D01*
X143290000Y-125015000D01*
X143295000Y-125011000D01*
X143299000Y-125007000D01*
X143304000Y-125003000D01*
X143310000Y-124999000D01*
X143315000Y-124996000D01*
X143321000Y-124993000D01*
X143326000Y-124990000D01*
X143332000Y-124988000D01*
X143338000Y-124986000D01*
X143344000Y-124984000D01*
X143350000Y-124983000D01*
X143356000Y-124981000D01*
X143362000Y-124981000D01*
X143369000Y-124980000D01*
X143375000Y-124980000D01*
X143525000Y-124980000D01*
X143531000Y-124980000D01*
X143538000Y-124981000D01*
G37*
X144038000Y-121681000D02*
X144044000Y-121681000D01*
X144050000Y-121683000D01*
X144056000Y-121684000D01*
X144062000Y-121686000D01*
X144068000Y-121688000D01*
X144074000Y-121690000D01*
X144079000Y-121693000D01*
X144085000Y-121696000D01*
X144090000Y-121699000D01*
X144096000Y-121703000D01*
X144101000Y-121707000D01*
X144105000Y-121711000D01*
X144110000Y-121715000D01*
X144114000Y-121720000D01*
X144118000Y-121724000D01*
X144122000Y-121729000D01*
X144126000Y-121735000D01*
X144129000Y-121740000D01*
X144132000Y-121746000D01*
X144135000Y-121751000D01*
X144137000Y-121757000D01*
X144139000Y-121763000D01*
X144141000Y-121769000D01*
X144142000Y-121775000D01*
X144144000Y-121781000D01*
X144144000Y-121787000D01*
X144145000Y-121794000D01*
X144145000Y-121800000D01*
X144145000Y-122300000D01*
X144145000Y-122306000D01*
X144144000Y-122313000D01*
X144144000Y-122319000D01*
X144142000Y-122325000D01*
X144141000Y-122331000D01*
X144139000Y-122337000D01*
X144137000Y-122343000D01*
X144135000Y-122349000D01*
X144132000Y-122354000D01*
X144129000Y-122360000D01*
X144126000Y-122365000D01*
X144122000Y-122371000D01*
X144118000Y-122376000D01*
X144114000Y-122380000D01*
X144110000Y-122385000D01*
X144105000Y-122389000D01*
X144101000Y-122393000D01*
X144096000Y-122397000D01*
X144090000Y-122401000D01*
X144085000Y-122404000D01*
X144079000Y-122407000D01*
X144074000Y-122410000D01*
X144068000Y-122412000D01*
X144062000Y-122414000D01*
X144056000Y-122416000D01*
X144050000Y-122417000D01*
X144044000Y-122419000D01*
X144038000Y-122419000D01*
X144031000Y-122420000D01*
X144025000Y-122420000D01*
X143875000Y-122420000D01*
X143869000Y-122420000D01*
X143862000Y-122419000D01*
X143856000Y-122419000D01*
X143850000Y-122417000D01*
X143844000Y-122416000D01*
X143838000Y-122414000D01*
X143832000Y-122412000D01*
X143826000Y-122410000D01*
X143821000Y-122407000D01*
X143815000Y-122404000D01*
X143810000Y-122401000D01*
X143804000Y-122397000D01*
X143799000Y-122393000D01*
X143795000Y-122389000D01*
X143790000Y-122385000D01*
X143786000Y-122380000D01*
X143782000Y-122376000D01*
X143778000Y-122371000D01*
X143774000Y-122365000D01*
X143771000Y-122360000D01*
X143768000Y-122354000D01*
X143765000Y-122349000D01*
X143763000Y-122343000D01*
X143761000Y-122337000D01*
X143759000Y-122331000D01*
X143758000Y-122325000D01*
X143756000Y-122319000D01*
X143756000Y-122313000D01*
X143755000Y-122306000D01*
X143755000Y-122300000D01*
X143755000Y-121800000D01*
X143755000Y-121794000D01*
X143756000Y-121787000D01*
X143756000Y-121781000D01*
X143758000Y-121775000D01*
X143759000Y-121769000D01*
X143761000Y-121763000D01*
X143763000Y-121757000D01*
X143765000Y-121751000D01*
X143768000Y-121746000D01*
X143771000Y-121740000D01*
X143774000Y-121735000D01*
X143778000Y-121729000D01*
X143782000Y-121724000D01*
X143786000Y-121720000D01*
X143790000Y-121715000D01*
X143795000Y-121711000D01*
X143799000Y-121707000D01*
X143804000Y-121703000D01*
X143810000Y-121699000D01*
X143815000Y-121696000D01*
X143821000Y-121693000D01*
X143826000Y-121690000D01*
X143832000Y-121688000D01*
X143838000Y-121686000D01*
X143844000Y-121684000D01*
X143850000Y-121683000D01*
X143856000Y-121681000D01*
X143862000Y-121681000D01*
X143869000Y-121680000D01*
X143875000Y-121680000D01*
X144025000Y-121680000D01*
X144031000Y-121680000D01*
X144038000Y-121681000D01*
G36*
X144038000Y-121681000D02*
G01*
X144044000Y-121681000D01*
X144050000Y-121683000D01*
X144056000Y-121684000D01*
X144062000Y-121686000D01*
X144068000Y-121688000D01*
X144074000Y-121690000D01*
X144079000Y-121693000D01*
X144085000Y-121696000D01*
X144090000Y-121699000D01*
X144096000Y-121703000D01*
X144101000Y-121707000D01*
X144105000Y-121711000D01*
X144110000Y-121715000D01*
X144114000Y-121720000D01*
X144118000Y-121724000D01*
X144122000Y-121729000D01*
X144126000Y-121735000D01*
X144129000Y-121740000D01*
X144132000Y-121746000D01*
X144135000Y-121751000D01*
X144137000Y-121757000D01*
X144139000Y-121763000D01*
X144141000Y-121769000D01*
X144142000Y-121775000D01*
X144144000Y-121781000D01*
X144144000Y-121787000D01*
X144145000Y-121794000D01*
X144145000Y-121800000D01*
X144145000Y-122300000D01*
X144145000Y-122306000D01*
X144144000Y-122313000D01*
X144144000Y-122319000D01*
X144142000Y-122325000D01*
X144141000Y-122331000D01*
X144139000Y-122337000D01*
X144137000Y-122343000D01*
X144135000Y-122349000D01*
X144132000Y-122354000D01*
X144129000Y-122360000D01*
X144126000Y-122365000D01*
X144122000Y-122371000D01*
X144118000Y-122376000D01*
X144114000Y-122380000D01*
X144110000Y-122385000D01*
X144105000Y-122389000D01*
X144101000Y-122393000D01*
X144096000Y-122397000D01*
X144090000Y-122401000D01*
X144085000Y-122404000D01*
X144079000Y-122407000D01*
X144074000Y-122410000D01*
X144068000Y-122412000D01*
X144062000Y-122414000D01*
X144056000Y-122416000D01*
X144050000Y-122417000D01*
X144044000Y-122419000D01*
X144038000Y-122419000D01*
X144031000Y-122420000D01*
X144025000Y-122420000D01*
X143875000Y-122420000D01*
X143869000Y-122420000D01*
X143862000Y-122419000D01*
X143856000Y-122419000D01*
X143850000Y-122417000D01*
X143844000Y-122416000D01*
X143838000Y-122414000D01*
X143832000Y-122412000D01*
X143826000Y-122410000D01*
X143821000Y-122407000D01*
X143815000Y-122404000D01*
X143810000Y-122401000D01*
X143804000Y-122397000D01*
X143799000Y-122393000D01*
X143795000Y-122389000D01*
X143790000Y-122385000D01*
X143786000Y-122380000D01*
X143782000Y-122376000D01*
X143778000Y-122371000D01*
X143774000Y-122365000D01*
X143771000Y-122360000D01*
X143768000Y-122354000D01*
X143765000Y-122349000D01*
X143763000Y-122343000D01*
X143761000Y-122337000D01*
X143759000Y-122331000D01*
X143758000Y-122325000D01*
X143756000Y-122319000D01*
X143756000Y-122313000D01*
X143755000Y-122306000D01*
X143755000Y-122300000D01*
X143755000Y-121800000D01*
X143755000Y-121794000D01*
X143756000Y-121787000D01*
X143756000Y-121781000D01*
X143758000Y-121775000D01*
X143759000Y-121769000D01*
X143761000Y-121763000D01*
X143763000Y-121757000D01*
X143765000Y-121751000D01*
X143768000Y-121746000D01*
X143771000Y-121740000D01*
X143774000Y-121735000D01*
X143778000Y-121729000D01*
X143782000Y-121724000D01*
X143786000Y-121720000D01*
X143790000Y-121715000D01*
X143795000Y-121711000D01*
X143799000Y-121707000D01*
X143804000Y-121703000D01*
X143810000Y-121699000D01*
X143815000Y-121696000D01*
X143821000Y-121693000D01*
X143826000Y-121690000D01*
X143832000Y-121688000D01*
X143838000Y-121686000D01*
X143844000Y-121684000D01*
X143850000Y-121683000D01*
X143856000Y-121681000D01*
X143862000Y-121681000D01*
X143869000Y-121680000D01*
X143875000Y-121680000D01*
X144025000Y-121680000D01*
X144031000Y-121680000D01*
X144038000Y-121681000D01*
G37*
X144038000Y-124981000D02*
X144044000Y-124981000D01*
X144050000Y-124983000D01*
X144056000Y-124984000D01*
X144062000Y-124986000D01*
X144068000Y-124988000D01*
X144074000Y-124990000D01*
X144079000Y-124993000D01*
X144085000Y-124996000D01*
X144090000Y-124999000D01*
X144096000Y-125003000D01*
X144101000Y-125007000D01*
X144105000Y-125011000D01*
X144110000Y-125015000D01*
X144114000Y-125020000D01*
X144118000Y-125024000D01*
X144122000Y-125029000D01*
X144126000Y-125035000D01*
X144129000Y-125040000D01*
X144132000Y-125046000D01*
X144135000Y-125051000D01*
X144137000Y-125057000D01*
X144139000Y-125063000D01*
X144141000Y-125069000D01*
X144142000Y-125075000D01*
X144144000Y-125081000D01*
X144144000Y-125087000D01*
X144145000Y-125094000D01*
X144145000Y-125100000D01*
X144145000Y-125600000D01*
X144145000Y-125606000D01*
X144144000Y-125613000D01*
X144144000Y-125619000D01*
X144142000Y-125625000D01*
X144141000Y-125631000D01*
X144139000Y-125637000D01*
X144137000Y-125643000D01*
X144135000Y-125649000D01*
X144132000Y-125654000D01*
X144129000Y-125660000D01*
X144126000Y-125665000D01*
X144122000Y-125671000D01*
X144118000Y-125676000D01*
X144114000Y-125680000D01*
X144110000Y-125685000D01*
X144105000Y-125689000D01*
X144101000Y-125693000D01*
X144096000Y-125697000D01*
X144090000Y-125701000D01*
X144085000Y-125704000D01*
X144079000Y-125707000D01*
X144074000Y-125710000D01*
X144068000Y-125712000D01*
X144062000Y-125714000D01*
X144056000Y-125716000D01*
X144050000Y-125717000D01*
X144044000Y-125719000D01*
X144038000Y-125719000D01*
X144031000Y-125720000D01*
X144025000Y-125720000D01*
X143875000Y-125720000D01*
X143869000Y-125720000D01*
X143862000Y-125719000D01*
X143856000Y-125719000D01*
X143850000Y-125717000D01*
X143844000Y-125716000D01*
X143838000Y-125714000D01*
X143832000Y-125712000D01*
X143826000Y-125710000D01*
X143821000Y-125707000D01*
X143815000Y-125704000D01*
X143810000Y-125701000D01*
X143804000Y-125697000D01*
X143799000Y-125693000D01*
X143795000Y-125689000D01*
X143790000Y-125685000D01*
X143786000Y-125680000D01*
X143782000Y-125676000D01*
X143778000Y-125671000D01*
X143774000Y-125665000D01*
X143771000Y-125660000D01*
X143768000Y-125654000D01*
X143765000Y-125649000D01*
X143763000Y-125643000D01*
X143761000Y-125637000D01*
X143759000Y-125631000D01*
X143758000Y-125625000D01*
X143756000Y-125619000D01*
X143756000Y-125613000D01*
X143755000Y-125606000D01*
X143755000Y-125600000D01*
X143755000Y-125100000D01*
X143755000Y-125094000D01*
X143756000Y-125087000D01*
X143756000Y-125081000D01*
X143758000Y-125075000D01*
X143759000Y-125069000D01*
X143761000Y-125063000D01*
X143763000Y-125057000D01*
X143765000Y-125051000D01*
X143768000Y-125046000D01*
X143771000Y-125040000D01*
X143774000Y-125035000D01*
X143778000Y-125029000D01*
X143782000Y-125024000D01*
X143786000Y-125020000D01*
X143790000Y-125015000D01*
X143795000Y-125011000D01*
X143799000Y-125007000D01*
X143804000Y-125003000D01*
X143810000Y-124999000D01*
X143815000Y-124996000D01*
X143821000Y-124993000D01*
X143826000Y-124990000D01*
X143832000Y-124988000D01*
X143838000Y-124986000D01*
X143844000Y-124984000D01*
X143850000Y-124983000D01*
X143856000Y-124981000D01*
X143862000Y-124981000D01*
X143869000Y-124980000D01*
X143875000Y-124980000D01*
X144025000Y-124980000D01*
X144031000Y-124980000D01*
X144038000Y-124981000D01*
G36*
X144038000Y-124981000D02*
G01*
X144044000Y-124981000D01*
X144050000Y-124983000D01*
X144056000Y-124984000D01*
X144062000Y-124986000D01*
X144068000Y-124988000D01*
X144074000Y-124990000D01*
X144079000Y-124993000D01*
X144085000Y-124996000D01*
X144090000Y-124999000D01*
X144096000Y-125003000D01*
X144101000Y-125007000D01*
X144105000Y-125011000D01*
X144110000Y-125015000D01*
X144114000Y-125020000D01*
X144118000Y-125024000D01*
X144122000Y-125029000D01*
X144126000Y-125035000D01*
X144129000Y-125040000D01*
X144132000Y-125046000D01*
X144135000Y-125051000D01*
X144137000Y-125057000D01*
X144139000Y-125063000D01*
X144141000Y-125069000D01*
X144142000Y-125075000D01*
X144144000Y-125081000D01*
X144144000Y-125087000D01*
X144145000Y-125094000D01*
X144145000Y-125100000D01*
X144145000Y-125600000D01*
X144145000Y-125606000D01*
X144144000Y-125613000D01*
X144144000Y-125619000D01*
X144142000Y-125625000D01*
X144141000Y-125631000D01*
X144139000Y-125637000D01*
X144137000Y-125643000D01*
X144135000Y-125649000D01*
X144132000Y-125654000D01*
X144129000Y-125660000D01*
X144126000Y-125665000D01*
X144122000Y-125671000D01*
X144118000Y-125676000D01*
X144114000Y-125680000D01*
X144110000Y-125685000D01*
X144105000Y-125689000D01*
X144101000Y-125693000D01*
X144096000Y-125697000D01*
X144090000Y-125701000D01*
X144085000Y-125704000D01*
X144079000Y-125707000D01*
X144074000Y-125710000D01*
X144068000Y-125712000D01*
X144062000Y-125714000D01*
X144056000Y-125716000D01*
X144050000Y-125717000D01*
X144044000Y-125719000D01*
X144038000Y-125719000D01*
X144031000Y-125720000D01*
X144025000Y-125720000D01*
X143875000Y-125720000D01*
X143869000Y-125720000D01*
X143862000Y-125719000D01*
X143856000Y-125719000D01*
X143850000Y-125717000D01*
X143844000Y-125716000D01*
X143838000Y-125714000D01*
X143832000Y-125712000D01*
X143826000Y-125710000D01*
X143821000Y-125707000D01*
X143815000Y-125704000D01*
X143810000Y-125701000D01*
X143804000Y-125697000D01*
X143799000Y-125693000D01*
X143795000Y-125689000D01*
X143790000Y-125685000D01*
X143786000Y-125680000D01*
X143782000Y-125676000D01*
X143778000Y-125671000D01*
X143774000Y-125665000D01*
X143771000Y-125660000D01*
X143768000Y-125654000D01*
X143765000Y-125649000D01*
X143763000Y-125643000D01*
X143761000Y-125637000D01*
X143759000Y-125631000D01*
X143758000Y-125625000D01*
X143756000Y-125619000D01*
X143756000Y-125613000D01*
X143755000Y-125606000D01*
X143755000Y-125600000D01*
X143755000Y-125100000D01*
X143755000Y-125094000D01*
X143756000Y-125087000D01*
X143756000Y-125081000D01*
X143758000Y-125075000D01*
X143759000Y-125069000D01*
X143761000Y-125063000D01*
X143763000Y-125057000D01*
X143765000Y-125051000D01*
X143768000Y-125046000D01*
X143771000Y-125040000D01*
X143774000Y-125035000D01*
X143778000Y-125029000D01*
X143782000Y-125024000D01*
X143786000Y-125020000D01*
X143790000Y-125015000D01*
X143795000Y-125011000D01*
X143799000Y-125007000D01*
X143804000Y-125003000D01*
X143810000Y-124999000D01*
X143815000Y-124996000D01*
X143821000Y-124993000D01*
X143826000Y-124990000D01*
X143832000Y-124988000D01*
X143838000Y-124986000D01*
X143844000Y-124984000D01*
X143850000Y-124983000D01*
X143856000Y-124981000D01*
X143862000Y-124981000D01*
X143869000Y-124980000D01*
X143875000Y-124980000D01*
X144025000Y-124980000D01*
X144031000Y-124980000D01*
X144038000Y-124981000D01*
G37*
X144513000Y-122781000D02*
X144519000Y-122781000D01*
X144525000Y-122783000D01*
X144531000Y-122784000D01*
X144537000Y-122786000D01*
X144543000Y-122788000D01*
X144549000Y-122790000D01*
X144554000Y-122793000D01*
X144560000Y-122796000D01*
X144565000Y-122799000D01*
X144571000Y-122803000D01*
X144576000Y-122807000D01*
X144580000Y-122811000D01*
X144585000Y-122815000D01*
X144589000Y-122820000D01*
X144593000Y-122824000D01*
X144597000Y-122829000D01*
X144601000Y-122835000D01*
X144604000Y-122840000D01*
X144607000Y-122846000D01*
X144610000Y-122851000D01*
X144612000Y-122857000D01*
X144614000Y-122863000D01*
X144616000Y-122869000D01*
X144617000Y-122875000D01*
X144619000Y-122881000D01*
X144619000Y-122887000D01*
X144620000Y-122894000D01*
X144620000Y-122900000D01*
X144620000Y-124500000D01*
X144620000Y-124506000D01*
X144619000Y-124513000D01*
X144619000Y-124519000D01*
X144617000Y-124525000D01*
X144616000Y-124531000D01*
X144614000Y-124537000D01*
X144612000Y-124543000D01*
X144610000Y-124549000D01*
X144607000Y-124554000D01*
X144604000Y-124560000D01*
X144601000Y-124565000D01*
X144597000Y-124571000D01*
X144593000Y-124576000D01*
X144589000Y-124580000D01*
X144585000Y-124585000D01*
X144580000Y-124589000D01*
X144576000Y-124593000D01*
X144571000Y-124597000D01*
X144565000Y-124601000D01*
X144560000Y-124604000D01*
X144554000Y-124607000D01*
X144549000Y-124610000D01*
X144543000Y-124612000D01*
X144537000Y-124614000D01*
X144531000Y-124616000D01*
X144525000Y-124617000D01*
X144519000Y-124619000D01*
X144513000Y-124619000D01*
X144506000Y-124620000D01*
X144500000Y-124620000D01*
X141900000Y-124620000D01*
X141894000Y-124620000D01*
X141887000Y-124619000D01*
X141881000Y-124619000D01*
X141875000Y-124617000D01*
X141869000Y-124616000D01*
X141863000Y-124614000D01*
X141857000Y-124612000D01*
X141851000Y-124610000D01*
X141846000Y-124607000D01*
X141840000Y-124604000D01*
X141835000Y-124601000D01*
X141829000Y-124597000D01*
X141824000Y-124593000D01*
X141820000Y-124589000D01*
X141815000Y-124585000D01*
X141811000Y-124580000D01*
X141807000Y-124576000D01*
X141803000Y-124571000D01*
X141799000Y-124565000D01*
X141796000Y-124560000D01*
X141793000Y-124554000D01*
X141790000Y-124549000D01*
X141788000Y-124543000D01*
X141786000Y-124537000D01*
X141784000Y-124531000D01*
X141783000Y-124525000D01*
X141781000Y-124519000D01*
X141781000Y-124513000D01*
X141780000Y-124506000D01*
X141780000Y-124500000D01*
X141780000Y-122900000D01*
X141780000Y-122894000D01*
X141781000Y-122887000D01*
X141781000Y-122881000D01*
X141783000Y-122875000D01*
X141784000Y-122869000D01*
X141786000Y-122863000D01*
X141788000Y-122857000D01*
X141790000Y-122851000D01*
X141793000Y-122846000D01*
X141796000Y-122840000D01*
X141799000Y-122835000D01*
X141803000Y-122829000D01*
X141807000Y-122824000D01*
X141811000Y-122820000D01*
X141815000Y-122815000D01*
X141820000Y-122811000D01*
X141824000Y-122807000D01*
X141829000Y-122803000D01*
X141835000Y-122799000D01*
X141840000Y-122796000D01*
X141846000Y-122793000D01*
X141851000Y-122790000D01*
X141857000Y-122788000D01*
X141863000Y-122786000D01*
X141869000Y-122784000D01*
X141875000Y-122783000D01*
X141881000Y-122781000D01*
X141887000Y-122781000D01*
X141894000Y-122780000D01*
X141900000Y-122780000D01*
X144500000Y-122780000D01*
X144506000Y-122780000D01*
X144513000Y-122781000D01*
G36*
X144513000Y-122781000D02*
G01*
X144519000Y-122781000D01*
X144525000Y-122783000D01*
X144531000Y-122784000D01*
X144537000Y-122786000D01*
X144543000Y-122788000D01*
X144549000Y-122790000D01*
X144554000Y-122793000D01*
X144560000Y-122796000D01*
X144565000Y-122799000D01*
X144571000Y-122803000D01*
X144576000Y-122807000D01*
X144580000Y-122811000D01*
X144585000Y-122815000D01*
X144589000Y-122820000D01*
X144593000Y-122824000D01*
X144597000Y-122829000D01*
X144601000Y-122835000D01*
X144604000Y-122840000D01*
X144607000Y-122846000D01*
X144610000Y-122851000D01*
X144612000Y-122857000D01*
X144614000Y-122863000D01*
X144616000Y-122869000D01*
X144617000Y-122875000D01*
X144619000Y-122881000D01*
X144619000Y-122887000D01*
X144620000Y-122894000D01*
X144620000Y-122900000D01*
X144620000Y-124500000D01*
X144620000Y-124506000D01*
X144619000Y-124513000D01*
X144619000Y-124519000D01*
X144617000Y-124525000D01*
X144616000Y-124531000D01*
X144614000Y-124537000D01*
X144612000Y-124543000D01*
X144610000Y-124549000D01*
X144607000Y-124554000D01*
X144604000Y-124560000D01*
X144601000Y-124565000D01*
X144597000Y-124571000D01*
X144593000Y-124576000D01*
X144589000Y-124580000D01*
X144585000Y-124585000D01*
X144580000Y-124589000D01*
X144576000Y-124593000D01*
X144571000Y-124597000D01*
X144565000Y-124601000D01*
X144560000Y-124604000D01*
X144554000Y-124607000D01*
X144549000Y-124610000D01*
X144543000Y-124612000D01*
X144537000Y-124614000D01*
X144531000Y-124616000D01*
X144525000Y-124617000D01*
X144519000Y-124619000D01*
X144513000Y-124619000D01*
X144506000Y-124620000D01*
X144500000Y-124620000D01*
X141900000Y-124620000D01*
X141894000Y-124620000D01*
X141887000Y-124619000D01*
X141881000Y-124619000D01*
X141875000Y-124617000D01*
X141869000Y-124616000D01*
X141863000Y-124614000D01*
X141857000Y-124612000D01*
X141851000Y-124610000D01*
X141846000Y-124607000D01*
X141840000Y-124604000D01*
X141835000Y-124601000D01*
X141829000Y-124597000D01*
X141824000Y-124593000D01*
X141820000Y-124589000D01*
X141815000Y-124585000D01*
X141811000Y-124580000D01*
X141807000Y-124576000D01*
X141803000Y-124571000D01*
X141799000Y-124565000D01*
X141796000Y-124560000D01*
X141793000Y-124554000D01*
X141790000Y-124549000D01*
X141788000Y-124543000D01*
X141786000Y-124537000D01*
X141784000Y-124531000D01*
X141783000Y-124525000D01*
X141781000Y-124519000D01*
X141781000Y-124513000D01*
X141780000Y-124506000D01*
X141780000Y-124500000D01*
X141780000Y-122900000D01*
X141780000Y-122894000D01*
X141781000Y-122887000D01*
X141781000Y-122881000D01*
X141783000Y-122875000D01*
X141784000Y-122869000D01*
X141786000Y-122863000D01*
X141788000Y-122857000D01*
X141790000Y-122851000D01*
X141793000Y-122846000D01*
X141796000Y-122840000D01*
X141799000Y-122835000D01*
X141803000Y-122829000D01*
X141807000Y-122824000D01*
X141811000Y-122820000D01*
X141815000Y-122815000D01*
X141820000Y-122811000D01*
X141824000Y-122807000D01*
X141829000Y-122803000D01*
X141835000Y-122799000D01*
X141840000Y-122796000D01*
X141846000Y-122793000D01*
X141851000Y-122790000D01*
X141857000Y-122788000D01*
X141863000Y-122786000D01*
X141869000Y-122784000D01*
X141875000Y-122783000D01*
X141881000Y-122781000D01*
X141887000Y-122781000D01*
X141894000Y-122780000D01*
X141900000Y-122780000D01*
X144500000Y-122780000D01*
X144506000Y-122780000D01*
X144513000Y-122781000D01*
G37*
X144538000Y-121681000D02*
X144544000Y-121681000D01*
X144550000Y-121683000D01*
X144556000Y-121684000D01*
X144562000Y-121686000D01*
X144568000Y-121688000D01*
X144574000Y-121690000D01*
X144579000Y-121693000D01*
X144585000Y-121696000D01*
X144590000Y-121699000D01*
X144596000Y-121703000D01*
X144601000Y-121707000D01*
X144605000Y-121711000D01*
X144610000Y-121715000D01*
X144614000Y-121720000D01*
X144618000Y-121724000D01*
X144622000Y-121729000D01*
X144626000Y-121735000D01*
X144629000Y-121740000D01*
X144632000Y-121746000D01*
X144635000Y-121751000D01*
X144637000Y-121757000D01*
X144639000Y-121763000D01*
X144641000Y-121769000D01*
X144642000Y-121775000D01*
X144644000Y-121781000D01*
X144644000Y-121787000D01*
X144645000Y-121794000D01*
X144645000Y-121800000D01*
X144645000Y-122300000D01*
X144645000Y-122306000D01*
X144644000Y-122313000D01*
X144644000Y-122319000D01*
X144642000Y-122325000D01*
X144641000Y-122331000D01*
X144639000Y-122337000D01*
X144637000Y-122343000D01*
X144635000Y-122349000D01*
X144632000Y-122354000D01*
X144629000Y-122360000D01*
X144626000Y-122365000D01*
X144622000Y-122371000D01*
X144618000Y-122376000D01*
X144614000Y-122380000D01*
X144610000Y-122385000D01*
X144605000Y-122389000D01*
X144601000Y-122393000D01*
X144596000Y-122397000D01*
X144590000Y-122401000D01*
X144585000Y-122404000D01*
X144579000Y-122407000D01*
X144574000Y-122410000D01*
X144568000Y-122412000D01*
X144562000Y-122414000D01*
X144556000Y-122416000D01*
X144550000Y-122417000D01*
X144544000Y-122419000D01*
X144538000Y-122419000D01*
X144531000Y-122420000D01*
X144525000Y-122420000D01*
X144375000Y-122420000D01*
X144369000Y-122420000D01*
X144362000Y-122419000D01*
X144356000Y-122419000D01*
X144350000Y-122417000D01*
X144344000Y-122416000D01*
X144338000Y-122414000D01*
X144332000Y-122412000D01*
X144326000Y-122410000D01*
X144321000Y-122407000D01*
X144315000Y-122404000D01*
X144310000Y-122401000D01*
X144304000Y-122397000D01*
X144299000Y-122393000D01*
X144295000Y-122389000D01*
X144290000Y-122385000D01*
X144286000Y-122380000D01*
X144282000Y-122376000D01*
X144278000Y-122371000D01*
X144274000Y-122365000D01*
X144271000Y-122360000D01*
X144268000Y-122354000D01*
X144265000Y-122349000D01*
X144263000Y-122343000D01*
X144261000Y-122337000D01*
X144259000Y-122331000D01*
X144258000Y-122325000D01*
X144256000Y-122319000D01*
X144256000Y-122313000D01*
X144255000Y-122306000D01*
X144255000Y-122300000D01*
X144255000Y-121800000D01*
X144255000Y-121794000D01*
X144256000Y-121787000D01*
X144256000Y-121781000D01*
X144258000Y-121775000D01*
X144259000Y-121769000D01*
X144261000Y-121763000D01*
X144263000Y-121757000D01*
X144265000Y-121751000D01*
X144268000Y-121746000D01*
X144271000Y-121740000D01*
X144274000Y-121735000D01*
X144278000Y-121729000D01*
X144282000Y-121724000D01*
X144286000Y-121720000D01*
X144290000Y-121715000D01*
X144295000Y-121711000D01*
X144299000Y-121707000D01*
X144304000Y-121703000D01*
X144310000Y-121699000D01*
X144315000Y-121696000D01*
X144321000Y-121693000D01*
X144326000Y-121690000D01*
X144332000Y-121688000D01*
X144338000Y-121686000D01*
X144344000Y-121684000D01*
X144350000Y-121683000D01*
X144356000Y-121681000D01*
X144362000Y-121681000D01*
X144369000Y-121680000D01*
X144375000Y-121680000D01*
X144525000Y-121680000D01*
X144531000Y-121680000D01*
X144538000Y-121681000D01*
G36*
X144538000Y-121681000D02*
G01*
X144544000Y-121681000D01*
X144550000Y-121683000D01*
X144556000Y-121684000D01*
X144562000Y-121686000D01*
X144568000Y-121688000D01*
X144574000Y-121690000D01*
X144579000Y-121693000D01*
X144585000Y-121696000D01*
X144590000Y-121699000D01*
X144596000Y-121703000D01*
X144601000Y-121707000D01*
X144605000Y-121711000D01*
X144610000Y-121715000D01*
X144614000Y-121720000D01*
X144618000Y-121724000D01*
X144622000Y-121729000D01*
X144626000Y-121735000D01*
X144629000Y-121740000D01*
X144632000Y-121746000D01*
X144635000Y-121751000D01*
X144637000Y-121757000D01*
X144639000Y-121763000D01*
X144641000Y-121769000D01*
X144642000Y-121775000D01*
X144644000Y-121781000D01*
X144644000Y-121787000D01*
X144645000Y-121794000D01*
X144645000Y-121800000D01*
X144645000Y-122300000D01*
X144645000Y-122306000D01*
X144644000Y-122313000D01*
X144644000Y-122319000D01*
X144642000Y-122325000D01*
X144641000Y-122331000D01*
X144639000Y-122337000D01*
X144637000Y-122343000D01*
X144635000Y-122349000D01*
X144632000Y-122354000D01*
X144629000Y-122360000D01*
X144626000Y-122365000D01*
X144622000Y-122371000D01*
X144618000Y-122376000D01*
X144614000Y-122380000D01*
X144610000Y-122385000D01*
X144605000Y-122389000D01*
X144601000Y-122393000D01*
X144596000Y-122397000D01*
X144590000Y-122401000D01*
X144585000Y-122404000D01*
X144579000Y-122407000D01*
X144574000Y-122410000D01*
X144568000Y-122412000D01*
X144562000Y-122414000D01*
X144556000Y-122416000D01*
X144550000Y-122417000D01*
X144544000Y-122419000D01*
X144538000Y-122419000D01*
X144531000Y-122420000D01*
X144525000Y-122420000D01*
X144375000Y-122420000D01*
X144369000Y-122420000D01*
X144362000Y-122419000D01*
X144356000Y-122419000D01*
X144350000Y-122417000D01*
X144344000Y-122416000D01*
X144338000Y-122414000D01*
X144332000Y-122412000D01*
X144326000Y-122410000D01*
X144321000Y-122407000D01*
X144315000Y-122404000D01*
X144310000Y-122401000D01*
X144304000Y-122397000D01*
X144299000Y-122393000D01*
X144295000Y-122389000D01*
X144290000Y-122385000D01*
X144286000Y-122380000D01*
X144282000Y-122376000D01*
X144278000Y-122371000D01*
X144274000Y-122365000D01*
X144271000Y-122360000D01*
X144268000Y-122354000D01*
X144265000Y-122349000D01*
X144263000Y-122343000D01*
X144261000Y-122337000D01*
X144259000Y-122331000D01*
X144258000Y-122325000D01*
X144256000Y-122319000D01*
X144256000Y-122313000D01*
X144255000Y-122306000D01*
X144255000Y-122300000D01*
X144255000Y-121800000D01*
X144255000Y-121794000D01*
X144256000Y-121787000D01*
X144256000Y-121781000D01*
X144258000Y-121775000D01*
X144259000Y-121769000D01*
X144261000Y-121763000D01*
X144263000Y-121757000D01*
X144265000Y-121751000D01*
X144268000Y-121746000D01*
X144271000Y-121740000D01*
X144274000Y-121735000D01*
X144278000Y-121729000D01*
X144282000Y-121724000D01*
X144286000Y-121720000D01*
X144290000Y-121715000D01*
X144295000Y-121711000D01*
X144299000Y-121707000D01*
X144304000Y-121703000D01*
X144310000Y-121699000D01*
X144315000Y-121696000D01*
X144321000Y-121693000D01*
X144326000Y-121690000D01*
X144332000Y-121688000D01*
X144338000Y-121686000D01*
X144344000Y-121684000D01*
X144350000Y-121683000D01*
X144356000Y-121681000D01*
X144362000Y-121681000D01*
X144369000Y-121680000D01*
X144375000Y-121680000D01*
X144525000Y-121680000D01*
X144531000Y-121680000D01*
X144538000Y-121681000D01*
G37*
X144538000Y-124981000D02*
X144544000Y-124981000D01*
X144550000Y-124983000D01*
X144556000Y-124984000D01*
X144562000Y-124986000D01*
X144568000Y-124988000D01*
X144574000Y-124990000D01*
X144579000Y-124993000D01*
X144585000Y-124996000D01*
X144590000Y-124999000D01*
X144596000Y-125003000D01*
X144601000Y-125007000D01*
X144605000Y-125011000D01*
X144610000Y-125015000D01*
X144614000Y-125020000D01*
X144618000Y-125024000D01*
X144622000Y-125029000D01*
X144626000Y-125035000D01*
X144629000Y-125040000D01*
X144632000Y-125046000D01*
X144635000Y-125051000D01*
X144637000Y-125057000D01*
X144639000Y-125063000D01*
X144641000Y-125069000D01*
X144642000Y-125075000D01*
X144644000Y-125081000D01*
X144644000Y-125087000D01*
X144645000Y-125094000D01*
X144645000Y-125100000D01*
X144645000Y-125600000D01*
X144645000Y-125606000D01*
X144644000Y-125613000D01*
X144644000Y-125619000D01*
X144642000Y-125625000D01*
X144641000Y-125631000D01*
X144639000Y-125637000D01*
X144637000Y-125643000D01*
X144635000Y-125649000D01*
X144632000Y-125654000D01*
X144629000Y-125660000D01*
X144626000Y-125665000D01*
X144622000Y-125671000D01*
X144618000Y-125676000D01*
X144614000Y-125680000D01*
X144610000Y-125685000D01*
X144605000Y-125689000D01*
X144601000Y-125693000D01*
X144596000Y-125697000D01*
X144590000Y-125701000D01*
X144585000Y-125704000D01*
X144579000Y-125707000D01*
X144574000Y-125710000D01*
X144568000Y-125712000D01*
X144562000Y-125714000D01*
X144556000Y-125716000D01*
X144550000Y-125717000D01*
X144544000Y-125719000D01*
X144538000Y-125719000D01*
X144531000Y-125720000D01*
X144525000Y-125720000D01*
X144375000Y-125720000D01*
X144369000Y-125720000D01*
X144362000Y-125719000D01*
X144356000Y-125719000D01*
X144350000Y-125717000D01*
X144344000Y-125716000D01*
X144338000Y-125714000D01*
X144332000Y-125712000D01*
X144326000Y-125710000D01*
X144321000Y-125707000D01*
X144315000Y-125704000D01*
X144310000Y-125701000D01*
X144304000Y-125697000D01*
X144299000Y-125693000D01*
X144295000Y-125689000D01*
X144290000Y-125685000D01*
X144286000Y-125680000D01*
X144282000Y-125676000D01*
X144278000Y-125671000D01*
X144274000Y-125665000D01*
X144271000Y-125660000D01*
X144268000Y-125654000D01*
X144265000Y-125649000D01*
X144263000Y-125643000D01*
X144261000Y-125637000D01*
X144259000Y-125631000D01*
X144258000Y-125625000D01*
X144256000Y-125619000D01*
X144256000Y-125613000D01*
X144255000Y-125606000D01*
X144255000Y-125600000D01*
X144255000Y-125100000D01*
X144255000Y-125094000D01*
X144256000Y-125087000D01*
X144256000Y-125081000D01*
X144258000Y-125075000D01*
X144259000Y-125069000D01*
X144261000Y-125063000D01*
X144263000Y-125057000D01*
X144265000Y-125051000D01*
X144268000Y-125046000D01*
X144271000Y-125040000D01*
X144274000Y-125035000D01*
X144278000Y-125029000D01*
X144282000Y-125024000D01*
X144286000Y-125020000D01*
X144290000Y-125015000D01*
X144295000Y-125011000D01*
X144299000Y-125007000D01*
X144304000Y-125003000D01*
X144310000Y-124999000D01*
X144315000Y-124996000D01*
X144321000Y-124993000D01*
X144326000Y-124990000D01*
X144332000Y-124988000D01*
X144338000Y-124986000D01*
X144344000Y-124984000D01*
X144350000Y-124983000D01*
X144356000Y-124981000D01*
X144362000Y-124981000D01*
X144369000Y-124980000D01*
X144375000Y-124980000D01*
X144525000Y-124980000D01*
X144531000Y-124980000D01*
X144538000Y-124981000D01*
G36*
X144538000Y-124981000D02*
G01*
X144544000Y-124981000D01*
X144550000Y-124983000D01*
X144556000Y-124984000D01*
X144562000Y-124986000D01*
X144568000Y-124988000D01*
X144574000Y-124990000D01*
X144579000Y-124993000D01*
X144585000Y-124996000D01*
X144590000Y-124999000D01*
X144596000Y-125003000D01*
X144601000Y-125007000D01*
X144605000Y-125011000D01*
X144610000Y-125015000D01*
X144614000Y-125020000D01*
X144618000Y-125024000D01*
X144622000Y-125029000D01*
X144626000Y-125035000D01*
X144629000Y-125040000D01*
X144632000Y-125046000D01*
X144635000Y-125051000D01*
X144637000Y-125057000D01*
X144639000Y-125063000D01*
X144641000Y-125069000D01*
X144642000Y-125075000D01*
X144644000Y-125081000D01*
X144644000Y-125087000D01*
X144645000Y-125094000D01*
X144645000Y-125100000D01*
X144645000Y-125600000D01*
X144645000Y-125606000D01*
X144644000Y-125613000D01*
X144644000Y-125619000D01*
X144642000Y-125625000D01*
X144641000Y-125631000D01*
X144639000Y-125637000D01*
X144637000Y-125643000D01*
X144635000Y-125649000D01*
X144632000Y-125654000D01*
X144629000Y-125660000D01*
X144626000Y-125665000D01*
X144622000Y-125671000D01*
X144618000Y-125676000D01*
X144614000Y-125680000D01*
X144610000Y-125685000D01*
X144605000Y-125689000D01*
X144601000Y-125693000D01*
X144596000Y-125697000D01*
X144590000Y-125701000D01*
X144585000Y-125704000D01*
X144579000Y-125707000D01*
X144574000Y-125710000D01*
X144568000Y-125712000D01*
X144562000Y-125714000D01*
X144556000Y-125716000D01*
X144550000Y-125717000D01*
X144544000Y-125719000D01*
X144538000Y-125719000D01*
X144531000Y-125720000D01*
X144525000Y-125720000D01*
X144375000Y-125720000D01*
X144369000Y-125720000D01*
X144362000Y-125719000D01*
X144356000Y-125719000D01*
X144350000Y-125717000D01*
X144344000Y-125716000D01*
X144338000Y-125714000D01*
X144332000Y-125712000D01*
X144326000Y-125710000D01*
X144321000Y-125707000D01*
X144315000Y-125704000D01*
X144310000Y-125701000D01*
X144304000Y-125697000D01*
X144299000Y-125693000D01*
X144295000Y-125689000D01*
X144290000Y-125685000D01*
X144286000Y-125680000D01*
X144282000Y-125676000D01*
X144278000Y-125671000D01*
X144274000Y-125665000D01*
X144271000Y-125660000D01*
X144268000Y-125654000D01*
X144265000Y-125649000D01*
X144263000Y-125643000D01*
X144261000Y-125637000D01*
X144259000Y-125631000D01*
X144258000Y-125625000D01*
X144256000Y-125619000D01*
X144256000Y-125613000D01*
X144255000Y-125606000D01*
X144255000Y-125600000D01*
X144255000Y-125100000D01*
X144255000Y-125094000D01*
X144256000Y-125087000D01*
X144256000Y-125081000D01*
X144258000Y-125075000D01*
X144259000Y-125069000D01*
X144261000Y-125063000D01*
X144263000Y-125057000D01*
X144265000Y-125051000D01*
X144268000Y-125046000D01*
X144271000Y-125040000D01*
X144274000Y-125035000D01*
X144278000Y-125029000D01*
X144282000Y-125024000D01*
X144286000Y-125020000D01*
X144290000Y-125015000D01*
X144295000Y-125011000D01*
X144299000Y-125007000D01*
X144304000Y-125003000D01*
X144310000Y-124999000D01*
X144315000Y-124996000D01*
X144321000Y-124993000D01*
X144326000Y-124990000D01*
X144332000Y-124988000D01*
X144338000Y-124986000D01*
X144344000Y-124984000D01*
X144350000Y-124983000D01*
X144356000Y-124981000D01*
X144362000Y-124981000D01*
X144369000Y-124980000D01*
X144375000Y-124980000D01*
X144525000Y-124980000D01*
X144531000Y-124980000D01*
X144538000Y-124981000D01*
G37*
X145613000Y-122756000D02*
X145619000Y-122756000D01*
X145625000Y-122758000D01*
X145631000Y-122759000D01*
X145637000Y-122761000D01*
X145643000Y-122763000D01*
X145649000Y-122765000D01*
X145654000Y-122768000D01*
X145660000Y-122771000D01*
X145665000Y-122774000D01*
X145671000Y-122778000D01*
X145676000Y-122782000D01*
X145680000Y-122786000D01*
X145685000Y-122790000D01*
X145689000Y-122795000D01*
X145693000Y-122799000D01*
X145697000Y-122804000D01*
X145701000Y-122810000D01*
X145704000Y-122815000D01*
X145707000Y-122821000D01*
X145710000Y-122826000D01*
X145712000Y-122832000D01*
X145714000Y-122838000D01*
X145716000Y-122844000D01*
X145717000Y-122850000D01*
X145719000Y-122856000D01*
X145719000Y-122862000D01*
X145720000Y-122869000D01*
X145720000Y-122875000D01*
X145720000Y-123025000D01*
X145720000Y-123031000D01*
X145719000Y-123038000D01*
X145719000Y-123044000D01*
X145717000Y-123050000D01*
X145716000Y-123056000D01*
X145714000Y-123062000D01*
X145712000Y-123068000D01*
X145710000Y-123074000D01*
X145707000Y-123079000D01*
X145704000Y-123085000D01*
X145701000Y-123090000D01*
X145697000Y-123096000D01*
X145693000Y-123101000D01*
X145689000Y-123105000D01*
X145685000Y-123110000D01*
X145680000Y-123114000D01*
X145676000Y-123118000D01*
X145671000Y-123122000D01*
X145665000Y-123126000D01*
X145660000Y-123129000D01*
X145654000Y-123132000D01*
X145649000Y-123135000D01*
X145643000Y-123137000D01*
X145637000Y-123139000D01*
X145631000Y-123141000D01*
X145625000Y-123142000D01*
X145619000Y-123144000D01*
X145613000Y-123144000D01*
X145606000Y-123145000D01*
X145600000Y-123145000D01*
X145100000Y-123145000D01*
X145094000Y-123145000D01*
X145087000Y-123144000D01*
X145081000Y-123144000D01*
X145075000Y-123142000D01*
X145069000Y-123141000D01*
X145063000Y-123139000D01*
X145057000Y-123137000D01*
X145051000Y-123135000D01*
X145046000Y-123132000D01*
X145040000Y-123129000D01*
X145035000Y-123126000D01*
X145029000Y-123122000D01*
X145024000Y-123118000D01*
X145020000Y-123114000D01*
X145015000Y-123110000D01*
X145011000Y-123105000D01*
X145007000Y-123101000D01*
X145003000Y-123096000D01*
X144999000Y-123090000D01*
X144996000Y-123085000D01*
X144993000Y-123079000D01*
X144990000Y-123074000D01*
X144988000Y-123068000D01*
X144986000Y-123062000D01*
X144984000Y-123056000D01*
X144983000Y-123050000D01*
X144981000Y-123044000D01*
X144981000Y-123038000D01*
X144980000Y-123031000D01*
X144980000Y-123025000D01*
X144980000Y-122875000D01*
X144980000Y-122869000D01*
X144981000Y-122862000D01*
X144981000Y-122856000D01*
X144983000Y-122850000D01*
X144984000Y-122844000D01*
X144986000Y-122838000D01*
X144988000Y-122832000D01*
X144990000Y-122826000D01*
X144993000Y-122821000D01*
X144996000Y-122815000D01*
X144999000Y-122810000D01*
X145003000Y-122804000D01*
X145007000Y-122799000D01*
X145011000Y-122795000D01*
X145015000Y-122790000D01*
X145020000Y-122786000D01*
X145024000Y-122782000D01*
X145029000Y-122778000D01*
X145035000Y-122774000D01*
X145040000Y-122771000D01*
X145046000Y-122768000D01*
X145051000Y-122765000D01*
X145057000Y-122763000D01*
X145063000Y-122761000D01*
X145069000Y-122759000D01*
X145075000Y-122758000D01*
X145081000Y-122756000D01*
X145087000Y-122756000D01*
X145094000Y-122755000D01*
X145100000Y-122755000D01*
X145600000Y-122755000D01*
X145606000Y-122755000D01*
X145613000Y-122756000D01*
G36*
X145613000Y-122756000D02*
G01*
X145619000Y-122756000D01*
X145625000Y-122758000D01*
X145631000Y-122759000D01*
X145637000Y-122761000D01*
X145643000Y-122763000D01*
X145649000Y-122765000D01*
X145654000Y-122768000D01*
X145660000Y-122771000D01*
X145665000Y-122774000D01*
X145671000Y-122778000D01*
X145676000Y-122782000D01*
X145680000Y-122786000D01*
X145685000Y-122790000D01*
X145689000Y-122795000D01*
X145693000Y-122799000D01*
X145697000Y-122804000D01*
X145701000Y-122810000D01*
X145704000Y-122815000D01*
X145707000Y-122821000D01*
X145710000Y-122826000D01*
X145712000Y-122832000D01*
X145714000Y-122838000D01*
X145716000Y-122844000D01*
X145717000Y-122850000D01*
X145719000Y-122856000D01*
X145719000Y-122862000D01*
X145720000Y-122869000D01*
X145720000Y-122875000D01*
X145720000Y-123025000D01*
X145720000Y-123031000D01*
X145719000Y-123038000D01*
X145719000Y-123044000D01*
X145717000Y-123050000D01*
X145716000Y-123056000D01*
X145714000Y-123062000D01*
X145712000Y-123068000D01*
X145710000Y-123074000D01*
X145707000Y-123079000D01*
X145704000Y-123085000D01*
X145701000Y-123090000D01*
X145697000Y-123096000D01*
X145693000Y-123101000D01*
X145689000Y-123105000D01*
X145685000Y-123110000D01*
X145680000Y-123114000D01*
X145676000Y-123118000D01*
X145671000Y-123122000D01*
X145665000Y-123126000D01*
X145660000Y-123129000D01*
X145654000Y-123132000D01*
X145649000Y-123135000D01*
X145643000Y-123137000D01*
X145637000Y-123139000D01*
X145631000Y-123141000D01*
X145625000Y-123142000D01*
X145619000Y-123144000D01*
X145613000Y-123144000D01*
X145606000Y-123145000D01*
X145600000Y-123145000D01*
X145100000Y-123145000D01*
X145094000Y-123145000D01*
X145087000Y-123144000D01*
X145081000Y-123144000D01*
X145075000Y-123142000D01*
X145069000Y-123141000D01*
X145063000Y-123139000D01*
X145057000Y-123137000D01*
X145051000Y-123135000D01*
X145046000Y-123132000D01*
X145040000Y-123129000D01*
X145035000Y-123126000D01*
X145029000Y-123122000D01*
X145024000Y-123118000D01*
X145020000Y-123114000D01*
X145015000Y-123110000D01*
X145011000Y-123105000D01*
X145007000Y-123101000D01*
X145003000Y-123096000D01*
X144999000Y-123090000D01*
X144996000Y-123085000D01*
X144993000Y-123079000D01*
X144990000Y-123074000D01*
X144988000Y-123068000D01*
X144986000Y-123062000D01*
X144984000Y-123056000D01*
X144983000Y-123050000D01*
X144981000Y-123044000D01*
X144981000Y-123038000D01*
X144980000Y-123031000D01*
X144980000Y-123025000D01*
X144980000Y-122875000D01*
X144980000Y-122869000D01*
X144981000Y-122862000D01*
X144981000Y-122856000D01*
X144983000Y-122850000D01*
X144984000Y-122844000D01*
X144986000Y-122838000D01*
X144988000Y-122832000D01*
X144990000Y-122826000D01*
X144993000Y-122821000D01*
X144996000Y-122815000D01*
X144999000Y-122810000D01*
X145003000Y-122804000D01*
X145007000Y-122799000D01*
X145011000Y-122795000D01*
X145015000Y-122790000D01*
X145020000Y-122786000D01*
X145024000Y-122782000D01*
X145029000Y-122778000D01*
X145035000Y-122774000D01*
X145040000Y-122771000D01*
X145046000Y-122768000D01*
X145051000Y-122765000D01*
X145057000Y-122763000D01*
X145063000Y-122761000D01*
X145069000Y-122759000D01*
X145075000Y-122758000D01*
X145081000Y-122756000D01*
X145087000Y-122756000D01*
X145094000Y-122755000D01*
X145100000Y-122755000D01*
X145600000Y-122755000D01*
X145606000Y-122755000D01*
X145613000Y-122756000D01*
G37*
X145613000Y-124256000D02*
X145619000Y-124256000D01*
X145625000Y-124258000D01*
X145631000Y-124259000D01*
X145637000Y-124261000D01*
X145643000Y-124263000D01*
X145649000Y-124265000D01*
X145654000Y-124268000D01*
X145660000Y-124271000D01*
X145665000Y-124274000D01*
X145671000Y-124278000D01*
X145676000Y-124282000D01*
X145680000Y-124286000D01*
X145685000Y-124290000D01*
X145689000Y-124295000D01*
X145693000Y-124299000D01*
X145697000Y-124304000D01*
X145701000Y-124310000D01*
X145704000Y-124315000D01*
X145707000Y-124321000D01*
X145710000Y-124326000D01*
X145712000Y-124332000D01*
X145714000Y-124338000D01*
X145716000Y-124344000D01*
X145717000Y-124350000D01*
X145719000Y-124356000D01*
X145719000Y-124362000D01*
X145720000Y-124369000D01*
X145720000Y-124375000D01*
X145720000Y-124525000D01*
X145720000Y-124531000D01*
X145719000Y-124538000D01*
X145719000Y-124544000D01*
X145717000Y-124550000D01*
X145716000Y-124556000D01*
X145714000Y-124562000D01*
X145712000Y-124568000D01*
X145710000Y-124574000D01*
X145707000Y-124579000D01*
X145704000Y-124585000D01*
X145701000Y-124590000D01*
X145697000Y-124596000D01*
X145693000Y-124601000D01*
X145689000Y-124605000D01*
X145685000Y-124610000D01*
X145680000Y-124614000D01*
X145676000Y-124618000D01*
X145671000Y-124622000D01*
X145665000Y-124626000D01*
X145660000Y-124629000D01*
X145654000Y-124632000D01*
X145649000Y-124635000D01*
X145643000Y-124637000D01*
X145637000Y-124639000D01*
X145631000Y-124641000D01*
X145625000Y-124642000D01*
X145619000Y-124644000D01*
X145613000Y-124644000D01*
X145606000Y-124645000D01*
X145600000Y-124645000D01*
X145100000Y-124645000D01*
X145094000Y-124645000D01*
X145087000Y-124644000D01*
X145081000Y-124644000D01*
X145075000Y-124642000D01*
X145069000Y-124641000D01*
X145063000Y-124639000D01*
X145057000Y-124637000D01*
X145051000Y-124635000D01*
X145046000Y-124632000D01*
X145040000Y-124629000D01*
X145035000Y-124626000D01*
X145029000Y-124622000D01*
X145024000Y-124618000D01*
X145020000Y-124614000D01*
X145015000Y-124610000D01*
X145011000Y-124605000D01*
X145007000Y-124601000D01*
X145003000Y-124596000D01*
X144999000Y-124590000D01*
X144996000Y-124585000D01*
X144993000Y-124579000D01*
X144990000Y-124574000D01*
X144988000Y-124568000D01*
X144986000Y-124562000D01*
X144984000Y-124556000D01*
X144983000Y-124550000D01*
X144981000Y-124544000D01*
X144981000Y-124538000D01*
X144980000Y-124531000D01*
X144980000Y-124525000D01*
X144980000Y-124375000D01*
X144980000Y-124369000D01*
X144981000Y-124362000D01*
X144981000Y-124356000D01*
X144983000Y-124350000D01*
X144984000Y-124344000D01*
X144986000Y-124338000D01*
X144988000Y-124332000D01*
X144990000Y-124326000D01*
X144993000Y-124321000D01*
X144996000Y-124315000D01*
X144999000Y-124310000D01*
X145003000Y-124304000D01*
X145007000Y-124299000D01*
X145011000Y-124295000D01*
X145015000Y-124290000D01*
X145020000Y-124286000D01*
X145024000Y-124282000D01*
X145029000Y-124278000D01*
X145035000Y-124274000D01*
X145040000Y-124271000D01*
X145046000Y-124268000D01*
X145051000Y-124265000D01*
X145057000Y-124263000D01*
X145063000Y-124261000D01*
X145069000Y-124259000D01*
X145075000Y-124258000D01*
X145081000Y-124256000D01*
X145087000Y-124256000D01*
X145094000Y-124255000D01*
X145100000Y-124255000D01*
X145600000Y-124255000D01*
X145606000Y-124255000D01*
X145613000Y-124256000D01*
G36*
X145613000Y-124256000D02*
G01*
X145619000Y-124256000D01*
X145625000Y-124258000D01*
X145631000Y-124259000D01*
X145637000Y-124261000D01*
X145643000Y-124263000D01*
X145649000Y-124265000D01*
X145654000Y-124268000D01*
X145660000Y-124271000D01*
X145665000Y-124274000D01*
X145671000Y-124278000D01*
X145676000Y-124282000D01*
X145680000Y-124286000D01*
X145685000Y-124290000D01*
X145689000Y-124295000D01*
X145693000Y-124299000D01*
X145697000Y-124304000D01*
X145701000Y-124310000D01*
X145704000Y-124315000D01*
X145707000Y-124321000D01*
X145710000Y-124326000D01*
X145712000Y-124332000D01*
X145714000Y-124338000D01*
X145716000Y-124344000D01*
X145717000Y-124350000D01*
X145719000Y-124356000D01*
X145719000Y-124362000D01*
X145720000Y-124369000D01*
X145720000Y-124375000D01*
X145720000Y-124525000D01*
X145720000Y-124531000D01*
X145719000Y-124538000D01*
X145719000Y-124544000D01*
X145717000Y-124550000D01*
X145716000Y-124556000D01*
X145714000Y-124562000D01*
X145712000Y-124568000D01*
X145710000Y-124574000D01*
X145707000Y-124579000D01*
X145704000Y-124585000D01*
X145701000Y-124590000D01*
X145697000Y-124596000D01*
X145693000Y-124601000D01*
X145689000Y-124605000D01*
X145685000Y-124610000D01*
X145680000Y-124614000D01*
X145676000Y-124618000D01*
X145671000Y-124622000D01*
X145665000Y-124626000D01*
X145660000Y-124629000D01*
X145654000Y-124632000D01*
X145649000Y-124635000D01*
X145643000Y-124637000D01*
X145637000Y-124639000D01*
X145631000Y-124641000D01*
X145625000Y-124642000D01*
X145619000Y-124644000D01*
X145613000Y-124644000D01*
X145606000Y-124645000D01*
X145600000Y-124645000D01*
X145100000Y-124645000D01*
X145094000Y-124645000D01*
X145087000Y-124644000D01*
X145081000Y-124644000D01*
X145075000Y-124642000D01*
X145069000Y-124641000D01*
X145063000Y-124639000D01*
X145057000Y-124637000D01*
X145051000Y-124635000D01*
X145046000Y-124632000D01*
X145040000Y-124629000D01*
X145035000Y-124626000D01*
X145029000Y-124622000D01*
X145024000Y-124618000D01*
X145020000Y-124614000D01*
X145015000Y-124610000D01*
X145011000Y-124605000D01*
X145007000Y-124601000D01*
X145003000Y-124596000D01*
X144999000Y-124590000D01*
X144996000Y-124585000D01*
X144993000Y-124579000D01*
X144990000Y-124574000D01*
X144988000Y-124568000D01*
X144986000Y-124562000D01*
X144984000Y-124556000D01*
X144983000Y-124550000D01*
X144981000Y-124544000D01*
X144981000Y-124538000D01*
X144980000Y-124531000D01*
X144980000Y-124525000D01*
X144980000Y-124375000D01*
X144980000Y-124369000D01*
X144981000Y-124362000D01*
X144981000Y-124356000D01*
X144983000Y-124350000D01*
X144984000Y-124344000D01*
X144986000Y-124338000D01*
X144988000Y-124332000D01*
X144990000Y-124326000D01*
X144993000Y-124321000D01*
X144996000Y-124315000D01*
X144999000Y-124310000D01*
X145003000Y-124304000D01*
X145007000Y-124299000D01*
X145011000Y-124295000D01*
X145015000Y-124290000D01*
X145020000Y-124286000D01*
X145024000Y-124282000D01*
X145029000Y-124278000D01*
X145035000Y-124274000D01*
X145040000Y-124271000D01*
X145046000Y-124268000D01*
X145051000Y-124265000D01*
X145057000Y-124263000D01*
X145063000Y-124261000D01*
X145069000Y-124259000D01*
X145075000Y-124258000D01*
X145081000Y-124256000D01*
X145087000Y-124256000D01*
X145094000Y-124255000D01*
X145100000Y-124255000D01*
X145600000Y-124255000D01*
X145606000Y-124255000D01*
X145613000Y-124256000D01*
G37*
X145038000Y-121681000D02*
X145044000Y-121681000D01*
X145050000Y-121683000D01*
X145056000Y-121684000D01*
X145062000Y-121686000D01*
X145068000Y-121688000D01*
X145074000Y-121690000D01*
X145079000Y-121693000D01*
X145085000Y-121696000D01*
X145090000Y-121699000D01*
X145096000Y-121703000D01*
X145101000Y-121707000D01*
X145105000Y-121711000D01*
X145110000Y-121715000D01*
X145114000Y-121720000D01*
X145118000Y-121724000D01*
X145122000Y-121729000D01*
X145126000Y-121735000D01*
X145129000Y-121740000D01*
X145132000Y-121746000D01*
X145135000Y-121751000D01*
X145137000Y-121757000D01*
X145139000Y-121763000D01*
X145141000Y-121769000D01*
X145142000Y-121775000D01*
X145144000Y-121781000D01*
X145144000Y-121787000D01*
X145145000Y-121794000D01*
X145145000Y-121800000D01*
X145145000Y-122300000D01*
X145145000Y-122306000D01*
X145144000Y-122313000D01*
X145144000Y-122319000D01*
X145142000Y-122325000D01*
X145141000Y-122331000D01*
X145139000Y-122337000D01*
X145137000Y-122343000D01*
X145135000Y-122349000D01*
X145132000Y-122354000D01*
X145129000Y-122360000D01*
X145126000Y-122365000D01*
X145122000Y-122371000D01*
X145118000Y-122376000D01*
X145114000Y-122380000D01*
X145110000Y-122385000D01*
X145105000Y-122389000D01*
X145101000Y-122393000D01*
X145096000Y-122397000D01*
X145090000Y-122401000D01*
X145085000Y-122404000D01*
X145079000Y-122407000D01*
X145074000Y-122410000D01*
X145068000Y-122412000D01*
X145062000Y-122414000D01*
X145056000Y-122416000D01*
X145050000Y-122417000D01*
X145044000Y-122419000D01*
X145038000Y-122419000D01*
X145031000Y-122420000D01*
X145025000Y-122420000D01*
X144875000Y-122420000D01*
X144869000Y-122420000D01*
X144862000Y-122419000D01*
X144856000Y-122419000D01*
X144850000Y-122417000D01*
X144844000Y-122416000D01*
X144838000Y-122414000D01*
X144832000Y-122412000D01*
X144826000Y-122410000D01*
X144821000Y-122407000D01*
X144815000Y-122404000D01*
X144810000Y-122401000D01*
X144804000Y-122397000D01*
X144799000Y-122393000D01*
X144795000Y-122389000D01*
X144790000Y-122385000D01*
X144786000Y-122380000D01*
X144782000Y-122376000D01*
X144778000Y-122371000D01*
X144774000Y-122365000D01*
X144771000Y-122360000D01*
X144768000Y-122354000D01*
X144765000Y-122349000D01*
X144763000Y-122343000D01*
X144761000Y-122337000D01*
X144759000Y-122331000D01*
X144758000Y-122325000D01*
X144756000Y-122319000D01*
X144756000Y-122313000D01*
X144755000Y-122306000D01*
X144755000Y-122300000D01*
X144755000Y-121800000D01*
X144755000Y-121794000D01*
X144756000Y-121787000D01*
X144756000Y-121781000D01*
X144758000Y-121775000D01*
X144759000Y-121769000D01*
X144761000Y-121763000D01*
X144763000Y-121757000D01*
X144765000Y-121751000D01*
X144768000Y-121746000D01*
X144771000Y-121740000D01*
X144774000Y-121735000D01*
X144778000Y-121729000D01*
X144782000Y-121724000D01*
X144786000Y-121720000D01*
X144790000Y-121715000D01*
X144795000Y-121711000D01*
X144799000Y-121707000D01*
X144804000Y-121703000D01*
X144810000Y-121699000D01*
X144815000Y-121696000D01*
X144821000Y-121693000D01*
X144826000Y-121690000D01*
X144832000Y-121688000D01*
X144838000Y-121686000D01*
X144844000Y-121684000D01*
X144850000Y-121683000D01*
X144856000Y-121681000D01*
X144862000Y-121681000D01*
X144869000Y-121680000D01*
X144875000Y-121680000D01*
X145025000Y-121680000D01*
X145031000Y-121680000D01*
X145038000Y-121681000D01*
G36*
X145038000Y-121681000D02*
G01*
X145044000Y-121681000D01*
X145050000Y-121683000D01*
X145056000Y-121684000D01*
X145062000Y-121686000D01*
X145068000Y-121688000D01*
X145074000Y-121690000D01*
X145079000Y-121693000D01*
X145085000Y-121696000D01*
X145090000Y-121699000D01*
X145096000Y-121703000D01*
X145101000Y-121707000D01*
X145105000Y-121711000D01*
X145110000Y-121715000D01*
X145114000Y-121720000D01*
X145118000Y-121724000D01*
X145122000Y-121729000D01*
X145126000Y-121735000D01*
X145129000Y-121740000D01*
X145132000Y-121746000D01*
X145135000Y-121751000D01*
X145137000Y-121757000D01*
X145139000Y-121763000D01*
X145141000Y-121769000D01*
X145142000Y-121775000D01*
X145144000Y-121781000D01*
X145144000Y-121787000D01*
X145145000Y-121794000D01*
X145145000Y-121800000D01*
X145145000Y-122300000D01*
X145145000Y-122306000D01*
X145144000Y-122313000D01*
X145144000Y-122319000D01*
X145142000Y-122325000D01*
X145141000Y-122331000D01*
X145139000Y-122337000D01*
X145137000Y-122343000D01*
X145135000Y-122349000D01*
X145132000Y-122354000D01*
X145129000Y-122360000D01*
X145126000Y-122365000D01*
X145122000Y-122371000D01*
X145118000Y-122376000D01*
X145114000Y-122380000D01*
X145110000Y-122385000D01*
X145105000Y-122389000D01*
X145101000Y-122393000D01*
X145096000Y-122397000D01*
X145090000Y-122401000D01*
X145085000Y-122404000D01*
X145079000Y-122407000D01*
X145074000Y-122410000D01*
X145068000Y-122412000D01*
X145062000Y-122414000D01*
X145056000Y-122416000D01*
X145050000Y-122417000D01*
X145044000Y-122419000D01*
X145038000Y-122419000D01*
X145031000Y-122420000D01*
X145025000Y-122420000D01*
X144875000Y-122420000D01*
X144869000Y-122420000D01*
X144862000Y-122419000D01*
X144856000Y-122419000D01*
X144850000Y-122417000D01*
X144844000Y-122416000D01*
X144838000Y-122414000D01*
X144832000Y-122412000D01*
X144826000Y-122410000D01*
X144821000Y-122407000D01*
X144815000Y-122404000D01*
X144810000Y-122401000D01*
X144804000Y-122397000D01*
X144799000Y-122393000D01*
X144795000Y-122389000D01*
X144790000Y-122385000D01*
X144786000Y-122380000D01*
X144782000Y-122376000D01*
X144778000Y-122371000D01*
X144774000Y-122365000D01*
X144771000Y-122360000D01*
X144768000Y-122354000D01*
X144765000Y-122349000D01*
X144763000Y-122343000D01*
X144761000Y-122337000D01*
X144759000Y-122331000D01*
X144758000Y-122325000D01*
X144756000Y-122319000D01*
X144756000Y-122313000D01*
X144755000Y-122306000D01*
X144755000Y-122300000D01*
X144755000Y-121800000D01*
X144755000Y-121794000D01*
X144756000Y-121787000D01*
X144756000Y-121781000D01*
X144758000Y-121775000D01*
X144759000Y-121769000D01*
X144761000Y-121763000D01*
X144763000Y-121757000D01*
X144765000Y-121751000D01*
X144768000Y-121746000D01*
X144771000Y-121740000D01*
X144774000Y-121735000D01*
X144778000Y-121729000D01*
X144782000Y-121724000D01*
X144786000Y-121720000D01*
X144790000Y-121715000D01*
X144795000Y-121711000D01*
X144799000Y-121707000D01*
X144804000Y-121703000D01*
X144810000Y-121699000D01*
X144815000Y-121696000D01*
X144821000Y-121693000D01*
X144826000Y-121690000D01*
X144832000Y-121688000D01*
X144838000Y-121686000D01*
X144844000Y-121684000D01*
X144850000Y-121683000D01*
X144856000Y-121681000D01*
X144862000Y-121681000D01*
X144869000Y-121680000D01*
X144875000Y-121680000D01*
X145025000Y-121680000D01*
X145031000Y-121680000D01*
X145038000Y-121681000D01*
G37*
X145038000Y-124981000D02*
X145044000Y-124981000D01*
X145050000Y-124983000D01*
X145056000Y-124984000D01*
X145062000Y-124986000D01*
X145068000Y-124988000D01*
X145074000Y-124990000D01*
X145079000Y-124993000D01*
X145085000Y-124996000D01*
X145090000Y-124999000D01*
X145096000Y-125003000D01*
X145101000Y-125007000D01*
X145105000Y-125011000D01*
X145110000Y-125015000D01*
X145114000Y-125020000D01*
X145118000Y-125024000D01*
X145122000Y-125029000D01*
X145126000Y-125035000D01*
X145129000Y-125040000D01*
X145132000Y-125046000D01*
X145135000Y-125051000D01*
X145137000Y-125057000D01*
X145139000Y-125063000D01*
X145141000Y-125069000D01*
X145142000Y-125075000D01*
X145144000Y-125081000D01*
X145144000Y-125087000D01*
X145145000Y-125094000D01*
X145145000Y-125100000D01*
X145145000Y-125600000D01*
X145145000Y-125606000D01*
X145144000Y-125613000D01*
X145144000Y-125619000D01*
X145142000Y-125625000D01*
X145141000Y-125631000D01*
X145139000Y-125637000D01*
X145137000Y-125643000D01*
X145135000Y-125649000D01*
X145132000Y-125654000D01*
X145129000Y-125660000D01*
X145126000Y-125665000D01*
X145122000Y-125671000D01*
X145118000Y-125676000D01*
X145114000Y-125680000D01*
X145110000Y-125685000D01*
X145105000Y-125689000D01*
X145101000Y-125693000D01*
X145096000Y-125697000D01*
X145090000Y-125701000D01*
X145085000Y-125704000D01*
X145079000Y-125707000D01*
X145074000Y-125710000D01*
X145068000Y-125712000D01*
X145062000Y-125714000D01*
X145056000Y-125716000D01*
X145050000Y-125717000D01*
X145044000Y-125719000D01*
X145038000Y-125719000D01*
X145031000Y-125720000D01*
X145025000Y-125720000D01*
X144875000Y-125720000D01*
X144869000Y-125720000D01*
X144862000Y-125719000D01*
X144856000Y-125719000D01*
X144850000Y-125717000D01*
X144844000Y-125716000D01*
X144838000Y-125714000D01*
X144832000Y-125712000D01*
X144826000Y-125710000D01*
X144821000Y-125707000D01*
X144815000Y-125704000D01*
X144810000Y-125701000D01*
X144804000Y-125697000D01*
X144799000Y-125693000D01*
X144795000Y-125689000D01*
X144790000Y-125685000D01*
X144786000Y-125680000D01*
X144782000Y-125676000D01*
X144778000Y-125671000D01*
X144774000Y-125665000D01*
X144771000Y-125660000D01*
X144768000Y-125654000D01*
X144765000Y-125649000D01*
X144763000Y-125643000D01*
X144761000Y-125637000D01*
X144759000Y-125631000D01*
X144758000Y-125625000D01*
X144756000Y-125619000D01*
X144756000Y-125613000D01*
X144755000Y-125606000D01*
X144755000Y-125600000D01*
X144755000Y-125100000D01*
X144755000Y-125094000D01*
X144756000Y-125087000D01*
X144756000Y-125081000D01*
X144758000Y-125075000D01*
X144759000Y-125069000D01*
X144761000Y-125063000D01*
X144763000Y-125057000D01*
X144765000Y-125051000D01*
X144768000Y-125046000D01*
X144771000Y-125040000D01*
X144774000Y-125035000D01*
X144778000Y-125029000D01*
X144782000Y-125024000D01*
X144786000Y-125020000D01*
X144790000Y-125015000D01*
X144795000Y-125011000D01*
X144799000Y-125007000D01*
X144804000Y-125003000D01*
X144810000Y-124999000D01*
X144815000Y-124996000D01*
X144821000Y-124993000D01*
X144826000Y-124990000D01*
X144832000Y-124988000D01*
X144838000Y-124986000D01*
X144844000Y-124984000D01*
X144850000Y-124983000D01*
X144856000Y-124981000D01*
X144862000Y-124981000D01*
X144869000Y-124980000D01*
X144875000Y-124980000D01*
X145025000Y-124980000D01*
X145031000Y-124980000D01*
X145038000Y-124981000D01*
G36*
X145038000Y-124981000D02*
G01*
X145044000Y-124981000D01*
X145050000Y-124983000D01*
X145056000Y-124984000D01*
X145062000Y-124986000D01*
X145068000Y-124988000D01*
X145074000Y-124990000D01*
X145079000Y-124993000D01*
X145085000Y-124996000D01*
X145090000Y-124999000D01*
X145096000Y-125003000D01*
X145101000Y-125007000D01*
X145105000Y-125011000D01*
X145110000Y-125015000D01*
X145114000Y-125020000D01*
X145118000Y-125024000D01*
X145122000Y-125029000D01*
X145126000Y-125035000D01*
X145129000Y-125040000D01*
X145132000Y-125046000D01*
X145135000Y-125051000D01*
X145137000Y-125057000D01*
X145139000Y-125063000D01*
X145141000Y-125069000D01*
X145142000Y-125075000D01*
X145144000Y-125081000D01*
X145144000Y-125087000D01*
X145145000Y-125094000D01*
X145145000Y-125100000D01*
X145145000Y-125600000D01*
X145145000Y-125606000D01*
X145144000Y-125613000D01*
X145144000Y-125619000D01*
X145142000Y-125625000D01*
X145141000Y-125631000D01*
X145139000Y-125637000D01*
X145137000Y-125643000D01*
X145135000Y-125649000D01*
X145132000Y-125654000D01*
X145129000Y-125660000D01*
X145126000Y-125665000D01*
X145122000Y-125671000D01*
X145118000Y-125676000D01*
X145114000Y-125680000D01*
X145110000Y-125685000D01*
X145105000Y-125689000D01*
X145101000Y-125693000D01*
X145096000Y-125697000D01*
X145090000Y-125701000D01*
X145085000Y-125704000D01*
X145079000Y-125707000D01*
X145074000Y-125710000D01*
X145068000Y-125712000D01*
X145062000Y-125714000D01*
X145056000Y-125716000D01*
X145050000Y-125717000D01*
X145044000Y-125719000D01*
X145038000Y-125719000D01*
X145031000Y-125720000D01*
X145025000Y-125720000D01*
X144875000Y-125720000D01*
X144869000Y-125720000D01*
X144862000Y-125719000D01*
X144856000Y-125719000D01*
X144850000Y-125717000D01*
X144844000Y-125716000D01*
X144838000Y-125714000D01*
X144832000Y-125712000D01*
X144826000Y-125710000D01*
X144821000Y-125707000D01*
X144815000Y-125704000D01*
X144810000Y-125701000D01*
X144804000Y-125697000D01*
X144799000Y-125693000D01*
X144795000Y-125689000D01*
X144790000Y-125685000D01*
X144786000Y-125680000D01*
X144782000Y-125676000D01*
X144778000Y-125671000D01*
X144774000Y-125665000D01*
X144771000Y-125660000D01*
X144768000Y-125654000D01*
X144765000Y-125649000D01*
X144763000Y-125643000D01*
X144761000Y-125637000D01*
X144759000Y-125631000D01*
X144758000Y-125625000D01*
X144756000Y-125619000D01*
X144756000Y-125613000D01*
X144755000Y-125606000D01*
X144755000Y-125600000D01*
X144755000Y-125100000D01*
X144755000Y-125094000D01*
X144756000Y-125087000D01*
X144756000Y-125081000D01*
X144758000Y-125075000D01*
X144759000Y-125069000D01*
X144761000Y-125063000D01*
X144763000Y-125057000D01*
X144765000Y-125051000D01*
X144768000Y-125046000D01*
X144771000Y-125040000D01*
X144774000Y-125035000D01*
X144778000Y-125029000D01*
X144782000Y-125024000D01*
X144786000Y-125020000D01*
X144790000Y-125015000D01*
X144795000Y-125011000D01*
X144799000Y-125007000D01*
X144804000Y-125003000D01*
X144810000Y-124999000D01*
X144815000Y-124996000D01*
X144821000Y-124993000D01*
X144826000Y-124990000D01*
X144832000Y-124988000D01*
X144838000Y-124986000D01*
X144844000Y-124984000D01*
X144850000Y-124983000D01*
X144856000Y-124981000D01*
X144862000Y-124981000D01*
X144869000Y-124980000D01*
X144875000Y-124980000D01*
X145025000Y-124980000D01*
X145031000Y-124980000D01*
X145038000Y-124981000D01*
G37*
D11*
X119600000Y-110000000D03*
D12*
X122100000Y-110000000D03*
X124600000Y-110000000D03*
X127100000Y-110000000D03*
X129600000Y-110000000D03*
X132100000Y-110000000D03*
D13*
X104000000Y-104000000D03*
D14*
X151400000Y-157200000D03*
D12*
X148900000Y-157200000D03*
X146400000Y-157200000D03*
D15*
X150600000Y-150200000D03*
D16*
X150600000Y-147700000D03*
X150600000Y-145200000D03*
D13*
X104000000Y-166000000D03*
D17*
X103775000Y-155250000D03*
X101025000Y-155250000D03*
X103775000Y-119700000D03*
X101025000Y-119700000D03*
D13*
X151000000Y-104000000D03*
X151000000Y-166000000D03*
D15*
X150600000Y-138875000D03*
D16*
X150600000Y-136375000D03*
X150600000Y-133875000D03*
D11*
X117500000Y-165000000D03*
D12*
X120000000Y-165000000D03*
X122500000Y-165000000D03*
D18*
X139702036Y-103439708D03*
D19*
X144702036Y-103439708D03*
D11*
X117500000Y-158100000D03*
D12*
X120000000Y-158100000D03*
X122500000Y-158100000D03*
D20*
X150600000Y-115400000D03*
D21*
X150600000Y-112900000D03*
D11*
X128800000Y-165000000D03*
D12*
X131300000Y-165000000D03*
X133800000Y-165000000D03*
D11*
X140000000Y-165000000D03*
D12*
X142500000Y-165000000D03*
X145000000Y-165000000D03*
D22*
X123200000Y-138200000D03*
X120660000Y-138200000D03*
X118120000Y-138200000D03*
D15*
X110468408Y-164757318D03*
D16*
X110468408Y-162257318D03*
X110468408Y-159757318D03*
D11*
X119600000Y-103200000D03*
D12*
X122100000Y-103200000D03*
X124600000Y-103200000D03*
X127100000Y-103200000D03*
X129600000Y-103200000D03*
X132100000Y-103200000D03*
D23*
X142250000Y-118600000D03*
X142250000Y-115650000D03*
D24*
X142490000Y-162720000D03*
X143450000Y-162720000D03*
D25*
X148840000Y-154580000D03*
X147880000Y-154580000D03*
D24*
X117957500Y-134550000D03*
X118917500Y-134550000D03*
X143120000Y-127600000D03*
X144080000Y-127600000D03*
D26*
X119900000Y-135340000D03*
X119900000Y-136300000D03*
D27*
X144175000Y-120300000D03*
X145725000Y-120300000D03*
D24*
X121520000Y-127800000D03*
X122480000Y-127800000D03*
X145890000Y-130100000D03*
X146850000Y-130100000D03*
D28*
X131700000Y-161210000D03*
X134650000Y-161210000D03*
D25*
X139730000Y-122050000D03*
X138770000Y-122050000D03*
D29*
X150600000Y-117795000D03*
X151620000Y-117795000D03*
D24*
X120000000Y-162900000D03*
X120960000Y-162900000D03*
D30*
X140200000Y-120450000D03*
X140200000Y-118800000D03*
D28*
X120396615Y-161201695D03*
X123346615Y-161201695D03*
D31*
X153550000Y-117795000D03*
X152530000Y-117795000D03*
D32*
X136525000Y-124850000D03*
X138175000Y-124850000D03*
D33*
X147500000Y-120225000D03*
X147500000Y-118675000D03*
D24*
X120000000Y-156040000D03*
X120960000Y-156040000D03*
D28*
X142880000Y-161030000D03*
X145830000Y-161030000D03*
D34*
X149020000Y-125900000D03*
X147370000Y-125900000D03*
D24*
X115690000Y-136450000D03*
X116650000Y-136450000D03*
D35*
X111775000Y-126250000D03*
X110225000Y-126250000D03*
D36*
X108368408Y-162167318D03*
X108368408Y-161207318D03*
D24*
X143100000Y-130100000D03*
X144060000Y-130100000D03*
D34*
X147765000Y-128810000D03*
X146115000Y-128810000D03*
D24*
X131310000Y-162890000D03*
X132270000Y-162890000D03*
D25*
X111180000Y-127650000D03*
X110220000Y-127650000D03*
D36*
X113350000Y-125830000D03*
X113350000Y-124870000D03*
D37*
X136562500Y-126500000D03*
X138137500Y-126500000D03*
D31*
X144110000Y-128630000D03*
X143090000Y-128630000D03*
D30*
X141850000Y-130475000D03*
X141850000Y-128825000D03*
D38*
X148450000Y-152900000D03*
X145500000Y-152900000D03*
D23*
X106688408Y-161777318D03*
X106688408Y-158827318D03*
D30*
X149550000Y-121900000D03*
X149550000Y-120250000D03*
D25*
X142110000Y-127600000D03*
X141150000Y-127600000D03*
D36*
X148650000Y-115330000D03*
X148650000Y-114370000D03*
D28*
X120390672Y-154340000D03*
X123340672Y-154340000D03*
D34*
X139375000Y-128100000D03*
X137725000Y-128100000D03*
D25*
X116917500Y-134550000D03*
X115957500Y-134550000D03*
D30*
X147450000Y-124425000D03*
X147450000Y-122775000D03*
D34*
X139350000Y-130300000D03*
X137700000Y-130300000D03*
D24*
X152550000Y-118825000D03*
X153510000Y-118825000D03*
D25*
X116650000Y-135500000D03*
X115690000Y-135500000D03*
M02*
