G04 #@! TF.GenerationSoftware,KiCad,Pcbnew,9.0.7-1.fc43*
G04 #@! TF.CreationDate,2026-03-03T23:18:48+01:00*
G04 #@! TF.ProjectId,pcb_2_ninja,7063625f-325f-46e6-996e-6a612e6b6963,rev?*
G04 #@! TF.SameCoordinates,Original*
G04 #@! TF.FileFunction,Legend,Top*
G04 #@! TF.FilePolarity,Positive*
%FSLAX46Y46*%
G04 Gerber Fmt 4.6, Leading zero omitted, Abs format (unit mm)*
G04 Created by KiCad (PCBNEW 9.0.7-1.fc43) date 2026-03-03 23:18:48*
%MOMM*%
%LPD*%
G01*
G04 APERTURE LIST*
G04 Aperture macros list*
%AMRoundRect*
0 Rectangle with rounded corners*
0 $1 Rounding radius*
0 $2 $3 $4 $5 $6 $7 $8 $9 X,Y pos of 4 corners*
0 Add a 4 corners polygon primitive as box body*
4,1,4,$2,$3,$4,$5,$6,$7,$8,$9,$2,$3,0*
0 Add four circle primitives for the rounded corners*
1,1,$1+$1,$2,$3*
1,1,$1+$1,$4,$5*
1,1,$1+$1,$6,$7*
1,1,$1+$1,$8,$9*
0 Add four rect primitives between the rounded corners*
20,1,$1+$1,$2,$3,$4,$5,0*
20,1,$1+$1,$4,$5,$6,$7,0*
20,1,$1+$1,$6,$7,$8,$9,0*
20,1,$1+$1,$8,$9,$2,$3,0*%
G04 Aperture macros list end*
%ADD10C,0.100000*%
%ADD11C,0.150000*%
%ADD12C,0.080000*%
%ADD13C,0.125000*%
%ADD14C,0.120000*%
%ADD15C,0.200000*%
%ADD16C,0.127000*%
%ADD17C,0.000000*%
%ADD18C,0.300000*%
%ADD19C,0.400000*%
%ADD20C,0.010000*%
%ADD21R,5.400000X2.900000*%
%ADD22RoundRect,0.250000X-0.600000X-0.725000X0.600000X-0.725000X0.600000X0.725000X-0.600000X0.725000X0*%
%ADD23O,1.700000X1.950000*%
%ADD24C,5.400000*%
%ADD25R,1.500000X1.500000*%
%ADD26RoundRect,0.250000X0.600000X0.725000X-0.600000X0.725000X-0.600000X-0.725000X0.600000X-0.725000X0*%
%ADD27RoundRect,0.225000X-0.225000X-0.250000X0.225000X-0.250000X0.225000X0.250000X-0.225000X0.250000X0*%
%ADD28RoundRect,0.250000X1.100000X-0.325000X1.100000X0.325000X-1.100000X0.325000X-1.100000X-0.325000X0*%
%ADD29RoundRect,0.200000X-0.200000X-0.275000X0.200000X-0.275000X0.200000X0.275000X-0.200000X0.275000X0*%
%ADD30RoundRect,0.135000X-0.135000X-0.185000X0.135000X-0.185000X0.135000X0.185000X-0.135000X0.185000X0*%
%ADD31RoundRect,0.102000X-1.750000X-0.800000X1.750000X-0.800000X1.750000X0.800000X-1.750000X0.800000X0*%
%ADD32RoundRect,0.062500X-0.375000X-0.062500X0.375000X-0.062500X0.375000X0.062500X-0.375000X0.062500X0*%
%ADD33RoundRect,0.062500X-0.062500X-0.375000X0.062500X-0.375000X0.062500X0.375000X-0.062500X0.375000X0*%
%ADD34R,5.600000X5.600000*%
%ADD35RoundRect,0.102000X0.337500X-0.375000X0.337500X0.375000X-0.337500X0.375000X-0.337500X-0.375000X0*%
%ADD36RoundRect,0.140000X0.170000X-0.140000X0.170000X0.140000X-0.170000X0.140000X-0.170000X-0.140000X0*%
%ADD37RoundRect,0.090000X-0.660000X-0.360000X0.660000X-0.360000X0.660000X0.360000X-0.660000X0.360000X0*%
%ADD38RoundRect,0.250000X0.725000X-0.600000X0.725000X0.600000X-0.725000X0.600000X-0.725000X-0.600000X0*%
%ADD39O,1.950000X1.700000*%
%ADD40RoundRect,0.102000X-2.300000X0.900000X-2.300000X-0.900000X2.300000X-0.900000X2.300000X0.900000X0*%
%ADD41R,1.000000X1.000000*%
%ADD42RoundRect,0.140000X-0.140000X-0.170000X0.140000X-0.170000X0.140000X0.170000X-0.140000X0.170000X0*%
%ADD43RoundRect,0.050000X-0.100000X0.285000X-0.100000X-0.285000X0.100000X-0.285000X0.100000X0.285000X0*%
%ADD44RoundRect,0.140000X0.140000X0.170000X-0.140000X0.170000X-0.140000X-0.170000X0.140000X-0.170000X0*%
%ADD45C,0.750000*%
%ADD46RoundRect,0.102000X-0.500000X0.600000X-0.500000X-0.600000X0.500000X-0.600000X0.500000X0.600000X0*%
%ADD47RoundRect,0.250000X-1.100000X0.325000X-1.100000X-0.325000X1.100000X-0.325000X1.100000X0.325000X0*%
%ADD48RoundRect,0.250000X-0.325000X-1.100000X0.325000X-1.100000X0.325000X1.100000X-0.325000X1.100000X0*%
%ADD49RoundRect,0.250000X-0.900000X1.000000X-0.900000X-1.000000X0.900000X-1.000000X0.900000X1.000000X0*%
%ADD50RoundRect,0.135000X-0.185000X0.135000X-0.185000X-0.135000X0.185000X-0.135000X0.185000X0.135000X0*%
%ADD51RoundRect,0.140000X-0.170000X0.140000X-0.170000X-0.140000X0.170000X-0.140000X0.170000X0.140000X0*%
%ADD52RoundRect,0.760000X-1.140000X-1.140000X1.140000X-1.140000X1.140000X1.140000X-1.140000X1.140000X0*%
%ADD53C,4.000000*%
%ADD54RoundRect,0.200000X0.275000X-0.200000X0.275000X0.200000X-0.275000X0.200000X-0.275000X-0.200000X0*%
%ADD55RoundRect,0.102000X-0.300000X-0.550000X0.300000X-0.550000X0.300000X0.550000X-0.300000X0.550000X0*%
%ADD56RoundRect,0.102000X-0.800000X1.750000X-0.800000X-1.750000X0.800000X-1.750000X0.800000X1.750000X0*%
%ADD57RoundRect,0.250000X0.750000X-0.600000X0.750000X0.600000X-0.750000X0.600000X-0.750000X-0.600000X0*%
%ADD58O,2.000000X1.700000*%
%ADD59R,2.400000X0.740000*%
%ADD60RoundRect,0.250000X-1.000000X-0.650000X1.000000X-0.650000X1.000000X0.650000X-1.000000X0.650000X0*%
%ADD61RoundRect,0.200000X-0.275000X0.200000X-0.275000X-0.200000X0.275000X-0.200000X0.275000X0.200000X0*%
%ADD62RoundRect,0.200000X0.200000X0.275000X-0.200000X0.275000X-0.200000X-0.275000X0.200000X-0.275000X0*%
%ADD63RoundRect,0.237500X-0.287500X-0.237500X0.287500X-0.237500X0.287500X0.237500X-0.287500X0.237500X0*%
%ADD64RoundRect,0.225000X0.225000X0.250000X-0.225000X0.250000X-0.225000X-0.250000X0.225000X-0.250000X0*%
%ADD65RoundRect,0.250000X0.325000X0.650000X-0.325000X0.650000X-0.325000X-0.650000X0.325000X-0.650000X0*%
%ADD66C,1.712000*%
G04 APERTURE END LIST*
D10*
G36*
X148305617Y-108889781D02*
G01*
X148265012Y-108783414D01*
X148361883Y-108745852D01*
X148435127Y-108706355D01*
X148497702Y-108660133D01*
X148542899Y-108613970D01*
X148577566Y-108563463D01*
X148599563Y-108513892D01*
X148612331Y-108462917D01*
X148616416Y-108415218D01*
X148609097Y-108347045D01*
X148586313Y-108275938D01*
X148554414Y-108206704D01*
X148519818Y-108142215D01*
X148621973Y-108090375D01*
X148668867Y-108187034D01*
X148705259Y-108276610D01*
X148731210Y-108353607D01*
X148747080Y-108392385D01*
X148764205Y-108418711D01*
X148782318Y-108435551D01*
X148817609Y-108451293D01*
X148868414Y-108457227D01*
X148894735Y-108461634D01*
X148911095Y-108473347D01*
X148921018Y-108490819D01*
X148924406Y-108511816D01*
X148919753Y-108532826D01*
X148904806Y-108553154D01*
X148882803Y-108567151D01*
X148854370Y-108572021D01*
X148796436Y-108566127D01*
X148754291Y-108550345D01*
X148720243Y-108524833D01*
X148696222Y-108492948D01*
X148679730Y-108456254D01*
X148669600Y-108418026D01*
X148714419Y-108443183D01*
X148709708Y-108503750D01*
X148695895Y-108559699D01*
X148673080Y-108611894D01*
X148625946Y-108683396D01*
X148567384Y-108744884D01*
X148500921Y-108797001D01*
X148432990Y-108838002D01*
X148363776Y-108870106D01*
X148305617Y-108889781D01*
G37*
G36*
X149152163Y-107772615D02*
G01*
X149124927Y-107767514D01*
X149102398Y-107752342D01*
X149087163Y-107730010D01*
X149082126Y-107703982D01*
X149087138Y-107677892D01*
X149102398Y-107655012D01*
X149124984Y-107639267D01*
X149152163Y-107634007D01*
X149178071Y-107639200D01*
X149200401Y-107655012D01*
X149215709Y-107677897D01*
X149220734Y-107703982D01*
X149215684Y-107730006D01*
X149200401Y-107752342D01*
X149178128Y-107767579D01*
X149152163Y-107772615D01*
G37*
G36*
X148960371Y-107772615D02*
G01*
X148933135Y-107767514D01*
X148910607Y-107752342D01*
X148895371Y-107730010D01*
X148890334Y-107703982D01*
X148895347Y-107677892D01*
X148910607Y-107655012D01*
X148933193Y-107639267D01*
X148960371Y-107634007D01*
X148986279Y-107639200D01*
X149008609Y-107655012D01*
X149023917Y-107677897D01*
X149028942Y-107703982D01*
X149023893Y-107730006D01*
X149008609Y-107752342D01*
X148986336Y-107767579D01*
X148960371Y-107772615D01*
G37*
G36*
X148853942Y-108572021D02*
G01*
X148867925Y-108457227D01*
X148934100Y-108454215D01*
X148977163Y-108446725D01*
X149012055Y-108431032D01*
X149036636Y-108406120D01*
X149053972Y-108371959D01*
X149069548Y-108318620D01*
X149100322Y-108168777D01*
X149209560Y-108189781D01*
X149196920Y-108245835D01*
X149185013Y-108306713D01*
X149180129Y-108359225D01*
X149182937Y-108398426D01*
X149189343Y-108414847D01*
X149203942Y-108429200D01*
X149225685Y-108439636D01*
X149265553Y-108449534D01*
X149313692Y-108454998D01*
X149390116Y-108457227D01*
X149416491Y-108461636D01*
X149432859Y-108473347D01*
X149442781Y-108490819D01*
X149446170Y-108511816D01*
X149441517Y-108532826D01*
X149426570Y-108553154D01*
X149404567Y-108567151D01*
X149376133Y-108572021D01*
X149295125Y-108569442D01*
X149240334Y-108562923D01*
X149193661Y-108550673D01*
X149164009Y-108535629D01*
X149141784Y-108514885D01*
X149127616Y-108490078D01*
X149111557Y-108426392D01*
X149153567Y-108429200D01*
X149129411Y-108471111D01*
X149105207Y-108502046D01*
X149077282Y-108526949D01*
X149045734Y-108545399D01*
X149010100Y-108558007D01*
X148965256Y-108566404D01*
X148853942Y-108572021D01*
G37*
G36*
X149673866Y-108829576D02*
G01*
X149646634Y-108824462D01*
X149624101Y-108809242D01*
X149608864Y-108786969D01*
X149603829Y-108761004D01*
X149608844Y-108734861D01*
X149624101Y-108711973D01*
X149646682Y-108696276D01*
X149673866Y-108691029D01*
X149699779Y-108696209D01*
X149722103Y-108711973D01*
X149737408Y-108734866D01*
X149742437Y-108761004D01*
X149737388Y-108786965D01*
X149722103Y-108809242D01*
X149699826Y-108824527D01*
X149673866Y-108829576D01*
G37*
G36*
X149482074Y-108829576D02*
G01*
X149454843Y-108824462D01*
X149432309Y-108809242D01*
X149417073Y-108786969D01*
X149412037Y-108761004D01*
X149417052Y-108734861D01*
X149432309Y-108711973D01*
X149454891Y-108696276D01*
X149482074Y-108691029D01*
X149507987Y-108696209D01*
X149530312Y-108711973D01*
X149545617Y-108734866D01*
X149550645Y-108761004D01*
X149545596Y-108786965D01*
X149530312Y-108809242D01*
X149508034Y-108824527D01*
X149482074Y-108829576D01*
G37*
G36*
X149375645Y-108572021D02*
G01*
X149389628Y-108457227D01*
X149455803Y-108454215D01*
X149498866Y-108446725D01*
X149533758Y-108431032D01*
X149558339Y-108406120D01*
X149575674Y-108371959D01*
X149591250Y-108318620D01*
X149622025Y-108168777D01*
X149731263Y-108189781D01*
X149718623Y-108245835D01*
X149706716Y-108306713D01*
X149701831Y-108359225D01*
X149704640Y-108398426D01*
X149711046Y-108414847D01*
X149725645Y-108429200D01*
X149747388Y-108439636D01*
X149787255Y-108449534D01*
X149835395Y-108454998D01*
X149911819Y-108457227D01*
X149938194Y-108461636D01*
X149954562Y-108473347D01*
X149964484Y-108490819D01*
X149967873Y-108511816D01*
X149963220Y-108532826D01*
X149948272Y-108553154D01*
X149926270Y-108567151D01*
X149897836Y-108572021D01*
X149816827Y-108569442D01*
X149762037Y-108562923D01*
X149715364Y-108550673D01*
X149685711Y-108535629D01*
X149663487Y-108514885D01*
X149649319Y-108490078D01*
X149633260Y-108426392D01*
X149675270Y-108429200D01*
X149651114Y-108471111D01*
X149626910Y-108502046D01*
X149598984Y-108526949D01*
X149567437Y-108545399D01*
X149531803Y-108558007D01*
X149486959Y-108566404D01*
X149375645Y-108572021D01*
G37*
G36*
X149897348Y-108572021D02*
G01*
X149911331Y-108457227D01*
X150047862Y-108455823D01*
X150118510Y-108452342D01*
X150149345Y-108450205D01*
X150123750Y-108433469D01*
X150090544Y-108406120D01*
X150059664Y-108372618D01*
X150031742Y-108329122D01*
X150013135Y-108279178D01*
X150006524Y-108217808D01*
X150010840Y-108165666D01*
X150023310Y-108119345D01*
X150043649Y-108077796D01*
X150071411Y-108040722D01*
X150105266Y-108009592D01*
X150145865Y-107984007D01*
X150190381Y-107965659D01*
X150239781Y-107954342D01*
X150294975Y-107950423D01*
X150363546Y-107956041D01*
X150433522Y-107972772D01*
X150409769Y-108080605D01*
X150350907Y-108069431D01*
X150294975Y-108065218D01*
X150246528Y-108070125D01*
X150205338Y-108084146D01*
X150170050Y-108106936D01*
X150143728Y-108136598D01*
X150127157Y-108172847D01*
X150121318Y-108217808D01*
X150125235Y-108252929D01*
X150136706Y-108284303D01*
X150154524Y-108312758D01*
X150177311Y-108338220D01*
X150203939Y-108359911D01*
X150233304Y-108377421D01*
X150294242Y-108401235D01*
X150323716Y-108407277D01*
X150348159Y-108408196D01*
X150378934Y-108398426D01*
X150410441Y-108387923D01*
X150453855Y-108370399D01*
X150520350Y-108341029D01*
X150559551Y-108443183D01*
X150464940Y-108478866D01*
X150368431Y-108510411D01*
X150268666Y-108536098D01*
X150157039Y-108555901D01*
X150039099Y-108567738D01*
X149897348Y-108572021D01*
G37*
G36*
X150707196Y-107772615D02*
G01*
X150679960Y-107767514D01*
X150657431Y-107752342D01*
X150642196Y-107730010D01*
X150637159Y-107703982D01*
X150642172Y-107677892D01*
X150657431Y-107655012D01*
X150680018Y-107639267D01*
X150707196Y-107634007D01*
X150733104Y-107639200D01*
X150755434Y-107655012D01*
X150770742Y-107677897D01*
X150775767Y-107703982D01*
X150770717Y-107730006D01*
X150755434Y-107752342D01*
X150733161Y-107767579D01*
X150707196Y-107772615D01*
G37*
G36*
X150606385Y-108886973D02*
G01*
X150565779Y-108780605D01*
X150658663Y-108746286D01*
X150729967Y-108710411D01*
X150783461Y-108673504D01*
X150831202Y-108629150D01*
X150865508Y-108586143D01*
X150888485Y-108544056D01*
X150910313Y-108476855D01*
X150917184Y-108415218D01*
X150915053Y-108376499D01*
X150908757Y-108339624D01*
X150897819Y-108302405D01*
X150879387Y-108257009D01*
X150820586Y-108142215D01*
X150922740Y-108090375D01*
X150969543Y-108181450D01*
X150999066Y-108262627D01*
X151016846Y-108341847D01*
X151022147Y-108405387D01*
X151018804Y-108463656D01*
X151009120Y-108516631D01*
X150993449Y-108565000D01*
X150959931Y-108632817D01*
X150917855Y-108691700D01*
X150868437Y-108743377D01*
X150815640Y-108786222D01*
X150759610Y-108822351D01*
X150705059Y-108850580D01*
X150650744Y-108873016D01*
X150606385Y-108886973D01*
G37*
G36*
X151484926Y-108566404D02*
G01*
X151491215Y-108494352D01*
X151510816Y-108411737D01*
X151543728Y-108318620D01*
X151644539Y-108357821D01*
X151619993Y-108432009D01*
X151604605Y-108497833D01*
X151599720Y-108556573D01*
X151606504Y-108612179D01*
X151625610Y-108656652D01*
X151656188Y-108693923D01*
X151697723Y-108724551D01*
X151746403Y-108747344D01*
X151803419Y-108763752D01*
X151864041Y-108773152D01*
X151930120Y-108776392D01*
X152009841Y-108772789D01*
X152081978Y-108762409D01*
X152149975Y-108744955D01*
X152206603Y-108722475D01*
X152256281Y-108693748D01*
X152291294Y-108663674D01*
X152314767Y-108628783D01*
X152322130Y-108593026D01*
X152318737Y-108575772D01*
X152308086Y-108559382D01*
X152291721Y-108545143D01*
X152266076Y-108530012D01*
X152198909Y-108502718D01*
X152109333Y-108475423D01*
X152135894Y-108359225D01*
X152264733Y-108406120D01*
X152362735Y-108436222D01*
X152435519Y-108452342D01*
X152487299Y-108457227D01*
X152513663Y-108461639D01*
X152529980Y-108473347D01*
X152539903Y-108490819D01*
X152543292Y-108511816D01*
X152538639Y-108532826D01*
X152523691Y-108553154D01*
X152501697Y-108567153D01*
X152473316Y-108572021D01*
X152456463Y-108572021D01*
X152439000Y-108572021D01*
X152421536Y-108572021D01*
X152425689Y-108592294D01*
X152427093Y-108612627D01*
X152423303Y-108646060D01*
X152411694Y-108679411D01*
X152391372Y-108713377D01*
X152349267Y-108758576D01*
X152287081Y-108802281D01*
X152213819Y-108837204D01*
X152121179Y-108865968D01*
X152020235Y-108883485D01*
X151899345Y-108889781D01*
X151826255Y-108885685D01*
X151758082Y-108873689D01*
X151694181Y-108854061D01*
X151634309Y-108825721D01*
X151584083Y-108790079D01*
X151542323Y-108746960D01*
X151511092Y-108696601D01*
X151491746Y-108637181D01*
X151484926Y-108566404D01*
G37*
G36*
X152770865Y-108829576D02*
G01*
X152743634Y-108824462D01*
X152721100Y-108809242D01*
X152705864Y-108786969D01*
X152700828Y-108761004D01*
X152705843Y-108734861D01*
X152721100Y-108711973D01*
X152743682Y-108696276D01*
X152770865Y-108691029D01*
X152796778Y-108696209D01*
X152819103Y-108711973D01*
X152834408Y-108734866D01*
X152839436Y-108761004D01*
X152834387Y-108786965D01*
X152819103Y-108809242D01*
X152796825Y-108824527D01*
X152770865Y-108829576D01*
G37*
G36*
X152579073Y-108829576D02*
G01*
X152551842Y-108824462D01*
X152529309Y-108809242D01*
X152514072Y-108786969D01*
X152509036Y-108761004D01*
X152514052Y-108734861D01*
X152529309Y-108711973D01*
X152551890Y-108696276D01*
X152579073Y-108691029D01*
X152604986Y-108696209D01*
X152627311Y-108711973D01*
X152642616Y-108734866D01*
X152647644Y-108761004D01*
X152642596Y-108786965D01*
X152627311Y-108809242D01*
X152605033Y-108824527D01*
X152579073Y-108829576D01*
G37*
G36*
X152472644Y-108572021D02*
G01*
X152486627Y-108457227D01*
X152552802Y-108454215D01*
X152595865Y-108446725D01*
X152630757Y-108431032D01*
X152655338Y-108406120D01*
X152672674Y-108371959D01*
X152688250Y-108318620D01*
X152719024Y-108168777D01*
X152828262Y-108189781D01*
X152815622Y-108245835D01*
X152803715Y-108306713D01*
X152798831Y-108359225D01*
X152801639Y-108398426D01*
X152808045Y-108414847D01*
X152822644Y-108429200D01*
X152844387Y-108439636D01*
X152884255Y-108449534D01*
X152932394Y-108454998D01*
X153008818Y-108457227D01*
X153035193Y-108461636D01*
X153051561Y-108473347D01*
X153061484Y-108490819D01*
X153064872Y-108511816D01*
X153060219Y-108532826D01*
X153045272Y-108553154D01*
X153023269Y-108567151D01*
X152994836Y-108572021D01*
X152913827Y-108569442D01*
X152859036Y-108562923D01*
X152812363Y-108550673D01*
X152782711Y-108535629D01*
X152760486Y-108514885D01*
X152746318Y-108490078D01*
X152730259Y-108426392D01*
X152772269Y-108429200D01*
X152748114Y-108471111D01*
X152723909Y-108502046D01*
X152695984Y-108526949D01*
X152664436Y-108545399D01*
X152628802Y-108558007D01*
X152583958Y-108566404D01*
X152472644Y-108572021D01*
G37*
G36*
X153886139Y-108572021D02*
G01*
X153828579Y-108570011D01*
X153778306Y-108564328D01*
X153731185Y-108553082D01*
X153690134Y-108535629D01*
X153654382Y-108510189D01*
X153624310Y-108474752D01*
X153601800Y-108430681D01*
X153583766Y-108368995D01*
X153666320Y-108320024D01*
X153687828Y-108371587D01*
X153711139Y-108405448D01*
X153741719Y-108429854D01*
X153783251Y-108446053D01*
X153831990Y-108454115D01*
X153900122Y-108457227D01*
X153926497Y-108461636D01*
X153942864Y-108473347D01*
X153952787Y-108490819D01*
X153956175Y-108511816D01*
X153951522Y-108532826D01*
X153936575Y-108553154D01*
X153914572Y-108567151D01*
X153886139Y-108572021D01*
G37*
G36*
X152994347Y-108572021D02*
G01*
X153006926Y-108457227D01*
X153079290Y-108454415D01*
X153149747Y-108446053D01*
X153219077Y-108432362D01*
X153286889Y-108413813D01*
X153353019Y-108390479D01*
X153416399Y-108362705D01*
X153477244Y-108330275D01*
X153534734Y-108293401D01*
X153496006Y-108263629D01*
X153450715Y-108237409D01*
X153401442Y-108216429D01*
X153346423Y-108200284D01*
X153288751Y-108190365D01*
X153226744Y-108186973D01*
X153184734Y-108188377D01*
X153145533Y-108193323D01*
X153100776Y-108202421D01*
X153078367Y-108095992D01*
X153153960Y-108078529D01*
X153226744Y-108072178D01*
X153297453Y-108076751D01*
X153358330Y-108089703D01*
X153415309Y-108109472D01*
X153465430Y-108132445D01*
X153556411Y-108182821D01*
X153639759Y-108225502D01*
X153681153Y-108238666D01*
X153723717Y-108243026D01*
X153753148Y-108243026D01*
X153762918Y-108343777D01*
X153704360Y-108348119D01*
X153652337Y-108360629D01*
X153602668Y-108379615D01*
X153553663Y-108403311D01*
X153452119Y-108457899D01*
X153397203Y-108485395D01*
X153334516Y-108512487D01*
X153267387Y-108535543D01*
X153186810Y-108555230D01*
X153100235Y-108567541D01*
X152994347Y-108572021D01*
G37*
G36*
X154183565Y-108829576D02*
G01*
X154156334Y-108824462D01*
X154133801Y-108809242D01*
X154118564Y-108786969D01*
X154113529Y-108761004D01*
X154118544Y-108734861D01*
X154133801Y-108711973D01*
X154156382Y-108696276D01*
X154183565Y-108691029D01*
X154209478Y-108696209D01*
X154231803Y-108711973D01*
X154247108Y-108734866D01*
X154252137Y-108761004D01*
X154247088Y-108786965D01*
X154231803Y-108809242D01*
X154209526Y-108824527D01*
X154183565Y-108829576D01*
G37*
G36*
X153991774Y-108829576D02*
G01*
X153964542Y-108824462D01*
X153942009Y-108809242D01*
X153926773Y-108786969D01*
X153921737Y-108761004D01*
X153926752Y-108734861D01*
X153942009Y-108711973D01*
X153964591Y-108696276D01*
X153991774Y-108691029D01*
X154017687Y-108696209D01*
X154040012Y-108711973D01*
X154055317Y-108734866D01*
X154060345Y-108761004D01*
X154055296Y-108786965D01*
X154040012Y-108809242D01*
X154017734Y-108824527D01*
X153991774Y-108829576D01*
G37*
G36*
X153885345Y-108572021D02*
G01*
X153899328Y-108457227D01*
X153977354Y-108455424D01*
X154028105Y-108450938D01*
X154069240Y-108438916D01*
X154093928Y-108418698D01*
X154107889Y-108388225D01*
X154113529Y-108336816D01*
X154110973Y-108300415D01*
X154102294Y-108253529D01*
X154072923Y-108150642D01*
X154033722Y-108042808D01*
X154147173Y-108000799D01*
X154181428Y-108103014D01*
X154208722Y-108216404D01*
X154217372Y-108270886D01*
X154219958Y-108314406D01*
X154214867Y-108381349D01*
X154201029Y-108433414D01*
X154176620Y-108477993D01*
X154141556Y-108513220D01*
X154096811Y-108539098D01*
X154037203Y-108558039D01*
X153970420Y-108568241D01*
X153885345Y-108572021D01*
G37*
X114756265Y-148282963D02*
X114756265Y-147482963D01*
X114756265Y-147482963D02*
X115213408Y-148282963D01*
X115213408Y-148282963D02*
X115213408Y-147482963D01*
X115594360Y-148282963D02*
X115594360Y-147482963D01*
X115975312Y-148282963D02*
X115975312Y-147482963D01*
X115975312Y-147482963D02*
X116432455Y-148282963D01*
X116432455Y-148282963D02*
X116432455Y-147482963D01*
X117041978Y-147482963D02*
X117041978Y-148054391D01*
X117041978Y-148054391D02*
X117003883Y-148168677D01*
X117003883Y-148168677D02*
X116927692Y-148244868D01*
X116927692Y-148244868D02*
X116813407Y-148282963D01*
X116813407Y-148282963D02*
X116737216Y-148282963D01*
X117384835Y-148054391D02*
X117765788Y-148054391D01*
X117308645Y-148282963D02*
X117575312Y-147482963D01*
X117575312Y-147482963D02*
X117841978Y-148282963D01*
X118565788Y-148282963D02*
X118299121Y-147902010D01*
X118108645Y-148282963D02*
X118108645Y-147482963D01*
X118108645Y-147482963D02*
X118413407Y-147482963D01*
X118413407Y-147482963D02*
X118489597Y-147521058D01*
X118489597Y-147521058D02*
X118527692Y-147559153D01*
X118527692Y-147559153D02*
X118565788Y-147635344D01*
X118565788Y-147635344D02*
X118565788Y-147749629D01*
X118565788Y-147749629D02*
X118527692Y-147825820D01*
X118527692Y-147825820D02*
X118489597Y-147863915D01*
X118489597Y-147863915D02*
X118413407Y-147902010D01*
X118413407Y-147902010D02*
X118108645Y-147902010D01*
X118908645Y-147863915D02*
X119175311Y-147863915D01*
X119289597Y-148282963D02*
X118908645Y-148282963D01*
X118908645Y-148282963D02*
X118908645Y-147482963D01*
X118908645Y-147482963D02*
X119289597Y-147482963D01*
X119594359Y-148244868D02*
X119708645Y-148282963D01*
X119708645Y-148282963D02*
X119899121Y-148282963D01*
X119899121Y-148282963D02*
X119975312Y-148244868D01*
X119975312Y-148244868D02*
X120013407Y-148206772D01*
X120013407Y-148206772D02*
X120051502Y-148130582D01*
X120051502Y-148130582D02*
X120051502Y-148054391D01*
X120051502Y-148054391D02*
X120013407Y-147978201D01*
X120013407Y-147978201D02*
X119975312Y-147940106D01*
X119975312Y-147940106D02*
X119899121Y-147902010D01*
X119899121Y-147902010D02*
X119746740Y-147863915D01*
X119746740Y-147863915D02*
X119670550Y-147825820D01*
X119670550Y-147825820D02*
X119632455Y-147787725D01*
X119632455Y-147787725D02*
X119594359Y-147711534D01*
X119594359Y-147711534D02*
X119594359Y-147635344D01*
X119594359Y-147635344D02*
X119632455Y-147559153D01*
X119632455Y-147559153D02*
X119670550Y-147521058D01*
X119670550Y-147521058D02*
X119746740Y-147482963D01*
X119746740Y-147482963D02*
X119937217Y-147482963D01*
X119937217Y-147482963D02*
X120051502Y-147521058D01*
X115175312Y-148809013D02*
X115099122Y-148770918D01*
X115099122Y-148770918D02*
X114984836Y-148770918D01*
X114984836Y-148770918D02*
X114870550Y-148809013D01*
X114870550Y-148809013D02*
X114794360Y-148885203D01*
X114794360Y-148885203D02*
X114756265Y-148961394D01*
X114756265Y-148961394D02*
X114718169Y-149113775D01*
X114718169Y-149113775D02*
X114718169Y-149228061D01*
X114718169Y-149228061D02*
X114756265Y-149380442D01*
X114756265Y-149380442D02*
X114794360Y-149456632D01*
X114794360Y-149456632D02*
X114870550Y-149532823D01*
X114870550Y-149532823D02*
X114984836Y-149570918D01*
X114984836Y-149570918D02*
X115061027Y-149570918D01*
X115061027Y-149570918D02*
X115175312Y-149532823D01*
X115175312Y-149532823D02*
X115213408Y-149494727D01*
X115213408Y-149494727D02*
X115213408Y-149228061D01*
X115213408Y-149228061D02*
X115061027Y-149228061D01*
X115556265Y-149494727D02*
X115594360Y-149532823D01*
X115594360Y-149532823D02*
X115556265Y-149570918D01*
X115556265Y-149570918D02*
X115518169Y-149532823D01*
X115518169Y-149532823D02*
X115556265Y-149494727D01*
X115556265Y-149494727D02*
X115556265Y-149570918D01*
X116546741Y-149570918D02*
X116546741Y-148770918D01*
X116546741Y-148770918D02*
X116813407Y-149342346D01*
X116813407Y-149342346D02*
X117080074Y-148770918D01*
X117080074Y-148770918D02*
X117080074Y-149570918D01*
X117613408Y-148770918D02*
X117765789Y-148770918D01*
X117765789Y-148770918D02*
X117841979Y-148809013D01*
X117841979Y-148809013D02*
X117918170Y-148885203D01*
X117918170Y-148885203D02*
X117956265Y-149037584D01*
X117956265Y-149037584D02*
X117956265Y-149304251D01*
X117956265Y-149304251D02*
X117918170Y-149456632D01*
X117918170Y-149456632D02*
X117841979Y-149532823D01*
X117841979Y-149532823D02*
X117765789Y-149570918D01*
X117765789Y-149570918D02*
X117613408Y-149570918D01*
X117613408Y-149570918D02*
X117537217Y-149532823D01*
X117537217Y-149532823D02*
X117461027Y-149456632D01*
X117461027Y-149456632D02*
X117422931Y-149304251D01*
X117422931Y-149304251D02*
X117422931Y-149037584D01*
X117422931Y-149037584D02*
X117461027Y-148885203D01*
X117461027Y-148885203D02*
X117537217Y-148809013D01*
X117537217Y-148809013D02*
X117613408Y-148770918D01*
X118261026Y-149342346D02*
X118641979Y-149342346D01*
X118184836Y-149570918D02*
X118451503Y-148770918D01*
X118451503Y-148770918D02*
X118718169Y-149570918D01*
X114756265Y-150858873D02*
X114756265Y-150058873D01*
X114756265Y-150058873D02*
X115022931Y-150630301D01*
X115022931Y-150630301D02*
X115289598Y-150058873D01*
X115289598Y-150058873D02*
X115289598Y-150858873D01*
X115670551Y-150782682D02*
X115708646Y-150820778D01*
X115708646Y-150820778D02*
X115670551Y-150858873D01*
X115670551Y-150858873D02*
X115632455Y-150820778D01*
X115632455Y-150820778D02*
X115670551Y-150782682D01*
X115670551Y-150782682D02*
X115670551Y-150858873D01*
X116622931Y-150630301D02*
X117003884Y-150630301D01*
X116546741Y-150858873D02*
X116813408Y-150058873D01*
X116813408Y-150058873D02*
X117080074Y-150858873D01*
X117765788Y-150096968D02*
X117689598Y-150058873D01*
X117689598Y-150058873D02*
X117575312Y-150058873D01*
X117575312Y-150058873D02*
X117461026Y-150096968D01*
X117461026Y-150096968D02*
X117384836Y-150173158D01*
X117384836Y-150173158D02*
X117346741Y-150249349D01*
X117346741Y-150249349D02*
X117308645Y-150401730D01*
X117308645Y-150401730D02*
X117308645Y-150516016D01*
X117308645Y-150516016D02*
X117346741Y-150668397D01*
X117346741Y-150668397D02*
X117384836Y-150744587D01*
X117384836Y-150744587D02*
X117461026Y-150820778D01*
X117461026Y-150820778D02*
X117575312Y-150858873D01*
X117575312Y-150858873D02*
X117651503Y-150858873D01*
X117651503Y-150858873D02*
X117765788Y-150820778D01*
X117765788Y-150820778D02*
X117803884Y-150782682D01*
X117803884Y-150782682D02*
X117803884Y-150516016D01*
X117803884Y-150516016D02*
X117651503Y-150516016D01*
X118146741Y-150858873D02*
X118146741Y-150058873D01*
X118146741Y-150439825D02*
X118603884Y-150439825D01*
X118603884Y-150858873D02*
X118603884Y-150058873D01*
X118984836Y-150439825D02*
X119251502Y-150439825D01*
X119365788Y-150858873D02*
X118984836Y-150858873D01*
X118984836Y-150858873D02*
X118984836Y-150058873D01*
X118984836Y-150058873D02*
X119365788Y-150058873D01*
X120089598Y-150858873D02*
X119708646Y-150858873D01*
X119708646Y-150858873D02*
X119708646Y-150058873D01*
X120356265Y-150439825D02*
X120622931Y-150439825D01*
X120737217Y-150858873D02*
X120356265Y-150858873D01*
X120356265Y-150858873D02*
X120356265Y-150058873D01*
X120356265Y-150058873D02*
X120737217Y-150058873D01*
X121041979Y-150820778D02*
X121156265Y-150858873D01*
X121156265Y-150858873D02*
X121346741Y-150858873D01*
X121346741Y-150858873D02*
X121422932Y-150820778D01*
X121422932Y-150820778D02*
X121461027Y-150782682D01*
X121461027Y-150782682D02*
X121499122Y-150706492D01*
X121499122Y-150706492D02*
X121499122Y-150630301D01*
X121499122Y-150630301D02*
X121461027Y-150554111D01*
X121461027Y-150554111D02*
X121422932Y-150516016D01*
X121422932Y-150516016D02*
X121346741Y-150477920D01*
X121346741Y-150477920D02*
X121194360Y-150439825D01*
X121194360Y-150439825D02*
X121118170Y-150401730D01*
X121118170Y-150401730D02*
X121080075Y-150363635D01*
X121080075Y-150363635D02*
X121041979Y-150287444D01*
X121041979Y-150287444D02*
X121041979Y-150211254D01*
X121041979Y-150211254D02*
X121080075Y-150135063D01*
X121080075Y-150135063D02*
X121118170Y-150096968D01*
X121118170Y-150096968D02*
X121194360Y-150058873D01*
X121194360Y-150058873D02*
X121384837Y-150058873D01*
X121384837Y-150058873D02*
X121499122Y-150096968D01*
X114680074Y-151346828D02*
X115213408Y-151346828D01*
X115213408Y-151346828D02*
X114680074Y-152146828D01*
X114680074Y-152146828D02*
X115213408Y-152146828D01*
X115518170Y-152070637D02*
X115556265Y-152108733D01*
X115556265Y-152108733D02*
X115518170Y-152146828D01*
X115518170Y-152146828D02*
X115480074Y-152108733D01*
X115480074Y-152108733D02*
X115518170Y-152070637D01*
X115518170Y-152070637D02*
X115518170Y-152146828D01*
X116661027Y-151765875D02*
X116661027Y-152146828D01*
X116394360Y-151346828D02*
X116661027Y-151765875D01*
X116661027Y-151765875D02*
X116927693Y-151346828D01*
X117194360Y-151727780D02*
X117461026Y-151727780D01*
X117575312Y-152146828D02*
X117194360Y-152146828D01*
X117194360Y-152146828D02*
X117194360Y-151346828D01*
X117194360Y-151346828D02*
X117575312Y-151346828D01*
X117918170Y-152146828D02*
X117918170Y-151346828D01*
X117918170Y-151727780D02*
X118375313Y-151727780D01*
X118375313Y-152146828D02*
X118375313Y-151346828D01*
X118756265Y-152146828D02*
X118756265Y-151346828D01*
X119099121Y-151918256D02*
X119480074Y-151918256D01*
X119022931Y-152146828D02*
X119289598Y-151346828D01*
X119289598Y-151346828D02*
X119556264Y-152146828D01*
D11*
X113255714Y-112364819D02*
X113827142Y-112364819D01*
X113541428Y-113364819D02*
X113541428Y-112364819D01*
X114350952Y-112364819D02*
X114541428Y-112364819D01*
X114541428Y-112364819D02*
X114636666Y-112412438D01*
X114636666Y-112412438D02*
X114731904Y-112507676D01*
X114731904Y-112507676D02*
X114779523Y-112698152D01*
X114779523Y-112698152D02*
X114779523Y-113031485D01*
X114779523Y-113031485D02*
X114731904Y-113221961D01*
X114731904Y-113221961D02*
X114636666Y-113317200D01*
X114636666Y-113317200D02*
X114541428Y-113364819D01*
X114541428Y-113364819D02*
X114350952Y-113364819D01*
X114350952Y-113364819D02*
X114255714Y-113317200D01*
X114255714Y-113317200D02*
X114160476Y-113221961D01*
X114160476Y-113221961D02*
X114112857Y-113031485D01*
X114112857Y-113031485D02*
X114112857Y-112698152D01*
X114112857Y-112698152D02*
X114160476Y-112507676D01*
X114160476Y-112507676D02*
X114255714Y-112412438D01*
X114255714Y-112412438D02*
X114350952Y-112364819D01*
X115541428Y-112841009D02*
X115208095Y-112841009D01*
X115208095Y-113364819D02*
X115208095Y-112364819D01*
X115208095Y-112364819D02*
X115684285Y-112364819D01*
X116589047Y-113364819D02*
X116017619Y-113364819D01*
X116303333Y-113364819D02*
X116303333Y-112364819D01*
X116303333Y-112364819D02*
X116208095Y-112507676D01*
X116208095Y-112507676D02*
X116112857Y-112602914D01*
X116112857Y-112602914D02*
X116017619Y-112650533D01*
X135504761Y-148054819D02*
X134933333Y-148054819D01*
X135219047Y-148054819D02*
X135219047Y-147054819D01*
X135219047Y-147054819D02*
X135123809Y-147197676D01*
X135123809Y-147197676D02*
X135028571Y-147292914D01*
X135028571Y-147292914D02*
X134933333Y-147340533D01*
X136457142Y-148054819D02*
X135885714Y-148054819D01*
X136171428Y-148054819D02*
X136171428Y-147054819D01*
X136171428Y-147054819D02*
X136076190Y-147197676D01*
X136076190Y-147197676D02*
X135980952Y-147292914D01*
X135980952Y-147292914D02*
X135885714Y-147340533D01*
X136742857Y-147054819D02*
X137076190Y-148054819D01*
X137076190Y-148054819D02*
X137409523Y-147054819D01*
X137695238Y-147150057D02*
X137742857Y-147102438D01*
X137742857Y-147102438D02*
X137838095Y-147054819D01*
X137838095Y-147054819D02*
X138076190Y-147054819D01*
X138076190Y-147054819D02*
X138171428Y-147102438D01*
X138171428Y-147102438D02*
X138219047Y-147150057D01*
X138219047Y-147150057D02*
X138266666Y-147245295D01*
X138266666Y-147245295D02*
X138266666Y-147340533D01*
X138266666Y-147340533D02*
X138219047Y-147483390D01*
X138219047Y-147483390D02*
X137647619Y-148054819D01*
X137647619Y-148054819D02*
X138266666Y-148054819D01*
X146233333Y-161157200D02*
X146376190Y-161204819D01*
X146376190Y-161204819D02*
X146614285Y-161204819D01*
X146614285Y-161204819D02*
X146709523Y-161157200D01*
X146709523Y-161157200D02*
X146757142Y-161109580D01*
X146757142Y-161109580D02*
X146804761Y-161014342D01*
X146804761Y-161014342D02*
X146804761Y-160919104D01*
X146804761Y-160919104D02*
X146757142Y-160823866D01*
X146757142Y-160823866D02*
X146709523Y-160776247D01*
X146709523Y-160776247D02*
X146614285Y-160728628D01*
X146614285Y-160728628D02*
X146423809Y-160681009D01*
X146423809Y-160681009D02*
X146328571Y-160633390D01*
X146328571Y-160633390D02*
X146280952Y-160585771D01*
X146280952Y-160585771D02*
X146233333Y-160490533D01*
X146233333Y-160490533D02*
X146233333Y-160395295D01*
X146233333Y-160395295D02*
X146280952Y-160300057D01*
X146280952Y-160300057D02*
X146328571Y-160252438D01*
X146328571Y-160252438D02*
X146423809Y-160204819D01*
X146423809Y-160204819D02*
X146661904Y-160204819D01*
X146661904Y-160204819D02*
X146804761Y-160252438D01*
X147233333Y-160681009D02*
X147566666Y-160681009D01*
X147709523Y-161204819D02*
X147233333Y-161204819D01*
X147233333Y-161204819D02*
X147233333Y-160204819D01*
X147233333Y-160204819D02*
X147709523Y-160204819D01*
X148709523Y-161204819D02*
X148376190Y-160728628D01*
X148138095Y-161204819D02*
X148138095Y-160204819D01*
X148138095Y-160204819D02*
X148519047Y-160204819D01*
X148519047Y-160204819D02*
X148614285Y-160252438D01*
X148614285Y-160252438D02*
X148661904Y-160300057D01*
X148661904Y-160300057D02*
X148709523Y-160395295D01*
X148709523Y-160395295D02*
X148709523Y-160538152D01*
X148709523Y-160538152D02*
X148661904Y-160633390D01*
X148661904Y-160633390D02*
X148614285Y-160681009D01*
X148614285Y-160681009D02*
X148519047Y-160728628D01*
X148519047Y-160728628D02*
X148138095Y-160728628D01*
X148995238Y-160204819D02*
X149328571Y-161204819D01*
X149328571Y-161204819D02*
X149661904Y-160204819D01*
X150185714Y-160204819D02*
X150376190Y-160204819D01*
X150376190Y-160204819D02*
X150471428Y-160252438D01*
X150471428Y-160252438D02*
X150566666Y-160347676D01*
X150566666Y-160347676D02*
X150614285Y-160538152D01*
X150614285Y-160538152D02*
X150614285Y-160871485D01*
X150614285Y-160871485D02*
X150566666Y-161061961D01*
X150566666Y-161061961D02*
X150471428Y-161157200D01*
X150471428Y-161157200D02*
X150376190Y-161204819D01*
X150376190Y-161204819D02*
X150185714Y-161204819D01*
X150185714Y-161204819D02*
X150090476Y-161157200D01*
X150090476Y-161157200D02*
X149995238Y-161061961D01*
X149995238Y-161061961D02*
X149947619Y-160871485D01*
X149947619Y-160871485D02*
X149947619Y-160538152D01*
X149947619Y-160538152D02*
X149995238Y-160347676D01*
X149995238Y-160347676D02*
X150090476Y-160252438D01*
X150090476Y-160252438D02*
X150185714Y-160204819D01*
X150947619Y-160204819D02*
X151566666Y-160204819D01*
X151566666Y-160204819D02*
X151233333Y-160585771D01*
X151233333Y-160585771D02*
X151376190Y-160585771D01*
X151376190Y-160585771D02*
X151471428Y-160633390D01*
X151471428Y-160633390D02*
X151519047Y-160681009D01*
X151519047Y-160681009D02*
X151566666Y-160776247D01*
X151566666Y-160776247D02*
X151566666Y-161014342D01*
X151566666Y-161014342D02*
X151519047Y-161109580D01*
X151519047Y-161109580D02*
X151471428Y-161157200D01*
X151471428Y-161157200D02*
X151376190Y-161204819D01*
X151376190Y-161204819D02*
X151090476Y-161204819D01*
X151090476Y-161204819D02*
X150995238Y-161157200D01*
X150995238Y-161157200D02*
X150947619Y-161109580D01*
X108191905Y-109034819D02*
X108810952Y-109034819D01*
X108810952Y-109034819D02*
X108477619Y-109415771D01*
X108477619Y-109415771D02*
X108620476Y-109415771D01*
X108620476Y-109415771D02*
X108715714Y-109463390D01*
X108715714Y-109463390D02*
X108763333Y-109511009D01*
X108763333Y-109511009D02*
X108810952Y-109606247D01*
X108810952Y-109606247D02*
X108810952Y-109844342D01*
X108810952Y-109844342D02*
X108763333Y-109939580D01*
X108763333Y-109939580D02*
X108715714Y-109987200D01*
X108715714Y-109987200D02*
X108620476Y-110034819D01*
X108620476Y-110034819D02*
X108334762Y-110034819D01*
X108334762Y-110034819D02*
X108239524Y-109987200D01*
X108239524Y-109987200D02*
X108191905Y-109939580D01*
X109096667Y-109034819D02*
X109430000Y-110034819D01*
X109430000Y-110034819D02*
X109763333Y-109034819D01*
X110001429Y-109034819D02*
X110620476Y-109034819D01*
X110620476Y-109034819D02*
X110287143Y-109415771D01*
X110287143Y-109415771D02*
X110430000Y-109415771D01*
X110430000Y-109415771D02*
X110525238Y-109463390D01*
X110525238Y-109463390D02*
X110572857Y-109511009D01*
X110572857Y-109511009D02*
X110620476Y-109606247D01*
X110620476Y-109606247D02*
X110620476Y-109844342D01*
X110620476Y-109844342D02*
X110572857Y-109939580D01*
X110572857Y-109939580D02*
X110525238Y-109987200D01*
X110525238Y-109987200D02*
X110430000Y-110034819D01*
X110430000Y-110034819D02*
X110144286Y-110034819D01*
X110144286Y-110034819D02*
X110049048Y-109987200D01*
X110049048Y-109987200D02*
X110001429Y-109939580D01*
X146579048Y-108883866D02*
X147340953Y-108883866D01*
X146960000Y-109264819D02*
X146960000Y-108502914D01*
X110861905Y-154034819D02*
X111528571Y-154034819D01*
X111528571Y-154034819D02*
X111100000Y-155034819D01*
X111766667Y-154034819D02*
X112100000Y-155034819D01*
X112100000Y-155034819D02*
X112433333Y-154034819D01*
X112719048Y-154130057D02*
X112766667Y-154082438D01*
X112766667Y-154082438D02*
X112861905Y-154034819D01*
X112861905Y-154034819D02*
X113100000Y-154034819D01*
X113100000Y-154034819D02*
X113195238Y-154082438D01*
X113195238Y-154082438D02*
X113242857Y-154130057D01*
X113242857Y-154130057D02*
X113290476Y-154225295D01*
X113290476Y-154225295D02*
X113290476Y-154320533D01*
X113290476Y-154320533D02*
X113242857Y-154463390D01*
X113242857Y-154463390D02*
X112671429Y-155034819D01*
X112671429Y-155034819D02*
X113290476Y-155034819D01*
X105556666Y-150761009D02*
X105699523Y-150808628D01*
X105699523Y-150808628D02*
X105747142Y-150856247D01*
X105747142Y-150856247D02*
X105794761Y-150951485D01*
X105794761Y-150951485D02*
X105794761Y-151094342D01*
X105794761Y-151094342D02*
X105747142Y-151189580D01*
X105747142Y-151189580D02*
X105699523Y-151237200D01*
X105699523Y-151237200D02*
X105604285Y-151284819D01*
X105604285Y-151284819D02*
X105223333Y-151284819D01*
X105223333Y-151284819D02*
X105223333Y-150284819D01*
X105223333Y-150284819D02*
X105556666Y-150284819D01*
X105556666Y-150284819D02*
X105651904Y-150332438D01*
X105651904Y-150332438D02*
X105699523Y-150380057D01*
X105699523Y-150380057D02*
X105747142Y-150475295D01*
X105747142Y-150475295D02*
X105747142Y-150570533D01*
X105747142Y-150570533D02*
X105699523Y-150665771D01*
X105699523Y-150665771D02*
X105651904Y-150713390D01*
X105651904Y-150713390D02*
X105556666Y-150761009D01*
X105556666Y-150761009D02*
X105223333Y-150761009D01*
X106175714Y-150999104D02*
X106651904Y-150999104D01*
X106080476Y-151284819D02*
X106413809Y-150284819D01*
X106413809Y-150284819D02*
X106747142Y-151284819D01*
X106937619Y-150284819D02*
X107509047Y-150284819D01*
X107223333Y-151284819D02*
X107223333Y-150284819D01*
X107604286Y-151380057D02*
X108366190Y-151380057D01*
X109080476Y-151284819D02*
X108604286Y-151284819D01*
X108604286Y-151284819D02*
X108604286Y-150284819D01*
X109270953Y-150284819D02*
X109604286Y-151284819D01*
X109604286Y-151284819D02*
X109937619Y-150284819D01*
X110747143Y-151284819D02*
X110270953Y-151284819D01*
X110270953Y-151284819D02*
X110270953Y-150284819D01*
X111604286Y-151284819D02*
X111032858Y-151284819D01*
X111318572Y-151284819D02*
X111318572Y-150284819D01*
X111318572Y-150284819D02*
X111223334Y-150427676D01*
X111223334Y-150427676D02*
X111128096Y-150522914D01*
X111128096Y-150522914D02*
X111032858Y-150570533D01*
X147517295Y-148179047D02*
X146717295Y-148179047D01*
X146717295Y-148179047D02*
X146717295Y-147988571D01*
X146717295Y-147988571D02*
X146755390Y-147874285D01*
X146755390Y-147874285D02*
X146831580Y-147798095D01*
X146831580Y-147798095D02*
X146907771Y-147760000D01*
X146907771Y-147760000D02*
X147060152Y-147721904D01*
X147060152Y-147721904D02*
X147174438Y-147721904D01*
X147174438Y-147721904D02*
X147326819Y-147760000D01*
X147326819Y-147760000D02*
X147403009Y-147798095D01*
X147403009Y-147798095D02*
X147479200Y-147874285D01*
X147479200Y-147874285D02*
X147517295Y-147988571D01*
X147517295Y-147988571D02*
X147517295Y-148179047D01*
X146983961Y-147379047D02*
X147517295Y-147379047D01*
X147060152Y-147379047D02*
X147022057Y-147340952D01*
X147022057Y-147340952D02*
X146983961Y-147264762D01*
X146983961Y-147264762D02*
X146983961Y-147150476D01*
X146983961Y-147150476D02*
X147022057Y-147074285D01*
X147022057Y-147074285D02*
X147098247Y-147036190D01*
X147098247Y-147036190D02*
X147517295Y-147036190D01*
X147517295Y-146655237D02*
X146983961Y-146655237D01*
X147060152Y-146655237D02*
X147022057Y-146617142D01*
X147022057Y-146617142D02*
X146983961Y-146540952D01*
X146983961Y-146540952D02*
X146983961Y-146426666D01*
X146983961Y-146426666D02*
X147022057Y-146350475D01*
X147022057Y-146350475D02*
X147098247Y-146312380D01*
X147098247Y-146312380D02*
X147517295Y-146312380D01*
X147098247Y-146312380D02*
X147022057Y-146274285D01*
X147022057Y-146274285D02*
X146983961Y-146198094D01*
X146983961Y-146198094D02*
X146983961Y-146083809D01*
X146983961Y-146083809D02*
X147022057Y-146007618D01*
X147022057Y-146007618D02*
X147098247Y-145969523D01*
X147098247Y-145969523D02*
X147517295Y-145969523D01*
X147517295Y-145664761D02*
X146983961Y-145245713D01*
X146983961Y-145664761D02*
X147517295Y-145245713D01*
X147517295Y-144826666D02*
X147479200Y-144902856D01*
X147479200Y-144902856D02*
X147403009Y-144940951D01*
X147403009Y-144940951D02*
X146717295Y-144940951D01*
X146793485Y-144559999D02*
X146755390Y-144521903D01*
X146755390Y-144521903D02*
X146717295Y-144445713D01*
X146717295Y-144445713D02*
X146717295Y-144255237D01*
X146717295Y-144255237D02*
X146755390Y-144179046D01*
X146755390Y-144179046D02*
X146793485Y-144140951D01*
X146793485Y-144140951D02*
X146869676Y-144102856D01*
X146869676Y-144102856D02*
X146945866Y-144102856D01*
X146945866Y-144102856D02*
X147060152Y-144140951D01*
X147060152Y-144140951D02*
X147517295Y-144598094D01*
X147517295Y-144598094D02*
X147517295Y-144102856D01*
D10*
X104784895Y-158089047D02*
X105432514Y-158089047D01*
X105432514Y-158089047D02*
X105508704Y-158050952D01*
X105508704Y-158050952D02*
X105546800Y-158012857D01*
X105546800Y-158012857D02*
X105584895Y-157936666D01*
X105584895Y-157936666D02*
X105584895Y-157784285D01*
X105584895Y-157784285D02*
X105546800Y-157708095D01*
X105546800Y-157708095D02*
X105508704Y-157670000D01*
X105508704Y-157670000D02*
X105432514Y-157631904D01*
X105432514Y-157631904D02*
X104784895Y-157631904D01*
X105546800Y-157289048D02*
X105584895Y-157174762D01*
X105584895Y-157174762D02*
X105584895Y-156984286D01*
X105584895Y-156984286D02*
X105546800Y-156908095D01*
X105546800Y-156908095D02*
X105508704Y-156870000D01*
X105508704Y-156870000D02*
X105432514Y-156831905D01*
X105432514Y-156831905D02*
X105356323Y-156831905D01*
X105356323Y-156831905D02*
X105280133Y-156870000D01*
X105280133Y-156870000D02*
X105242038Y-156908095D01*
X105242038Y-156908095D02*
X105203942Y-156984286D01*
X105203942Y-156984286D02*
X105165847Y-157136667D01*
X105165847Y-157136667D02*
X105127752Y-157212857D01*
X105127752Y-157212857D02*
X105089657Y-157250952D01*
X105089657Y-157250952D02*
X105013466Y-157289048D01*
X105013466Y-157289048D02*
X104937276Y-157289048D01*
X104937276Y-157289048D02*
X104861085Y-157250952D01*
X104861085Y-157250952D02*
X104822990Y-157212857D01*
X104822990Y-157212857D02*
X104784895Y-157136667D01*
X104784895Y-157136667D02*
X104784895Y-156946190D01*
X104784895Y-156946190D02*
X104822990Y-156831905D01*
X105584895Y-156031904D02*
X105203942Y-156298571D01*
X105584895Y-156489047D02*
X104784895Y-156489047D01*
X104784895Y-156489047D02*
X104784895Y-156184285D01*
X104784895Y-156184285D02*
X104822990Y-156108095D01*
X104822990Y-156108095D02*
X104861085Y-156070000D01*
X104861085Y-156070000D02*
X104937276Y-156031904D01*
X104937276Y-156031904D02*
X105051561Y-156031904D01*
X105051561Y-156031904D02*
X105127752Y-156070000D01*
X105127752Y-156070000D02*
X105165847Y-156108095D01*
X105165847Y-156108095D02*
X105203942Y-156184285D01*
X105203942Y-156184285D02*
X105203942Y-156489047D01*
X105661085Y-155879524D02*
X105661085Y-155270000D01*
X105165847Y-154812857D02*
X105203942Y-154698571D01*
X105203942Y-154698571D02*
X105242038Y-154660476D01*
X105242038Y-154660476D02*
X105318228Y-154622380D01*
X105318228Y-154622380D02*
X105432514Y-154622380D01*
X105432514Y-154622380D02*
X105508704Y-154660476D01*
X105508704Y-154660476D02*
X105546800Y-154698571D01*
X105546800Y-154698571D02*
X105584895Y-154774761D01*
X105584895Y-154774761D02*
X105584895Y-155079523D01*
X105584895Y-155079523D02*
X104784895Y-155079523D01*
X104784895Y-155079523D02*
X104784895Y-154812857D01*
X104784895Y-154812857D02*
X104822990Y-154736666D01*
X104822990Y-154736666D02*
X104861085Y-154698571D01*
X104861085Y-154698571D02*
X104937276Y-154660476D01*
X104937276Y-154660476D02*
X105013466Y-154660476D01*
X105013466Y-154660476D02*
X105089657Y-154698571D01*
X105089657Y-154698571D02*
X105127752Y-154736666D01*
X105127752Y-154736666D02*
X105165847Y-154812857D01*
X105165847Y-154812857D02*
X105165847Y-155079523D01*
X104784895Y-154393809D02*
X104784895Y-153936666D01*
X105584895Y-154165238D02*
X104784895Y-154165238D01*
X105584895Y-153669999D02*
X104784895Y-153669999D01*
X104784895Y-153669999D02*
X105584895Y-153212856D01*
X105584895Y-153212856D02*
X104784895Y-153212856D01*
X105584895Y-152412857D02*
X105584895Y-152870000D01*
X105584895Y-152641428D02*
X104784895Y-152641428D01*
X104784895Y-152641428D02*
X104899180Y-152717619D01*
X104899180Y-152717619D02*
X104975371Y-152793809D01*
X104975371Y-152793809D02*
X105013466Y-152870000D01*
X105514895Y-121182857D02*
X105133942Y-121449524D01*
X105514895Y-121640000D02*
X104714895Y-121640000D01*
X104714895Y-121640000D02*
X104714895Y-121335238D01*
X104714895Y-121335238D02*
X104752990Y-121259048D01*
X104752990Y-121259048D02*
X104791085Y-121220953D01*
X104791085Y-121220953D02*
X104867276Y-121182857D01*
X104867276Y-121182857D02*
X104981561Y-121182857D01*
X104981561Y-121182857D02*
X105057752Y-121220953D01*
X105057752Y-121220953D02*
X105095847Y-121259048D01*
X105095847Y-121259048D02*
X105133942Y-121335238D01*
X105133942Y-121335238D02*
X105133942Y-121640000D01*
X105095847Y-120840000D02*
X105095847Y-120573334D01*
X105514895Y-120459048D02*
X105514895Y-120840000D01*
X105514895Y-120840000D02*
X104714895Y-120840000D01*
X104714895Y-120840000D02*
X104714895Y-120459048D01*
X105476800Y-120154286D02*
X105514895Y-120040000D01*
X105514895Y-120040000D02*
X105514895Y-119849524D01*
X105514895Y-119849524D02*
X105476800Y-119773333D01*
X105476800Y-119773333D02*
X105438704Y-119735238D01*
X105438704Y-119735238D02*
X105362514Y-119697143D01*
X105362514Y-119697143D02*
X105286323Y-119697143D01*
X105286323Y-119697143D02*
X105210133Y-119735238D01*
X105210133Y-119735238D02*
X105172038Y-119773333D01*
X105172038Y-119773333D02*
X105133942Y-119849524D01*
X105133942Y-119849524D02*
X105095847Y-120001905D01*
X105095847Y-120001905D02*
X105057752Y-120078095D01*
X105057752Y-120078095D02*
X105019657Y-120116190D01*
X105019657Y-120116190D02*
X104943466Y-120154286D01*
X104943466Y-120154286D02*
X104867276Y-120154286D01*
X104867276Y-120154286D02*
X104791085Y-120116190D01*
X104791085Y-120116190D02*
X104752990Y-120078095D01*
X104752990Y-120078095D02*
X104714895Y-120001905D01*
X104714895Y-120001905D02*
X104714895Y-119811428D01*
X104714895Y-119811428D02*
X104752990Y-119697143D01*
X105095847Y-119354285D02*
X105095847Y-119087619D01*
X105514895Y-118973333D02*
X105514895Y-119354285D01*
X105514895Y-119354285D02*
X104714895Y-119354285D01*
X104714895Y-119354285D02*
X104714895Y-118973333D01*
X104714895Y-118744761D02*
X104714895Y-118287618D01*
X105514895Y-118516190D02*
X104714895Y-118516190D01*
X105514895Y-117601904D02*
X105514895Y-118059047D01*
X105514895Y-117830475D02*
X104714895Y-117830475D01*
X104714895Y-117830475D02*
X104829180Y-117906666D01*
X104829180Y-117906666D02*
X104905371Y-117982856D01*
X104905371Y-117982856D02*
X104943466Y-118059047D01*
D12*
X135657144Y-112115935D02*
X135823810Y-112915935D01*
X135823810Y-112915935D02*
X135990477Y-112115935D01*
X136157143Y-112915935D02*
X136157143Y-112115935D01*
X136157143Y-112420697D02*
X136204762Y-112382601D01*
X136204762Y-112382601D02*
X136300000Y-112382601D01*
X136300000Y-112382601D02*
X136347619Y-112420697D01*
X136347619Y-112420697D02*
X136371429Y-112458792D01*
X136371429Y-112458792D02*
X136395238Y-112534982D01*
X136395238Y-112534982D02*
X136395238Y-112763554D01*
X136395238Y-112763554D02*
X136371429Y-112839744D01*
X136371429Y-112839744D02*
X136347619Y-112877840D01*
X136347619Y-112877840D02*
X136300000Y-112915935D01*
X136300000Y-112915935D02*
X136204762Y-112915935D01*
X136204762Y-112915935D02*
X136157143Y-112877840D01*
X136823810Y-112915935D02*
X136823810Y-112496887D01*
X136823810Y-112496887D02*
X136800000Y-112420697D01*
X136800000Y-112420697D02*
X136752381Y-112382601D01*
X136752381Y-112382601D02*
X136657143Y-112382601D01*
X136657143Y-112382601D02*
X136609524Y-112420697D01*
X136823810Y-112877840D02*
X136776191Y-112915935D01*
X136776191Y-112915935D02*
X136657143Y-112915935D01*
X136657143Y-112915935D02*
X136609524Y-112877840D01*
X136609524Y-112877840D02*
X136585715Y-112801649D01*
X136585715Y-112801649D02*
X136585715Y-112725459D01*
X136585715Y-112725459D02*
X136609524Y-112649268D01*
X136609524Y-112649268D02*
X136657143Y-112611173D01*
X136657143Y-112611173D02*
X136776191Y-112611173D01*
X136776191Y-112611173D02*
X136823810Y-112573078D01*
X136990477Y-112382601D02*
X137180953Y-112382601D01*
X137061905Y-112115935D02*
X137061905Y-112801649D01*
X137061905Y-112801649D02*
X137085715Y-112877840D01*
X137085715Y-112877840D02*
X137133334Y-112915935D01*
X137133334Y-112915935D02*
X137180953Y-112915935D01*
X137276191Y-112382601D02*
X137466667Y-112382601D01*
X137347619Y-112115935D02*
X137347619Y-112801649D01*
X137347619Y-112801649D02*
X137371429Y-112877840D01*
X137371429Y-112877840D02*
X137419048Y-112915935D01*
X137419048Y-112915935D02*
X137466667Y-112915935D01*
X137895238Y-112915935D02*
X137609524Y-112915935D01*
X137752381Y-112915935D02*
X137752381Y-112115935D01*
X137752381Y-112115935D02*
X137704762Y-112230220D01*
X137704762Y-112230220D02*
X137657143Y-112306411D01*
X137657143Y-112306411D02*
X137609524Y-112344506D01*
D11*
X148042857Y-128214819D02*
X148614285Y-128214819D01*
X148328571Y-129214819D02*
X148328571Y-128214819D01*
X148804762Y-128214819D02*
X149138095Y-129214819D01*
X149138095Y-129214819D02*
X149471428Y-128214819D01*
X149757143Y-129167200D02*
X149900000Y-129214819D01*
X149900000Y-129214819D02*
X150138095Y-129214819D01*
X150138095Y-129214819D02*
X150233333Y-129167200D01*
X150233333Y-129167200D02*
X150280952Y-129119580D01*
X150280952Y-129119580D02*
X150328571Y-129024342D01*
X150328571Y-129024342D02*
X150328571Y-128929104D01*
X150328571Y-128929104D02*
X150280952Y-128833866D01*
X150280952Y-128833866D02*
X150233333Y-128786247D01*
X150233333Y-128786247D02*
X150138095Y-128738628D01*
X150138095Y-128738628D02*
X149947619Y-128691009D01*
X149947619Y-128691009D02*
X149852381Y-128643390D01*
X149852381Y-128643390D02*
X149804762Y-128595771D01*
X149804762Y-128595771D02*
X149757143Y-128500533D01*
X149757143Y-128500533D02*
X149757143Y-128405295D01*
X149757143Y-128405295D02*
X149804762Y-128310057D01*
X149804762Y-128310057D02*
X149852381Y-128262438D01*
X149852381Y-128262438D02*
X149947619Y-128214819D01*
X149947619Y-128214819D02*
X150185714Y-128214819D01*
X150185714Y-128214819D02*
X150328571Y-128262438D01*
X150519048Y-129310057D02*
X151280952Y-129310057D01*
X151852381Y-128691009D02*
X151995238Y-128738628D01*
X151995238Y-128738628D02*
X152042857Y-128786247D01*
X152042857Y-128786247D02*
X152090476Y-128881485D01*
X152090476Y-128881485D02*
X152090476Y-129024342D01*
X152090476Y-129024342D02*
X152042857Y-129119580D01*
X152042857Y-129119580D02*
X151995238Y-129167200D01*
X151995238Y-129167200D02*
X151900000Y-129214819D01*
X151900000Y-129214819D02*
X151519048Y-129214819D01*
X151519048Y-129214819D02*
X151519048Y-128214819D01*
X151519048Y-128214819D02*
X151852381Y-128214819D01*
X151852381Y-128214819D02*
X151947619Y-128262438D01*
X151947619Y-128262438D02*
X151995238Y-128310057D01*
X151995238Y-128310057D02*
X152042857Y-128405295D01*
X152042857Y-128405295D02*
X152042857Y-128500533D01*
X152042857Y-128500533D02*
X151995238Y-128595771D01*
X151995238Y-128595771D02*
X151947619Y-128643390D01*
X151947619Y-128643390D02*
X151852381Y-128691009D01*
X151852381Y-128691009D02*
X151519048Y-128691009D01*
X152471429Y-128929104D02*
X152947619Y-128929104D01*
X152376191Y-129214819D02*
X152709524Y-128214819D01*
X152709524Y-128214819D02*
X153042857Y-129214819D01*
X153233334Y-128214819D02*
X153804762Y-128214819D01*
X153519048Y-129214819D02*
X153519048Y-128214819D01*
X154661905Y-129214819D02*
X154090477Y-129214819D01*
X154376191Y-129214819D02*
X154376191Y-128214819D01*
X154376191Y-128214819D02*
X154280953Y-128357676D01*
X154280953Y-128357676D02*
X154185715Y-128452914D01*
X154185715Y-128452914D02*
X154090477Y-128500533D01*
X147582295Y-136349047D02*
X146782295Y-136349047D01*
X146782295Y-136349047D02*
X146782295Y-136158571D01*
X146782295Y-136158571D02*
X146820390Y-136044285D01*
X146820390Y-136044285D02*
X146896580Y-135968095D01*
X146896580Y-135968095D02*
X146972771Y-135930000D01*
X146972771Y-135930000D02*
X147125152Y-135891904D01*
X147125152Y-135891904D02*
X147239438Y-135891904D01*
X147239438Y-135891904D02*
X147391819Y-135930000D01*
X147391819Y-135930000D02*
X147468009Y-135968095D01*
X147468009Y-135968095D02*
X147544200Y-136044285D01*
X147544200Y-136044285D02*
X147582295Y-136158571D01*
X147582295Y-136158571D02*
X147582295Y-136349047D01*
X147048961Y-135549047D02*
X147582295Y-135549047D01*
X147125152Y-135549047D02*
X147087057Y-135510952D01*
X147087057Y-135510952D02*
X147048961Y-135434762D01*
X147048961Y-135434762D02*
X147048961Y-135320476D01*
X147048961Y-135320476D02*
X147087057Y-135244285D01*
X147087057Y-135244285D02*
X147163247Y-135206190D01*
X147163247Y-135206190D02*
X147582295Y-135206190D01*
X147582295Y-134825237D02*
X147048961Y-134825237D01*
X147125152Y-134825237D02*
X147087057Y-134787142D01*
X147087057Y-134787142D02*
X147048961Y-134710952D01*
X147048961Y-134710952D02*
X147048961Y-134596666D01*
X147048961Y-134596666D02*
X147087057Y-134520475D01*
X147087057Y-134520475D02*
X147163247Y-134482380D01*
X147163247Y-134482380D02*
X147582295Y-134482380D01*
X147163247Y-134482380D02*
X147087057Y-134444285D01*
X147087057Y-134444285D02*
X147048961Y-134368094D01*
X147048961Y-134368094D02*
X147048961Y-134253809D01*
X147048961Y-134253809D02*
X147087057Y-134177618D01*
X147087057Y-134177618D02*
X147163247Y-134139523D01*
X147163247Y-134139523D02*
X147582295Y-134139523D01*
X147582295Y-133834761D02*
X147048961Y-133415713D01*
X147048961Y-133834761D02*
X147582295Y-133415713D01*
X147582295Y-132996666D02*
X147544200Y-133072856D01*
X147544200Y-133072856D02*
X147468009Y-133110951D01*
X147468009Y-133110951D02*
X146782295Y-133110951D01*
X147582295Y-132272856D02*
X147582295Y-132729999D01*
X147582295Y-132501427D02*
X146782295Y-132501427D01*
X146782295Y-132501427D02*
X146896580Y-132577618D01*
X146896580Y-132577618D02*
X146972771Y-132653808D01*
X146972771Y-132653808D02*
X147010866Y-132729999D01*
X109566667Y-169054819D02*
X109566667Y-168054819D01*
X109566667Y-168054819D02*
X109947619Y-168054819D01*
X109947619Y-168054819D02*
X110042857Y-168102438D01*
X110042857Y-168102438D02*
X110090476Y-168150057D01*
X110090476Y-168150057D02*
X110138095Y-168245295D01*
X110138095Y-168245295D02*
X110138095Y-168388152D01*
X110138095Y-168388152D02*
X110090476Y-168483390D01*
X110090476Y-168483390D02*
X110042857Y-168531009D01*
X110042857Y-168531009D02*
X109947619Y-168578628D01*
X109947619Y-168578628D02*
X109566667Y-168578628D01*
X110566667Y-168054819D02*
X110566667Y-168864342D01*
X110566667Y-168864342D02*
X110614286Y-168959580D01*
X110614286Y-168959580D02*
X110661905Y-169007200D01*
X110661905Y-169007200D02*
X110757143Y-169054819D01*
X110757143Y-169054819D02*
X110947619Y-169054819D01*
X110947619Y-169054819D02*
X111042857Y-169007200D01*
X111042857Y-169007200D02*
X111090476Y-168959580D01*
X111090476Y-168959580D02*
X111138095Y-168864342D01*
X111138095Y-168864342D02*
X111138095Y-168054819D01*
X111614286Y-169054819D02*
X111614286Y-168054819D01*
X111614286Y-168054819D02*
X111947619Y-168769104D01*
X111947619Y-168769104D02*
X112280952Y-168054819D01*
X112280952Y-168054819D02*
X112280952Y-169054819D01*
X112757143Y-169054819D02*
X112757143Y-168054819D01*
X112757143Y-168054819D02*
X113138095Y-168054819D01*
X113138095Y-168054819D02*
X113233333Y-168102438D01*
X113233333Y-168102438D02*
X113280952Y-168150057D01*
X113280952Y-168150057D02*
X113328571Y-168245295D01*
X113328571Y-168245295D02*
X113328571Y-168388152D01*
X113328571Y-168388152D02*
X113280952Y-168483390D01*
X113280952Y-168483390D02*
X113233333Y-168531009D01*
X113233333Y-168531009D02*
X113138095Y-168578628D01*
X113138095Y-168578628D02*
X112757143Y-168578628D01*
X113661905Y-168054819D02*
X114280952Y-168054819D01*
X114280952Y-168054819D02*
X113947619Y-168435771D01*
X113947619Y-168435771D02*
X114090476Y-168435771D01*
X114090476Y-168435771D02*
X114185714Y-168483390D01*
X114185714Y-168483390D02*
X114233333Y-168531009D01*
X114233333Y-168531009D02*
X114280952Y-168626247D01*
X114280952Y-168626247D02*
X114280952Y-168864342D01*
X114280952Y-168864342D02*
X114233333Y-168959580D01*
X114233333Y-168959580D02*
X114185714Y-169007200D01*
X114185714Y-169007200D02*
X114090476Y-169054819D01*
X114090476Y-169054819D02*
X113804762Y-169054819D01*
X113804762Y-169054819D02*
X113709524Y-169007200D01*
X113709524Y-169007200D02*
X113661905Y-168959580D01*
X135970607Y-106264408D02*
X137113465Y-106264408D01*
X147970607Y-106184408D02*
X149113465Y-106184408D01*
X148542036Y-106755836D02*
X148542036Y-105612979D01*
X114776667Y-154894819D02*
X114776667Y-153894819D01*
X114776667Y-153894819D02*
X115157619Y-153894819D01*
X115157619Y-153894819D02*
X115252857Y-153942438D01*
X115252857Y-153942438D02*
X115300476Y-153990057D01*
X115300476Y-153990057D02*
X115348095Y-154085295D01*
X115348095Y-154085295D02*
X115348095Y-154228152D01*
X115348095Y-154228152D02*
X115300476Y-154323390D01*
X115300476Y-154323390D02*
X115252857Y-154371009D01*
X115252857Y-154371009D02*
X115157619Y-154418628D01*
X115157619Y-154418628D02*
X114776667Y-154418628D01*
X115776667Y-153894819D02*
X115776667Y-154704342D01*
X115776667Y-154704342D02*
X115824286Y-154799580D01*
X115824286Y-154799580D02*
X115871905Y-154847200D01*
X115871905Y-154847200D02*
X115967143Y-154894819D01*
X115967143Y-154894819D02*
X116157619Y-154894819D01*
X116157619Y-154894819D02*
X116252857Y-154847200D01*
X116252857Y-154847200D02*
X116300476Y-154799580D01*
X116300476Y-154799580D02*
X116348095Y-154704342D01*
X116348095Y-154704342D02*
X116348095Y-153894819D01*
X116824286Y-154894819D02*
X116824286Y-153894819D01*
X116824286Y-153894819D02*
X117157619Y-154609104D01*
X117157619Y-154609104D02*
X117490952Y-153894819D01*
X117490952Y-153894819D02*
X117490952Y-154894819D01*
X117967143Y-154894819D02*
X117967143Y-153894819D01*
X117967143Y-153894819D02*
X118348095Y-153894819D01*
X118348095Y-153894819D02*
X118443333Y-153942438D01*
X118443333Y-153942438D02*
X118490952Y-153990057D01*
X118490952Y-153990057D02*
X118538571Y-154085295D01*
X118538571Y-154085295D02*
X118538571Y-154228152D01*
X118538571Y-154228152D02*
X118490952Y-154323390D01*
X118490952Y-154323390D02*
X118443333Y-154371009D01*
X118443333Y-154371009D02*
X118348095Y-154418628D01*
X118348095Y-154418628D02*
X117967143Y-154418628D01*
X118919524Y-153990057D02*
X118967143Y-153942438D01*
X118967143Y-153942438D02*
X119062381Y-153894819D01*
X119062381Y-153894819D02*
X119300476Y-153894819D01*
X119300476Y-153894819D02*
X119395714Y-153942438D01*
X119395714Y-153942438D02*
X119443333Y-153990057D01*
X119443333Y-153990057D02*
X119490952Y-154085295D01*
X119490952Y-154085295D02*
X119490952Y-154180533D01*
X119490952Y-154180533D02*
X119443333Y-154323390D01*
X119443333Y-154323390D02*
X118871905Y-154894819D01*
X118871905Y-154894819D02*
X119490952Y-154894819D01*
D10*
X111544895Y-109461429D02*
X111544895Y-109118572D01*
X112344895Y-109290000D02*
X111544895Y-109290000D01*
X111544895Y-109004286D02*
X112344895Y-108804286D01*
X112344895Y-108804286D02*
X111544895Y-108604286D01*
X112306800Y-108432857D02*
X112344895Y-108347143D01*
X112344895Y-108347143D02*
X112344895Y-108204285D01*
X112344895Y-108204285D02*
X112306800Y-108147143D01*
X112306800Y-108147143D02*
X112268704Y-108118571D01*
X112268704Y-108118571D02*
X112192514Y-108090000D01*
X112192514Y-108090000D02*
X112116323Y-108090000D01*
X112116323Y-108090000D02*
X112040133Y-108118571D01*
X112040133Y-108118571D02*
X112002038Y-108147143D01*
X112002038Y-108147143D02*
X111963942Y-108204285D01*
X111963942Y-108204285D02*
X111925847Y-108318571D01*
X111925847Y-108318571D02*
X111887752Y-108375714D01*
X111887752Y-108375714D02*
X111849657Y-108404285D01*
X111849657Y-108404285D02*
X111773466Y-108432857D01*
X111773466Y-108432857D02*
X111697276Y-108432857D01*
X111697276Y-108432857D02*
X111621085Y-108404285D01*
X111621085Y-108404285D02*
X111582990Y-108375714D01*
X111582990Y-108375714D02*
X111544895Y-108318571D01*
X111544895Y-108318571D02*
X111544895Y-108175714D01*
X111544895Y-108175714D02*
X111582990Y-108090000D01*
X112040133Y-107832856D02*
X112040133Y-107375714D01*
X111544895Y-107175714D02*
X111544895Y-106832857D01*
X112344895Y-107004285D02*
X111544895Y-107004285D01*
X111544895Y-106518571D02*
X111544895Y-106404285D01*
X111544895Y-106404285D02*
X111582990Y-106347142D01*
X111582990Y-106347142D02*
X111659180Y-106289999D01*
X111659180Y-106289999D02*
X111811561Y-106261428D01*
X111811561Y-106261428D02*
X112078228Y-106261428D01*
X112078228Y-106261428D02*
X112230609Y-106289999D01*
X112230609Y-106289999D02*
X112306800Y-106347142D01*
X112306800Y-106347142D02*
X112344895Y-106404285D01*
X112344895Y-106404285D02*
X112344895Y-106518571D01*
X112344895Y-106518571D02*
X112306800Y-106575714D01*
X112306800Y-106575714D02*
X112230609Y-106632856D01*
X112230609Y-106632856D02*
X112078228Y-106661428D01*
X112078228Y-106661428D02*
X111811561Y-106661428D01*
X111811561Y-106661428D02*
X111659180Y-106632856D01*
X111659180Y-106632856D02*
X111582990Y-106575714D01*
X111582990Y-106575714D02*
X111544895Y-106518571D01*
X111925847Y-105804285D02*
X111925847Y-106004285D01*
X112344895Y-106004285D02*
X111544895Y-106004285D01*
X111544895Y-106004285D02*
X111544895Y-105718571D01*
X112344895Y-105175714D02*
X112344895Y-105518571D01*
X112344895Y-105347142D02*
X111544895Y-105347142D01*
X111544895Y-105347142D02*
X111659180Y-105404285D01*
X111659180Y-105404285D02*
X111735371Y-105461428D01*
X111735371Y-105461428D02*
X111773466Y-105518571D01*
D11*
X140198866Y-140880951D02*
X140198866Y-140119047D01*
X140579819Y-140499999D02*
X139817914Y-140499999D01*
X140198866Y-151880951D02*
X140198866Y-151119047D01*
X140579819Y-151499999D02*
X139817914Y-151499999D01*
X147407200Y-116166666D02*
X147454819Y-116023809D01*
X147454819Y-116023809D02*
X147454819Y-115785714D01*
X147454819Y-115785714D02*
X147407200Y-115690476D01*
X147407200Y-115690476D02*
X147359580Y-115642857D01*
X147359580Y-115642857D02*
X147264342Y-115595238D01*
X147264342Y-115595238D02*
X147169104Y-115595238D01*
X147169104Y-115595238D02*
X147073866Y-115642857D01*
X147073866Y-115642857D02*
X147026247Y-115690476D01*
X147026247Y-115690476D02*
X146978628Y-115785714D01*
X146978628Y-115785714D02*
X146931009Y-115976190D01*
X146931009Y-115976190D02*
X146883390Y-116071428D01*
X146883390Y-116071428D02*
X146835771Y-116119047D01*
X146835771Y-116119047D02*
X146740533Y-116166666D01*
X146740533Y-116166666D02*
X146645295Y-116166666D01*
X146645295Y-116166666D02*
X146550057Y-116119047D01*
X146550057Y-116119047D02*
X146502438Y-116071428D01*
X146502438Y-116071428D02*
X146454819Y-115976190D01*
X146454819Y-115976190D02*
X146454819Y-115738095D01*
X146454819Y-115738095D02*
X146502438Y-115595238D01*
X146454819Y-115309523D02*
X146454819Y-114738095D01*
X147454819Y-115023809D02*
X146454819Y-115023809D01*
X146454819Y-114214285D02*
X146454819Y-114023809D01*
X146454819Y-114023809D02*
X146502438Y-113928571D01*
X146502438Y-113928571D02*
X146597676Y-113833333D01*
X146597676Y-113833333D02*
X146788152Y-113785714D01*
X146788152Y-113785714D02*
X147121485Y-113785714D01*
X147121485Y-113785714D02*
X147311961Y-113833333D01*
X147311961Y-113833333D02*
X147407200Y-113928571D01*
X147407200Y-113928571D02*
X147454819Y-114023809D01*
X147454819Y-114023809D02*
X147454819Y-114214285D01*
X147454819Y-114214285D02*
X147407200Y-114309523D01*
X147407200Y-114309523D02*
X147311961Y-114404761D01*
X147311961Y-114404761D02*
X147121485Y-114452380D01*
X147121485Y-114452380D02*
X146788152Y-114452380D01*
X146788152Y-114452380D02*
X146597676Y-114404761D01*
X146597676Y-114404761D02*
X146502438Y-114309523D01*
X146502438Y-114309523D02*
X146454819Y-114214285D01*
X147454819Y-113357142D02*
X146454819Y-113357142D01*
X146454819Y-113357142D02*
X146454819Y-112976190D01*
X146454819Y-112976190D02*
X146502438Y-112880952D01*
X146502438Y-112880952D02*
X146550057Y-112833333D01*
X146550057Y-112833333D02*
X146645295Y-112785714D01*
X146645295Y-112785714D02*
X146788152Y-112785714D01*
X146788152Y-112785714D02*
X146883390Y-112833333D01*
X146883390Y-112833333D02*
X146931009Y-112880952D01*
X146931009Y-112880952D02*
X146978628Y-112976190D01*
X146978628Y-112976190D02*
X146978628Y-113357142D01*
X147454819Y-111833333D02*
X147454819Y-112404761D01*
X147454819Y-112119047D02*
X146454819Y-112119047D01*
X146454819Y-112119047D02*
X146597676Y-112214285D01*
X146597676Y-112214285D02*
X146692914Y-112309523D01*
X146692914Y-112309523D02*
X146740533Y-112404761D01*
X104151429Y-125167200D02*
X104294286Y-125214819D01*
X104294286Y-125214819D02*
X104532381Y-125214819D01*
X104532381Y-125214819D02*
X104627619Y-125167200D01*
X104627619Y-125167200D02*
X104675238Y-125119580D01*
X104675238Y-125119580D02*
X104722857Y-125024342D01*
X104722857Y-125024342D02*
X104722857Y-124929104D01*
X104722857Y-124929104D02*
X104675238Y-124833866D01*
X104675238Y-124833866D02*
X104627619Y-124786247D01*
X104627619Y-124786247D02*
X104532381Y-124738628D01*
X104532381Y-124738628D02*
X104341905Y-124691009D01*
X104341905Y-124691009D02*
X104246667Y-124643390D01*
X104246667Y-124643390D02*
X104199048Y-124595771D01*
X104199048Y-124595771D02*
X104151429Y-124500533D01*
X104151429Y-124500533D02*
X104151429Y-124405295D01*
X104151429Y-124405295D02*
X104199048Y-124310057D01*
X104199048Y-124310057D02*
X104246667Y-124262438D01*
X104246667Y-124262438D02*
X104341905Y-124214819D01*
X104341905Y-124214819D02*
X104580000Y-124214819D01*
X104580000Y-124214819D02*
X104722857Y-124262438D01*
X105008572Y-124214819D02*
X105580000Y-124214819D01*
X105294286Y-125214819D02*
X105294286Y-124214819D01*
X105913334Y-124833866D02*
X106675239Y-124833866D01*
X107627619Y-125214819D02*
X107151429Y-125214819D01*
X107151429Y-125214819D02*
X107151429Y-124214819D01*
X107960953Y-125214819D02*
X107960953Y-124214819D01*
X108437143Y-125214819D02*
X108437143Y-124214819D01*
X108437143Y-124214819D02*
X109008571Y-125214819D01*
X109008571Y-125214819D02*
X109008571Y-124214819D01*
X109484762Y-125214819D02*
X109484762Y-124214819D01*
X110056190Y-125214819D02*
X109627619Y-124643390D01*
X110056190Y-124214819D02*
X109484762Y-124786247D01*
X111008571Y-125214819D02*
X110437143Y-125214819D01*
X110722857Y-125214819D02*
X110722857Y-124214819D01*
X110722857Y-124214819D02*
X110627619Y-124357676D01*
X110627619Y-124357676D02*
X110532381Y-124452914D01*
X110532381Y-124452914D02*
X110437143Y-124500533D01*
D13*
X136266668Y-155413595D02*
X136552382Y-155413595D01*
X136409525Y-156213595D02*
X136409525Y-155413595D01*
X136647620Y-155413595D02*
X136814286Y-156213595D01*
X136814286Y-156213595D02*
X136980953Y-155413595D01*
X137123810Y-156175500D02*
X137195238Y-156213595D01*
X137195238Y-156213595D02*
X137314286Y-156213595D01*
X137314286Y-156213595D02*
X137361905Y-156175500D01*
X137361905Y-156175500D02*
X137385714Y-156137404D01*
X137385714Y-156137404D02*
X137409524Y-156061214D01*
X137409524Y-156061214D02*
X137409524Y-155985023D01*
X137409524Y-155985023D02*
X137385714Y-155908833D01*
X137385714Y-155908833D02*
X137361905Y-155870738D01*
X137361905Y-155870738D02*
X137314286Y-155832642D01*
X137314286Y-155832642D02*
X137219048Y-155794547D01*
X137219048Y-155794547D02*
X137171429Y-155756452D01*
X137171429Y-155756452D02*
X137147619Y-155718357D01*
X137147619Y-155718357D02*
X137123810Y-155642166D01*
X137123810Y-155642166D02*
X137123810Y-155565976D01*
X137123810Y-155565976D02*
X137147619Y-155489785D01*
X137147619Y-155489785D02*
X137171429Y-155451690D01*
X137171429Y-155451690D02*
X137219048Y-155413595D01*
X137219048Y-155413595D02*
X137338095Y-155413595D01*
X137338095Y-155413595D02*
X137409524Y-155451690D01*
X137623809Y-155908833D02*
X138004762Y-155908833D01*
X138219048Y-156175500D02*
X138290476Y-156213595D01*
X138290476Y-156213595D02*
X138409524Y-156213595D01*
X138409524Y-156213595D02*
X138457143Y-156175500D01*
X138457143Y-156175500D02*
X138480952Y-156137404D01*
X138480952Y-156137404D02*
X138504762Y-156061214D01*
X138504762Y-156061214D02*
X138504762Y-155985023D01*
X138504762Y-155985023D02*
X138480952Y-155908833D01*
X138480952Y-155908833D02*
X138457143Y-155870738D01*
X138457143Y-155870738D02*
X138409524Y-155832642D01*
X138409524Y-155832642D02*
X138314286Y-155794547D01*
X138314286Y-155794547D02*
X138266667Y-155756452D01*
X138266667Y-155756452D02*
X138242857Y-155718357D01*
X138242857Y-155718357D02*
X138219048Y-155642166D01*
X138219048Y-155642166D02*
X138219048Y-155565976D01*
X138219048Y-155565976D02*
X138242857Y-155489785D01*
X138242857Y-155489785D02*
X138266667Y-155451690D01*
X138266667Y-155451690D02*
X138314286Y-155413595D01*
X138314286Y-155413595D02*
X138433333Y-155413595D01*
X138433333Y-155413595D02*
X138504762Y-155451690D01*
X138719047Y-155794547D02*
X138885714Y-155794547D01*
X138957142Y-156213595D02*
X138719047Y-156213595D01*
X138719047Y-156213595D02*
X138719047Y-155413595D01*
X138719047Y-155413595D02*
X138957142Y-155413595D01*
X139457142Y-156213595D02*
X139290476Y-155832642D01*
X139171428Y-156213595D02*
X139171428Y-155413595D01*
X139171428Y-155413595D02*
X139361904Y-155413595D01*
X139361904Y-155413595D02*
X139409523Y-155451690D01*
X139409523Y-155451690D02*
X139433333Y-155489785D01*
X139433333Y-155489785D02*
X139457142Y-155565976D01*
X139457142Y-155565976D02*
X139457142Y-155680261D01*
X139457142Y-155680261D02*
X139433333Y-155756452D01*
X139433333Y-155756452D02*
X139409523Y-155794547D01*
X139409523Y-155794547D02*
X139361904Y-155832642D01*
X139361904Y-155832642D02*
X139171428Y-155832642D01*
X139600000Y-155413595D02*
X139766666Y-156213595D01*
X139766666Y-156213595D02*
X139933333Y-155413595D01*
X140195237Y-155413595D02*
X140290475Y-155413595D01*
X140290475Y-155413595D02*
X140338094Y-155451690D01*
X140338094Y-155451690D02*
X140385713Y-155527880D01*
X140385713Y-155527880D02*
X140409523Y-155680261D01*
X140409523Y-155680261D02*
X140409523Y-155946928D01*
X140409523Y-155946928D02*
X140385713Y-156099309D01*
X140385713Y-156099309D02*
X140338094Y-156175500D01*
X140338094Y-156175500D02*
X140290475Y-156213595D01*
X140290475Y-156213595D02*
X140195237Y-156213595D01*
X140195237Y-156213595D02*
X140147618Y-156175500D01*
X140147618Y-156175500D02*
X140099999Y-156099309D01*
X140099999Y-156099309D02*
X140076190Y-155946928D01*
X140076190Y-155946928D02*
X140076190Y-155680261D01*
X140076190Y-155680261D02*
X140099999Y-155527880D01*
X140099999Y-155527880D02*
X140147618Y-155451690D01*
X140147618Y-155451690D02*
X140195237Y-155413595D01*
X140885714Y-156213595D02*
X140600000Y-156213595D01*
X140742857Y-156213595D02*
X140742857Y-155413595D01*
X140742857Y-155413595D02*
X140695238Y-155527880D01*
X140695238Y-155527880D02*
X140647619Y-155604071D01*
X140647619Y-155604071D02*
X140600000Y-155642166D01*
D11*
X128633333Y-161857200D02*
X128776190Y-161904819D01*
X128776190Y-161904819D02*
X129014285Y-161904819D01*
X129014285Y-161904819D02*
X129109523Y-161857200D01*
X129109523Y-161857200D02*
X129157142Y-161809580D01*
X129157142Y-161809580D02*
X129204761Y-161714342D01*
X129204761Y-161714342D02*
X129204761Y-161619104D01*
X129204761Y-161619104D02*
X129157142Y-161523866D01*
X129157142Y-161523866D02*
X129109523Y-161476247D01*
X129109523Y-161476247D02*
X129014285Y-161428628D01*
X129014285Y-161428628D02*
X128823809Y-161381009D01*
X128823809Y-161381009D02*
X128728571Y-161333390D01*
X128728571Y-161333390D02*
X128680952Y-161285771D01*
X128680952Y-161285771D02*
X128633333Y-161190533D01*
X128633333Y-161190533D02*
X128633333Y-161095295D01*
X128633333Y-161095295D02*
X128680952Y-161000057D01*
X128680952Y-161000057D02*
X128728571Y-160952438D01*
X128728571Y-160952438D02*
X128823809Y-160904819D01*
X128823809Y-160904819D02*
X129061904Y-160904819D01*
X129061904Y-160904819D02*
X129204761Y-160952438D01*
X129633333Y-161381009D02*
X129966666Y-161381009D01*
X130109523Y-161904819D02*
X129633333Y-161904819D01*
X129633333Y-161904819D02*
X129633333Y-160904819D01*
X129633333Y-160904819D02*
X130109523Y-160904819D01*
X131109523Y-161904819D02*
X130776190Y-161428628D01*
X130538095Y-161904819D02*
X130538095Y-160904819D01*
X130538095Y-160904819D02*
X130919047Y-160904819D01*
X130919047Y-160904819D02*
X131014285Y-160952438D01*
X131014285Y-160952438D02*
X131061904Y-161000057D01*
X131061904Y-161000057D02*
X131109523Y-161095295D01*
X131109523Y-161095295D02*
X131109523Y-161238152D01*
X131109523Y-161238152D02*
X131061904Y-161333390D01*
X131061904Y-161333390D02*
X131014285Y-161381009D01*
X131014285Y-161381009D02*
X130919047Y-161428628D01*
X130919047Y-161428628D02*
X130538095Y-161428628D01*
X131395238Y-160904819D02*
X131728571Y-161904819D01*
X131728571Y-161904819D02*
X132061904Y-160904819D01*
X132585714Y-160904819D02*
X132776190Y-160904819D01*
X132776190Y-160904819D02*
X132871428Y-160952438D01*
X132871428Y-160952438D02*
X132966666Y-161047676D01*
X132966666Y-161047676D02*
X133014285Y-161238152D01*
X133014285Y-161238152D02*
X133014285Y-161571485D01*
X133014285Y-161571485D02*
X132966666Y-161761961D01*
X132966666Y-161761961D02*
X132871428Y-161857200D01*
X132871428Y-161857200D02*
X132776190Y-161904819D01*
X132776190Y-161904819D02*
X132585714Y-161904819D01*
X132585714Y-161904819D02*
X132490476Y-161857200D01*
X132490476Y-161857200D02*
X132395238Y-161761961D01*
X132395238Y-161761961D02*
X132347619Y-161571485D01*
X132347619Y-161571485D02*
X132347619Y-161238152D01*
X132347619Y-161238152D02*
X132395238Y-161047676D01*
X132395238Y-161047676D02*
X132490476Y-160952438D01*
X132490476Y-160952438D02*
X132585714Y-160904819D01*
X133966666Y-161904819D02*
X133395238Y-161904819D01*
X133680952Y-161904819D02*
X133680952Y-160904819D01*
X133680952Y-160904819D02*
X133585714Y-161047676D01*
X133585714Y-161047676D02*
X133490476Y-161142914D01*
X133490476Y-161142914D02*
X133395238Y-161190533D01*
X105810952Y-140404819D02*
X105334762Y-140404819D01*
X105334762Y-140404819D02*
X105334762Y-139404819D01*
X106144286Y-139881009D02*
X106477619Y-139881009D01*
X106620476Y-140404819D02*
X106144286Y-140404819D01*
X106144286Y-140404819D02*
X106144286Y-139404819D01*
X106144286Y-139404819D02*
X106620476Y-139404819D01*
X107049048Y-140404819D02*
X107049048Y-139404819D01*
X107049048Y-139404819D02*
X107287143Y-139404819D01*
X107287143Y-139404819D02*
X107430000Y-139452438D01*
X107430000Y-139452438D02*
X107525238Y-139547676D01*
X107525238Y-139547676D02*
X107572857Y-139642914D01*
X107572857Y-139642914D02*
X107620476Y-139833390D01*
X107620476Y-139833390D02*
X107620476Y-139976247D01*
X107620476Y-139976247D02*
X107572857Y-140166723D01*
X107572857Y-140166723D02*
X107525238Y-140261961D01*
X107525238Y-140261961D02*
X107430000Y-140357200D01*
X107430000Y-140357200D02*
X107287143Y-140404819D01*
X107287143Y-140404819D02*
X107049048Y-140404819D01*
X108001429Y-139500057D02*
X108049048Y-139452438D01*
X108049048Y-139452438D02*
X108144286Y-139404819D01*
X108144286Y-139404819D02*
X108382381Y-139404819D01*
X108382381Y-139404819D02*
X108477619Y-139452438D01*
X108477619Y-139452438D02*
X108525238Y-139500057D01*
X108525238Y-139500057D02*
X108572857Y-139595295D01*
X108572857Y-139595295D02*
X108572857Y-139690533D01*
X108572857Y-139690533D02*
X108525238Y-139833390D01*
X108525238Y-139833390D02*
X107953810Y-140404819D01*
X107953810Y-140404819D02*
X108572857Y-140404819D01*
D12*
X123765935Y-133973807D02*
X124565935Y-133807141D01*
X124565935Y-133807141D02*
X123765935Y-133640474D01*
X124642125Y-133592856D02*
X124642125Y-133211903D01*
X124146887Y-132926189D02*
X124184982Y-132854761D01*
X124184982Y-132854761D02*
X124223078Y-132830951D01*
X124223078Y-132830951D02*
X124299268Y-132807142D01*
X124299268Y-132807142D02*
X124413554Y-132807142D01*
X124413554Y-132807142D02*
X124489744Y-132830951D01*
X124489744Y-132830951D02*
X124527840Y-132854761D01*
X124527840Y-132854761D02*
X124565935Y-132902380D01*
X124565935Y-132902380D02*
X124565935Y-133092856D01*
X124565935Y-133092856D02*
X123765935Y-133092856D01*
X123765935Y-133092856D02*
X123765935Y-132926189D01*
X123765935Y-132926189D02*
X123804030Y-132878570D01*
X123804030Y-132878570D02*
X123842125Y-132854761D01*
X123842125Y-132854761D02*
X123918316Y-132830951D01*
X123918316Y-132830951D02*
X123994506Y-132830951D01*
X123994506Y-132830951D02*
X124070697Y-132854761D01*
X124070697Y-132854761D02*
X124108792Y-132878570D01*
X124108792Y-132878570D02*
X124146887Y-132926189D01*
X124146887Y-132926189D02*
X124146887Y-133092856D01*
X124337363Y-132616665D02*
X124337363Y-132378570D01*
X124565935Y-132664284D02*
X123765935Y-132497618D01*
X123765935Y-132497618D02*
X124565935Y-132330951D01*
X123765935Y-132235713D02*
X123765935Y-131949999D01*
X124565935Y-132092856D02*
X123765935Y-132092856D01*
X124642125Y-131902381D02*
X124642125Y-131521428D01*
X124565935Y-131402381D02*
X123765935Y-131402381D01*
X123765935Y-131402381D02*
X123765935Y-131283333D01*
X123765935Y-131283333D02*
X123804030Y-131211905D01*
X123804030Y-131211905D02*
X123880220Y-131164286D01*
X123880220Y-131164286D02*
X123956411Y-131140476D01*
X123956411Y-131140476D02*
X124108792Y-131116667D01*
X124108792Y-131116667D02*
X124223078Y-131116667D01*
X124223078Y-131116667D02*
X124375459Y-131140476D01*
X124375459Y-131140476D02*
X124451649Y-131164286D01*
X124451649Y-131164286D02*
X124527840Y-131211905D01*
X124527840Y-131211905D02*
X124565935Y-131283333D01*
X124565935Y-131283333D02*
X124565935Y-131402381D01*
X124565935Y-130902381D02*
X123765935Y-130902381D01*
X123765935Y-130735714D02*
X124565935Y-130569048D01*
X124565935Y-130569048D02*
X123765935Y-130402381D01*
X124565935Y-129973810D02*
X124565935Y-130259524D01*
X124565935Y-130116667D02*
X123765935Y-130116667D01*
X123765935Y-130116667D02*
X123880220Y-130164286D01*
X123880220Y-130164286D02*
X123956411Y-130211905D01*
X123956411Y-130211905D02*
X123994506Y-130259524D01*
D11*
X139833333Y-161857200D02*
X139976190Y-161904819D01*
X139976190Y-161904819D02*
X140214285Y-161904819D01*
X140214285Y-161904819D02*
X140309523Y-161857200D01*
X140309523Y-161857200D02*
X140357142Y-161809580D01*
X140357142Y-161809580D02*
X140404761Y-161714342D01*
X140404761Y-161714342D02*
X140404761Y-161619104D01*
X140404761Y-161619104D02*
X140357142Y-161523866D01*
X140357142Y-161523866D02*
X140309523Y-161476247D01*
X140309523Y-161476247D02*
X140214285Y-161428628D01*
X140214285Y-161428628D02*
X140023809Y-161381009D01*
X140023809Y-161381009D02*
X139928571Y-161333390D01*
X139928571Y-161333390D02*
X139880952Y-161285771D01*
X139880952Y-161285771D02*
X139833333Y-161190533D01*
X139833333Y-161190533D02*
X139833333Y-161095295D01*
X139833333Y-161095295D02*
X139880952Y-161000057D01*
X139880952Y-161000057D02*
X139928571Y-160952438D01*
X139928571Y-160952438D02*
X140023809Y-160904819D01*
X140023809Y-160904819D02*
X140261904Y-160904819D01*
X140261904Y-160904819D02*
X140404761Y-160952438D01*
X140833333Y-161381009D02*
X141166666Y-161381009D01*
X141309523Y-161904819D02*
X140833333Y-161904819D01*
X140833333Y-161904819D02*
X140833333Y-160904819D01*
X140833333Y-160904819D02*
X141309523Y-160904819D01*
X142309523Y-161904819D02*
X141976190Y-161428628D01*
X141738095Y-161904819D02*
X141738095Y-160904819D01*
X141738095Y-160904819D02*
X142119047Y-160904819D01*
X142119047Y-160904819D02*
X142214285Y-160952438D01*
X142214285Y-160952438D02*
X142261904Y-161000057D01*
X142261904Y-161000057D02*
X142309523Y-161095295D01*
X142309523Y-161095295D02*
X142309523Y-161238152D01*
X142309523Y-161238152D02*
X142261904Y-161333390D01*
X142261904Y-161333390D02*
X142214285Y-161381009D01*
X142214285Y-161381009D02*
X142119047Y-161428628D01*
X142119047Y-161428628D02*
X141738095Y-161428628D01*
X142595238Y-160904819D02*
X142928571Y-161904819D01*
X142928571Y-161904819D02*
X143261904Y-160904819D01*
X143785714Y-160904819D02*
X143976190Y-160904819D01*
X143976190Y-160904819D02*
X144071428Y-160952438D01*
X144071428Y-160952438D02*
X144166666Y-161047676D01*
X144166666Y-161047676D02*
X144214285Y-161238152D01*
X144214285Y-161238152D02*
X144214285Y-161571485D01*
X144214285Y-161571485D02*
X144166666Y-161761961D01*
X144166666Y-161761961D02*
X144071428Y-161857200D01*
X144071428Y-161857200D02*
X143976190Y-161904819D01*
X143976190Y-161904819D02*
X143785714Y-161904819D01*
X143785714Y-161904819D02*
X143690476Y-161857200D01*
X143690476Y-161857200D02*
X143595238Y-161761961D01*
X143595238Y-161761961D02*
X143547619Y-161571485D01*
X143547619Y-161571485D02*
X143547619Y-161238152D01*
X143547619Y-161238152D02*
X143595238Y-161047676D01*
X143595238Y-161047676D02*
X143690476Y-160952438D01*
X143690476Y-160952438D02*
X143785714Y-160904819D01*
X144595238Y-161000057D02*
X144642857Y-160952438D01*
X144642857Y-160952438D02*
X144738095Y-160904819D01*
X144738095Y-160904819D02*
X144976190Y-160904819D01*
X144976190Y-160904819D02*
X145071428Y-160952438D01*
X145071428Y-160952438D02*
X145119047Y-161000057D01*
X145119047Y-161000057D02*
X145166666Y-161095295D01*
X145166666Y-161095295D02*
X145166666Y-161190533D01*
X145166666Y-161190533D02*
X145119047Y-161333390D01*
X145119047Y-161333390D02*
X144547619Y-161904819D01*
X144547619Y-161904819D02*
X145166666Y-161904819D01*
X107354819Y-163333332D02*
X106354819Y-163333332D01*
X106354819Y-163333332D02*
X106354819Y-162952380D01*
X106354819Y-162952380D02*
X106402438Y-162857142D01*
X106402438Y-162857142D02*
X106450057Y-162809523D01*
X106450057Y-162809523D02*
X106545295Y-162761904D01*
X106545295Y-162761904D02*
X106688152Y-162761904D01*
X106688152Y-162761904D02*
X106783390Y-162809523D01*
X106783390Y-162809523D02*
X106831009Y-162857142D01*
X106831009Y-162857142D02*
X106878628Y-162952380D01*
X106878628Y-162952380D02*
X106878628Y-163333332D01*
X106354819Y-162333332D02*
X107164342Y-162333332D01*
X107164342Y-162333332D02*
X107259580Y-162285713D01*
X107259580Y-162285713D02*
X107307200Y-162238094D01*
X107307200Y-162238094D02*
X107354819Y-162142856D01*
X107354819Y-162142856D02*
X107354819Y-161952380D01*
X107354819Y-161952380D02*
X107307200Y-161857142D01*
X107307200Y-161857142D02*
X107259580Y-161809523D01*
X107259580Y-161809523D02*
X107164342Y-161761904D01*
X107164342Y-161761904D02*
X106354819Y-161761904D01*
X107354819Y-161285713D02*
X106354819Y-161285713D01*
X106354819Y-161285713D02*
X107069104Y-160952380D01*
X107069104Y-160952380D02*
X106354819Y-160619047D01*
X106354819Y-160619047D02*
X107354819Y-160619047D01*
X107354819Y-160142856D02*
X106354819Y-160142856D01*
X106354819Y-160142856D02*
X106354819Y-159761904D01*
X106354819Y-159761904D02*
X106402438Y-159666666D01*
X106402438Y-159666666D02*
X106450057Y-159619047D01*
X106450057Y-159619047D02*
X106545295Y-159571428D01*
X106545295Y-159571428D02*
X106688152Y-159571428D01*
X106688152Y-159571428D02*
X106783390Y-159619047D01*
X106783390Y-159619047D02*
X106831009Y-159666666D01*
X106831009Y-159666666D02*
X106878628Y-159761904D01*
X106878628Y-159761904D02*
X106878628Y-160142856D01*
X107354819Y-158619047D02*
X107354819Y-159190475D01*
X107354819Y-158904761D02*
X106354819Y-158904761D01*
X106354819Y-158904761D02*
X106497676Y-158999999D01*
X106497676Y-158999999D02*
X106592914Y-159095237D01*
X106592914Y-159095237D02*
X106640533Y-159190475D01*
X105720952Y-136994819D02*
X105244762Y-136994819D01*
X105244762Y-136994819D02*
X105244762Y-135994819D01*
X106054286Y-136471009D02*
X106387619Y-136471009D01*
X106530476Y-136994819D02*
X106054286Y-136994819D01*
X106054286Y-136994819D02*
X106054286Y-135994819D01*
X106054286Y-135994819D02*
X106530476Y-135994819D01*
X106959048Y-136994819D02*
X106959048Y-135994819D01*
X106959048Y-135994819D02*
X107197143Y-135994819D01*
X107197143Y-135994819D02*
X107340000Y-136042438D01*
X107340000Y-136042438D02*
X107435238Y-136137676D01*
X107435238Y-136137676D02*
X107482857Y-136232914D01*
X107482857Y-136232914D02*
X107530476Y-136423390D01*
X107530476Y-136423390D02*
X107530476Y-136566247D01*
X107530476Y-136566247D02*
X107482857Y-136756723D01*
X107482857Y-136756723D02*
X107435238Y-136851961D01*
X107435238Y-136851961D02*
X107340000Y-136947200D01*
X107340000Y-136947200D02*
X107197143Y-136994819D01*
X107197143Y-136994819D02*
X106959048Y-136994819D01*
X108482857Y-136994819D02*
X107911429Y-136994819D01*
X108197143Y-136994819D02*
X108197143Y-135994819D01*
X108197143Y-135994819D02*
X108101905Y-136137676D01*
X108101905Y-136137676D02*
X108006667Y-136232914D01*
X108006667Y-136232914D02*
X107911429Y-136280533D01*
X112895714Y-100864819D02*
X113467142Y-100864819D01*
X113181428Y-101864819D02*
X113181428Y-100864819D01*
X113990952Y-100864819D02*
X114181428Y-100864819D01*
X114181428Y-100864819D02*
X114276666Y-100912438D01*
X114276666Y-100912438D02*
X114371904Y-101007676D01*
X114371904Y-101007676D02*
X114419523Y-101198152D01*
X114419523Y-101198152D02*
X114419523Y-101531485D01*
X114419523Y-101531485D02*
X114371904Y-101721961D01*
X114371904Y-101721961D02*
X114276666Y-101817200D01*
X114276666Y-101817200D02*
X114181428Y-101864819D01*
X114181428Y-101864819D02*
X113990952Y-101864819D01*
X113990952Y-101864819D02*
X113895714Y-101817200D01*
X113895714Y-101817200D02*
X113800476Y-101721961D01*
X113800476Y-101721961D02*
X113752857Y-101531485D01*
X113752857Y-101531485D02*
X113752857Y-101198152D01*
X113752857Y-101198152D02*
X113800476Y-101007676D01*
X113800476Y-101007676D02*
X113895714Y-100912438D01*
X113895714Y-100912438D02*
X113990952Y-100864819D01*
X115181428Y-101341009D02*
X114848095Y-101341009D01*
X114848095Y-101864819D02*
X114848095Y-100864819D01*
X114848095Y-100864819D02*
X115324285Y-100864819D01*
X115657619Y-100960057D02*
X115705238Y-100912438D01*
X115705238Y-100912438D02*
X115800476Y-100864819D01*
X115800476Y-100864819D02*
X116038571Y-100864819D01*
X116038571Y-100864819D02*
X116133809Y-100912438D01*
X116133809Y-100912438D02*
X116181428Y-100960057D01*
X116181428Y-100960057D02*
X116229047Y-101055295D01*
X116229047Y-101055295D02*
X116229047Y-101150533D01*
X116229047Y-101150533D02*
X116181428Y-101293390D01*
X116181428Y-101293390D02*
X115610000Y-101864819D01*
X115610000Y-101864819D02*
X116229047Y-101864819D01*
D14*
X121750000Y-116550000D02*
X124750000Y-116550000D01*
X121750000Y-129150000D02*
X121750000Y-116550000D01*
X124750000Y-129150000D02*
X121750000Y-129150000D01*
X131350000Y-116550000D02*
X134350000Y-116550000D01*
X134350000Y-116550000D02*
X134350000Y-129150000D01*
X134350000Y-129150000D02*
X131350000Y-129150000D01*
X116750000Y-107250000D02*
X116750000Y-108500000D01*
X117050000Y-109800000D02*
X117800000Y-109800000D01*
X117800000Y-109800000D02*
X117800000Y-112750000D01*
X117800000Y-112750000D02*
X125850000Y-112750000D01*
X118000000Y-107250000D02*
X116750000Y-107250000D01*
X133900000Y-109800000D02*
X133900000Y-112750000D01*
X133900000Y-112750000D02*
X125850000Y-112750000D01*
X134650000Y-109800000D02*
X133900000Y-109800000D01*
X117040000Y-107540000D02*
X134660000Y-107540000D01*
X134660000Y-113510000D01*
X117040000Y-113510000D01*
X117040000Y-107540000D01*
X117050000Y-107550000D02*
X118850000Y-107550000D01*
X118850000Y-108300000D01*
X117050000Y-108300000D01*
X117050000Y-107550000D01*
X120350000Y-107550000D02*
X131350000Y-107550000D01*
X131350000Y-108300000D01*
X120350000Y-108300000D01*
X120350000Y-107550000D01*
X132850000Y-107550000D02*
X134650000Y-107550000D01*
X134650000Y-108300000D01*
X132850000Y-108300000D01*
X132850000Y-107550000D01*
X135650000Y-144850000D02*
X137550000Y-144850000D01*
X135650000Y-146750000D02*
X135650000Y-144850000D01*
X137550000Y-144850000D02*
X137550000Y-146750000D01*
X137550000Y-146750000D02*
X135650000Y-146750000D01*
X143850000Y-157400000D02*
X144600000Y-157400000D01*
X144600000Y-154450000D02*
X148900000Y-154450000D01*
X144600000Y-157400000D02*
X144600000Y-154450000D01*
X153000000Y-159950000D02*
X154250000Y-159950000D01*
X153200000Y-154450000D02*
X148900000Y-154450000D01*
X153200000Y-157400000D02*
X153200000Y-154450000D01*
X153950000Y-157400000D02*
X153200000Y-157400000D01*
X154250000Y-159950000D02*
X154250000Y-158700000D01*
X145650000Y-159650000D02*
X143850000Y-159650000D01*
X143850000Y-158900000D01*
X145650000Y-158900000D01*
X145650000Y-159650000D01*
X150650000Y-159650000D02*
X147150000Y-159650000D01*
X147150000Y-158900000D01*
X150650000Y-158900000D01*
X150650000Y-159650000D01*
X153950000Y-159650000D02*
X152150000Y-159650000D01*
X152150000Y-158900000D01*
X153950000Y-158900000D01*
X153950000Y-159650000D01*
X153960000Y-159660000D02*
X143840000Y-159660000D01*
X143840000Y-153690000D01*
X153960000Y-153690000D01*
X153960000Y-159660000D01*
X134594420Y-140410000D02*
X134875580Y-140410000D01*
X134594420Y-141430000D02*
X134875580Y-141430000D01*
X125000000Y-132771252D02*
X125000000Y-131348748D01*
X127720000Y-132771252D02*
X127720000Y-131348748D01*
X145762742Y-141877500D02*
X146237258Y-141877500D01*
X145762742Y-142922500D02*
X146237258Y-142922500D01*
X109376359Y-141125000D02*
X109683641Y-141125000D01*
X109376359Y-141885000D02*
X109683641Y-141885000D01*
X108420000Y-110620000D02*
X110320000Y-110620000D01*
X108420000Y-112520000D02*
X108420000Y-110620000D01*
X110320000Y-110620000D02*
X110320000Y-112520000D01*
X110320000Y-112520000D02*
X108420000Y-112520000D01*
D15*
X138800000Y-107140000D02*
X138800000Y-109440000D01*
X138800000Y-107140000D02*
X144000000Y-107140000D01*
X138800000Y-113940000D02*
X138800000Y-111640000D01*
X138800000Y-113940000D02*
X144000000Y-113940000D01*
X144000000Y-107140000D02*
X145600000Y-108740000D01*
X144000000Y-113940000D02*
X145600000Y-112340000D01*
X145600000Y-108740000D02*
X145600000Y-109440000D01*
X145600000Y-112340000D02*
X145600000Y-111640000D01*
D14*
X113390000Y-126690000D02*
X113865000Y-126690000D01*
X113390000Y-127165000D02*
X113390000Y-126690000D01*
X113390000Y-133910000D02*
X113390000Y-133435000D01*
X113865000Y-133910000D02*
X113390000Y-133910000D01*
X120135000Y-126690000D02*
X120610000Y-126690000D01*
X120610000Y-126690000D02*
X120610000Y-127165000D01*
X120610000Y-133435000D02*
X120610000Y-133910000D01*
X120610000Y-133910000D02*
X120135000Y-133910000D01*
X112860000Y-127550000D02*
X112530000Y-127790000D01*
X112530000Y-127310000D01*
X112860000Y-127550000D01*
G36*
X112860000Y-127550000D02*
G01*
X112530000Y-127790000D01*
X112530000Y-127310000D01*
X112860000Y-127550000D01*
G37*
D16*
X140425000Y-115172500D02*
X140425000Y-120922500D01*
X145575000Y-120922500D02*
X145575000Y-115172500D01*
D15*
X141100000Y-121797500D02*
G75*
G02*
X140900000Y-121797500I-100000J0D01*
G01*
X140900000Y-121797500D02*
G75*
G02*
X141100000Y-121797500I100000J0D01*
G01*
D17*
G36*
X111109736Y-121143465D02*
G01*
X111109736Y-121248480D01*
X110862443Y-121248480D01*
X110615151Y-121248480D01*
X110615151Y-121336556D01*
X110615151Y-121424633D01*
X110845505Y-121424633D01*
X111075860Y-121424633D01*
X111075860Y-121529648D01*
X111075860Y-121634663D01*
X110845356Y-121634663D01*
X110614852Y-121634663D01*
X110616695Y-121761696D01*
X110618538Y-121888730D01*
X110864137Y-121890509D01*
X111109736Y-121892287D01*
X111109736Y-121993829D01*
X111109736Y-122095372D01*
X110726940Y-122095372D01*
X110344145Y-122095372D01*
X110344145Y-121566911D01*
X110344145Y-121038450D01*
X110726940Y-121038450D01*
X111109736Y-121038450D01*
X111109736Y-121143465D01*
G37*
G36*
X114808962Y-121143465D02*
G01*
X114808962Y-121248480D01*
X114565057Y-121248480D01*
X114321152Y-121248480D01*
X114321152Y-121336556D01*
X114321152Y-121424633D01*
X114548119Y-121424633D01*
X114775087Y-121424633D01*
X114775087Y-121529648D01*
X114775087Y-121634663D01*
X114548119Y-121634663D01*
X114321152Y-121634663D01*
X114321152Y-121763390D01*
X114321152Y-121892118D01*
X114565057Y-121892118D01*
X114808962Y-121892118D01*
X114808962Y-121993745D01*
X114808962Y-122095372D01*
X114426167Y-122095372D01*
X114043372Y-122095372D01*
X114043372Y-121566911D01*
X114043372Y-121038450D01*
X114426167Y-121038450D01*
X114808962Y-121038450D01*
X114808962Y-121143465D01*
G37*
G36*
X112001592Y-121333587D02*
G01*
X112190371Y-121628723D01*
X112192136Y-121333587D01*
X112193901Y-121038450D01*
X112322557Y-121038450D01*
X112451214Y-121038450D01*
X112451214Y-121566911D01*
X112451214Y-122095372D01*
X112316408Y-122095372D01*
X112181603Y-122095372D01*
X111966473Y-121748146D01*
X111927739Y-121685706D01*
X111890945Y-121626546D01*
X111856739Y-121571697D01*
X111825771Y-121522193D01*
X111798688Y-121479066D01*
X111776139Y-121443349D01*
X111758772Y-121416074D01*
X111747235Y-121398273D01*
X111742196Y-121390999D01*
X111740149Y-121390519D01*
X111738421Y-121394525D01*
X111736988Y-121403980D01*
X111735823Y-121419847D01*
X111734901Y-121443089D01*
X111734198Y-121474668D01*
X111733687Y-121515548D01*
X111733343Y-121566692D01*
X111733141Y-121629062D01*
X111733056Y-121703621D01*
X111733049Y-121738225D01*
X111733049Y-122095372D01*
X111607709Y-122095372D01*
X111482369Y-122095372D01*
X111482369Y-121566911D01*
X111482369Y-121038450D01*
X111647591Y-121038450D01*
X111812813Y-121038450D01*
X112001592Y-121333587D01*
G37*
G36*
X115966964Y-121558442D02*
G01*
X115996673Y-121638746D01*
X116025053Y-121715462D01*
X116051749Y-121787629D01*
X116076404Y-121854287D01*
X116098664Y-121914475D01*
X116118174Y-121967232D01*
X116134577Y-122011597D01*
X116147519Y-122046609D01*
X116156644Y-122071307D01*
X116161597Y-122084730D01*
X116162394Y-122086903D01*
X116160578Y-122089816D01*
X116151875Y-122092022D01*
X116134959Y-122093602D01*
X116108503Y-122094634D01*
X116071180Y-122095198D01*
X116021664Y-122095372D01*
X116020553Y-122095372D01*
X115875666Y-122095372D01*
X115839399Y-121990255D01*
X115803132Y-121885138D01*
X115609833Y-121886934D01*
X115416534Y-121888730D01*
X115381130Y-121990357D01*
X115345725Y-122091985D01*
X115206071Y-122093816D01*
X115164232Y-122094172D01*
X115127400Y-122094118D01*
X115097574Y-122093686D01*
X115076750Y-122092911D01*
X115066925Y-122091826D01*
X115066418Y-122091477D01*
X115068715Y-122084629D01*
X115075376Y-122066023D01*
X115086052Y-122036603D01*
X115100397Y-121997317D01*
X115118063Y-121949109D01*
X115138703Y-121892926D01*
X115161969Y-121829714D01*
X115187514Y-121760418D01*
X115214991Y-121685986D01*
X115215265Y-121685246D01*
X115486476Y-121685246D01*
X115492895Y-121686402D01*
X115510726Y-121687405D01*
X115537831Y-121688191D01*
X115572072Y-121688699D01*
X115608429Y-121688864D01*
X115654258Y-121688635D01*
X115687940Y-121687886D01*
X115710869Y-121686519D01*
X115724440Y-121684437D01*
X115730051Y-121681544D01*
X115730393Y-121680395D01*
X115728281Y-121670475D01*
X115722400Y-121650552D01*
X115713447Y-121622601D01*
X115702118Y-121588599D01*
X115689111Y-121550522D01*
X115675123Y-121510346D01*
X115660852Y-121470046D01*
X115646994Y-121431599D01*
X115634247Y-121396980D01*
X115623308Y-121368167D01*
X115614874Y-121347134D01*
X115609642Y-121335858D01*
X115608365Y-121334549D01*
X115605231Y-121341842D01*
X115598453Y-121359918D01*
X115588745Y-121386727D01*
X115576818Y-121420222D01*
X115563384Y-121458352D01*
X115549156Y-121499069D01*
X115534844Y-121540324D01*
X115521163Y-121580069D01*
X115508823Y-121616254D01*
X115498536Y-121646831D01*
X115491015Y-121669750D01*
X115486973Y-121682963D01*
X115486476Y-121685246D01*
X115215265Y-121685246D01*
X115244052Y-121607362D01*
X115260511Y-121562878D01*
X115454604Y-121038450D01*
X115614591Y-121038450D01*
X115774578Y-121038450D01*
X115966964Y-121558442D01*
G37*
G36*
X113322823Y-121018723D02*
G01*
X113393622Y-121022904D01*
X113461823Y-121030966D01*
X113518238Y-121041551D01*
X113553798Y-121050143D01*
X113588284Y-121059234D01*
X113617447Y-121067660D01*
X113635109Y-121073519D01*
X113670739Y-121086850D01*
X113670739Y-121211703D01*
X113670685Y-121255623D01*
X113670386Y-121287814D01*
X113669639Y-121310095D01*
X113668238Y-121324288D01*
X113665980Y-121332213D01*
X113662659Y-121335690D01*
X113658071Y-121336541D01*
X113656715Y-121336556D01*
X113643087Y-121332848D01*
X113624294Y-121323425D01*
X113614371Y-121317142D01*
X113553815Y-121281328D01*
X113488412Y-121252801D01*
X113420488Y-121231982D01*
X113352371Y-121219296D01*
X113286389Y-121215164D01*
X113224870Y-121220009D01*
X113170142Y-121234254D01*
X113166232Y-121235771D01*
X113131339Y-121254697D01*
X113107737Y-121278570D01*
X113096058Y-121306218D01*
X113096935Y-121336470D01*
X113102734Y-121353219D01*
X113112851Y-121366688D01*
X113131220Y-121379519D01*
X113158908Y-121392130D01*
X113196983Y-121404941D01*
X113246511Y-121418370D01*
X113301489Y-121431271D01*
X113344047Y-121440992D01*
X113385416Y-121450879D01*
X113422407Y-121460140D01*
X113451828Y-121467980D01*
X113467480Y-121472600D01*
X113533644Y-121498618D01*
X113590683Y-121530824D01*
X113637484Y-121568381D01*
X113672932Y-121610450D01*
X113689189Y-121639451D01*
X113703055Y-121681986D01*
X113710334Y-121731836D01*
X113710820Y-121784361D01*
X113704311Y-121834922D01*
X113698765Y-121856725D01*
X113674900Y-121912420D01*
X113639177Y-121963146D01*
X113592646Y-122008051D01*
X113536358Y-122046283D01*
X113471365Y-122076991D01*
X113399733Y-122099084D01*
X113366530Y-122104810D01*
X113323147Y-122109174D01*
X113272891Y-122112117D01*
X113219070Y-122113581D01*
X113164991Y-122113510D01*
X113113961Y-122111844D01*
X113069288Y-122108526D01*
X113044298Y-122105308D01*
X112996561Y-122096176D01*
X112945768Y-122084030D01*
X112896590Y-122070143D01*
X112853697Y-122055784D01*
X112834862Y-122048312D01*
X112803521Y-122034877D01*
X112803521Y-121905909D01*
X112803521Y-121776940D01*
X112818787Y-121776940D01*
X112832330Y-121780771D01*
X112851698Y-121790691D01*
X112867906Y-121801229D01*
X112935715Y-121842914D01*
X113009901Y-121876083D01*
X113087768Y-121900050D01*
X113166622Y-121914128D01*
X113243766Y-121917633D01*
X113304006Y-121912112D01*
X113352396Y-121900329D01*
X113388828Y-121882673D01*
X113413187Y-121859235D01*
X113425356Y-121830110D01*
X113426834Y-121813810D01*
X113424525Y-121791545D01*
X113416780Y-121772596D01*
X113402368Y-121756266D01*
X113380057Y-121741856D01*
X113348619Y-121728667D01*
X113306821Y-121716003D01*
X113253435Y-121703163D01*
X113218924Y-121695823D01*
X113136755Y-121677291D01*
X113066888Y-121657757D01*
X113008079Y-121636536D01*
X112959082Y-121612946D01*
X112918654Y-121586301D01*
X112885550Y-121555918D01*
X112858525Y-121521112D01*
X112839198Y-121487124D01*
X112828223Y-121464401D01*
X112820957Y-121446586D01*
X112816638Y-121429791D01*
X112814503Y-121410128D01*
X112813791Y-121383707D01*
X112813730Y-121357233D01*
X112814137Y-121320974D01*
X112815630Y-121294723D01*
X112818688Y-121274950D01*
X112823794Y-121258125D01*
X112828891Y-121246114D01*
X112862236Y-121189614D01*
X112906728Y-121140048D01*
X112961548Y-121097997D01*
X113025875Y-121064042D01*
X113098887Y-121038764D01*
X113133438Y-121030564D01*
X113188871Y-121022442D01*
X113253286Y-121018532D01*
X113322823Y-121018723D01*
G37*
G36*
X113713273Y-115700371D02*
G01*
X113741298Y-115700683D01*
X113759264Y-115701226D01*
X113765468Y-115701988D01*
X113765441Y-115702030D01*
X113757797Y-115705039D01*
X113740278Y-115710236D01*
X113716191Y-115716662D01*
X113707410Y-115718876D01*
X113678200Y-115727865D01*
X113639096Y-115742500D01*
X113592077Y-115761892D01*
X113539119Y-115785155D01*
X113482201Y-115811402D01*
X113423301Y-115839743D01*
X113364397Y-115869294D01*
X113317135Y-115893987D01*
X113234809Y-115939916D01*
X113149078Y-115991540D01*
X113061138Y-116047914D01*
X112972185Y-116108089D01*
X112883417Y-116171120D01*
X112796031Y-116236058D01*
X112711222Y-116301958D01*
X112630188Y-116367872D01*
X112554124Y-116432852D01*
X112484229Y-116495953D01*
X112421698Y-116556227D01*
X112367728Y-116612726D01*
X112323516Y-116664505D01*
X112295661Y-116702361D01*
X112281846Y-116720838D01*
X112263412Y-116742890D01*
X112251044Y-116756562D01*
X112218538Y-116793364D01*
X112184497Y-116835825D01*
X112151395Y-116880541D01*
X112121703Y-116924108D01*
X112097892Y-116963123D01*
X112089191Y-116979408D01*
X112074049Y-117011566D01*
X112057106Y-117050572D01*
X112040910Y-117090443D01*
X112032624Y-117112257D01*
X112018972Y-117148963D01*
X112004259Y-117187734D01*
X111990629Y-117222954D01*
X111983486Y-117240984D01*
X111972032Y-117275385D01*
X111962059Y-117316450D01*
X111953955Y-117361045D01*
X111948105Y-117406037D01*
X111944894Y-117448294D01*
X111944708Y-117484682D01*
X111947934Y-117512068D01*
X111949432Y-117517490D01*
X111964380Y-117543805D01*
X111991924Y-117571493D01*
X112031263Y-117599873D01*
X112077310Y-117626076D01*
X112110788Y-117642531D01*
X112141819Y-117655678D01*
X112174000Y-117666688D01*
X112210926Y-117676735D01*
X112256193Y-117686991D01*
X112278146Y-117691559D01*
X112317337Y-117700288D01*
X112344849Y-117708510D01*
X112362468Y-117717253D01*
X112371977Y-117727548D01*
X112375161Y-117740424D01*
X112374998Y-117747446D01*
X112373300Y-117769168D01*
X112424113Y-117777546D01*
X112446884Y-117780140D01*
X112480696Y-117782429D01*
X112523726Y-117784402D01*
X112574153Y-117786049D01*
X112630152Y-117787361D01*
X112689902Y-117788327D01*
X112751579Y-117788937D01*
X112813361Y-117789181D01*
X112873425Y-117789050D01*
X112929948Y-117788534D01*
X112981107Y-117787621D01*
X113025080Y-117786303D01*
X113060044Y-117784570D01*
X113084176Y-117782411D01*
X113091464Y-117781201D01*
X113130500Y-117773400D01*
X113159380Y-117769396D01*
X113177165Y-117769274D01*
X113182929Y-117772862D01*
X113176883Y-117780509D01*
X113161174Y-117789132D01*
X113139441Y-117797142D01*
X113115326Y-117802948D01*
X113113295Y-117803286D01*
X113098036Y-117807332D01*
X113091414Y-117812376D01*
X113091676Y-117813826D01*
X113101719Y-117818475D01*
X113122549Y-117819971D01*
X113151784Y-117818353D01*
X113187042Y-117813658D01*
X113195698Y-117812157D01*
X113221434Y-117806359D01*
X113242393Y-117798082D01*
X113263728Y-117784818D01*
X113284556Y-117768910D01*
X113311093Y-117748696D01*
X113343463Y-117725432D01*
X113375964Y-117703181D01*
X113386183Y-117696470D01*
X113415557Y-117677823D01*
X113450111Y-117656494D01*
X113487992Y-117633563D01*
X113527352Y-117610107D01*
X113566338Y-117587206D01*
X113603100Y-117565939D01*
X113635789Y-117547383D01*
X113662553Y-117532618D01*
X113681541Y-117522722D01*
X113690904Y-117518775D01*
X113691064Y-117518755D01*
X113708587Y-117513247D01*
X113735934Y-117499105D01*
X113772683Y-117476560D01*
X113796305Y-117460963D01*
X113801343Y-117457789D01*
X113928194Y-117457789D01*
X113931582Y-117461176D01*
X113934969Y-117457789D01*
X113931582Y-117454401D01*
X113928194Y-117457789D01*
X113801343Y-117457789D01*
X113820725Y-117445578D01*
X113823018Y-117444238D01*
X113948520Y-117444238D01*
X113951907Y-117447626D01*
X113955295Y-117444238D01*
X113951907Y-117440851D01*
X113948520Y-117444238D01*
X113823018Y-117444238D01*
X113834610Y-117437463D01*
X113962070Y-117437463D01*
X113965457Y-117440851D01*
X113968845Y-117437463D01*
X113965457Y-117434076D01*
X113962070Y-117437463D01*
X113834610Y-117437463D01*
X113841159Y-117433635D01*
X113977281Y-117433635D01*
X113978208Y-117434076D01*
X113984391Y-117429306D01*
X113985783Y-117427301D01*
X113987509Y-117420967D01*
X113986583Y-117420525D01*
X113980400Y-117425295D01*
X113979008Y-117427301D01*
X113977281Y-117433635D01*
X113841159Y-117433635D01*
X113853310Y-117426533D01*
X113870207Y-117417138D01*
X113995946Y-117417138D01*
X113999333Y-117420525D01*
X114002721Y-117417138D01*
X113999333Y-117413750D01*
X113995946Y-117417138D01*
X113870207Y-117417138D01*
X113890046Y-117406107D01*
X113926918Y-117386578D01*
X113931808Y-117384073D01*
X113972424Y-117363009D01*
X114017420Y-117339102D01*
X114061222Y-117315343D01*
X114097100Y-117295379D01*
X114097454Y-117295185D01*
X114212750Y-117295185D01*
X114216138Y-117298573D01*
X114219525Y-117295185D01*
X114216138Y-117291798D01*
X114212750Y-117295185D01*
X114097454Y-117295185D01*
X114132998Y-117275717D01*
X114171351Y-117255841D01*
X114207244Y-117238241D01*
X114232603Y-117226736D01*
X114267300Y-117211923D01*
X114305693Y-117195492D01*
X114340284Y-117180651D01*
X114344865Y-117178681D01*
X114379068Y-117164000D01*
X114402686Y-117154055D01*
X114417580Y-117148229D01*
X114425613Y-117145905D01*
X114428649Y-117146466D01*
X114428549Y-117149297D01*
X114427973Y-117151160D01*
X114421186Y-117157477D01*
X114404768Y-117168318D01*
X114381205Y-117182146D01*
X114353900Y-117196946D01*
X114308868Y-117221408D01*
X114275604Y-117241568D01*
X114254387Y-117257241D01*
X114245494Y-117268239D01*
X114245255Y-117269335D01*
X114240035Y-117277749D01*
X114233748Y-117283862D01*
X114230938Y-117286423D01*
X114231402Y-117286961D01*
X114236339Y-117284847D01*
X114246949Y-117279451D01*
X114264430Y-117270142D01*
X114289983Y-117256290D01*
X114324806Y-117237266D01*
X114370099Y-117212440D01*
X114378741Y-117207699D01*
X114415635Y-117187765D01*
X114442353Y-117174194D01*
X114460362Y-117166419D01*
X114471132Y-117163875D01*
X114476129Y-117165996D01*
X114476980Y-117169845D01*
X114472781Y-117176432D01*
X114471500Y-117176620D01*
X114462324Y-117180291D01*
X114452869Y-117186446D01*
X114444363Y-117193335D01*
X114447269Y-117194225D01*
X114456655Y-117192046D01*
X114468199Y-117189896D01*
X114468517Y-117193602D01*
X114463680Y-117199899D01*
X114452970Y-117209883D01*
X114434952Y-117223856D01*
X114416254Y-117236937D01*
X114398268Y-117249835D01*
X114372663Y-117269443D01*
X114342108Y-117293657D01*
X114309273Y-117320372D01*
X114287687Y-117338320D01*
X114253137Y-117366488D01*
X114217329Y-117394253D01*
X114183465Y-117419226D01*
X114154748Y-117439018D01*
X114141849Y-117447101D01*
X114109764Y-117466393D01*
X114073005Y-117489012D01*
X114038227Y-117510850D01*
X114029649Y-117516331D01*
X113996116Y-117537402D01*
X113958167Y-117560541D01*
X113922741Y-117581533D01*
X113914644Y-117586208D01*
X113893169Y-117598921D01*
X113866699Y-117615204D01*
X113837252Y-117633740D01*
X113806851Y-117653213D01*
X113777514Y-117672305D01*
X113751264Y-117689700D01*
X113730119Y-117704082D01*
X113716101Y-117714134D01*
X113711230Y-117718539D01*
X113711437Y-117718632D01*
X113719266Y-117717343D01*
X113736644Y-117713957D01*
X113759870Y-117709198D01*
X113760747Y-117709014D01*
X113786910Y-117704142D01*
X113806507Y-117702903D01*
X113825976Y-117705535D01*
X113851752Y-117712277D01*
X113852188Y-117712402D01*
X113883233Y-117719417D01*
X113916606Y-117724138D01*
X113938641Y-117725407D01*
X113968285Y-117723085D01*
X114005714Y-117716846D01*
X114046416Y-117707776D01*
X114085877Y-117696961D01*
X114119584Y-117685488D01*
X114137668Y-117677478D01*
X114161361Y-117667604D01*
X114186026Y-117660848D01*
X114190012Y-117660193D01*
X114210916Y-117656182D01*
X114227968Y-117651083D01*
X114229688Y-117650348D01*
X114241540Y-117646164D01*
X114263245Y-117639609D01*
X114291522Y-117631644D01*
X114317765Y-117624613D01*
X114367690Y-117610978D01*
X114406165Y-117599072D01*
X114435075Y-117588205D01*
X114456301Y-117577687D01*
X114468768Y-117569255D01*
X114483701Y-117559846D01*
X114495527Y-117556028D01*
X114506960Y-117553068D01*
X114525191Y-117545508D01*
X114536958Y-117539763D01*
X114562060Y-117527700D01*
X114589771Y-117515785D01*
X114616439Y-117505430D01*
X114638409Y-117498051D01*
X114652028Y-117495061D01*
X114652465Y-117495052D01*
X114663773Y-117491687D01*
X114680504Y-117483312D01*
X114685479Y-117480354D01*
X114705507Y-117469348D01*
X114731156Y-117457014D01*
X114747255Y-117450027D01*
X114764939Y-117442010D01*
X114774061Y-117436316D01*
X114772896Y-117434237D01*
X114763353Y-117429674D01*
X114762826Y-117422219D01*
X114767420Y-117415068D01*
X114779681Y-117410020D01*
X114802252Y-117406109D01*
X114809055Y-117405282D01*
X114834914Y-117401160D01*
X114857566Y-117395600D01*
X114869939Y-117390829D01*
X114886289Y-117384115D01*
X114909541Y-117377218D01*
X114924140Y-117373830D01*
X114974654Y-117360751D01*
X115028736Y-117342133D01*
X115077013Y-117321470D01*
X115103854Y-117310962D01*
X115132719Y-117303120D01*
X115144765Y-117301097D01*
X115167476Y-117299750D01*
X115183095Y-117303150D01*
X115196839Y-117311922D01*
X115209836Y-117324437D01*
X115214339Y-117337030D01*
X115210410Y-117353236D01*
X115198114Y-117376591D01*
X115198005Y-117376777D01*
X115169483Y-117414442D01*
X115129035Y-117451378D01*
X115078272Y-117486237D01*
X115045586Y-117504531D01*
X115010281Y-117523449D01*
X114971324Y-117545212D01*
X114935371Y-117566075D01*
X114924140Y-117572831D01*
X114890429Y-117592902D01*
X114851694Y-117615240D01*
X114814917Y-117635834D01*
X114805575Y-117640930D01*
X114773904Y-117658816D01*
X114736404Y-117681135D01*
X114698421Y-117704658D01*
X114673460Y-117720734D01*
X114602185Y-117764426D01*
X114522099Y-117807355D01*
X114432065Y-117850055D01*
X114330945Y-117893063D01*
X114217601Y-117936916D01*
X114205549Y-117941370D01*
X114166929Y-117955701D01*
X114127361Y-117970585D01*
X114091265Y-117984349D01*
X114063060Y-117995317D01*
X114060930Y-117996162D01*
X114033436Y-118006526D01*
X114015852Y-118011543D01*
X114005860Y-118011703D01*
X114001751Y-118008625D01*
X113996643Y-117994654D01*
X113997308Y-117981982D01*
X114003390Y-117976104D01*
X114003850Y-117976087D01*
X114008812Y-117973740D01*
X114007970Y-117972302D01*
X113998948Y-117971813D01*
X113982765Y-117977471D01*
X113963186Y-117987415D01*
X113943977Y-117999779D01*
X113931359Y-118010209D01*
X113912538Y-118023720D01*
X113885093Y-118037560D01*
X113860220Y-118047188D01*
X113822316Y-118061292D01*
X113784429Y-118077661D01*
X113749444Y-118094836D01*
X113720246Y-118111357D01*
X113699721Y-118125766D01*
X113694032Y-118131231D01*
X113684189Y-118140069D01*
X113671008Y-118145771D01*
X113650797Y-118149487D01*
X113628263Y-118151706D01*
X113597993Y-118155172D01*
X113577736Y-118160264D01*
X113563971Y-118167969D01*
X113561030Y-118170513D01*
X113539161Y-118185738D01*
X113506451Y-118200480D01*
X113462358Y-118214894D01*
X113406338Y-118229136D01*
X113337849Y-118243361D01*
X113257839Y-118257482D01*
X113217416Y-118264528D01*
X113178821Y-118271962D01*
X113145299Y-118279107D01*
X113120093Y-118285288D01*
X113110738Y-118288105D01*
X113083603Y-118296279D01*
X113055626Y-118302959D01*
X113044442Y-118304975D01*
X113028978Y-118308096D01*
X113016728Y-118313614D01*
X113004679Y-118323894D01*
X112989815Y-118341301D01*
X112976928Y-118357936D01*
X112954855Y-118388455D01*
X112928507Y-118427401D01*
X112899661Y-118471901D01*
X112870095Y-118519082D01*
X112841586Y-118566071D01*
X112815913Y-118609996D01*
X112794852Y-118647984D01*
X112782631Y-118671938D01*
X112749006Y-118757245D01*
X112725691Y-118851229D01*
X112712711Y-118953745D01*
X112710091Y-119064648D01*
X112710925Y-119090597D01*
X112713214Y-119130146D01*
X112716593Y-119169567D01*
X112720625Y-119204530D01*
X112724871Y-119230709D01*
X112725292Y-119232681D01*
X112739722Y-119280790D01*
X112761970Y-119332810D01*
X112790438Y-119386421D01*
X112823528Y-119439302D01*
X112859644Y-119489130D01*
X112897188Y-119533586D01*
X112934564Y-119570347D01*
X112970173Y-119597092D01*
X112979807Y-119602573D01*
X113008965Y-119617075D01*
X113045474Y-119634114D01*
X113086553Y-119652505D01*
X113129421Y-119671065D01*
X113171299Y-119688611D01*
X113209407Y-119703959D01*
X113240964Y-119715925D01*
X113263190Y-119723327D01*
X113263972Y-119723546D01*
X113288892Y-119729651D01*
X113325079Y-119737253D01*
X113372924Y-119746423D01*
X113432820Y-119757233D01*
X113505160Y-119769754D01*
X113590336Y-119784059D01*
X113636018Y-119791601D01*
X113685983Y-119798405D01*
X113739179Y-119802714D01*
X113797883Y-119804580D01*
X113864373Y-119804053D01*
X113940926Y-119801182D01*
X113979008Y-119799153D01*
X114012096Y-119797461D01*
X114040019Y-119796416D01*
X114060145Y-119796090D01*
X114069844Y-119796553D01*
X114070276Y-119796722D01*
X114069572Y-119801778D01*
X114059578Y-119807114D01*
X114044410Y-119811041D01*
X114032938Y-119812046D01*
X114014916Y-119813834D01*
X113990332Y-119818326D01*
X113972713Y-119822472D01*
X113939344Y-119828889D01*
X113895493Y-119833978D01*
X113844166Y-119837689D01*
X113788370Y-119839974D01*
X113731113Y-119840783D01*
X113675401Y-119840068D01*
X113624242Y-119837780D01*
X113580641Y-119833869D01*
X113552174Y-119829319D01*
X113531848Y-119824997D01*
X113548829Y-119834863D01*
X113573509Y-119844288D01*
X113610540Y-119851459D01*
X113658916Y-119856385D01*
X113717629Y-119859074D01*
X113785670Y-119859536D01*
X113862032Y-119857779D01*
X113945708Y-119853813D01*
X114035688Y-119847646D01*
X114130967Y-119839287D01*
X114229688Y-119828842D01*
X114362351Y-119809873D01*
X114486798Y-119784016D01*
X114606964Y-119750384D01*
X114666684Y-119730370D01*
X114700666Y-119718411D01*
X114743127Y-119703532D01*
X114789742Y-119687245D01*
X114836183Y-119671063D01*
X114859776Y-119662863D01*
X114940175Y-119634736D01*
X115009527Y-119609956D01*
X115069701Y-119587776D01*
X115122566Y-119567448D01*
X115169992Y-119548224D01*
X115213849Y-119529358D01*
X115256006Y-119510102D01*
X115298332Y-119489709D01*
X115320485Y-119478680D01*
X115357611Y-119460785D01*
X115398411Y-119442329D01*
X115437068Y-119425893D01*
X115459376Y-119417106D01*
X115490024Y-119405497D01*
X115518889Y-119394354D01*
X115541649Y-119385353D01*
X115549738Y-119382034D01*
X115569070Y-119375558D01*
X115581116Y-119376332D01*
X115584983Y-119378762D01*
X115588177Y-119381441D01*
X115591463Y-119383413D01*
X115595841Y-119384253D01*
X115602310Y-119383535D01*
X115611869Y-119380833D01*
X115625518Y-119375720D01*
X115644256Y-119367769D01*
X115669082Y-119356555D01*
X115700997Y-119341652D01*
X115740998Y-119322633D01*
X115790086Y-119299072D01*
X115849260Y-119270542D01*
X115919519Y-119236618D01*
X115929214Y-119231936D01*
X115980901Y-119207011D01*
X116028660Y-119184043D01*
X116071138Y-119163676D01*
X116106984Y-119146557D01*
X116134849Y-119133329D01*
X116153382Y-119124638D01*
X116161230Y-119121128D01*
X116161390Y-119121086D01*
X116163375Y-119126847D01*
X116163865Y-119136330D01*
X116162204Y-119142494D01*
X116156327Y-119149441D01*
X116144739Y-119158125D01*
X116125945Y-119169499D01*
X116098451Y-119184518D01*
X116060762Y-119204136D01*
X116045078Y-119212167D01*
X116008837Y-119231099D01*
X115977351Y-119248362D01*
X115952401Y-119262912D01*
X115935769Y-119273705D01*
X115929237Y-119279694D01*
X115929238Y-119280112D01*
X115924343Y-119285260D01*
X115909061Y-119295522D01*
X115885095Y-119309891D01*
X115854148Y-119327359D01*
X115817922Y-119346919D01*
X115803304Y-119354598D01*
X115762327Y-119376128D01*
X115722900Y-119397145D01*
X115687527Y-119416291D01*
X115658711Y-119432207D01*
X115638956Y-119443538D01*
X115636408Y-119445076D01*
X115621841Y-119453175D01*
X115597150Y-119466013D01*
X115564463Y-119482553D01*
X115525913Y-119501756D01*
X115483629Y-119522581D01*
X115439742Y-119543991D01*
X115396384Y-119564947D01*
X115355683Y-119584408D01*
X115319772Y-119601337D01*
X115290781Y-119614693D01*
X115270841Y-119623439D01*
X115269672Y-119623920D01*
X115259782Y-119629675D01*
X115260005Y-119633581D01*
X115268592Y-119631890D01*
X115286778Y-119625287D01*
X115311981Y-119614798D01*
X115341618Y-119601445D01*
X115344694Y-119600007D01*
X115376230Y-119585577D01*
X115405120Y-119573014D01*
X115428199Y-119563655D01*
X115442297Y-119558835D01*
X115442438Y-119558801D01*
X115467471Y-119551245D01*
X115499336Y-119539540D01*
X115532842Y-119525780D01*
X115562796Y-119512059D01*
X115577941Y-119504132D01*
X115596253Y-119494875D01*
X115622866Y-119482837D01*
X115653386Y-119469967D01*
X115669405Y-119463568D01*
X115691118Y-119454455D01*
X115722977Y-119440225D01*
X115763000Y-119421806D01*
X115809204Y-119400125D01*
X115859607Y-119376109D01*
X115912228Y-119350686D01*
X115946471Y-119333949D01*
X115996079Y-119309618D01*
X116041721Y-119287296D01*
X116081999Y-119267660D01*
X116115517Y-119251388D01*
X116140879Y-119239160D01*
X116156688Y-119231652D01*
X116161582Y-119229488D01*
X116163626Y-119235115D01*
X116163985Y-119241344D01*
X116158876Y-119249638D01*
X116143095Y-119261676D01*
X116115949Y-119277929D01*
X116087764Y-119293142D01*
X116028364Y-119324569D01*
X115978052Y-119351810D01*
X115937424Y-119374522D01*
X115907077Y-119392363D01*
X115887607Y-119404991D01*
X115879610Y-119412063D01*
X115879434Y-119412688D01*
X115884736Y-119414115D01*
X115897962Y-119409989D01*
X115903062Y-119407705D01*
X115919258Y-119401567D01*
X115930006Y-119400376D01*
X115931292Y-119401040D01*
X115933262Y-119402722D01*
X115934228Y-119404300D01*
X115932831Y-119406626D01*
X115927714Y-119410554D01*
X115917517Y-119416937D01*
X115900882Y-119426628D01*
X115876452Y-119440479D01*
X115842867Y-119459345D01*
X115801581Y-119482499D01*
X115764915Y-119503397D01*
X115733523Y-119521918D01*
X115708885Y-119537138D01*
X115692477Y-119548129D01*
X115685778Y-119553966D01*
X115686404Y-119554666D01*
X115699464Y-119550981D01*
X115718208Y-119541577D01*
X115730381Y-119533969D01*
X115759412Y-119515375D01*
X115786837Y-119499743D01*
X115810481Y-119488099D01*
X115828167Y-119481472D01*
X115837719Y-119480887D01*
X115838784Y-119482814D01*
X115833373Y-119491592D01*
X115819601Y-119503160D01*
X115809989Y-119509369D01*
X115790104Y-119522627D01*
X115765601Y-119541133D01*
X115741769Y-119560891D01*
X115741670Y-119560978D01*
X115718063Y-119580280D01*
X115693865Y-119597816D01*
X115674238Y-119609849D01*
X115673918Y-119610012D01*
X115655968Y-119619872D01*
X115630643Y-119634709D01*
X115601950Y-119652149D01*
X115584716Y-119662916D01*
X115519848Y-119703068D01*
X115457578Y-119739684D01*
X115395416Y-119774043D01*
X115330873Y-119807426D01*
X115261459Y-119841111D01*
X115184685Y-119876377D01*
X115098062Y-119914504D01*
X115079968Y-119922314D01*
X114975866Y-119966754D01*
X114882308Y-120005775D01*
X114797647Y-120039874D01*
X114720236Y-120069544D01*
X114648426Y-120095280D01*
X114580569Y-120117577D01*
X114515020Y-120136931D01*
X114450129Y-120153835D01*
X114384248Y-120168785D01*
X114315732Y-120182276D01*
X114242931Y-120194802D01*
X114164198Y-120206859D01*
X114104348Y-120215328D01*
X114069876Y-120220247D01*
X114035889Y-120225380D01*
X114007455Y-120229951D01*
X113995946Y-120231958D01*
X113974807Y-120235329D01*
X113944165Y-120239575D01*
X113907993Y-120244172D01*
X113870264Y-120248596D01*
X113867218Y-120248935D01*
X113829541Y-120253288D01*
X113793093Y-120257801D01*
X113761847Y-120261962D01*
X113739777Y-120265261D01*
X113738490Y-120265479D01*
X113717289Y-120268252D01*
X113686548Y-120271170D01*
X113650270Y-120273899D01*
X113612457Y-120276103D01*
X113609763Y-120276234D01*
X113573659Y-120278286D01*
X113540417Y-120280771D01*
X113513433Y-120283397D01*
X113496101Y-120285868D01*
X113494585Y-120286198D01*
X113481418Y-120289502D01*
X113478958Y-120291242D01*
X113488219Y-120292038D01*
X113504748Y-120292412D01*
X113523604Y-120291969D01*
X113552541Y-120290338D01*
X113588165Y-120287751D01*
X113627081Y-120284439D01*
X113643070Y-120282939D01*
X113686282Y-120278968D01*
X113717448Y-120276659D01*
X113737971Y-120276019D01*
X113749255Y-120277055D01*
X113752703Y-120279774D01*
X113750468Y-120283466D01*
X113741828Y-120286064D01*
X113721713Y-120289299D01*
X113692171Y-120292989D01*
X113655250Y-120296948D01*
X113613001Y-120300994D01*
X113567472Y-120304942D01*
X113520712Y-120308610D01*
X113474771Y-120311812D01*
X113431698Y-120314366D01*
X113393542Y-120316088D01*
X113382795Y-120316431D01*
X113341816Y-120317401D01*
X113308294Y-120317572D01*
X113278766Y-120316681D01*
X113249764Y-120314461D01*
X113217825Y-120310647D01*
X113179482Y-120304974D01*
X113131270Y-120297176D01*
X113131221Y-120297168D01*
X113070763Y-120287062D01*
X113021168Y-120278330D01*
X112979895Y-120270362D01*
X112944403Y-120262547D01*
X112912151Y-120254273D01*
X112880599Y-120244930D01*
X112847204Y-120233906D01*
X112809426Y-120220591D01*
X112802644Y-120218149D01*
X112732731Y-120192091D01*
X112673729Y-120167837D01*
X112623409Y-120143888D01*
X112579541Y-120118740D01*
X112539897Y-120090893D01*
X112502247Y-120058843D01*
X112464361Y-120021091D01*
X112424011Y-119976133D01*
X112398233Y-119945725D01*
X112358735Y-119895397D01*
X112434716Y-119895397D01*
X112434927Y-119896839D01*
X112449045Y-119922707D01*
X112474242Y-119952687D01*
X112509258Y-119985298D01*
X112512970Y-119988413D01*
X112532569Y-120004366D01*
X112547996Y-120016254D01*
X112556481Y-120021963D01*
X112557149Y-120022179D01*
X112555475Y-120017501D01*
X112547206Y-120005567D01*
X112540375Y-119996772D01*
X112524693Y-119978424D01*
X112505960Y-119958286D01*
X112486123Y-119938206D01*
X112467131Y-119920030D01*
X112450934Y-119905605D01*
X112439479Y-119896779D01*
X112434716Y-119895397D01*
X112358735Y-119895397D01*
X112344323Y-119877033D01*
X112301033Y-119811953D01*
X112295760Y-119801987D01*
X112410563Y-119801987D01*
X112413950Y-119805375D01*
X112417338Y-119801987D01*
X112413950Y-119798600D01*
X112410563Y-119801987D01*
X112295760Y-119801987D01*
X112267038Y-119747698D01*
X112241013Y-119681483D01*
X112221634Y-119610520D01*
X112210331Y-119550413D01*
X112206084Y-119515735D01*
X112202650Y-119472300D01*
X112200422Y-119429703D01*
X112277101Y-119429703D01*
X112278489Y-119457255D01*
X112278639Y-119459267D01*
X112292021Y-119549024D01*
X112318272Y-119634598D01*
X112335823Y-119675017D01*
X112349516Y-119702288D01*
X112363651Y-119728162D01*
X112377275Y-119751275D01*
X112389434Y-119770263D01*
X112399174Y-119783761D01*
X112405541Y-119790404D01*
X112407581Y-119788829D01*
X112404340Y-119777669D01*
X112399729Y-119766418D01*
X112389408Y-119740729D01*
X112376316Y-119705363D01*
X112361573Y-119663623D01*
X112346296Y-119618812D01*
X112331606Y-119574234D01*
X112318620Y-119533191D01*
X112308457Y-119498987D01*
X112305485Y-119488157D01*
X112294909Y-119450100D01*
X112286840Y-119425287D01*
X112281220Y-119413658D01*
X112277993Y-119415150D01*
X112277101Y-119429703D01*
X112200422Y-119429703D01*
X112200053Y-119422642D01*
X112198316Y-119369300D01*
X112197462Y-119314810D01*
X112197515Y-119261708D01*
X112198499Y-119212532D01*
X112200438Y-119169818D01*
X112203354Y-119136102D01*
X112206319Y-119117698D01*
X112218608Y-119069748D01*
X112234224Y-119018539D01*
X112251619Y-118968612D01*
X112269245Y-118924509D01*
X112280204Y-118900894D01*
X112294673Y-118870774D01*
X112307752Y-118841136D01*
X112318598Y-118814229D01*
X112326367Y-118792300D01*
X112330213Y-118777599D01*
X112329293Y-118772373D01*
X112328314Y-118772751D01*
X112323405Y-118772086D01*
X112325239Y-118760100D01*
X112332605Y-118739984D01*
X112333374Y-118730254D01*
X112326598Y-118728127D01*
X112317110Y-118725972D01*
X112315711Y-118723909D01*
X112319651Y-118717965D01*
X112336036Y-118717965D01*
X112339424Y-118721352D01*
X112342811Y-118717965D01*
X112339424Y-118714577D01*
X112336036Y-118717965D01*
X112319651Y-118717965D01*
X112320036Y-118717384D01*
X112331583Y-118703584D01*
X112348207Y-118685029D01*
X112355740Y-118676900D01*
X112378596Y-118651329D01*
X112404868Y-118620211D01*
X112430018Y-118588967D01*
X112438002Y-118578630D01*
X112461239Y-118549841D01*
X112490072Y-118516649D01*
X112520203Y-118483904D01*
X112538879Y-118464729D01*
X112564194Y-118438969D01*
X112588137Y-118413648D01*
X112607793Y-118391903D01*
X112619100Y-118378385D01*
X112640676Y-118350462D01*
X112490050Y-118346849D01*
X112408372Y-118343814D01*
X112337507Y-118338590D01*
X112274825Y-118330671D01*
X112217693Y-118319550D01*
X112163480Y-118304722D01*
X112109555Y-118285681D01*
X112056789Y-118263493D01*
X112008291Y-118241576D01*
X111969990Y-118223456D01*
X111939630Y-118207586D01*
X111914955Y-118192421D01*
X111893710Y-118176414D01*
X111873640Y-118158019D01*
X111852489Y-118135688D01*
X111828001Y-118107876D01*
X111825352Y-118104815D01*
X111765510Y-118030724D01*
X111717451Y-117959927D01*
X111680383Y-117890667D01*
X111653513Y-117821191D01*
X111636049Y-117749741D01*
X111627200Y-117674564D01*
X111626641Y-117664430D01*
X111625869Y-117596444D01*
X111630566Y-117529600D01*
X111641203Y-117462220D01*
X111658252Y-117392623D01*
X111682184Y-117319132D01*
X111713472Y-117240065D01*
X111752588Y-117153745D01*
X111793022Y-117072085D01*
X111846127Y-116974693D01*
X111902965Y-116883795D01*
X111965577Y-116796596D01*
X112036007Y-116710298D01*
X112116295Y-116622107D01*
X112138722Y-116598846D01*
X112278652Y-116462693D01*
X112429797Y-116329609D01*
X112589884Y-116201404D01*
X112756636Y-116079890D01*
X112927779Y-115966878D01*
X112949765Y-115953193D01*
X112973370Y-115939080D01*
X113006829Y-115919741D01*
X113048045Y-115896337D01*
X113094923Y-115870029D01*
X113145366Y-115841979D01*
X113197278Y-115813347D01*
X113248562Y-115785296D01*
X113297122Y-115758985D01*
X113340861Y-115735576D01*
X113376020Y-115717093D01*
X113385002Y-115712857D01*
X113394863Y-115709529D01*
X113407348Y-115706975D01*
X113424203Y-115705060D01*
X113447171Y-115703650D01*
X113477997Y-115702610D01*
X113518427Y-115701806D01*
X113570203Y-115701103D01*
X113585900Y-115700919D01*
X113633869Y-115700478D01*
X113676895Y-115700299D01*
X113713273Y-115700371D01*
G37*
D14*
X108650000Y-153350000D02*
X110550000Y-153350000D01*
X108650000Y-155250000D02*
X108650000Y-153350000D01*
X110550000Y-153350000D02*
X110550000Y-155250000D01*
X110550000Y-155250000D02*
X108650000Y-155250000D01*
X146540000Y-149287836D02*
X146540000Y-149072164D01*
X147260000Y-149287836D02*
X147260000Y-149072164D01*
X104900000Y-144350000D02*
X104900000Y-149850000D01*
X104900000Y-144350000D02*
X111900000Y-144350000D01*
X104900000Y-149850000D02*
X111450000Y-149850000D01*
X105700000Y-148000000D02*
X105700000Y-146200000D01*
X111100000Y-148000000D02*
X111100000Y-146200000D01*
X111450000Y-149850000D02*
X111900000Y-149400000D01*
X111900000Y-149400000D02*
X111900000Y-144350000D01*
X147850000Y-151800000D02*
X147850000Y-153050000D01*
X147850000Y-153050000D02*
X149100000Y-153050000D01*
X150400000Y-142650000D02*
X150400000Y-143400000D01*
X150400000Y-143400000D02*
X153350000Y-143400000D01*
X150400000Y-152000000D02*
X153350000Y-152000000D01*
X150400000Y-152750000D02*
X150400000Y-152000000D01*
X153350000Y-143400000D02*
X153350000Y-147700000D01*
X153350000Y-152000000D02*
X153350000Y-147700000D01*
X148140000Y-152760000D02*
X154110000Y-152760000D01*
X154110000Y-142640000D01*
X148140000Y-142640000D01*
X148140000Y-152760000D01*
X148150000Y-144450000D02*
X148900000Y-144450000D01*
X148900000Y-142650000D01*
X148150000Y-142650000D01*
X148150000Y-144450000D01*
X148150000Y-149450000D02*
X148900000Y-149450000D01*
X148900000Y-145950000D01*
X148150000Y-145950000D01*
X148150000Y-149450000D01*
X148150000Y-152750000D02*
X148900000Y-152750000D01*
X148900000Y-150950000D01*
X148150000Y-150950000D01*
X148150000Y-152750000D01*
D16*
X121900000Y-146130000D02*
X122580000Y-146130000D01*
X121900000Y-152730000D02*
X121900000Y-146130000D01*
X122580000Y-152730000D02*
X121900000Y-152730000D01*
X127820000Y-146130000D02*
X128500000Y-146130000D01*
X128500000Y-146130000D02*
X128500000Y-152730000D01*
X128500000Y-152730000D02*
X127820000Y-152730000D01*
D17*
G36*
X139635253Y-128566489D02*
G01*
X139635253Y-128621335D01*
X139525560Y-128621335D01*
X139415867Y-128621335D01*
X139415867Y-128685175D01*
X139415867Y-128749016D01*
X139517942Y-128750686D01*
X139620017Y-128752357D01*
X139620017Y-128804157D01*
X139620017Y-128855956D01*
X139517942Y-128857627D01*
X139415867Y-128859298D01*
X139415867Y-128935326D01*
X139415867Y-129011354D01*
X139525560Y-129011354D01*
X139635253Y-129011354D01*
X139635253Y-129066201D01*
X139635253Y-129121047D01*
X139458525Y-129121047D01*
X139281798Y-129121047D01*
X139281798Y-128816345D01*
X139281798Y-128511642D01*
X139458525Y-128511642D01*
X139635253Y-128511642D01*
X139635253Y-128566489D01*
G37*
G36*
X140805310Y-128566489D02*
G01*
X140805310Y-128621335D01*
X140695617Y-128621335D01*
X140585924Y-128621335D01*
X140585924Y-128685175D01*
X140585924Y-128749016D01*
X140688000Y-128750686D01*
X140790075Y-128752357D01*
X140790075Y-128804157D01*
X140790075Y-128855956D01*
X140688000Y-128857627D01*
X140585924Y-128859298D01*
X140585924Y-128935326D01*
X140585924Y-129011354D01*
X140695617Y-129011354D01*
X140805310Y-129011354D01*
X140805310Y-129066201D01*
X140805310Y-129121047D01*
X140628583Y-129121047D01*
X140451855Y-129121047D01*
X140451855Y-128816345D01*
X140451855Y-128511642D01*
X140628583Y-128511642D01*
X140805310Y-128511642D01*
X140805310Y-128566489D01*
G37*
G36*
X142449417Y-128564965D02*
G01*
X142447657Y-128618288D01*
X142336440Y-128619949D01*
X142225224Y-128621610D01*
X142225224Y-128685460D01*
X142225224Y-128749310D01*
X142328823Y-128749310D01*
X142432422Y-128749310D01*
X142432422Y-128804157D01*
X142432422Y-128859003D01*
X142328823Y-128859003D01*
X142225224Y-128859003D01*
X142225224Y-128935041D01*
X142225224Y-129011080D01*
X142336440Y-129012740D01*
X142447657Y-129014401D01*
X142449417Y-129067724D01*
X142451178Y-129121047D01*
X142274213Y-129121047D01*
X142097249Y-129121047D01*
X142097249Y-128816345D01*
X142097249Y-128511642D01*
X142274213Y-128511642D01*
X142451178Y-128511642D01*
X142449417Y-128564965D01*
G37*
G36*
X141217024Y-128720364D02*
G01*
X141244003Y-128766952D01*
X141269400Y-128810781D01*
X141292489Y-128850603D01*
X141312548Y-128885168D01*
X141328852Y-128913230D01*
X141340676Y-128933540D01*
X141347296Y-128944851D01*
X141348035Y-128946097D01*
X141350658Y-128949912D01*
X141352759Y-128950975D01*
X141354373Y-128948234D01*
X141355537Y-128940632D01*
X141356287Y-128927115D01*
X141356658Y-128906628D01*
X141356686Y-128878117D01*
X141356407Y-128840527D01*
X141355856Y-128792803D01*
X141355118Y-128737376D01*
X141352020Y-128511642D01*
X141413838Y-128511642D01*
X141475656Y-128511642D01*
X141475656Y-128816345D01*
X141475656Y-129121047D01*
X141391727Y-129121047D01*
X141307798Y-129121047D01*
X141273384Y-129061630D01*
X141261523Y-129041109D01*
X141244696Y-129011931D01*
X141224004Y-128976010D01*
X141200549Y-128935260D01*
X141175433Y-128891594D01*
X141149757Y-128846927D01*
X141142049Y-128833511D01*
X141045129Y-128664810D01*
X141047913Y-128892928D01*
X141050697Y-129121047D01*
X140991991Y-129121047D01*
X140933285Y-129121047D01*
X140933285Y-128816345D01*
X140933285Y-128511642D01*
X141014740Y-128511642D01*
X141096194Y-128511642D01*
X141217024Y-128720364D01*
G37*
G36*
X138856738Y-128512907D02*
G01*
X138902091Y-128513829D01*
X138937205Y-128514877D01*
X138964030Y-128516229D01*
X138984514Y-128518064D01*
X139000609Y-128520563D01*
X139014262Y-128523905D01*
X139027423Y-128528268D01*
X139028691Y-128528732D01*
X139070881Y-128549070D01*
X139102686Y-128575548D01*
X139124638Y-128608890D01*
X139137272Y-128649821D01*
X139140741Y-128680857D01*
X139137884Y-128728565D01*
X139124319Y-128770573D01*
X139100199Y-128806586D01*
X139065677Y-128836310D01*
X139057252Y-128841646D01*
X139043088Y-128850220D01*
X139034123Y-128855761D01*
X139032889Y-128856575D01*
X139035601Y-128861811D01*
X139044322Y-128875768D01*
X139058173Y-128897107D01*
X139076279Y-128924491D01*
X139097762Y-128956582D01*
X139120077Y-128989586D01*
X139209364Y-129121047D01*
X139136386Y-129121047D01*
X139063408Y-129121047D01*
X138991853Y-129005260D01*
X138920299Y-128889473D01*
X138884709Y-128889473D01*
X138849120Y-128889473D01*
X138849120Y-129005260D01*
X138849120Y-129121047D01*
X138785133Y-129121047D01*
X138721145Y-129121047D01*
X138721145Y-128815757D01*
X138721145Y-128779781D01*
X138849120Y-128779781D01*
X138890255Y-128779747D01*
X138915311Y-128778812D01*
X138938793Y-128776419D01*
X138953046Y-128773696D01*
X138980357Y-128760452D01*
X138999571Y-128739441D01*
X139009486Y-128712948D01*
X139008901Y-128683258D01*
X139006100Y-128672850D01*
X138997082Y-128652984D01*
X138984149Y-128639057D01*
X138965189Y-128629994D01*
X138938090Y-128624721D01*
X138906940Y-128622410D01*
X138849120Y-128619881D01*
X138849120Y-128699831D01*
X138849120Y-128779781D01*
X138721145Y-128779781D01*
X138721145Y-128699831D01*
X138721145Y-128510467D01*
X138856738Y-128512907D01*
G37*
G36*
X142846106Y-128507201D02*
G01*
X142861198Y-128509109D01*
X142868654Y-128512335D01*
X142869246Y-128512990D01*
X142872368Y-128520116D01*
X142879096Y-128537631D01*
X142889024Y-128564417D01*
X142901748Y-128599355D01*
X142916863Y-128641324D01*
X142933965Y-128689207D01*
X142952649Y-128741883D01*
X142972511Y-128798232D01*
X142977801Y-128813298D01*
X142997830Y-128870389D01*
X143016672Y-128924093D01*
X143033934Y-128973294D01*
X143049224Y-129016873D01*
X143062151Y-129053715D01*
X143072322Y-129082700D01*
X143079345Y-129102713D01*
X143082828Y-129112636D01*
X143083107Y-129113430D01*
X143081354Y-129116860D01*
X143072267Y-129119159D01*
X143054379Y-129120490D01*
X143026223Y-129121020D01*
X143015528Y-129121047D01*
X142945268Y-129121047D01*
X142926150Y-129058583D01*
X142917953Y-129031749D01*
X142910870Y-129008476D01*
X142905804Y-128991726D01*
X142903894Y-128985319D01*
X142901897Y-128981485D01*
X142897351Y-128978729D01*
X142888573Y-128976915D01*
X142873881Y-128975908D01*
X142851591Y-128975573D01*
X142820022Y-128975774D01*
X142790335Y-128976178D01*
X142679913Y-128977837D01*
X142658462Y-129049442D01*
X142637010Y-129121047D01*
X142566147Y-129121047D01*
X142495283Y-129121047D01*
X142585298Y-128865097D01*
X142714505Y-128865097D01*
X142791875Y-128865097D01*
X142869246Y-128865097D01*
X142831563Y-128743156D01*
X142820216Y-128706691D01*
X142810000Y-128674345D01*
X142801481Y-128647869D01*
X142795225Y-128629015D01*
X142791797Y-128619533D01*
X142791402Y-128618776D01*
X142789014Y-128623599D01*
X142783733Y-128638463D01*
X142776095Y-128661716D01*
X142766641Y-128691704D01*
X142755906Y-128726773D01*
X142751714Y-128740718D01*
X142714505Y-128865097D01*
X142585298Y-128865097D01*
X142602980Y-128814821D01*
X142710677Y-128508595D01*
X142786996Y-128506896D01*
X142821873Y-128506501D01*
X142846106Y-128507201D01*
G37*
G36*
X141845777Y-128505730D02*
G01*
X141867745Y-128509512D01*
X141893887Y-128515484D01*
X141921118Y-128522754D01*
X141946352Y-128530431D01*
X141966505Y-128537621D01*
X141978492Y-128543435D01*
X141979736Y-128544449D01*
X141978706Y-128550666D01*
X141974164Y-128564924D01*
X141967322Y-128584029D01*
X141959396Y-128604790D01*
X141951600Y-128624013D01*
X141945149Y-128638505D01*
X141941572Y-128644783D01*
X141935330Y-128643960D01*
X141921101Y-128639667D01*
X141905930Y-128634288D01*
X141859512Y-128619827D01*
X141818587Y-128612901D01*
X141784018Y-128613330D01*
X141756666Y-128620936D01*
X141737395Y-128635538D01*
X141727067Y-128656959D01*
X141725512Y-128671704D01*
X141727181Y-128688337D01*
X141733195Y-128702653D01*
X141745058Y-128716083D01*
X141764278Y-128730057D01*
X141792360Y-128746005D01*
X141816922Y-128758527D01*
X141868439Y-128785867D01*
X141909061Y-128811730D01*
X141939797Y-128837257D01*
X141961658Y-128863587D01*
X141975651Y-128891858D01*
X141982786Y-128923210D01*
X141984240Y-128947367D01*
X141981137Y-128989930D01*
X141970457Y-129024951D01*
X141951038Y-129055250D01*
X141931570Y-129075210D01*
X141895035Y-129100209D01*
X141849980Y-129117797D01*
X141797789Y-129127660D01*
X141739847Y-129129490D01*
X141702676Y-129126576D01*
X141674013Y-129121718D01*
X141644161Y-129114346D01*
X141623454Y-129107482D01*
X141588396Y-129093586D01*
X141586642Y-129033417D01*
X141586010Y-129005978D01*
X141586268Y-128988647D01*
X141587750Y-128979359D01*
X141590789Y-128976048D01*
X141595717Y-128976648D01*
X141595783Y-128976669D01*
X141606124Y-128980147D01*
X141624739Y-128986613D01*
X141648423Y-128994949D01*
X141661148Y-128999463D01*
X141704318Y-129012058D01*
X141745755Y-129018999D01*
X141783003Y-129020133D01*
X141813608Y-129015304D01*
X141827079Y-129009858D01*
X141846436Y-128993248D01*
X141855692Y-128971242D01*
X141854159Y-128946186D01*
X141849401Y-128933791D01*
X141843686Y-128924177D01*
X141835549Y-128915250D01*
X141823154Y-128905711D01*
X141804664Y-128894261D01*
X141778242Y-128879602D01*
X141756125Y-128867833D01*
X141706257Y-128839843D01*
X141667133Y-128813672D01*
X141637705Y-128788069D01*
X141616922Y-128761778D01*
X141603735Y-128733546D01*
X141597094Y-128702120D01*
X141595777Y-128676324D01*
X141601125Y-128630850D01*
X141616572Y-128591410D01*
X141641345Y-128558532D01*
X141674669Y-128532744D01*
X141715770Y-128514574D01*
X141763874Y-128504551D01*
X141818206Y-128503203D01*
X141845777Y-128505730D01*
G37*
G36*
X139974518Y-128504960D02*
G01*
X139980998Y-128505730D01*
X140003305Y-128509569D01*
X140029683Y-128515609D01*
X140057046Y-128522954D01*
X140082308Y-128530706D01*
X140102385Y-128537970D01*
X140114190Y-128543850D01*
X140115239Y-128544732D01*
X140114566Y-128551321D01*
X140110281Y-128565839D01*
X140103589Y-128585021D01*
X140095699Y-128605599D01*
X140087816Y-128624309D01*
X140081149Y-128637885D01*
X140080239Y-128639422D01*
X140074830Y-128642991D01*
X140064024Y-128641891D01*
X140045209Y-128635796D01*
X140042180Y-128634673D01*
X139993929Y-128619844D01*
X139951363Y-128613366D01*
X139915386Y-128615242D01*
X139886902Y-128625476D01*
X139875379Y-128634077D01*
X139863689Y-128652719D01*
X139860775Y-128675652D01*
X139866787Y-128698556D01*
X139872827Y-128708196D01*
X139882488Y-128716454D01*
X139900769Y-128728640D01*
X139925345Y-128743324D01*
X139953890Y-128759075D01*
X139964756Y-128764764D01*
X140011636Y-128790365D01*
X140048118Y-128813742D01*
X140075510Y-128836055D01*
X140095125Y-128858459D01*
X140108272Y-128882112D01*
X140113138Y-128895793D01*
X140122032Y-128943243D01*
X140119914Y-128986674D01*
X140107473Y-129025485D01*
X140085396Y-129059074D01*
X140054372Y-129086840D01*
X140015088Y-129108182D01*
X139968232Y-129122499D01*
X139914493Y-129129190D01*
X139854557Y-129127654D01*
X139848544Y-129127056D01*
X139803905Y-129120218D01*
X139764778Y-129110069D01*
X139737328Y-129098923D01*
X139729586Y-129094452D01*
X139724693Y-129088991D01*
X139721996Y-129079924D01*
X139720840Y-129064634D01*
X139720574Y-129040505D01*
X139720569Y-129031816D01*
X139720768Y-129004796D01*
X139721633Y-128987875D01*
X139723566Y-128978971D01*
X139726970Y-128975998D01*
X139731234Y-128976552D01*
X139741979Y-128980094D01*
X139760423Y-128986484D01*
X139782806Y-128994416D01*
X139785550Y-128995399D01*
X139841288Y-129012245D01*
X139889553Y-129020145D01*
X139930125Y-129019095D01*
X139962781Y-129009091D01*
X139977466Y-128999625D01*
X139987165Y-128988455D01*
X139991256Y-128972937D01*
X139991755Y-128960584D01*
X139990699Y-128945227D01*
X139986595Y-128932119D01*
X139978034Y-128919964D01*
X139963610Y-128907469D01*
X139941915Y-128893337D01*
X139911542Y-128876275D01*
X139884694Y-128862066D01*
X139835452Y-128834393D01*
X139797137Y-128807970D01*
X139768765Y-128781464D01*
X139749352Y-128753543D01*
X139737913Y-128722874D01*
X139733464Y-128688125D01*
X139734145Y-128658279D01*
X139742672Y-128614860D01*
X139761093Y-128577817D01*
X139788632Y-128547627D01*
X139824518Y-128524768D01*
X139867977Y-128509719D01*
X139918234Y-128502957D01*
X139974518Y-128504960D01*
G37*
G36*
X138440040Y-128540589D02*
G01*
X138447642Y-128561511D01*
X138458084Y-128590631D01*
X138470900Y-128626622D01*
X138485624Y-128668158D01*
X138501792Y-128713913D01*
X138518938Y-128762560D01*
X138536597Y-128812772D01*
X138554304Y-128863223D01*
X138571594Y-128912587D01*
X138588002Y-128959537D01*
X138603063Y-129002747D01*
X138616310Y-129040890D01*
X138627280Y-129072639D01*
X138635507Y-129096669D01*
X138640526Y-129111653D01*
X138641922Y-129116280D01*
X138636233Y-129118171D01*
X138620783Y-129119707D01*
X138597996Y-129120721D01*
X138572972Y-129121047D01*
X138504022Y-129121047D01*
X138481427Y-129047919D01*
X138458833Y-128974790D01*
X138349536Y-128974790D01*
X138240239Y-128974790D01*
X138221292Y-129037254D01*
X138213171Y-129064079D01*
X138206165Y-129087322D01*
X138201164Y-129104022D01*
X138199290Y-129110383D01*
X138196624Y-129115031D01*
X138190386Y-129118112D01*
X138178460Y-129119934D01*
X138158731Y-129120809D01*
X138129082Y-129121047D01*
X138126565Y-129121047D01*
X138099060Y-129120761D01*
X138076677Y-129119981D01*
X138061828Y-129118831D01*
X138056894Y-129117537D01*
X138058840Y-129111462D01*
X138064374Y-129095196D01*
X138073039Y-129070048D01*
X138084376Y-129037326D01*
X138097928Y-128998336D01*
X138113238Y-128954387D01*
X138129849Y-128906785D01*
X138147227Y-128857053D01*
X138277262Y-128857053D01*
X138278639Y-128860893D01*
X138284392Y-128863263D01*
X138296413Y-128864516D01*
X138316597Y-128865009D01*
X138346837Y-128865097D01*
X138351453Y-128865097D01*
X138428048Y-128865097D01*
X138420029Y-128839198D01*
X138415485Y-128824472D01*
X138408190Y-128800771D01*
X138398967Y-128770773D01*
X138388639Y-128737156D01*
X138382547Y-128717317D01*
X138372533Y-128685325D01*
X138363565Y-128657862D01*
X138356302Y-128636854D01*
X138351405Y-128624227D01*
X138349723Y-128621406D01*
X138347249Y-128626920D01*
X138341976Y-128642028D01*
X138334554Y-128664635D01*
X138325632Y-128692647D01*
X138315860Y-128723967D01*
X138305889Y-128756501D01*
X138296369Y-128788153D01*
X138287949Y-128816829D01*
X138281281Y-128840432D01*
X138278366Y-128851386D01*
X138277262Y-128857053D01*
X138147227Y-128857053D01*
X138147302Y-128856839D01*
X138165139Y-128805856D01*
X138182905Y-128755142D01*
X138200141Y-128706007D01*
X138216389Y-128659756D01*
X138231192Y-128617699D01*
X138244093Y-128581141D01*
X138254633Y-128551391D01*
X138262356Y-128529757D01*
X138266804Y-128517545D01*
X138267313Y-128516213D01*
X138270346Y-128511771D01*
X138276695Y-128508750D01*
X138288388Y-128506885D01*
X138307454Y-128505913D01*
X138335921Y-128505569D01*
X138349317Y-128505548D01*
X138427145Y-128505548D01*
X138440040Y-128540589D01*
G37*
G36*
X140516968Y-127258337D02*
G01*
X140610715Y-127258527D01*
X140701801Y-127258869D01*
X140789349Y-127259356D01*
X140872477Y-127259985D01*
X140950305Y-127260748D01*
X141021955Y-127261641D01*
X141086547Y-127262657D01*
X141143200Y-127263792D01*
X141191035Y-127265039D01*
X141229172Y-127266392D01*
X141256732Y-127267848D01*
X141270947Y-127269129D01*
X141305104Y-127275411D01*
X141336158Y-127284517D01*
X141361162Y-127295379D01*
X141377171Y-127306933D01*
X141377985Y-127307867D01*
X141380071Y-127310682D01*
X141382967Y-127315277D01*
X141387087Y-127322453D01*
X141392845Y-127333009D01*
X141400656Y-127347746D01*
X141410934Y-127367465D01*
X141424091Y-127392965D01*
X141440543Y-127425047D01*
X141460704Y-127464511D01*
X141484987Y-127512157D01*
X141513807Y-127568787D01*
X141547577Y-127635199D01*
X141560958Y-127661522D01*
X141602849Y-127743940D01*
X141639551Y-127816175D01*
X141671395Y-127878908D01*
X141698716Y-127932822D01*
X141721844Y-127978600D01*
X141741113Y-128016922D01*
X141756855Y-128048472D01*
X141769403Y-128073931D01*
X141779089Y-128093982D01*
X141786245Y-128109307D01*
X141791205Y-128120587D01*
X141794300Y-128128506D01*
X141795863Y-128133745D01*
X141796226Y-128136986D01*
X141795723Y-128138912D01*
X141794685Y-128140205D01*
X141794408Y-128140482D01*
X141787142Y-128142092D01*
X141769626Y-128143880D01*
X141743796Y-128145769D01*
X141711585Y-128147681D01*
X141674930Y-128149541D01*
X141635765Y-128151269D01*
X141596025Y-128152789D01*
X141557647Y-128154024D01*
X141522564Y-128154896D01*
X141492713Y-128155329D01*
X141470028Y-128155244D01*
X141456445Y-128154566D01*
X141453882Y-128154071D01*
X141449321Y-128148087D01*
X141440423Y-128132908D01*
X141428102Y-128110339D01*
X141413266Y-128082187D01*
X141396827Y-128050257D01*
X141379697Y-128016357D01*
X141362784Y-127982290D01*
X141347001Y-127949865D01*
X141333258Y-127920886D01*
X141322465Y-127897159D01*
X141315534Y-127880491D01*
X141314588Y-127877861D01*
X141310140Y-127859441D01*
X141307062Y-127836153D01*
X141305448Y-127811266D01*
X141305394Y-127788049D01*
X141306995Y-127769770D01*
X141310347Y-127759699D01*
X141311116Y-127759027D01*
X141315314Y-127750129D01*
X141316919Y-127732299D01*
X141316274Y-127708433D01*
X141313724Y-127681428D01*
X141309612Y-127654181D01*
X141304281Y-127629589D01*
X141298075Y-127610549D01*
X141292362Y-127600887D01*
X141287007Y-127589890D01*
X141286740Y-127587221D01*
X141282353Y-127576439D01*
X141270329Y-127560072D01*
X141252373Y-127540360D01*
X141247129Y-127535145D01*
X141215810Y-127510135D01*
X141178786Y-127489041D01*
X141154195Y-127479104D01*
X141136621Y-127472396D01*
X141125000Y-127466183D01*
X141122201Y-127462976D01*
X141116704Y-127459850D01*
X141102586Y-127457831D01*
X141090207Y-127457404D01*
X141071689Y-127458683D01*
X141052581Y-127463175D01*
X141029534Y-127471916D01*
X141001116Y-127485016D01*
X140970726Y-127501450D01*
X140942625Y-127519842D01*
X140918776Y-127538581D01*
X140901143Y-127556052D01*
X140891689Y-127570643D01*
X140890627Y-127575788D01*
X140885716Y-127584984D01*
X140881486Y-127587551D01*
X140874040Y-127595796D01*
X140872345Y-127603838D01*
X140869437Y-127619723D01*
X140865525Y-127629361D01*
X140862407Y-127641122D01*
X140860037Y-127661357D01*
X140858800Y-127686357D01*
X140858706Y-127695370D01*
X140859186Y-127723008D01*
X140861354Y-127743447D01*
X140866304Y-127761659D01*
X140875130Y-127782620D01*
X140880268Y-127793467D01*
X140895299Y-127822979D01*
X140908400Y-127843890D01*
X140921753Y-127859072D01*
X140937541Y-127871400D01*
X140941370Y-127873895D01*
X140982321Y-127904615D01*
X141019909Y-127941628D01*
X141050937Y-127981509D01*
X141066217Y-128007633D01*
X141085659Y-128048034D01*
X141100622Y-128082508D01*
X141110695Y-128109922D01*
X141115463Y-128129143D01*
X141114512Y-128139038D01*
X141114287Y-128139287D01*
X141105980Y-128141613D01*
X141087545Y-128143475D01*
X141061032Y-128144879D01*
X141028492Y-128145832D01*
X140991977Y-128146338D01*
X140953536Y-128146405D01*
X140915221Y-128146037D01*
X140879082Y-128145241D01*
X140847170Y-128144022D01*
X140821536Y-128142387D01*
X140804230Y-128140341D01*
X140797720Y-128138382D01*
X140792226Y-128130950D01*
X140782200Y-128114238D01*
X140768546Y-128089875D01*
X140752163Y-128059491D01*
X140733953Y-128024717D01*
X140722713Y-128002789D01*
X140696755Y-127951851D01*
X140669916Y-127899363D01*
X140643105Y-127847091D01*
X140617232Y-127796800D01*
X140593207Y-127750257D01*
X140571940Y-127709226D01*
X140554341Y-127675473D01*
X140541319Y-127650764D01*
X140540979Y-127650125D01*
X140532696Y-127633090D01*
X140528049Y-127620539D01*
X140527722Y-127616317D01*
X140526732Y-127607580D01*
X140516589Y-127596695D01*
X140499718Y-127585315D01*
X140478547Y-127575095D01*
X140456774Y-127567991D01*
X140445139Y-127566344D01*
X140424353Y-127564931D01*
X140394004Y-127563746D01*
X140353678Y-127562781D01*
X140302960Y-127562029D01*
X140241437Y-127561484D01*
X140168695Y-127561137D01*
X140084320Y-127560981D01*
X140052988Y-127560971D01*
X139677800Y-127560971D01*
X139660832Y-127577729D01*
X139647835Y-127593148D01*
X139631226Y-127616623D01*
X139612852Y-127645314D01*
X139594560Y-127676380D01*
X139583557Y-127696563D01*
X139575140Y-127710653D01*
X139568383Y-127718695D01*
X139566832Y-127719416D01*
X139562505Y-127724289D01*
X139562124Y-127727445D01*
X139559528Y-127735257D01*
X139552313Y-127752069D01*
X139541345Y-127775997D01*
X139527485Y-127805155D01*
X139512608Y-127835615D01*
X139492846Y-127875690D01*
X139469898Y-127922405D01*
X139445887Y-127971425D01*
X139422936Y-128018418D01*
X139409035Y-128046971D01*
X139354979Y-128158187D01*
X139190222Y-128158187D01*
X139140559Y-128158116D01*
X139101742Y-128157852D01*
X139072432Y-128157317D01*
X139051288Y-128156437D01*
X139036970Y-128155133D01*
X139028136Y-128153330D01*
X139023447Y-128150951D01*
X139021775Y-128148571D01*
X139023700Y-128141241D01*
X139030740Y-128124109D01*
X139042387Y-128098185D01*
X139058131Y-128064480D01*
X139077463Y-128024003D01*
X139099873Y-127977765D01*
X139124852Y-127926777D01*
X139151890Y-127872047D01*
X139180478Y-127814588D01*
X139210108Y-127755409D01*
X139240269Y-127695520D01*
X139270452Y-127635932D01*
X139300147Y-127577654D01*
X139328847Y-127521698D01*
X139356040Y-127469073D01*
X139381217Y-127420790D01*
X139403871Y-127377858D01*
X139423490Y-127341289D01*
X139439565Y-127312093D01*
X139451588Y-127291279D01*
X139459049Y-127279858D01*
X139460620Y-127278162D01*
X139463977Y-127275840D01*
X139467959Y-127273811D01*
X139473398Y-127272046D01*
X139481121Y-127270516D01*
X139491961Y-127269190D01*
X139506745Y-127268038D01*
X139526305Y-127267032D01*
X139551471Y-127266141D01*
X139583071Y-127265335D01*
X139621936Y-127264585D01*
X139668896Y-127263861D01*
X139724781Y-127263134D01*
X139790421Y-127262372D01*
X139866645Y-127261548D01*
X139947897Y-127260697D01*
X140039128Y-127259859D01*
X140132978Y-127259206D01*
X140228566Y-127258733D01*
X140325014Y-127258434D01*
X140421441Y-127258304D01*
X140516968Y-127258337D01*
G37*
G36*
X140103515Y-124828071D02*
G01*
X140128448Y-124839098D01*
X140149589Y-124859379D01*
X140166767Y-124885751D01*
X140173040Y-124897578D01*
X140184317Y-124919482D01*
X140200178Y-124950622D01*
X140220204Y-124990161D01*
X140243973Y-125037258D01*
X140271068Y-125091076D01*
X140301067Y-125150776D01*
X140333551Y-125215517D01*
X140368101Y-125284462D01*
X140404297Y-125356772D01*
X140441719Y-125431607D01*
X140479947Y-125508129D01*
X140518561Y-125585498D01*
X140557142Y-125662876D01*
X140595270Y-125739424D01*
X140632525Y-125814303D01*
X140668488Y-125886674D01*
X140702738Y-125955698D01*
X140734857Y-126020535D01*
X140761300Y-126074022D01*
X140813381Y-126179507D01*
X140860329Y-126274654D01*
X140902426Y-126360048D01*
X140939953Y-126436272D01*
X140973190Y-126503909D01*
X141002418Y-126563543D01*
X141027917Y-126615756D01*
X141049970Y-126661132D01*
X141068855Y-126700254D01*
X141084856Y-126733706D01*
X141098251Y-126762071D01*
X141109323Y-126785932D01*
X141118351Y-126805872D01*
X141125617Y-126822475D01*
X141131401Y-126836325D01*
X141135985Y-126848003D01*
X141139649Y-126858095D01*
X141141663Y-126864056D01*
X141148182Y-126885583D01*
X141150522Y-126899799D01*
X141148981Y-126910729D01*
X141145697Y-126918694D01*
X141134897Y-126933822D01*
X141119527Y-126947885D01*
X141117755Y-126949123D01*
X141110998Y-126953229D01*
X141103325Y-126956463D01*
X141093146Y-126958984D01*
X141078874Y-126960953D01*
X141058921Y-126962530D01*
X141031697Y-126963875D01*
X140995616Y-126965150D01*
X140949088Y-126966513D01*
X140944075Y-126966653D01*
X140914383Y-126967278D01*
X140873715Y-126967828D01*
X140823285Y-126968299D01*
X140764305Y-126968687D01*
X140697989Y-126968988D01*
X140625548Y-126969199D01*
X140548195Y-126969315D01*
X140467144Y-126969333D01*
X140383606Y-126969249D01*
X140298795Y-126969058D01*
X140241337Y-126968868D01*
X140143845Y-126968534D01*
X140057827Y-126968264D01*
X139982569Y-126967984D01*
X139917356Y-126967622D01*
X139861477Y-126967104D01*
X139814216Y-126966360D01*
X139774860Y-126965314D01*
X139742696Y-126963895D01*
X139717010Y-126962030D01*
X139697088Y-126959646D01*
X139682216Y-126956671D01*
X139671681Y-126953031D01*
X139664769Y-126948654D01*
X139660766Y-126943466D01*
X139658959Y-126937396D01*
X139658633Y-126930370D01*
X139659076Y-126922316D01*
X139659574Y-126913161D01*
X139659629Y-126909545D01*
X139661920Y-126884693D01*
X139668075Y-126852976D01*
X139677015Y-126818671D01*
X139687661Y-126786054D01*
X139695920Y-126765697D01*
X139714339Y-126725630D01*
X139729336Y-126694736D01*
X139742432Y-126671046D01*
X139755148Y-126652591D01*
X139769004Y-126637403D01*
X139785521Y-126623513D01*
X139806219Y-126608953D01*
X139827930Y-126594775D01*
X139850088Y-126579842D01*
X139868199Y-126566439D01*
X139879858Y-126556413D01*
X139882809Y-126552655D01*
X139891183Y-126543106D01*
X139896455Y-126540484D01*
X139906060Y-126532355D01*
X139916930Y-126515486D01*
X139927714Y-126493043D01*
X139937061Y-126468192D01*
X139943623Y-126444098D01*
X139946049Y-126424217D01*
X139948162Y-126412867D01*
X139952143Y-126409195D01*
X139956171Y-126403838D01*
X139958185Y-126390665D01*
X139958237Y-126387866D01*
X139956906Y-126373765D01*
X139953634Y-126366720D01*
X139952941Y-126366537D01*
X139948540Y-126361208D01*
X139944693Y-126348144D01*
X139944279Y-126345804D01*
X139940131Y-126330341D01*
X139932625Y-126310266D01*
X139923311Y-126288954D01*
X139913740Y-126269776D01*
X139905462Y-126256108D01*
X139900921Y-126251450D01*
X139893925Y-126245917D01*
X139882046Y-126234320D01*
X139873748Y-126225550D01*
X139859410Y-126212097D01*
X139846537Y-126203571D01*
X139841178Y-126201997D01*
X139831980Y-126199759D01*
X139830262Y-126197165D01*
X139824739Y-126192732D01*
X139809767Y-126186280D01*
X139787743Y-126178661D01*
X139761064Y-126170727D01*
X139741019Y-126165469D01*
X139717354Y-126163421D01*
X139686911Y-126166170D01*
X139653784Y-126173012D01*
X139622070Y-126183241D01*
X139611472Y-126187763D01*
X139591685Y-126200235D01*
X139568907Y-126219505D01*
X139546700Y-126242095D01*
X139528628Y-126264529D01*
X139521966Y-126275126D01*
X139513793Y-126289430D01*
X139507931Y-126298503D01*
X139507078Y-126299502D01*
X139503910Y-126306670D01*
X139499215Y-126321868D01*
X139495749Y-126334939D01*
X139492164Y-126354766D01*
X139490419Y-126379548D01*
X139490435Y-126411702D01*
X139492009Y-126451209D01*
X139496352Y-126535089D01*
X139423631Y-126683910D01*
X139393488Y-126745450D01*
X139360659Y-126812207D01*
X139325505Y-126883462D01*
X139288389Y-126958494D01*
X139249672Y-127036582D01*
X139209716Y-127117004D01*
X139168883Y-127199040D01*
X139127534Y-127281970D01*
X139086033Y-127365071D01*
X139044739Y-127447624D01*
X139004017Y-127528907D01*
X138964226Y-127608200D01*
X138925730Y-127684782D01*
X138888889Y-127757931D01*
X138854067Y-127826928D01*
X138821624Y-127891050D01*
X138791923Y-127949577D01*
X138765325Y-128001789D01*
X138742192Y-128046964D01*
X138722887Y-128084382D01*
X138707771Y-128113321D01*
X138697205Y-128133061D01*
X138691553Y-128142881D01*
X138690762Y-128143865D01*
X138682380Y-128145082D01*
X138663528Y-128146366D01*
X138635923Y-128147648D01*
X138601281Y-128148856D01*
X138561321Y-128149923D01*
X138521565Y-128150716D01*
X138361596Y-128153405D01*
X138361596Y-128135686D01*
X138363306Y-128120878D01*
X138366945Y-128112177D01*
X138370530Y-128105883D01*
X138379128Y-128089603D01*
X138392276Y-128064243D01*
X138409514Y-128030707D01*
X138430378Y-127989899D01*
X138454407Y-127942724D01*
X138481140Y-127890087D01*
X138510113Y-127832891D01*
X138540866Y-127772042D01*
X138558193Y-127737698D01*
X138627781Y-127599718D01*
X138696577Y-127463371D01*
X138764219Y-127329375D01*
X138830344Y-127198445D01*
X138894589Y-127071298D01*
X138956592Y-126948652D01*
X139015989Y-126831223D01*
X139072420Y-126719727D01*
X139125520Y-126614881D01*
X139174928Y-126517403D01*
X139220280Y-126428008D01*
X139261214Y-126347413D01*
X139297368Y-126276336D01*
X139325936Y-126220280D01*
X139351180Y-126170798D01*
X139380010Y-126114277D01*
X139410479Y-126054537D01*
X139440639Y-125995396D01*
X139468542Y-125940675D01*
X139481337Y-125915577D01*
X139526336Y-125827536D01*
X139567682Y-125747139D01*
X139607085Y-125671085D01*
X139646252Y-125596070D01*
X139670111Y-125550640D01*
X139691346Y-125516440D01*
X139712792Y-125494292D01*
X139734560Y-125484213D01*
X139756759Y-125486219D01*
X139779499Y-125500328D01*
X139802890Y-125526555D01*
X139827040Y-125564917D01*
X139832528Y-125575103D01*
X139841908Y-125593252D01*
X139856037Y-125620987D01*
X139874247Y-125656973D01*
X139895873Y-125699876D01*
X139920246Y-125748363D01*
X139946700Y-125801100D01*
X139974567Y-125856753D01*
X140003181Y-125913989D01*
X140031875Y-125971473D01*
X140059981Y-126027872D01*
X140086833Y-126081851D01*
X140111764Y-126132079D01*
X140134106Y-126177219D01*
X140153193Y-126215939D01*
X140162795Y-126235515D01*
X140184590Y-126280661D01*
X140201201Y-126317019D01*
X140213156Y-126346566D01*
X140220985Y-126371283D01*
X140225214Y-126393146D01*
X140226373Y-126414135D01*
X140224989Y-126436227D01*
X140222137Y-126457815D01*
X140221434Y-126495612D01*
X140228911Y-126537402D01*
X140243320Y-126579455D01*
X140263410Y-126618041D01*
X140285450Y-126646863D01*
X140298158Y-126661655D01*
X140307013Y-126674388D01*
X140308867Y-126678294D01*
X140317019Y-126689242D01*
X140322589Y-126692665D01*
X140359131Y-126704585D01*
X140400219Y-126713044D01*
X140442331Y-126717727D01*
X140481947Y-126718317D01*
X140515545Y-126714497D01*
X140528103Y-126711140D01*
X140569148Y-126691975D01*
X140606779Y-126664533D01*
X140638851Y-126631082D01*
X140663218Y-126593888D01*
X140677736Y-126555217D01*
X140678351Y-126552405D01*
X140682361Y-126528411D01*
X140684763Y-126504564D01*
X140685411Y-126484104D01*
X140684160Y-126470270D01*
X140682228Y-126466346D01*
X140678525Y-126458610D01*
X140677335Y-126447671D01*
X140674166Y-126432123D01*
X140665833Y-126410177D01*
X140654094Y-126385465D01*
X140640709Y-126361620D01*
X140627438Y-126342273D01*
X140624666Y-126338933D01*
X140611650Y-126323136D01*
X140600709Y-126308510D01*
X140599765Y-126307120D01*
X140589720Y-126296844D01*
X140581228Y-126293408D01*
X140566513Y-126288628D01*
X140547603Y-126275762D01*
X140526823Y-126257020D01*
X140506499Y-126234612D01*
X140488955Y-126210751D01*
X140482022Y-126199093D01*
X140465181Y-126167471D01*
X140443598Y-126126104D01*
X140417878Y-126076200D01*
X140388623Y-126018969D01*
X140356438Y-125955618D01*
X140321926Y-125887355D01*
X140285691Y-125815390D01*
X140248336Y-125740931D01*
X140210465Y-125665186D01*
X140172682Y-125589365D01*
X140135591Y-125514674D01*
X140099795Y-125442323D01*
X140065897Y-125373521D01*
X140034502Y-125309475D01*
X140006213Y-125251394D01*
X139981633Y-125200488D01*
X139961367Y-125157963D01*
X139952278Y-125138586D01*
X139936997Y-125105384D01*
X139926455Y-125080822D01*
X139920123Y-125062551D01*
X139917473Y-125048220D01*
X139917977Y-125035479D01*
X139921104Y-125021977D01*
X139923963Y-125012711D01*
X139933525Y-124987469D01*
X139945624Y-124961405D01*
X139950879Y-124951717D01*
X139974070Y-124911939D01*
X139992365Y-124881478D01*
X140006954Y-124859092D01*
X140019027Y-124843537D01*
X140029773Y-124833569D01*
X140040381Y-124827947D01*
X140052042Y-124825427D01*
X140065944Y-124824765D01*
X140072382Y-124824742D01*
X140103515Y-124828071D01*
G37*
G36*
X140791739Y-124550603D02*
G01*
X140840040Y-124550758D01*
X140884547Y-124551155D01*
X140923765Y-124551759D01*
X140956203Y-124552539D01*
X140980366Y-124553461D01*
X140994762Y-124554493D01*
X140998130Y-124555174D01*
X141001689Y-124562674D01*
X141006133Y-124579686D01*
X141010877Y-124603624D01*
X141015029Y-124629733D01*
X141022344Y-124681058D01*
X141028691Y-124725042D01*
X141034764Y-124766418D01*
X141041254Y-124809919D01*
X141046482Y-124844597D01*
X141050854Y-124875806D01*
X141054570Y-124906556D01*
X141057122Y-124932417D01*
X141057890Y-124943907D01*
X141060666Y-124968435D01*
X141066065Y-124983721D01*
X141073518Y-124988708D01*
X141080043Y-124985125D01*
X141091776Y-124981588D01*
X141102896Y-124983745D01*
X141117642Y-124988213D01*
X141138819Y-124994325D01*
X141155718Y-124999061D01*
X141204834Y-125013299D01*
X141242774Y-125025817D01*
X141259317Y-125032122D01*
X141276390Y-125038915D01*
X141289787Y-125044042D01*
X141303444Y-125049426D01*
X141321218Y-125056841D01*
X141324205Y-125058123D01*
X141334111Y-125062314D01*
X141341989Y-125064209D01*
X141349552Y-125062662D01*
X141358515Y-125056525D01*
X141370590Y-125044652D01*
X141387491Y-125025897D01*
X141408869Y-125001470D01*
X141428408Y-124979288D01*
X141446148Y-124959440D01*
X141459876Y-124944387D01*
X141466449Y-124937482D01*
X141479045Y-124923836D01*
X141492170Y-124908045D01*
X141492253Y-124907939D01*
X141503099Y-124894795D01*
X141520357Y-124874786D01*
X141542170Y-124850001D01*
X141566681Y-124822530D01*
X141592034Y-124794461D01*
X141616373Y-124767884D01*
X141624320Y-124759308D01*
X141639997Y-124743503D01*
X141653219Y-124732050D01*
X141661293Y-124727263D01*
X141661616Y-124727237D01*
X141669194Y-124730954D01*
X141685462Y-124741709D01*
X141709606Y-124758909D01*
X141740814Y-124781961D01*
X141778271Y-124810272D01*
X141821165Y-124843250D01*
X141827196Y-124847925D01*
X141870697Y-124881762D01*
X141905422Y-124909010D01*
X141932300Y-124930452D01*
X141952258Y-124946874D01*
X141966224Y-124959060D01*
X141975125Y-124967797D01*
X141979890Y-124973869D01*
X141981447Y-124978061D01*
X141981462Y-124978466D01*
X141978949Y-124992094D01*
X141971896Y-125014478D01*
X141961033Y-125043385D01*
X141957027Y-125053269D01*
X141953469Y-125062409D01*
X141946342Y-125081111D01*
X141936347Y-125107524D01*
X141924184Y-125139795D01*
X141910553Y-125176071D01*
X141905185Y-125190385D01*
X141890968Y-125228172D01*
X141877728Y-125263093D01*
X141866218Y-125293181D01*
X141857193Y-125316466D01*
X141851408Y-125330979D01*
X141850300Y-125333595D01*
X141842903Y-125350943D01*
X141838939Y-125364431D01*
X141839291Y-125376239D01*
X141844839Y-125388548D01*
X141856463Y-125403540D01*
X141875045Y-125423394D01*
X141894612Y-125443333D01*
X141932658Y-125482608D01*
X141963835Y-125516167D01*
X141987652Y-125543439D01*
X142003617Y-125563853D01*
X142011239Y-125576838D01*
X142011846Y-125579592D01*
X142016167Y-125585196D01*
X142025644Y-125584128D01*
X142036973Y-125581355D01*
X142057433Y-125576672D01*
X142084230Y-125570688D01*
X142114572Y-125564017D01*
X142145663Y-125557269D01*
X142174712Y-125551058D01*
X142198925Y-125545993D01*
X142209989Y-125543756D01*
X142228346Y-125539979D01*
X142253275Y-125534662D01*
X142279457Y-125528941D01*
X142280070Y-125528805D01*
X142301299Y-125524118D01*
X142319670Y-125520125D01*
X142338214Y-125516190D01*
X142359966Y-125511677D01*
X142387957Y-125505947D01*
X142420233Y-125499379D01*
X142442933Y-125494761D01*
X142461111Y-125491057D01*
X142471342Y-125488963D01*
X142472033Y-125488820D01*
X142489703Y-125488888D01*
X142500282Y-125497006D01*
X142501381Y-125499658D01*
X142504910Y-125509978D01*
X142511483Y-125528443D01*
X142519923Y-125551762D01*
X142523708Y-125562122D01*
X142533995Y-125590480D01*
X142544251Y-125619226D01*
X142552596Y-125643079D01*
X142554088Y-125647439D01*
X142560852Y-125666908D01*
X142570447Y-125693991D01*
X142581511Y-125724858D01*
X142590988Y-125751038D01*
X142601095Y-125778946D01*
X142609792Y-125803205D01*
X142616155Y-125821219D01*
X142619260Y-125830396D01*
X142619266Y-125830417D01*
X142618873Y-125835423D01*
X142614635Y-125842817D01*
X142605653Y-125853511D01*
X142591030Y-125868421D01*
X142569866Y-125888459D01*
X142541264Y-125914540D01*
X142504325Y-125947578D01*
X142502562Y-125949146D01*
X142471498Y-125976884D01*
X142441598Y-126003809D01*
X142414932Y-126028043D01*
X142393567Y-126047709D01*
X142381024Y-126059521D01*
X142371118Y-126066725D01*
X142355885Y-126075650D01*
X142352942Y-126077202D01*
X142331830Y-126089659D01*
X142312896Y-126103502D01*
X142298851Y-126116485D01*
X142292404Y-126126358D01*
X142292259Y-126127537D01*
X142297136Y-126136447D01*
X142300841Y-126138639D01*
X142306253Y-126142270D01*
X142311385Y-126149878D01*
X142316869Y-126163167D01*
X142323334Y-126183841D01*
X142331412Y-126213602D01*
X142337809Y-126238562D01*
X142347563Y-126277438D01*
X142354859Y-126307505D01*
X142360343Y-126331741D01*
X142364660Y-126353124D01*
X142368456Y-126374633D01*
X142371740Y-126395147D01*
X142376456Y-126421001D01*
X142381974Y-126437311D01*
X142390052Y-126446685D01*
X142402450Y-126451730D01*
X142411092Y-126453492D01*
X142425794Y-126456289D01*
X142448039Y-126460802D01*
X142473463Y-126466143D01*
X142478127Y-126467142D01*
X142504820Y-126472811D01*
X142530248Y-126478096D01*
X142549424Y-126481961D01*
X142551255Y-126482316D01*
X142594704Y-126490951D01*
X142636803Y-126499814D01*
X142675802Y-126508490D01*
X142709949Y-126516564D01*
X142737494Y-126523621D01*
X142756686Y-126529247D01*
X142765775Y-126533025D01*
X142765980Y-126533202D01*
X142768084Y-126541547D01*
X142769251Y-126560679D01*
X142769521Y-126589240D01*
X142768935Y-126625869D01*
X142767531Y-126669206D01*
X142765350Y-126717890D01*
X142762431Y-126770561D01*
X142758813Y-126825858D01*
X142756529Y-126857052D01*
X142754323Y-126883210D01*
X142751938Y-126899908D01*
X142748468Y-126909852D01*
X142743006Y-126915749D01*
X142735462Y-126919915D01*
X142725317Y-126923433D01*
X142705001Y-126929384D01*
X142676181Y-126937320D01*
X142640528Y-126946792D01*
X142599711Y-126957350D01*
X142555400Y-126968546D01*
X142546546Y-126970752D01*
X142501983Y-126982001D01*
X142460809Y-126992720D01*
X142424647Y-127002460D01*
X142395122Y-127010773D01*
X142373856Y-127017210D01*
X142362475Y-127021323D01*
X142361498Y-127021846D01*
X142350491Y-127035297D01*
X142341975Y-127059298D01*
X142341232Y-127062476D01*
X142336121Y-127083973D01*
X142331142Y-127102833D01*
X142328988Y-127110011D01*
X142324615Y-127124121D01*
X142318500Y-127144811D01*
X142313615Y-127161810D01*
X142306495Y-127185392D01*
X142297001Y-127214807D01*
X142286954Y-127244446D01*
X142284945Y-127250174D01*
X142276320Y-127274808D01*
X142268996Y-127296150D01*
X142264138Y-127310787D01*
X142263147Y-127313996D01*
X142257587Y-127328814D01*
X142251920Y-127340930D01*
X142247606Y-127354900D01*
X142251244Y-127367870D01*
X142263990Y-127382149D01*
X142278255Y-127393640D01*
X142292552Y-127404605D01*
X142302363Y-127412550D01*
X142304446Y-127414476D01*
X142310100Y-127419357D01*
X142323445Y-127430302D01*
X142342622Y-127445801D01*
X142365773Y-127464345D01*
X142371481Y-127468896D01*
X142446200Y-127529849D01*
X142513136Y-127587567D01*
X142520891Y-127594488D01*
X142527434Y-127600284D01*
X142532451Y-127605556D01*
X142535447Y-127611322D01*
X142535930Y-127618603D01*
X142533405Y-127628419D01*
X142527381Y-127641790D01*
X142517364Y-127659736D01*
X142502860Y-127683276D01*
X142483377Y-127713432D01*
X142458422Y-127751222D01*
X142427501Y-127797667D01*
X142409850Y-127824152D01*
X142380980Y-127867325D01*
X142357873Y-127901295D01*
X142339633Y-127927067D01*
X142325363Y-127945646D01*
X142314166Y-127958037D01*
X142305145Y-127965245D01*
X142297404Y-127968275D01*
X142290046Y-127968130D01*
X142283117Y-127966156D01*
X142275350Y-127963666D01*
X142258216Y-127958312D01*
X142234001Y-127950805D01*
X142204991Y-127941853D01*
X142194754Y-127938703D01*
X142154950Y-127926306D01*
X142112908Y-127912937D01*
X142070560Y-127899239D01*
X142029834Y-127885851D01*
X141992663Y-127873416D01*
X141960975Y-127862573D01*
X141936702Y-127853964D01*
X141921774Y-127848231D01*
X141920187Y-127847535D01*
X141917888Y-127846487D01*
X141915641Y-127845200D01*
X141913182Y-127843148D01*
X141910244Y-127839805D01*
X141906563Y-127834645D01*
X141901873Y-127827143D01*
X141895908Y-127816774D01*
X141888403Y-127803011D01*
X141879093Y-127785329D01*
X141867712Y-127763202D01*
X141853995Y-127736106D01*
X141837675Y-127703514D01*
X141818489Y-127664901D01*
X141796170Y-127619741D01*
X141770454Y-127567508D01*
X141741073Y-127507677D01*
X141707764Y-127439723D01*
X141670260Y-127363120D01*
X141628296Y-127277342D01*
X141581608Y-127181863D01*
X141529928Y-127076158D01*
X141509236Y-127033835D01*
X141486945Y-126988241D01*
X141461260Y-126935711D01*
X141434144Y-126880256D01*
X141407559Y-126825890D01*
X141383466Y-126776625D01*
X141379612Y-126768744D01*
X141356020Y-126720493D01*
X141329457Y-126666146D01*
X141301923Y-126609798D01*
X141275421Y-126555546D01*
X141251952Y-126507487D01*
X141248593Y-126500606D01*
X141226072Y-126454481D01*
X141200138Y-126401382D01*
X141172732Y-126345281D01*
X141145797Y-126290154D01*
X141121273Y-126239975D01*
X141116114Y-126229421D01*
X141075682Y-126146705D01*
X141040089Y-126073876D01*
X141008816Y-126009872D01*
X140981347Y-125953631D01*
X140957161Y-125904091D01*
X140935742Y-125860191D01*
X140916571Y-125820869D01*
X140899131Y-125785065D01*
X140882902Y-125751715D01*
X140867367Y-125719759D01*
X140866280Y-125717520D01*
X140838114Y-125659608D01*
X140806032Y-125593754D01*
X140769764Y-125519406D01*
X140729041Y-125436012D01*
X140683591Y-125343018D01*
X140633146Y-125239871D01*
X140610426Y-125193432D01*
X140589664Y-125150975D01*
X140569144Y-125108957D01*
X140549940Y-125069588D01*
X140533132Y-125035080D01*
X140519795Y-125007640D01*
X140512691Y-124992969D01*
X140486520Y-124938762D01*
X140531145Y-124758348D01*
X140542600Y-124712670D01*
X140553512Y-124670341D01*
X140563449Y-124632947D01*
X140571979Y-124602074D01*
X140578669Y-124579310D01*
X140583088Y-124566239D01*
X140584035Y-124564222D01*
X140592299Y-124550510D01*
X140791739Y-124550603D01*
G37*
D14*
X105800000Y-121800000D02*
X107200000Y-121800000D01*
X105800000Y-123200000D02*
X105800000Y-121800000D01*
X107200000Y-121800000D02*
X107200000Y-123200000D01*
X107200000Y-123200000D02*
X105800000Y-123200000D01*
X130362164Y-148580000D02*
X130577836Y-148580000D01*
X130362164Y-149300000D02*
X130577836Y-149300000D01*
X130840000Y-145390000D02*
X130840000Y-144090000D01*
X133160000Y-145390000D02*
X133160000Y-144340000D01*
X133440000Y-143980000D02*
X133160000Y-143980000D01*
X133160000Y-143700000D01*
X133440000Y-143980000D01*
G36*
X133440000Y-143980000D02*
G01*
X133160000Y-143980000D01*
X133160000Y-143700000D01*
X133440000Y-143980000D01*
G37*
X102157836Y-159340000D02*
X101942164Y-159340000D01*
X102157836Y-160060000D02*
X101942164Y-160060000D01*
D15*
X100550000Y-152800000D02*
X100550000Y-157700000D01*
X100550000Y-157700000D02*
X100700000Y-157700000D01*
X100700000Y-152800000D02*
X100550000Y-152800000D01*
X104100000Y-152800000D02*
X104250000Y-152800000D01*
X104250000Y-152800000D02*
X104250000Y-157700000D01*
X104250000Y-157700000D02*
X104100000Y-157700000D01*
X103900000Y-156950000D02*
G75*
G02*
X103700000Y-156950000I-100000J0D01*
G01*
X103700000Y-156950000D02*
G75*
G02*
X103900000Y-156950000I100000J0D01*
G01*
X100550000Y-117250000D02*
X100550000Y-122150000D01*
X100550000Y-122150000D02*
X100700000Y-122150000D01*
X100700000Y-117250000D02*
X100550000Y-117250000D01*
X104100000Y-117250000D02*
X104250000Y-117250000D01*
X104250000Y-117250000D02*
X104250000Y-122150000D01*
X104250000Y-122150000D02*
X104100000Y-122150000D01*
X103900000Y-121400000D02*
G75*
G02*
X103700000Y-121400000I-100000J0D01*
G01*
X103700000Y-121400000D02*
G75*
G02*
X103900000Y-121400000I100000J0D01*
G01*
D14*
X146390000Y-120113748D02*
X146390000Y-121536252D01*
X149110000Y-120113748D02*
X149110000Y-121536252D01*
X131103748Y-152890000D02*
X132526252Y-152890000D01*
X131103748Y-155610000D02*
X132526252Y-155610000D01*
X128240000Y-132766252D02*
X128240000Y-131343748D01*
X130960000Y-132766252D02*
X130960000Y-131343748D01*
X109336359Y-137920000D02*
X109643641Y-137920000D01*
X109336359Y-138680000D02*
X109643641Y-138680000D01*
X135850000Y-113350000D02*
X137750000Y-113350000D01*
X135850000Y-115250000D02*
X135850000Y-113350000D01*
X137750000Y-113350000D02*
X137750000Y-115250000D01*
X137750000Y-115250000D02*
X135850000Y-115250000D01*
X149450000Y-119740000D02*
X149450000Y-125550000D01*
X153750000Y-119740000D02*
X149450000Y-119740000D01*
X153750000Y-119740000D02*
X153750000Y-125550000D01*
X147850000Y-140475000D02*
X147850000Y-141725000D01*
X147850000Y-141725000D02*
X149100000Y-141725000D01*
X150400000Y-131325000D02*
X150400000Y-132075000D01*
X150400000Y-132075000D02*
X153350000Y-132075000D01*
X150400000Y-140675000D02*
X153350000Y-140675000D01*
X150400000Y-141425000D02*
X150400000Y-140675000D01*
X153350000Y-132075000D02*
X153350000Y-136375000D01*
X153350000Y-140675000D02*
X153350000Y-136375000D01*
X148140000Y-141435000D02*
X154110000Y-141435000D01*
X154110000Y-131315000D01*
X148140000Y-131315000D01*
X148140000Y-141435000D01*
X148150000Y-133125000D02*
X148900000Y-133125000D01*
X148900000Y-131325000D01*
X148150000Y-131325000D01*
X148150000Y-133125000D01*
X148150000Y-138125000D02*
X148900000Y-138125000D01*
X148900000Y-134625000D01*
X148150000Y-134625000D01*
X148150000Y-138125000D01*
X148150000Y-141425000D02*
X148900000Y-141425000D01*
X148900000Y-139625000D01*
X148150000Y-139625000D01*
X148150000Y-141425000D01*
X112020000Y-144636359D02*
X112020000Y-144943641D01*
X112780000Y-144636359D02*
X112780000Y-144943641D01*
X114650000Y-162250000D02*
X114650000Y-163500000D01*
X114950000Y-164800000D02*
X115700000Y-164800000D01*
X115700000Y-164800000D02*
X115700000Y-167750000D01*
X115700000Y-167750000D02*
X120000000Y-167750000D01*
X115900000Y-162250000D02*
X114650000Y-162250000D01*
X124300000Y-164800000D02*
X124300000Y-167750000D01*
X124300000Y-167750000D02*
X120000000Y-167750000D01*
X125050000Y-164800000D02*
X124300000Y-164800000D01*
X114940000Y-162540000D02*
X125060000Y-162540000D01*
X125060000Y-168510000D01*
X114940000Y-168510000D01*
X114940000Y-162540000D01*
X114950000Y-162550000D02*
X116750000Y-162550000D01*
X116750000Y-163300000D01*
X114950000Y-163300000D01*
X114950000Y-162550000D01*
X118250000Y-162550000D02*
X121750000Y-162550000D01*
X121750000Y-163300000D01*
X118250000Y-163300000D01*
X118250000Y-162550000D01*
X123250000Y-162550000D02*
X125050000Y-162550000D01*
X125050000Y-163300000D01*
X123250000Y-163300000D01*
X123250000Y-162550000D01*
X103990000Y-147262164D02*
X103990000Y-147477836D01*
X104710000Y-147262164D02*
X104710000Y-147477836D01*
X136992036Y-102029708D02*
X136992036Y-104849708D01*
X136992036Y-102029708D02*
X138692036Y-100729708D01*
X136992036Y-104849708D02*
X138692036Y-106149708D01*
X138692036Y-100729708D02*
X147412036Y-100729708D01*
X138692036Y-106149708D02*
X147412036Y-106149708D01*
X147412036Y-100729708D02*
X147412036Y-106149708D01*
X114650000Y-155350000D02*
X114650000Y-156600000D01*
X114950000Y-157900000D02*
X115700000Y-157900000D01*
X115700000Y-157900000D02*
X115700000Y-160850000D01*
X115700000Y-160850000D02*
X120000000Y-160850000D01*
X115900000Y-155350000D02*
X114650000Y-155350000D01*
X124300000Y-157900000D02*
X124300000Y-160850000D01*
X124300000Y-160850000D02*
X120000000Y-160850000D01*
X125050000Y-157900000D02*
X124300000Y-157900000D01*
X114940000Y-155640000D02*
X125060000Y-155640000D01*
X125060000Y-161610000D01*
X114940000Y-161610000D01*
X114940000Y-155640000D01*
X114950000Y-155650000D02*
X116750000Y-155650000D01*
X116750000Y-156400000D01*
X114950000Y-156400000D01*
X114950000Y-155650000D01*
X118250000Y-155650000D02*
X121750000Y-155650000D01*
X121750000Y-156400000D01*
X118250000Y-156400000D01*
X118250000Y-155650000D01*
X123250000Y-155650000D02*
X125050000Y-155650000D01*
X125050000Y-156400000D01*
X123250000Y-156400000D01*
X123250000Y-155650000D01*
X132857500Y-151252258D02*
X132857500Y-150777742D01*
X133902500Y-151252258D02*
X133902500Y-150777742D01*
X146440000Y-137927836D02*
X146440000Y-137712164D01*
X147160000Y-137927836D02*
X147160000Y-137712164D01*
D15*
X113200000Y-106950000D02*
X113200000Y-107750000D01*
X114450000Y-106450000D02*
X115050000Y-106450000D01*
X116300000Y-106950000D02*
X116300000Y-107750000D01*
D18*
X113050000Y-108750000D02*
G75*
G02*
X112850000Y-108750000I-100000J0D01*
G01*
X112850000Y-108750000D02*
G75*
G02*
X113050000Y-108750000I100000J0D01*
G01*
D15*
X139125000Y-132800000D02*
X139125000Y-138000000D01*
X139125000Y-132800000D02*
X141425000Y-132800000D01*
X139125000Y-138000000D02*
X140725000Y-139600000D01*
X140725000Y-139600000D02*
X141425000Y-139600000D01*
X144325000Y-139600000D02*
X143625000Y-139600000D01*
X145925000Y-132800000D02*
X143625000Y-132800000D01*
X145925000Y-132800000D02*
X145925000Y-138000000D01*
X145925000Y-138000000D02*
X144325000Y-139600000D01*
X139125000Y-143800000D02*
X139125000Y-149000000D01*
X139125000Y-143800000D02*
X141425000Y-143800000D01*
X139125000Y-149000000D02*
X140725000Y-150600000D01*
X140725000Y-150600000D02*
X141425000Y-150600000D01*
X144325000Y-150600000D02*
X143625000Y-150600000D01*
X145925000Y-143800000D02*
X143625000Y-143800000D01*
X145925000Y-143800000D02*
X145925000Y-149000000D01*
X145925000Y-149000000D02*
X144325000Y-150600000D01*
D14*
X147850000Y-117000000D02*
X147850000Y-118250000D01*
X147850000Y-118250000D02*
X149100000Y-118250000D01*
X150400000Y-110350000D02*
X150400000Y-111100000D01*
X150400000Y-111100000D02*
X153350000Y-111100000D01*
X150400000Y-117200000D02*
X153350000Y-117200000D01*
X150400000Y-117950000D02*
X150400000Y-117200000D01*
X153350000Y-111100000D02*
X153350000Y-114150000D01*
X153350000Y-117200000D02*
X153350000Y-114150000D01*
X148140000Y-117960000D02*
X154110000Y-117960000D01*
X154110000Y-110340000D01*
X148140000Y-110340000D01*
X148140000Y-117960000D01*
X148150000Y-112150000D02*
X148900000Y-112150000D01*
X148900000Y-110350000D01*
X148150000Y-110350000D01*
X148150000Y-112150000D01*
X148150000Y-114650000D02*
X148900000Y-114650000D01*
X148900000Y-113650000D01*
X148150000Y-113650000D01*
X148150000Y-114650000D01*
X148150000Y-117950000D02*
X148900000Y-117950000D01*
X148900000Y-116150000D01*
X148150000Y-116150000D01*
X148150000Y-117950000D01*
X100760000Y-125710000D02*
X102035000Y-125710000D01*
X102035000Y-125645000D02*
X102035000Y-125710000D01*
X102035000Y-125645000D02*
X105665000Y-125645000D01*
X102035000Y-134690000D02*
X102035000Y-134755000D01*
X102035000Y-134755000D02*
X105665000Y-134755000D01*
X105665000Y-125645000D02*
X105665000Y-125710000D01*
X105665000Y-134690000D02*
X105665000Y-134755000D01*
X102157836Y-123590000D02*
X101942164Y-123590000D01*
X102157836Y-124310000D02*
X101942164Y-124310000D01*
X136290000Y-157150000D02*
X136290000Y-160450000D01*
X136290000Y-157150000D02*
X141800000Y-157150000D01*
X136290000Y-160450000D02*
X141800000Y-160450000D01*
X125950000Y-162250000D02*
X125950000Y-163500000D01*
X126250000Y-164800000D02*
X127000000Y-164800000D01*
X127000000Y-164800000D02*
X127000000Y-167750000D01*
X127000000Y-167750000D02*
X131300000Y-167750000D01*
X127200000Y-162250000D02*
X125950000Y-162250000D01*
X135600000Y-164800000D02*
X135600000Y-167750000D01*
X135600000Y-167750000D02*
X131300000Y-167750000D01*
X136350000Y-164800000D02*
X135600000Y-164800000D01*
X126240000Y-162540000D02*
X136360000Y-162540000D01*
X136360000Y-168510000D01*
X126240000Y-168510000D01*
X126240000Y-162540000D01*
X126250000Y-162550000D02*
X128050000Y-162550000D01*
X128050000Y-163300000D01*
X126250000Y-163300000D01*
X126250000Y-162550000D01*
X129550000Y-162550000D02*
X133050000Y-162550000D01*
X133050000Y-163300000D01*
X129550000Y-163300000D01*
X129550000Y-162550000D01*
X134550000Y-162550000D02*
X136350000Y-162550000D01*
X136350000Y-163300000D01*
X134550000Y-163300000D01*
X134550000Y-162550000D01*
D16*
X134992500Y-116501250D02*
X134992500Y-122251250D01*
X140142500Y-122251250D02*
X140142500Y-116501250D01*
D15*
X135667500Y-123126250D02*
G75*
G02*
X135467500Y-123126250I-100000J0D01*
G01*
X135467500Y-123126250D02*
G75*
G02*
X135667500Y-123126250I100000J0D01*
G01*
D14*
X145477500Y-127762742D02*
X145477500Y-128237258D01*
X146522500Y-127762742D02*
X146522500Y-128237258D01*
X131282258Y-149697500D02*
X130807742Y-149697500D01*
X131282258Y-150742500D02*
X130807742Y-150742500D01*
X105240000Y-140765000D02*
X105240000Y-142235000D01*
X105240000Y-142235000D02*
X107700000Y-142235000D01*
X107700000Y-140765000D02*
X105240000Y-140765000D01*
X131175580Y-147140000D02*
X130894420Y-147140000D01*
X131175580Y-148160000D02*
X130894420Y-148160000D01*
X121450000Y-130350000D02*
X123350000Y-130350000D01*
X121450000Y-132250000D02*
X121450000Y-130350000D01*
X123350000Y-130350000D02*
X123350000Y-132250000D01*
X123350000Y-132250000D02*
X121450000Y-132250000D01*
X137150000Y-162250000D02*
X137150000Y-163500000D01*
X137450000Y-164800000D02*
X138200000Y-164800000D01*
X138200000Y-164800000D02*
X138200000Y-167750000D01*
X138200000Y-167750000D02*
X142500000Y-167750000D01*
X138400000Y-162250000D02*
X137150000Y-162250000D01*
X146800000Y-164800000D02*
X146800000Y-167750000D01*
X146800000Y-167750000D02*
X142500000Y-167750000D01*
X147550000Y-164800000D02*
X146800000Y-164800000D01*
X137440000Y-162540000D02*
X147560000Y-162540000D01*
X147560000Y-168510000D01*
X137440000Y-168510000D01*
X137440000Y-162540000D01*
X137450000Y-162550000D02*
X139250000Y-162550000D01*
X139250000Y-163300000D01*
X137450000Y-163300000D01*
X137450000Y-162550000D01*
X140750000Y-162550000D02*
X144250000Y-162550000D01*
X144250000Y-163300000D01*
X140750000Y-163300000D01*
X140750000Y-162550000D01*
X145750000Y-162550000D02*
X147550000Y-162550000D01*
X147550000Y-163300000D01*
X145750000Y-163300000D01*
X145750000Y-162550000D01*
X131656252Y-140470000D02*
X130233748Y-140470000D01*
X131656252Y-142290000D02*
X130233748Y-142290000D01*
X131103748Y-156180000D02*
X132526252Y-156180000D01*
X131103748Y-158900000D02*
X132526252Y-158900000D01*
D15*
X114760000Y-135800000D02*
X114760000Y-144000000D01*
X114760000Y-144000000D02*
X126560000Y-144000000D01*
X126560000Y-135800000D02*
X114760000Y-135800000D01*
X126560000Y-144000000D02*
X126560000Y-135800000D01*
D19*
X125860000Y-134900000D02*
G75*
G02*
X125460000Y-134900000I-200000J0D01*
G01*
X125460000Y-134900000D02*
G75*
G02*
X125860000Y-134900000I200000J0D01*
G01*
D14*
X107718408Y-166357318D02*
X107718408Y-167607318D01*
X107718408Y-167607318D02*
X108968408Y-167607318D01*
X110268408Y-157207318D02*
X110268408Y-157957318D01*
X110268408Y-157957318D02*
X113218408Y-157957318D01*
X110268408Y-166557318D02*
X113218408Y-166557318D01*
X110268408Y-167307318D02*
X110268408Y-166557318D01*
X113218408Y-157957318D02*
X113218408Y-162257318D01*
X113218408Y-166557318D02*
X113218408Y-162257318D01*
X108008408Y-167317318D02*
X113978408Y-167317318D01*
X113978408Y-157197318D01*
X108008408Y-157197318D01*
X108008408Y-167317318D01*
X108018408Y-159007318D02*
X108768408Y-159007318D01*
X108768408Y-157207318D01*
X108018408Y-157207318D01*
X108018408Y-159007318D01*
X108018408Y-164007318D02*
X108768408Y-164007318D01*
X108768408Y-160507318D01*
X108018408Y-160507318D01*
X108018408Y-164007318D01*
X108018408Y-167307318D02*
X108768408Y-167307318D01*
X108768408Y-165507318D01*
X108018408Y-165507318D01*
X108018408Y-167307318D01*
X105215000Y-137495000D02*
X105215000Y-138965000D01*
X105215000Y-138965000D02*
X107675000Y-138965000D01*
X107675000Y-137495000D02*
X105215000Y-137495000D01*
X116750000Y-100450000D02*
X116750000Y-101700000D01*
X117050000Y-103000000D02*
X117800000Y-103000000D01*
X117800000Y-103000000D02*
X117800000Y-105950000D01*
X117800000Y-105950000D02*
X125850000Y-105950000D01*
X118000000Y-100450000D02*
X116750000Y-100450000D01*
X133900000Y-103000000D02*
X133900000Y-105950000D01*
X133900000Y-105950000D02*
X125850000Y-105950000D01*
X134650000Y-103000000D02*
X133900000Y-103000000D01*
X117040000Y-100740000D02*
X134660000Y-100740000D01*
X134660000Y-106710000D01*
X117040000Y-106710000D01*
X117040000Y-100740000D01*
X117050000Y-100750000D02*
X118850000Y-100750000D01*
X118850000Y-101500000D01*
X117050000Y-101500000D01*
X117050000Y-100750000D01*
X120350000Y-100750000D02*
X131350000Y-100750000D01*
X131350000Y-101500000D01*
X120350000Y-101500000D01*
X120350000Y-100750000D01*
X132850000Y-100750000D02*
X134650000Y-100750000D01*
X134650000Y-101500000D01*
X132850000Y-101500000D01*
X132850000Y-100750000D01*
%LPC*%
D20*
X141520000Y-115475000D02*
X141902500Y-115475000D01*
X141902500Y-114820000D01*
X142777500Y-114820000D01*
X142777500Y-115475000D01*
X143222500Y-115475000D01*
X143222500Y-114820000D01*
X144097500Y-114820000D01*
X144097500Y-115475000D01*
X144480000Y-115475000D01*
X144480000Y-114820000D01*
X145355000Y-114820000D01*
X145355000Y-119970000D01*
X140645000Y-119970000D01*
X140645000Y-114820000D01*
X141520000Y-114820000D01*
X141520000Y-115475000D01*
G36*
X141520000Y-115475000D02*
G01*
X141902500Y-115475000D01*
X141902500Y-114820000D01*
X142777500Y-114820000D01*
X142777500Y-115475000D01*
X143222500Y-115475000D01*
X143222500Y-114820000D01*
X144097500Y-114820000D01*
X144097500Y-115475000D01*
X144480000Y-115475000D01*
X144480000Y-114820000D01*
X145355000Y-114820000D01*
X145355000Y-119970000D01*
X140645000Y-119970000D01*
X140645000Y-114820000D01*
X141520000Y-114820000D01*
X141520000Y-115475000D01*
G37*
X136087500Y-116803750D02*
X136470000Y-116803750D01*
X136470000Y-116148750D01*
X137345000Y-116148750D01*
X137345000Y-116803750D01*
X137790000Y-116803750D01*
X137790000Y-116148750D01*
X138665000Y-116148750D01*
X138665000Y-116803750D01*
X139047500Y-116803750D01*
X139047500Y-116148750D01*
X139922500Y-116148750D01*
X139922500Y-121298750D01*
X135212500Y-121298750D01*
X135212500Y-116148750D01*
X136087500Y-116148750D01*
X136087500Y-116803750D01*
G36*
X136087500Y-116803750D02*
G01*
X136470000Y-116803750D01*
X136470000Y-116148750D01*
X137345000Y-116148750D01*
X137345000Y-116803750D01*
X137790000Y-116803750D01*
X137790000Y-116148750D01*
X138665000Y-116148750D01*
X138665000Y-116803750D01*
X139047500Y-116803750D01*
X139047500Y-116148750D01*
X139922500Y-116148750D01*
X139922500Y-121298750D01*
X135212500Y-121298750D01*
X135212500Y-116148750D01*
X136087500Y-116148750D01*
X136087500Y-116803750D01*
G37*
D21*
X128050000Y-117900000D03*
X128050000Y-127800000D03*
D22*
X119600000Y-110000000D03*
D23*
X122100000Y-110000000D03*
X124600000Y-110000000D03*
X127100000Y-110000000D03*
X129600000Y-110000000D03*
X132100000Y-110000000D03*
D24*
X104000000Y-104000000D03*
D25*
X136600000Y-145800000D03*
D26*
X151400000Y-157200000D03*
D23*
X148900000Y-157200000D03*
X146400000Y-157200000D03*
D27*
X133960000Y-140920000D03*
X135510000Y-140920000D03*
D28*
X126360000Y-133535000D03*
X126360000Y-130585000D03*
D29*
X145175000Y-142400000D03*
X146825000Y-142400000D03*
D30*
X109020000Y-141505000D03*
X110040000Y-141505000D03*
D25*
X109370000Y-111570000D03*
D31*
X145000000Y-110540000D03*
X139400000Y-110540000D03*
D32*
X113562500Y-127550000D03*
X113562500Y-128050000D03*
X113562500Y-128550000D03*
X113562500Y-129050000D03*
X113562500Y-129550000D03*
X113562500Y-130050000D03*
X113562500Y-130550000D03*
X113562500Y-131050000D03*
X113562500Y-131550000D03*
X113562500Y-132050000D03*
X113562500Y-132550000D03*
X113562500Y-133050000D03*
D33*
X114250000Y-133737500D03*
X114750000Y-133737500D03*
X115250000Y-133737500D03*
X115750000Y-133737500D03*
X116250000Y-133737500D03*
X116750000Y-133737500D03*
X117250000Y-133737500D03*
X117750000Y-133737500D03*
X118250000Y-133737500D03*
X118750000Y-133737500D03*
X119250000Y-133737500D03*
X119750000Y-133737500D03*
D32*
X120437500Y-133050000D03*
X120437500Y-132550000D03*
X120437500Y-132050000D03*
X120437500Y-131550000D03*
X120437500Y-131050000D03*
X120437500Y-130550000D03*
X120437500Y-130050000D03*
X120437500Y-129550000D03*
X120437500Y-129050000D03*
X120437500Y-128550000D03*
X120437500Y-128050000D03*
X120437500Y-127550000D03*
D33*
X119750000Y-126862500D03*
X119250000Y-126862500D03*
X118750000Y-126862500D03*
X118250000Y-126862500D03*
X117750000Y-126862500D03*
X117250000Y-126862500D03*
X116750000Y-126862500D03*
X116250000Y-126862500D03*
X115750000Y-126862500D03*
X115250000Y-126862500D03*
X114750000Y-126862500D03*
X114250000Y-126862500D03*
D34*
X117000000Y-130300000D03*
D35*
X141082500Y-120800000D03*
X142340000Y-120800000D03*
X143660000Y-120800000D03*
X144917500Y-120800000D03*
D25*
X109600000Y-154300000D03*
D36*
X146900000Y-149660000D03*
X146900000Y-148700000D03*
D37*
X105950000Y-145450000D03*
X105950000Y-148750000D03*
X110850000Y-148750000D03*
X110850000Y-145450000D03*
D38*
X150600000Y-150200000D03*
D39*
X150600000Y-147700000D03*
X150600000Y-145200000D03*
D40*
X125200000Y-146330000D03*
X125200000Y-152530000D03*
D41*
X106500000Y-122500000D03*
D42*
X129990000Y-148940000D03*
X130950000Y-148940000D03*
D43*
X132750000Y-144000000D03*
X132250000Y-144000000D03*
X131750000Y-144000000D03*
X131250000Y-144000000D03*
X131250000Y-145480000D03*
X131750000Y-145480000D03*
X132250000Y-145480000D03*
X132750000Y-145480000D03*
D24*
X104000000Y-166000000D03*
D44*
X102530000Y-159700000D03*
X101570000Y-159700000D03*
D45*
X103775000Y-155250000D03*
X101025000Y-155250000D03*
D46*
X103250000Y-158050000D03*
X101550000Y-158050000D03*
X103250000Y-152450000D03*
X101550000Y-152450000D03*
D45*
X103775000Y-119700000D03*
X101025000Y-119700000D03*
D46*
X103250000Y-122500000D03*
X101550000Y-122500000D03*
X103250000Y-116900000D03*
X101550000Y-116900000D03*
D24*
X151000000Y-104000000D03*
D47*
X147750000Y-119350000D03*
X147750000Y-122300000D03*
D48*
X130340000Y-154250000D03*
X133290000Y-154250000D03*
D28*
X129600000Y-133530000D03*
X129600000Y-130580000D03*
D30*
X108980000Y-138300000D03*
X110000000Y-138300000D03*
D24*
X151000000Y-166000000D03*
D25*
X136800000Y-114300000D03*
D49*
X151600000Y-121250000D03*
X151600000Y-125550000D03*
D38*
X150600000Y-138875000D03*
D39*
X150600000Y-136375000D03*
X150600000Y-133875000D03*
D50*
X112400000Y-144280000D03*
X112400000Y-145300000D03*
D22*
X117500000Y-165000000D03*
D23*
X120000000Y-165000000D03*
X122500000Y-165000000D03*
D51*
X104350000Y-146890000D03*
X104350000Y-147850000D03*
D52*
X139702036Y-103439708D03*
D53*
X144702036Y-103439708D03*
D22*
X117500000Y-158100000D03*
D23*
X120000000Y-158100000D03*
X122500000Y-158100000D03*
D54*
X133380000Y-151840000D03*
X133380000Y-150190000D03*
D36*
X146800000Y-138300000D03*
X146800000Y-137340000D03*
D55*
X113800000Y-108600000D03*
X114750000Y-108600000D03*
X115700000Y-108600000D03*
X115700000Y-106100000D03*
X113800000Y-106100000D03*
D56*
X142525000Y-139000000D03*
X142525000Y-133400000D03*
X142525000Y-150000000D03*
X142525000Y-144400000D03*
D57*
X150600000Y-115400000D03*
D58*
X150600000Y-112900000D03*
D59*
X101900000Y-126390000D03*
X105800000Y-126390000D03*
X101900000Y-127660000D03*
X105800000Y-127660000D03*
X101900000Y-128930000D03*
X105800000Y-128930000D03*
X101900000Y-130200000D03*
X105800000Y-130200000D03*
X101900000Y-131470000D03*
X105800000Y-131470000D03*
X101900000Y-132740000D03*
X105800000Y-132740000D03*
X101900000Y-134010000D03*
X105800000Y-134010000D03*
D44*
X102530000Y-123950000D03*
X101570000Y-123950000D03*
D60*
X137800000Y-158800000D03*
X141800000Y-158800000D03*
D22*
X128800000Y-165000000D03*
D23*
X131300000Y-165000000D03*
X133800000Y-165000000D03*
D35*
X135650000Y-122128750D03*
X136907500Y-122128750D03*
X138227500Y-122128750D03*
X139485000Y-122128750D03*
D61*
X146000000Y-127175000D03*
X146000000Y-128825000D03*
D62*
X131870000Y-150220000D03*
X130220000Y-150220000D03*
D63*
X106025000Y-141500000D03*
X107775000Y-141500000D03*
D64*
X131810000Y-147650000D03*
X130260000Y-147650000D03*
D25*
X122400000Y-131300000D03*
D22*
X140000000Y-165000000D03*
D23*
X142500000Y-165000000D03*
X145000000Y-165000000D03*
D65*
X132420000Y-141380000D03*
X129470000Y-141380000D03*
D48*
X130340000Y-157540000D03*
X133290000Y-157540000D03*
D66*
X123200000Y-138200000D03*
X120660000Y-138200000D03*
X118120000Y-138200000D03*
D38*
X110468408Y-164757318D03*
D39*
X110468408Y-162257318D03*
X110468408Y-159757318D03*
D63*
X106000000Y-138230000D03*
X107750000Y-138230000D03*
D22*
X119600000Y-103200000D03*
D23*
X122100000Y-103200000D03*
X124600000Y-103200000D03*
X127100000Y-103200000D03*
X129600000Y-103200000D03*
X132100000Y-103200000D03*
%LPD*%
M02*
