M48
; DRILL file {KiCad 9.0.7-1.fc43} date 2026-03-03T23:18:43+0100
; FORMAT={-:-/ absolute / metric / decimal}
; #@! TF.CreationDate,2026-03-03T23:18:43+01:00
; #@! TF.GenerationSoftware,Kicad,Pcbnew,9.0.7-1.fc43
; #@! TF.FileFunction,Plated,1,4,PTH
FMAT,2
METRIC
; #@! TA.AperFunction,Plated,PTH,ViaDrill
T1C0.300
; #@! TA.AperFunction,Plated,PTH,ViaDrill
T2C0.500
; #@! TA.AperFunction,Plated,PTH,ComponentDrill
T3C0.950
; #@! TA.AperFunction,Plated,PTH,ComponentDrill
T4C1.000
; #@! TA.AperFunction,Plated,PTH,ComponentDrill
T5C2.700
%
G90
G05
T1
X102.5Y-142.507
X102.5Y-150.076
X102.5Y-162.546
X102.5Y-107.5
X102.5Y-110.0
X102.5Y-112.5
X102.5Y-137.5
X102.5Y-140.0
X102.5Y-145.0
X102.5Y-147.5
X103.75Y-127.6
X103.9Y-125.7
X103.9Y-130.2
X103.9Y-132.8
X104.8Y-157.6
X105.0Y-107.5
X105.0Y-110.0
X105.0Y-112.5
X105.0Y-162.5
X106.03Y-136.3
X106.03Y-143.61
X107.424Y-129.796
X107.5Y-102.5
X107.5Y-105.0
X107.5Y-110.0
X107.5Y-112.5
X107.5Y-162.5
X107.5Y-152.454
X107.5Y-154.954
X107.5Y-157.454
X107.5Y-159.954
X108.1Y-122.55
X108.15Y-132.65
X109.67Y-134.83
X109.75Y-139.95
X110.0Y-102.5
X110.0Y-105.0
X110.0Y-107.5
X110.0Y-110.0
X110.0Y-115.0
X110.62Y-128.89
X110.8Y-112.5
X110.95Y-131.075
X110.95Y-138.3
X111.5Y-154.3
X112.25Y-128.91
X112.26Y-134.82
X112.5Y-102.5
X112.5Y-105.0
X112.5Y-110.0
X112.5Y-112.5
X112.5Y-115.0
X112.55Y-140.65
X112.6Y-106.1
X112.6Y-127.55
X113.17Y-146.94
X113.17Y-150.84
X113.5Y-144.35
X113.69Y-126.862
X114.48Y-123.947
X114.5Y-123.298
X114.725Y-125.911
X114.9Y-129.6
X114.9Y-131.0
X114.9Y-132.4
X115.0Y-102.5
X115.0Y-110.0
X115.0Y-112.5
X115.7Y-107.4
X116.3Y-128.2
X116.3Y-129.6
X116.3Y-131.0
X116.3Y-132.4
X117.2Y-106.35
X117.496Y-145.008
X117.5Y-142.5
X117.5Y-147.5
X117.5Y-152.5
X117.5Y-155.0
X117.58Y-135.34
X117.7Y-128.2
X117.7Y-129.6
X117.7Y-131.0
X117.7Y-132.4
X118.15Y-111.7
X118.181Y-135.168
X119.1Y-128.2
X119.1Y-129.6
X119.1Y-131.0
X119.1Y-132.4
X119.25Y-141.3
X119.25Y-154.5
X119.25Y-156.0
X119.75Y-123.9
X119.9Y-134.7
X120.0Y-142.5
X120.0Y-145.0
X120.0Y-147.5
X120.4Y-123.3
X120.5Y-116.0
X120.5Y-118.0
X120.5Y-120.0
X120.5Y-122.0
X120.66Y-139.9
X121.1Y-135.15
X121.2Y-127.05
X121.5Y-132.1
X121.8Y-133.1
X122.5Y-115.0
X122.5Y-150.0
X123.7Y-133.7
X124.2Y-130.2
X124.5Y-128.7
X124.6Y-107.35
X125.0Y-115.0
X125.0Y-142.5
X125.0Y-150.0
X125.0Y-160.0
X125.0Y-162.5
X125.0Y-165.0
X125.0Y-167.5
X125.3Y-123.25
X125.4Y-154.3
X125.8Y-111.6
X125.85Y-105.35
X126.35Y-134.91
X126.9Y-154.3
X126.9Y-155.8
X127.1Y-106.35
X127.5Y-137.5
X127.5Y-139.8
X127.5Y-142.5
X127.5Y-150.0
X127.5Y-167.5
X127.95Y-123.2
X128.0Y-134.89
X128.4Y-111.6
X128.4Y-154.3
X128.4Y-155.8
X128.4Y-157.3
X129.6Y-134.86
X129.7Y-105.3
X130.0Y-137.5
X130.1Y-139.7
X130.55Y-123.2
X131.0Y-115.0
X131.8Y-136.9
X131.8Y-138.5
X131.8Y-142.8
X131.9Y-129.2
X132.0Y-133.5
X132.0Y-134.7
X132.9Y-130.7
X132.95Y-105.3
X133.5Y-115.0
X133.8Y-136.9
X133.8Y-138.5
X133.9Y-133.5
X133.9Y-134.7
X134.8Y-127.9
X134.8Y-130.4
X134.95Y-146.2
X135.0Y-107.5
X135.0Y-110.0
X135.0Y-112.5
X135.0Y-123.0
X135.0Y-124.0
X135.0Y-125.0
X135.0Y-150.0
X135.0Y-152.5
X135.0Y-155.0
X135.0Y-157.5
X135.0Y-162.5
X135.0Y-167.5
X136.0Y-102.0
X136.0Y-104.0
X136.0Y-106.0
X136.3Y-127.9
X136.3Y-130.4
X136.55Y-134.2
X136.55Y-137.4
X136.6Y-144.0
X137.5Y-150.0
X137.5Y-152.5
X137.5Y-155.0
X137.5Y-157.5
X137.5Y-165.0
X137.5Y-167.5
X137.567Y-119.376
X138.0Y-123.0
X139.0Y-123.0
X139.8Y-125.2
X140.0Y-152.5
X140.0Y-167.5
X140.562Y-121.762
X140.6Y-129.95
X140.6Y-130.8
X142.2Y-123.2
X142.2Y-124.2
X142.45Y-126.75
X142.5Y-152.5
X143.2Y-123.2
X143.2Y-124.2
X144.2Y-123.2
X144.2Y-124.2
X144.48Y-121.536
X144.575Y-143.0
X144.85Y-131.1
X145.0Y-152.5
X145.0Y-155.0
X145.0Y-162.5
X145.0Y-167.5
X145.429Y-122.129
X146.1Y-125.9
X146.1Y-142.4
X146.35Y-123.7
X147.5Y-155.0
X147.5Y-162.5
X147.5Y-165.0
X147.5Y-167.5
X148.2Y-127.15
X148.65Y-121.15
X148.75Y-124.25
X149.5Y-124.25
X149.5Y-127.15
X149.75Y-154.5
X150.1Y-122.85
X150.55Y-152.95
X152.5Y-127.5
X152.5Y-130.0
X153.55Y-151.95
X153.55Y-154.8
X153.55Y-156.8
X153.55Y-158.8
T2
X141.8Y-156.2
T3
X110.468Y-159.757
X110.468Y-162.257
X110.468Y-164.757
X117.5Y-158.1
X117.5Y-165.0
X119.6Y-103.2
X119.6Y-110.0
X120.0Y-158.1
X120.0Y-165.0
X122.1Y-103.2
X122.1Y-110.0
X122.5Y-158.1
X122.5Y-165.0
X124.6Y-103.2
X124.6Y-110.0
X127.1Y-103.2
X127.1Y-110.0
X128.8Y-165.0
X129.6Y-103.2
X129.6Y-110.0
X131.3Y-165.0
X132.1Y-103.2
X132.1Y-110.0
X133.8Y-165.0
X140.0Y-165.0
X142.5Y-165.0
X145.0Y-165.0
X146.4Y-157.2
X148.9Y-157.2
X150.6Y-133.875
X150.6Y-136.375
X150.6Y-138.875
X150.6Y-145.2
X150.6Y-147.7
X150.6Y-150.2
X151.4Y-157.2
T4
X118.12Y-138.2
X120.66Y-138.2
X123.2Y-138.2
X150.6Y-112.9
X150.6Y-115.4
T5
X104.0Y-104.0
X104.0Y-166.0
X139.702Y-103.44
X144.702Y-103.44
X151.0Y-104.0
X151.0Y-166.0
M30
